<?xml version="1.0" encoding="utf-8" standalone="no"?>
<!DOCTYPE svg PUBLIC "-//W3C//DTD SVG 1.1//EN"
  "http://www.w3.org/Graphics/SVG/1.1/DTD/svg11.dtd">
<svg xmlns:xlink="http://www.w3.org/1999/xlink" width="643.47125pt" height="235.268492pt" viewBox="0 0 643.47125 235.268492" xmlns="http://www.w3.org/2000/svg" version="1.1">
 <metadata>
  <rdf:RDF xmlns:dc="http://purl.org/dc/elements/1.1/" xmlns:cc="http://creativecommons.org/ns#" xmlns:rdf="http://www.w3.org/1999/02/22-rdf-syntax-ns#">
   <cc:Work>
    <dc:type rdf:resource="http://purl.org/dc/dcmitype/StillImage"/>
    <dc:date>2024-02-26T14:59:04.907705</dc:date>
    <dc:format>image/svg+xml</dc:format>
    <dc:creator>
     <cc:Agent>
      <dc:title>Matplotlib v3.8.3, https://matplotlib.org/</dc:title>
     </cc:Agent>
    </dc:creator>
   </cc:Work>
  </rdf:RDF>
 </metadata>
 <defs>
  <style type="text/css">*{stroke-linejoin: round; stroke-linecap: butt}</style>
 </defs>
 <g id="figure_1">
  <g id="patch_1">
   <path d="M 0 235.268492 
L 643.47125 235.268492 
L 643.47125 0 
L 0 0 
z
" style="fill: #ffffff"/>
  </g>
  <g id="axes_1">
   <g id="patch_2">
    <path d="M 43.78125 180.56 
L 211.47125 180.56 
L 211.47125 7.2 
L 43.78125 7.2 
z
" style="fill: #ffffff"/>
   </g>
   <g id="patch_3">
    <path d="M 52.16575 180.56 
L 57.755417 180.56 
L 57.755417 179.884622 
L 52.16575 179.884622 
z
" clip-path="url(#p8bb4d1e15d)" style="fill: #92c6ff"/>
   </g>
   <g id="patch_4">
    <path d="M 85.70375 180.56 
L 91.293417 180.56 
L 91.293417 180.103179 
L 85.70375 180.103179 
z
" clip-path="url(#p8bb4d1e15d)" style="fill: #92c6ff"/>
   </g>
   <g id="patch_5">
    <path d="M 119.24175 180.56 
L 124.831417 180.56 
L 124.831417 180.042947 
L 119.24175 180.042947 
z
" clip-path="url(#p8bb4d1e15d)" style="fill: #92c6ff"/>
   </g>
   <g id="patch_6">
    <path d="M 152.77975 180.56 
L 158.369417 180.56 
L 158.369417 179.540711 
L 152.77975 179.540711 
z
" clip-path="url(#p8bb4d1e15d)" style="fill: #92c6ff"/>
   </g>
   <g id="patch_7">
    <path d="M 186.31775 180.56 
L 191.907417 180.56 
L 191.907417 174.510862 
L 186.31775 174.510862 
z
" clip-path="url(#p8bb4d1e15d)" style="fill: #92c6ff"/>
   </g>
   <g id="patch_8">
    <path d="M 57.755417 180.56 
L 63.345083 180.56 
L 63.345083 180.475201 
L 57.755417 180.475201 
z
" clip-path="url(#p8bb4d1e15d)" style="fill: #97f0aa"/>
   </g>
   <g id="patch_9">
    <path d="M 91.293417 180.56 
L 96.883083 180.56 
L 96.883083 180.398879 
L 91.293417 180.398879 
z
" clip-path="url(#p8bb4d1e15d)" style="fill: #97f0aa"/>
   </g>
   <g id="patch_10">
    <path d="M 124.831417 180.56 
L 130.421083 180.56 
L 130.421083 179.969282 
L 124.831417 179.969282 
z
" clip-path="url(#p8bb4d1e15d)" style="fill: #97f0aa"/>
   </g>
   <g id="patch_11">
    <path d="M 158.369417 180.56 
L 163.959083 180.56 
L 163.959083 175.968849 
L 158.369417 175.968849 
z
" clip-path="url(#p8bb4d1e15d)" style="fill: #97f0aa"/>
   </g>
   <g id="patch_12">
    <path d="M 191.907417 180.56 
L 197.497083 180.56 
L 197.497083 133.02216 
L 191.907417 133.02216 
z
" clip-path="url(#p8bb4d1e15d)" style="fill: #97f0aa"/>
   </g>
   <g id="patch_13">
    <path d="M 63.345083 180.56 
L 68.93475 180.56 
L 68.93475 177.579769 
L 63.345083 177.579769 
z
" clip-path="url(#p8bb4d1e15d)" style="fill: #ff9f9a"/>
   </g>
   <g id="patch_14">
    <path d="M 96.883083 180.56 
L 102.47275 180.56 
L 102.47275 177.336305 
L 96.883083 177.336305 
z
" clip-path="url(#p8bb4d1e15d)" style="fill: #ff9f9a"/>
   </g>
   <g id="patch_15">
    <path d="M 130.421083 180.56 
L 136.01075 180.56 
L 136.01075 177.019086 
L 130.421083 177.019086 
z
" clip-path="url(#p8bb4d1e15d)" style="fill: #ff9f9a"/>
   </g>
   <g id="patch_16">
    <path d="M 163.959083 180.56 
L 169.54875 180.56 
L 169.54875 164.233569 
L 163.959083 164.233569 
z
" clip-path="url(#p8bb4d1e15d)" style="fill: #ff9f9a"/>
   </g>
   <g id="patch_17">
    <path d="M 197.497083 180.56 
L 203.08675 180.56 
L 203.08675 21.38355 
L 197.497083 21.38355 
z
" clip-path="url(#p8bb4d1e15d)" style="fill: #ff9f9a"/>
   </g>
   <g id="matplotlib.axis_1">
    <g id="xtick_1">
     <g id="line2d_1">
      <defs>
       <path id="m57717cf6cd" d="M 0 0 
L 0 3.5 
" style="stroke: #000000; stroke-width: 0.8"/>
      </defs>
      <g>
       <use xlink:href="#m57717cf6cd" x="60.55025" y="180.56" style="stroke: #000000; stroke-width: 0.8"/>
      </g>
     </g>
     <g id="text_1">
      <!-- 1 -->
      <g transform="translate(57.369 195.158437) scale(0.1 -0.1)">
       <defs>
        <path id="DejaVuSans-31" d="M 794 531 
L 1825 531 
L 1825 4091 
L 703 3866 
L 703 4441 
L 1819 4666 
L 2450 4666 
L 2450 531 
L 3481 531 
L 3481 0 
L 794 0 
L 794 531 
z
" transform="scale(0.015625)"/>
       </defs>
       <use xlink:href="#DejaVuSans-31"/>
      </g>
     </g>
    </g>
    <g id="xtick_2">
     <g id="line2d_2">
      <g>
       <use xlink:href="#m57717cf6cd" x="94.08825" y="180.56" style="stroke: #000000; stroke-width: 0.8"/>
      </g>
     </g>
     <g id="text_2">
      <!-- 10 -->
      <g transform="translate(87.72575 195.158437) scale(0.1 -0.1)">
       <defs>
        <path id="DejaVuSans-30" d="M 2034 4250 
Q 1547 4250 1301 3770 
Q 1056 3291 1056 2328 
Q 1056 1369 1301 889 
Q 1547 409 2034 409 
Q 2525 409 2770 889 
Q 3016 1369 3016 2328 
Q 3016 3291 2770 3770 
Q 2525 4250 2034 4250 
z
M 2034 4750 
Q 2819 4750 3233 4129 
Q 3647 3509 3647 2328 
Q 3647 1150 3233 529 
Q 2819 -91 2034 -91 
Q 1250 -91 836 529 
Q 422 1150 422 2328 
Q 422 3509 836 4129 
Q 1250 4750 2034 4750 
z
" transform="scale(0.015625)"/>
       </defs>
       <use xlink:href="#DejaVuSans-31"/>
       <use xlink:href="#DejaVuSans-30" x="63.623047"/>
      </g>
     </g>
    </g>
    <g id="xtick_3">
     <g id="line2d_3">
      <g>
       <use xlink:href="#m57717cf6cd" x="127.62625" y="180.56" style="stroke: #000000; stroke-width: 0.8"/>
      </g>
     </g>
     <g id="text_3">
      <!-- 100 -->
      <g transform="translate(118.0825 195.158437) scale(0.1 -0.1)">
       <use xlink:href="#DejaVuSans-31"/>
       <use xlink:href="#DejaVuSans-30" x="63.623047"/>
       <use xlink:href="#DejaVuSans-30" x="127.246094"/>
      </g>
     </g>
    </g>
    <g id="xtick_4">
     <g id="line2d_4">
      <g>
       <use xlink:href="#m57717cf6cd" x="161.16425" y="180.56" style="stroke: #000000; stroke-width: 0.8"/>
      </g>
     </g>
     <g id="text_4">
      <!-- 1000 -->
      <g transform="translate(148.43925 195.158437) scale(0.1 -0.1)">
       <use xlink:href="#DejaVuSans-31"/>
       <use xlink:href="#DejaVuSans-30" x="63.623047"/>
       <use xlink:href="#DejaVuSans-30" x="127.246094"/>
       <use xlink:href="#DejaVuSans-30" x="190.869141"/>
      </g>
     </g>
    </g>
    <g id="xtick_5">
     <g id="line2d_5">
      <g>
       <use xlink:href="#m57717cf6cd" x="194.70225" y="180.56" style="stroke: #000000; stroke-width: 0.8"/>
      </g>
     </g>
     <g id="text_5">
      <!-- 10000 -->
      <g transform="translate(178.796 195.158437) scale(0.1 -0.1)">
       <use xlink:href="#DejaVuSans-31"/>
       <use xlink:href="#DejaVuSans-30" x="63.623047"/>
       <use xlink:href="#DejaVuSans-30" x="127.246094"/>
       <use xlink:href="#DejaVuSans-30" x="190.869141"/>
       <use xlink:href="#DejaVuSans-30" x="254.492188"/>
      </g>
     </g>
    </g>
    <g id="text_6">
     <!-- Number of arrays -->
     <g transform="translate(83.827031 208.836562) scale(0.1 -0.1)">
      <defs>
       <path id="DejaVuSans-4e" d="M 628 4666 
L 1478 4666 
L 3547 763 
L 3547 4666 
L 4159 4666 
L 4159 0 
L 3309 0 
L 1241 3903 
L 1241 0 
L 628 0 
L 628 4666 
z
" transform="scale(0.015625)"/>
       <path id="DejaVuSans-75" d="M 544 1381 
L 544 3500 
L 1119 3500 
L 1119 1403 
Q 1119 906 1312 657 
Q 1506 409 1894 409 
Q 2359 409 2629 706 
Q 2900 1003 2900 1516 
L 2900 3500 
L 3475 3500 
L 3475 0 
L 2900 0 
L 2900 538 
Q 2691 219 2414 64 
Q 2138 -91 1772 -91 
Q 1169 -91 856 284 
Q 544 659 544 1381 
z
M 1991 3584 
L 1991 3584 
z
" transform="scale(0.015625)"/>
       <path id="DejaVuSans-6d" d="M 3328 2828 
Q 3544 3216 3844 3400 
Q 4144 3584 4550 3584 
Q 5097 3584 5394 3201 
Q 5691 2819 5691 2113 
L 5691 0 
L 5113 0 
L 5113 2094 
Q 5113 2597 4934 2840 
Q 4756 3084 4391 3084 
Q 3944 3084 3684 2787 
Q 3425 2491 3425 1978 
L 3425 0 
L 2847 0 
L 2847 2094 
Q 2847 2600 2669 2842 
Q 2491 3084 2119 3084 
Q 1678 3084 1418 2786 
Q 1159 2488 1159 1978 
L 1159 0 
L 581 0 
L 581 3500 
L 1159 3500 
L 1159 2956 
Q 1356 3278 1631 3431 
Q 1906 3584 2284 3584 
Q 2666 3584 2933 3390 
Q 3200 3197 3328 2828 
z
" transform="scale(0.015625)"/>
       <path id="DejaVuSans-62" d="M 3116 1747 
Q 3116 2381 2855 2742 
Q 2594 3103 2138 3103 
Q 1681 3103 1420 2742 
Q 1159 2381 1159 1747 
Q 1159 1113 1420 752 
Q 1681 391 2138 391 
Q 2594 391 2855 752 
Q 3116 1113 3116 1747 
z
M 1159 2969 
Q 1341 3281 1617 3432 
Q 1894 3584 2278 3584 
Q 2916 3584 3314 3078 
Q 3713 2572 3713 1747 
Q 3713 922 3314 415 
Q 2916 -91 2278 -91 
Q 1894 -91 1617 61 
Q 1341 213 1159 525 
L 1159 0 
L 581 0 
L 581 4863 
L 1159 4863 
L 1159 2969 
z
" transform="scale(0.015625)"/>
       <path id="DejaVuSans-65" d="M 3597 1894 
L 3597 1613 
L 953 1613 
Q 991 1019 1311 708 
Q 1631 397 2203 397 
Q 2534 397 2845 478 
Q 3156 559 3463 722 
L 3463 178 
Q 3153 47 2828 -22 
Q 2503 -91 2169 -91 
Q 1331 -91 842 396 
Q 353 884 353 1716 
Q 353 2575 817 3079 
Q 1281 3584 2069 3584 
Q 2775 3584 3186 3129 
Q 3597 2675 3597 1894 
z
M 3022 2063 
Q 3016 2534 2758 2815 
Q 2500 3097 2075 3097 
Q 1594 3097 1305 2825 
Q 1016 2553 972 2059 
L 3022 2063 
z
" transform="scale(0.015625)"/>
       <path id="DejaVuSans-72" d="M 2631 2963 
Q 2534 3019 2420 3045 
Q 2306 3072 2169 3072 
Q 1681 3072 1420 2755 
Q 1159 2438 1159 1844 
L 1159 0 
L 581 0 
L 581 3500 
L 1159 3500 
L 1159 2956 
Q 1341 3275 1631 3429 
Q 1922 3584 2338 3584 
Q 2397 3584 2469 3576 
Q 2541 3569 2628 3553 
L 2631 2963 
z
" transform="scale(0.015625)"/>
       <path id="DejaVuSans-20" transform="scale(0.015625)"/>
       <path id="DejaVuSans-6f" d="M 1959 3097 
Q 1497 3097 1228 2736 
Q 959 2375 959 1747 
Q 959 1119 1226 758 
Q 1494 397 1959 397 
Q 2419 397 2687 759 
Q 2956 1122 2956 1747 
Q 2956 2369 2687 2733 
Q 2419 3097 1959 3097 
z
M 1959 3584 
Q 2709 3584 3137 3096 
Q 3566 2609 3566 1747 
Q 3566 888 3137 398 
Q 2709 -91 1959 -91 
Q 1206 -91 779 398 
Q 353 888 353 1747 
Q 353 2609 779 3096 
Q 1206 3584 1959 3584 
z
" transform="scale(0.015625)"/>
       <path id="DejaVuSans-66" d="M 2375 4863 
L 2375 4384 
L 1825 4384 
Q 1516 4384 1395 4259 
Q 1275 4134 1275 3809 
L 1275 3500 
L 2222 3500 
L 2222 3053 
L 1275 3053 
L 1275 0 
L 697 0 
L 697 3053 
L 147 3053 
L 147 3500 
L 697 3500 
L 697 3744 
Q 697 4328 969 4595 
Q 1241 4863 1831 4863 
L 2375 4863 
z
" transform="scale(0.015625)"/>
       <path id="DejaVuSans-61" d="M 2194 1759 
Q 1497 1759 1228 1600 
Q 959 1441 959 1056 
Q 959 750 1161 570 
Q 1363 391 1709 391 
Q 2188 391 2477 730 
Q 2766 1069 2766 1631 
L 2766 1759 
L 2194 1759 
z
M 3341 1997 
L 3341 0 
L 2766 0 
L 2766 531 
Q 2569 213 2275 61 
Q 1981 -91 1556 -91 
Q 1019 -91 701 211 
Q 384 513 384 1019 
Q 384 1609 779 1909 
Q 1175 2209 1959 2209 
L 2766 2209 
L 2766 2266 
Q 2766 2663 2505 2880 
Q 2244 3097 1772 3097 
Q 1472 3097 1187 3025 
Q 903 2953 641 2809 
L 641 3341 
Q 956 3463 1253 3523 
Q 1550 3584 1831 3584 
Q 2591 3584 2966 3190 
Q 3341 2797 3341 1997 
z
" transform="scale(0.015625)"/>
       <path id="DejaVuSans-79" d="M 2059 -325 
Q 1816 -950 1584 -1140 
Q 1353 -1331 966 -1331 
L 506 -1331 
L 506 -850 
L 844 -850 
Q 1081 -850 1212 -737 
Q 1344 -625 1503 -206 
L 1606 56 
L 191 3500 
L 800 3500 
L 1894 763 
L 2988 3500 
L 3597 3500 
L 2059 -325 
z
" transform="scale(0.015625)"/>
       <path id="DejaVuSans-73" d="M 2834 3397 
L 2834 2853 
Q 2591 2978 2328 3040 
Q 2066 3103 1784 3103 
Q 1356 3103 1142 2972 
Q 928 2841 928 2578 
Q 928 2378 1081 2264 
Q 1234 2150 1697 2047 
L 1894 2003 
Q 2506 1872 2764 1633 
Q 3022 1394 3022 966 
Q 3022 478 2636 193 
Q 2250 -91 1575 -91 
Q 1294 -91 989 -36 
Q 684 19 347 128 
L 347 722 
Q 666 556 975 473 
Q 1284 391 1588 391 
Q 1994 391 2212 530 
Q 2431 669 2431 922 
Q 2431 1156 2273 1281 
Q 2116 1406 1581 1522 
L 1381 1569 
Q 847 1681 609 1914 
Q 372 2147 372 2553 
Q 372 3047 722 3315 
Q 1072 3584 1716 3584 
Q 2034 3584 2315 3537 
Q 2597 3491 2834 3397 
z
" transform="scale(0.015625)"/>
      </defs>
      <use xlink:href="#DejaVuSans-4e"/>
      <use xlink:href="#DejaVuSans-75" x="74.804688"/>
      <use xlink:href="#DejaVuSans-6d" x="138.183594"/>
      <use xlink:href="#DejaVuSans-62" x="235.595703"/>
      <use xlink:href="#DejaVuSans-65" x="299.072266"/>
      <use xlink:href="#DejaVuSans-72" x="360.595703"/>
      <use xlink:href="#DejaVuSans-20" x="401.708984"/>
      <use xlink:href="#DejaVuSans-6f" x="433.496094"/>
      <use xlink:href="#DejaVuSans-66" x="494.677734"/>
      <use xlink:href="#DejaVuSans-20" x="529.882812"/>
      <use xlink:href="#DejaVuSans-61" x="561.669922"/>
      <use xlink:href="#DejaVuSans-72" x="622.949219"/>
      <use xlink:href="#DejaVuSans-72" x="662.3125"/>
      <use xlink:href="#DejaVuSans-61" x="703.425781"/>
      <use xlink:href="#DejaVuSans-79" x="764.705078"/>
      <use xlink:href="#DejaVuSans-73" x="823.884766"/>
     </g>
    </g>
   </g>
   <g id="matplotlib.axis_2">
    <g id="ytick_1">
     <g id="line2d_6">
      <defs>
       <path id="mce324071ba" d="M 0 0 
L -3.5 0 
" style="stroke: #000000; stroke-width: 0.8"/>
      </defs>
      <g>
       <use xlink:href="#mce324071ba" x="43.78125" y="180.56" style="stroke: #000000; stroke-width: 0.8"/>
      </g>
     </g>
     <g id="text_7">
      <!-- 0.0 -->
      <g transform="translate(20.878125 184.359219) scale(0.1 -0.1)">
       <defs>
        <path id="DejaVuSans-2e" d="M 684 794 
L 1344 794 
L 1344 0 
L 684 0 
L 684 794 
z
" transform="scale(0.015625)"/>
       </defs>
       <use xlink:href="#DejaVuSans-30"/>
       <use xlink:href="#DejaVuSans-2e" x="63.623047"/>
       <use xlink:href="#DejaVuSans-30" x="95.410156"/>
      </g>
     </g>
    </g>
    <g id="ytick_2">
     <g id="line2d_7">
      <g>
       <use xlink:href="#mce324071ba" x="43.78125" y="154.74538" style="stroke: #000000; stroke-width: 0.8"/>
      </g>
     </g>
     <g id="text_8">
      <!-- 0.5 -->
      <g transform="translate(20.878125 158.544598) scale(0.1 -0.1)">
       <defs>
        <path id="DejaVuSans-35" d="M 691 4666 
L 3169 4666 
L 3169 4134 
L 1269 4134 
L 1269 2991 
Q 1406 3038 1543 3061 
Q 1681 3084 1819 3084 
Q 2600 3084 3056 2656 
Q 3513 2228 3513 1497 
Q 3513 744 3044 326 
Q 2575 -91 1722 -91 
Q 1428 -91 1123 -41 
Q 819 9 494 109 
L 494 744 
Q 775 591 1075 516 
Q 1375 441 1709 441 
Q 2250 441 2565 725 
Q 2881 1009 2881 1497 
Q 2881 1984 2565 2268 
Q 2250 2553 1709 2553 
Q 1456 2553 1204 2497 
Q 953 2441 691 2322 
L 691 4666 
z
" transform="scale(0.015625)"/>
       </defs>
       <use xlink:href="#DejaVuSans-30"/>
       <use xlink:href="#DejaVuSans-2e" x="63.623047"/>
       <use xlink:href="#DejaVuSans-35" x="95.410156"/>
      </g>
     </g>
    </g>
    <g id="ytick_3">
     <g id="line2d_8">
      <g>
       <use xlink:href="#mce324071ba" x="43.78125" y="128.930759" style="stroke: #000000; stroke-width: 0.8"/>
      </g>
     </g>
     <g id="text_9">
      <!-- 1.0 -->
      <g transform="translate(20.878125 132.729978) scale(0.1 -0.1)">
       <use xlink:href="#DejaVuSans-31"/>
       <use xlink:href="#DejaVuSans-2e" x="63.623047"/>
       <use xlink:href="#DejaVuSans-30" x="95.410156"/>
      </g>
     </g>
    </g>
    <g id="ytick_4">
     <g id="line2d_9">
      <g>
       <use xlink:href="#mce324071ba" x="43.78125" y="103.116139" style="stroke: #000000; stroke-width: 0.8"/>
      </g>
     </g>
     <g id="text_10">
      <!-- 1.5 -->
      <g transform="translate(20.878125 106.915357) scale(0.1 -0.1)">
       <use xlink:href="#DejaVuSans-31"/>
       <use xlink:href="#DejaVuSans-2e" x="63.623047"/>
       <use xlink:href="#DejaVuSans-35" x="95.410156"/>
      </g>
     </g>
    </g>
    <g id="ytick_5">
     <g id="line2d_10">
      <g>
       <use xlink:href="#mce324071ba" x="43.78125" y="77.301518" style="stroke: #000000; stroke-width: 0.8"/>
      </g>
     </g>
     <g id="text_11">
      <!-- 2.0 -->
      <g transform="translate(20.878125 81.100737) scale(0.1 -0.1)">
       <defs>
        <path id="DejaVuSans-32" d="M 1228 531 
L 3431 531 
L 3431 0 
L 469 0 
L 469 531 
Q 828 903 1448 1529 
Q 2069 2156 2228 2338 
Q 2531 2678 2651 2914 
Q 2772 3150 2772 3378 
Q 2772 3750 2511 3984 
Q 2250 4219 1831 4219 
Q 1534 4219 1204 4116 
Q 875 4013 500 3803 
L 500 4441 
Q 881 4594 1212 4672 
Q 1544 4750 1819 4750 
Q 2544 4750 2975 4387 
Q 3406 4025 3406 3419 
Q 3406 3131 3298 2873 
Q 3191 2616 2906 2266 
Q 2828 2175 2409 1742 
Q 1991 1309 1228 531 
z
" transform="scale(0.015625)"/>
       </defs>
       <use xlink:href="#DejaVuSans-32"/>
       <use xlink:href="#DejaVuSans-2e" x="63.623047"/>
       <use xlink:href="#DejaVuSans-30" x="95.410156"/>
      </g>
     </g>
    </g>
    <g id="ytick_6">
     <g id="line2d_11">
      <g>
       <use xlink:href="#mce324071ba" x="43.78125" y="51.486898" style="stroke: #000000; stroke-width: 0.8"/>
      </g>
     </g>
     <g id="text_12">
      <!-- 2.5 -->
      <g transform="translate(20.878125 55.286116) scale(0.1 -0.1)">
       <use xlink:href="#DejaVuSans-32"/>
       <use xlink:href="#DejaVuSans-2e" x="63.623047"/>
       <use xlink:href="#DejaVuSans-35" x="95.410156"/>
      </g>
     </g>
    </g>
    <g id="ytick_7">
     <g id="line2d_12">
      <g>
       <use xlink:href="#mce324071ba" x="43.78125" y="25.672277" style="stroke: #000000; stroke-width: 0.8"/>
      </g>
     </g>
     <g id="text_13">
      <!-- 3.0 -->
      <g transform="translate(20.878125 29.471496) scale(0.1 -0.1)">
       <defs>
        <path id="DejaVuSans-33" d="M 2597 2516 
Q 3050 2419 3304 2112 
Q 3559 1806 3559 1356 
Q 3559 666 3084 287 
Q 2609 -91 1734 -91 
Q 1441 -91 1130 -33 
Q 819 25 488 141 
L 488 750 
Q 750 597 1062 519 
Q 1375 441 1716 441 
Q 2309 441 2620 675 
Q 2931 909 2931 1356 
Q 2931 1769 2642 2001 
Q 2353 2234 1838 2234 
L 1294 2234 
L 1294 2753 
L 1863 2753 
Q 2328 2753 2575 2939 
Q 2822 3125 2822 3475 
Q 2822 3834 2567 4026 
Q 2313 4219 1838 4219 
Q 1578 4219 1281 4162 
Q 984 4106 628 3988 
L 628 4550 
Q 988 4650 1302 4700 
Q 1616 4750 1894 4750 
Q 2613 4750 3031 4423 
Q 3450 4097 3450 3541 
Q 3450 3153 3228 2886 
Q 3006 2619 2597 2516 
z
" transform="scale(0.015625)"/>
       </defs>
       <use xlink:href="#DejaVuSans-33"/>
       <use xlink:href="#DejaVuSans-2e" x="63.623047"/>
       <use xlink:href="#DejaVuSans-30" x="95.410156"/>
      </g>
     </g>
    </g>
    <g id="text_14">
     <!-- Duration (s) -->
     <g transform="translate(14.798437 123.690937) rotate(-90) scale(0.1 -0.1)">
      <defs>
       <path id="DejaVuSans-44" d="M 1259 4147 
L 1259 519 
L 2022 519 
Q 2988 519 3436 956 
Q 3884 1394 3884 2338 
Q 3884 3275 3436 3711 
Q 2988 4147 2022 4147 
L 1259 4147 
z
M 628 4666 
L 1925 4666 
Q 3281 4666 3915 4102 
Q 4550 3538 4550 2338 
Q 4550 1131 3912 565 
Q 3275 0 1925 0 
L 628 0 
L 628 4666 
z
" transform="scale(0.015625)"/>
       <path id="DejaVuSans-74" d="M 1172 4494 
L 1172 3500 
L 2356 3500 
L 2356 3053 
L 1172 3053 
L 1172 1153 
Q 1172 725 1289 603 
Q 1406 481 1766 481 
L 2356 481 
L 2356 0 
L 1766 0 
Q 1100 0 847 248 
Q 594 497 594 1153 
L 594 3053 
L 172 3053 
L 172 3500 
L 594 3500 
L 594 4494 
L 1172 4494 
z
" transform="scale(0.015625)"/>
       <path id="DejaVuSans-69" d="M 603 3500 
L 1178 3500 
L 1178 0 
L 603 0 
L 603 3500 
z
M 603 4863 
L 1178 4863 
L 1178 4134 
L 603 4134 
L 603 4863 
z
" transform="scale(0.015625)"/>
       <path id="DejaVuSans-6e" d="M 3513 2113 
L 3513 0 
L 2938 0 
L 2938 2094 
Q 2938 2591 2744 2837 
Q 2550 3084 2163 3084 
Q 1697 3084 1428 2787 
Q 1159 2491 1159 1978 
L 1159 0 
L 581 0 
L 581 3500 
L 1159 3500 
L 1159 2956 
Q 1366 3272 1645 3428 
Q 1925 3584 2291 3584 
Q 2894 3584 3203 3211 
Q 3513 2838 3513 2113 
z
" transform="scale(0.015625)"/>
       <path id="DejaVuSans-28" d="M 1984 4856 
Q 1566 4138 1362 3434 
Q 1159 2731 1159 2009 
Q 1159 1288 1364 580 
Q 1569 -128 1984 -844 
L 1484 -844 
Q 1016 -109 783 600 
Q 550 1309 550 2009 
Q 550 2706 781 3412 
Q 1013 4119 1484 4856 
L 1984 4856 
z
" transform="scale(0.015625)"/>
       <path id="DejaVuSans-29" d="M 513 4856 
L 1013 4856 
Q 1481 4119 1714 3412 
Q 1947 2706 1947 2009 
Q 1947 1309 1714 600 
Q 1481 -109 1013 -844 
L 513 -844 
Q 928 -128 1133 580 
Q 1338 1288 1338 2009 
Q 1338 2731 1133 3434 
Q 928 4138 513 4856 
z
" transform="scale(0.015625)"/>
      </defs>
      <use xlink:href="#DejaVuSans-44"/>
      <use xlink:href="#DejaVuSans-75" x="77.001953"/>
      <use xlink:href="#DejaVuSans-72" x="140.380859"/>
      <use xlink:href="#DejaVuSans-61" x="181.494141"/>
      <use xlink:href="#DejaVuSans-74" x="242.773438"/>
      <use xlink:href="#DejaVuSans-69" x="281.982422"/>
      <use xlink:href="#DejaVuSans-6f" x="309.765625"/>
      <use xlink:href="#DejaVuSans-6e" x="370.947266"/>
      <use xlink:href="#DejaVuSans-20" x="434.326172"/>
      <use xlink:href="#DejaVuSans-28" x="466.113281"/>
      <use xlink:href="#DejaVuSans-73" x="505.126953"/>
      <use xlink:href="#DejaVuSans-29" x="557.226562"/>
     </g>
    </g>
   </g>
   <g id="LineCollection_1">
    <path d="M 54.960583 180.102658 
L 54.960583 179.666586 
" clip-path="url(#p8bb4d1e15d)" style="fill: none; stroke: #000000"/>
    <path d="M 88.498583 180.108899 
L 88.498583 180.09746 
" clip-path="url(#p8bb4d1e15d)" style="fill: none; stroke: #000000"/>
    <path d="M 122.036583 180.055226 
L 122.036583 180.030668 
" clip-path="url(#p8bb4d1e15d)" style="fill: none; stroke: #000000"/>
    <path d="M 155.574583 179.57482 
L 155.574583 179.506602 
" clip-path="url(#p8bb4d1e15d)" style="fill: none; stroke: #000000"/>
    <path d="M 189.112583 174.816366 
L 189.112583 174.205357 
" clip-path="url(#p8bb4d1e15d)" style="fill: none; stroke: #000000"/>
   </g>
   <g id="line2d_13">
    <defs>
     <path id="me4cbab85d3" d="M 3 0 
L -3 -0 
" style="stroke: #000000"/>
    </defs>
    <g clip-path="url(#p8bb4d1e15d)">
     <use xlink:href="#me4cbab85d3" x="54.960583" y="180.102658" style="stroke: #000000"/>
     <use xlink:href="#me4cbab85d3" x="88.498583" y="180.108899" style="stroke: #000000"/>
     <use xlink:href="#me4cbab85d3" x="122.036583" y="180.055226" style="stroke: #000000"/>
     <use xlink:href="#me4cbab85d3" x="155.574583" y="179.57482" style="stroke: #000000"/>
     <use xlink:href="#me4cbab85d3" x="189.112583" y="174.816366" style="stroke: #000000"/>
    </g>
   </g>
   <g id="line2d_14">
    <g clip-path="url(#p8bb4d1e15d)">
     <use xlink:href="#me4cbab85d3" x="54.960583" y="179.666586" style="stroke: #000000"/>
     <use xlink:href="#me4cbab85d3" x="88.498583" y="180.09746" style="stroke: #000000"/>
     <use xlink:href="#me4cbab85d3" x="122.036583" y="180.030668" style="stroke: #000000"/>
     <use xlink:href="#me4cbab85d3" x="155.574583" y="179.506602" style="stroke: #000000"/>
     <use xlink:href="#me4cbab85d3" x="189.112583" y="174.205357" style="stroke: #000000"/>
    </g>
   </g>
   <g id="LineCollection_2">
    <path d="M 60.55025 180.476921 
L 60.55025 180.47348 
" clip-path="url(#p8bb4d1e15d)" style="fill: none; stroke: #000000"/>
    <path d="M 94.08825 180.424296 
L 94.08825 180.373462 
" clip-path="url(#p8bb4d1e15d)" style="fill: none; stroke: #000000"/>
    <path d="M 127.62625 180.009522 
L 127.62625 179.929042 
" clip-path="url(#p8bb4d1e15d)" style="fill: none; stroke: #000000"/>
    <path d="M 161.16425 176.215156 
L 161.16425 175.722542 
" clip-path="url(#p8bb4d1e15d)" style="fill: none; stroke: #000000"/>
    <path d="M 194.70225 135.623642 
L 194.70225 130.420677 
" clip-path="url(#p8bb4d1e15d)" style="fill: none; stroke: #000000"/>
   </g>
   <g id="line2d_15">
    <g clip-path="url(#p8bb4d1e15d)">
     <use xlink:href="#me4cbab85d3" x="60.55025" y="180.476921" style="stroke: #000000"/>
     <use xlink:href="#me4cbab85d3" x="94.08825" y="180.424296" style="stroke: #000000"/>
     <use xlink:href="#me4cbab85d3" x="127.62625" y="180.009522" style="stroke: #000000"/>
     <use xlink:href="#me4cbab85d3" x="161.16425" y="176.215156" style="stroke: #000000"/>
     <use xlink:href="#me4cbab85d3" x="194.70225" y="135.623642" style="stroke: #000000"/>
    </g>
   </g>
   <g id="line2d_16">
    <g clip-path="url(#p8bb4d1e15d)">
     <use xlink:href="#me4cbab85d3" x="60.55025" y="180.47348" style="stroke: #000000"/>
     <use xlink:href="#me4cbab85d3" x="94.08825" y="180.373462" style="stroke: #000000"/>
     <use xlink:href="#me4cbab85d3" x="127.62625" y="179.929042" style="stroke: #000000"/>
     <use xlink:href="#me4cbab85d3" x="161.16425" y="175.722542" style="stroke: #000000"/>
     <use xlink:href="#me4cbab85d3" x="194.70225" y="130.420677" style="stroke: #000000"/>
    </g>
   </g>
   <g id="LineCollection_3">
    <path d="M 66.139917 177.594527 
L 66.139917 177.565011 
" clip-path="url(#p8bb4d1e15d)" style="fill: none; stroke: #000000"/>
    <path d="M 99.677917 177.476763 
L 99.677917 177.195846 
" clip-path="url(#p8bb4d1e15d)" style="fill: none; stroke: #000000"/>
    <path d="M 133.215917 177.067742 
L 133.215917 176.97043 
" clip-path="url(#p8bb4d1e15d)" style="fill: none; stroke: #000000"/>
    <path d="M 166.753917 164.831677 
L 166.753917 163.635461 
" clip-path="url(#p8bb4d1e15d)" style="fill: none; stroke: #000000"/>
    <path d="M 200.291917 27.311861 
L 200.291917 15.455238 
" clip-path="url(#p8bb4d1e15d)" style="fill: none; stroke: #000000"/>
   </g>
   <g id="line2d_17">
    <g clip-path="url(#p8bb4d1e15d)">
     <use xlink:href="#me4cbab85d3" x="66.139917" y="177.594527" style="stroke: #000000"/>
     <use xlink:href="#me4cbab85d3" x="99.677917" y="177.476763" style="stroke: #000000"/>
     <use xlink:href="#me4cbab85d3" x="133.215917" y="177.067742" style="stroke: #000000"/>
     <use xlink:href="#me4cbab85d3" x="166.753917" y="164.831677" style="stroke: #000000"/>
     <use xlink:href="#me4cbab85d3" x="200.291917" y="27.311861" style="stroke: #000000"/>
    </g>
   </g>
   <g id="line2d_18">
    <g clip-path="url(#p8bb4d1e15d)">
     <use xlink:href="#me4cbab85d3" x="66.139917" y="177.565011" style="stroke: #000000"/>
     <use xlink:href="#me4cbab85d3" x="99.677917" y="177.195846" style="stroke: #000000"/>
     <use xlink:href="#me4cbab85d3" x="133.215917" y="176.97043" style="stroke: #000000"/>
     <use xlink:href="#me4cbab85d3" x="166.753917" y="163.635461" style="stroke: #000000"/>
     <use xlink:href="#me4cbab85d3" x="200.291917" y="15.455238" style="stroke: #000000"/>
    </g>
   </g>
   <g id="patch_18">
    <path d="M 43.78125 180.56 
L 43.78125 7.2 
" style="fill: none; stroke: #000000; stroke-width: 0.8; stroke-linejoin: miter; stroke-linecap: square"/>
   </g>
   <g id="patch_19">
    <path d="M 211.47125 180.56 
L 211.47125 7.2 
" style="fill: none; stroke: #000000; stroke-width: 0.8; stroke-linejoin: miter; stroke-linecap: square"/>
   </g>
   <g id="patch_20">
    <path d="M 43.78125 180.56 
L 211.47125 180.56 
" style="fill: none; stroke: #000000; stroke-width: 0.8; stroke-linejoin: miter; stroke-linecap: square"/>
   </g>
   <g id="patch_21">
    <path d="M 43.78125 7.2 
L 211.47125 7.2 
" style="fill: none; stroke: #000000; stroke-width: 0.8; stroke-linejoin: miter; stroke-linecap: square"/>
   </g>
   <g id="legend_1">
    <g id="patch_22">
     <path d="M 50.78125 59.234375 
L 125.5125 59.234375 
Q 127.5125 59.234375 127.5125 57.234375 
L 127.5125 14.2 
Q 127.5125 12.2 125.5125 12.2 
L 50.78125 12.2 
Q 48.78125 12.2 48.78125 14.2 
L 48.78125 57.234375 
Q 48.78125 59.234375 50.78125 59.234375 
z
" style="fill: #ffffff; opacity: 0.8; stroke: #cccccc; stroke-linejoin: miter"/>
    </g>
    <g id="patch_23">
     <path d="M 52.78125 23.798438 
L 72.78125 23.798438 
L 72.78125 16.798438 
L 52.78125 16.798438 
z
" style="fill: #92c6ff"/>
    </g>
    <g id="text_15">
     <!-- MLtraq -->
     <g transform="translate(80.78125 23.798438) scale(0.1 -0.1)">
      <defs>
       <path id="DejaVuSans-4d" d="M 628 4666 
L 1569 4666 
L 2759 1491 
L 3956 4666 
L 4897 4666 
L 4897 0 
L 4281 0 
L 4281 4097 
L 3078 897 
L 2444 897 
L 1241 4097 
L 1241 0 
L 628 0 
L 628 4666 
z
" transform="scale(0.015625)"/>
       <path id="DejaVuSans-4c" d="M 628 4666 
L 1259 4666 
L 1259 531 
L 3531 531 
L 3531 0 
L 628 0 
L 628 4666 
z
" transform="scale(0.015625)"/>
       <path id="DejaVuSans-71" d="M 947 1747 
Q 947 1113 1208 752 
Q 1469 391 1925 391 
Q 2381 391 2643 752 
Q 2906 1113 2906 1747 
Q 2906 2381 2643 2742 
Q 2381 3103 1925 3103 
Q 1469 3103 1208 2742 
Q 947 2381 947 1747 
z
M 2906 525 
Q 2725 213 2448 61 
Q 2172 -91 1784 -91 
Q 1150 -91 751 415 
Q 353 922 353 1747 
Q 353 2572 751 3078 
Q 1150 3584 1784 3584 
Q 2172 3584 2448 3432 
Q 2725 3281 2906 2969 
L 2906 3500 
L 3481 3500 
L 3481 -1331 
L 2906 -1331 
L 2906 525 
z
" transform="scale(0.015625)"/>
      </defs>
      <use xlink:href="#DejaVuSans-4d"/>
      <use xlink:href="#DejaVuSans-4c" x="86.279297"/>
      <use xlink:href="#DejaVuSans-74" x="141.992188"/>
      <use xlink:href="#DejaVuSans-72" x="181.201172"/>
      <use xlink:href="#DejaVuSans-61" x="222.314453"/>
      <use xlink:href="#DejaVuSans-71" x="283.59375"/>
     </g>
    </g>
    <g id="patch_24">
     <path d="M 52.78125 38.476563 
L 72.78125 38.476563 
L 72.78125 31.476563 
L 52.78125 31.476563 
z
" style="fill: #97f0aa"/>
    </g>
    <g id="text_16">
     <!-- Neptune -->
     <g transform="translate(80.78125 38.476563) scale(0.1 -0.1)">
      <defs>
       <path id="DejaVuSans-70" d="M 1159 525 
L 1159 -1331 
L 581 -1331 
L 581 3500 
L 1159 3500 
L 1159 2969 
Q 1341 3281 1617 3432 
Q 1894 3584 2278 3584 
Q 2916 3584 3314 3078 
Q 3713 2572 3713 1747 
Q 3713 922 3314 415 
Q 2916 -91 2278 -91 
Q 1894 -91 1617 61 
Q 1341 213 1159 525 
z
M 3116 1747 
Q 3116 2381 2855 2742 
Q 2594 3103 2138 3103 
Q 1681 3103 1420 2742 
Q 1159 2381 1159 1747 
Q 1159 1113 1420 752 
Q 1681 391 2138 391 
Q 2594 391 2855 752 
Q 3116 1113 3116 1747 
z
" transform="scale(0.015625)"/>
      </defs>
      <use xlink:href="#DejaVuSans-4e"/>
      <use xlink:href="#DejaVuSans-65" x="74.804688"/>
      <use xlink:href="#DejaVuSans-70" x="136.328125"/>
      <use xlink:href="#DejaVuSans-74" x="199.804688"/>
      <use xlink:href="#DejaVuSans-75" x="239.013672"/>
      <use xlink:href="#DejaVuSans-6e" x="302.392578"/>
      <use xlink:href="#DejaVuSans-65" x="365.771484"/>
     </g>
    </g>
    <g id="patch_25">
     <path d="M 52.78125 53.154688 
L 72.78125 53.154688 
L 72.78125 46.154688 
L 52.78125 46.154688 
z
" style="fill: #ff9f9a"/>
    </g>
    <g id="text_17">
     <!-- Comet -->
     <g transform="translate(80.78125 53.154688) scale(0.1 -0.1)">
      <defs>
       <path id="DejaVuSans-43" d="M 4122 4306 
L 4122 3641 
Q 3803 3938 3442 4084 
Q 3081 4231 2675 4231 
Q 1875 4231 1450 3742 
Q 1025 3253 1025 2328 
Q 1025 1406 1450 917 
Q 1875 428 2675 428 
Q 3081 428 3442 575 
Q 3803 722 4122 1019 
L 4122 359 
Q 3791 134 3420 21 
Q 3050 -91 2638 -91 
Q 1578 -91 968 557 
Q 359 1206 359 2328 
Q 359 3453 968 4101 
Q 1578 4750 2638 4750 
Q 3056 4750 3426 4639 
Q 3797 4528 4122 4306 
z
" transform="scale(0.015625)"/>
      </defs>
      <use xlink:href="#DejaVuSans-43"/>
      <use xlink:href="#DejaVuSans-6f" x="69.824219"/>
      <use xlink:href="#DejaVuSans-6d" x="131.005859"/>
      <use xlink:href="#DejaVuSans-65" x="228.417969"/>
      <use xlink:href="#DejaVuSans-74" x="289.941406"/>
     </g>
    </g>
   </g>
  </g>
  <g id="axes_2">
   <g id="patch_26">
    <path d="M 256.18125 180.56 
L 423.87125 180.56 
L 423.87125 7.2 
L 256.18125 7.2 
z
" style="fill: #ffffff"/>
   </g>
   <g id="patch_27">
    <path d="M 270.155417 180.56 
L 279.471528 180.56 
L 279.471528 176.232061 
L 270.155417 176.232061 
z
" clip-path="url(#p9813e285ee)" style="fill: #92c6ff"/>
   </g>
   <g id="patch_28">
    <path d="M 326.052083 180.56 
L 335.368194 180.56 
L 335.368194 176.147384 
L 326.052083 176.147384 
z
" clip-path="url(#p9813e285ee)" style="fill: #92c6ff"/>
   </g>
   <g id="patch_29">
    <path d="M 381.94875 180.56 
L 391.264861 180.56 
L 391.264861 174.207817 
L 381.94875 174.207817 
z
" clip-path="url(#p9813e285ee)" style="fill: #92c6ff"/>
   </g>
   <g id="patch_30">
    <path d="M 279.471528 180.56 
L 288.787639 180.56 
L 288.787639 157.173927 
L 279.471528 157.173927 
z
" clip-path="url(#p9813e285ee)" style="fill: #97f0aa"/>
   </g>
   <g id="patch_31">
    <path d="M 335.368194 180.56 
L 344.684306 180.56 
L 344.684306 154.668904 
L 335.368194 154.668904 
z
" clip-path="url(#p9813e285ee)" style="fill: #97f0aa"/>
   </g>
   <g id="patch_32">
    <path d="M 391.264861 180.56 
L 400.580972 180.56 
L 400.580972 138.138854 
L 391.264861 138.138854 
z
" clip-path="url(#p9813e285ee)" style="fill: #97f0aa"/>
   </g>
   <g id="patch_33">
    <path d="M 288.787639 180.56 
L 298.10375 180.56 
L 298.10375 87.470774 
L 288.787639 87.470774 
z
" clip-path="url(#p9813e285ee)" style="fill: #ff9f9a"/>
   </g>
   <g id="patch_34">
    <path d="M 344.684306 180.56 
L 354.000417 180.56 
L 354.000417 86.106356 
L 344.684306 86.106356 
z
" clip-path="url(#p9813e285ee)" style="fill: #ff9f9a"/>
   </g>
   <g id="patch_35">
    <path d="M 400.580972 180.56 
L 409.897083 180.56 
L 409.897083 47.387266 
L 400.580972 47.387266 
z
" clip-path="url(#p9813e285ee)" style="fill: #ff9f9a"/>
   </g>
   <g id="matplotlib.axis_3">
    <g id="xtick_6">
     <g id="line2d_19">
      <g>
       <use xlink:href="#m57717cf6cd" x="284.129583" y="180.56" style="stroke: #000000; stroke-width: 0.8"/>
      </g>
     </g>
     <g id="text_18">
      <!-- 1 -->
      <g transform="translate(280.948333 195.158437) scale(0.1 -0.1)">
       <use xlink:href="#DejaVuSans-31"/>
      </g>
     </g>
    </g>
    <g id="xtick_7">
     <g id="line2d_20">
      <g>
       <use xlink:href="#m57717cf6cd" x="340.02625" y="180.56" style="stroke: #000000; stroke-width: 0.8"/>
      </g>
     </g>
     <g id="text_19">
      <!-- 100 -->
      <g transform="translate(330.4825 195.158437) scale(0.1 -0.1)">
       <use xlink:href="#DejaVuSans-31"/>
       <use xlink:href="#DejaVuSans-30" x="63.623047"/>
       <use xlink:href="#DejaVuSans-30" x="127.246094"/>
      </g>
     </g>
    </g>
    <g id="xtick_8">
     <g id="line2d_21">
      <g>
       <use xlink:href="#m57717cf6cd" x="395.922917" y="180.56" style="stroke: #000000; stroke-width: 0.8"/>
      </g>
     </g>
     <g id="text_20">
      <!-- 1000 -->
      <g transform="translate(383.197917 195.158437) scale(0.1 -0.1)">
       <use xlink:href="#DejaVuSans-31"/>
       <use xlink:href="#DejaVuSans-30" x="63.623047"/>
       <use xlink:href="#DejaVuSans-30" x="127.246094"/>
       <use xlink:href="#DejaVuSans-30" x="190.869141"/>
      </g>
     </g>
    </g>
    <g id="text_21">
     <!-- Size of arrays -->
     <g transform="translate(306.048906 208.836562) scale(0.1 -0.1)">
      <defs>
       <path id="DejaVuSans-53" d="M 3425 4513 
L 3425 3897 
Q 3066 4069 2747 4153 
Q 2428 4238 2131 4238 
Q 1616 4238 1336 4038 
Q 1056 3838 1056 3469 
Q 1056 3159 1242 3001 
Q 1428 2844 1947 2747 
L 2328 2669 
Q 3034 2534 3370 2195 
Q 3706 1856 3706 1288 
Q 3706 609 3251 259 
Q 2797 -91 1919 -91 
Q 1588 -91 1214 -16 
Q 841 59 441 206 
L 441 856 
Q 825 641 1194 531 
Q 1563 422 1919 422 
Q 2459 422 2753 634 
Q 3047 847 3047 1241 
Q 3047 1584 2836 1778 
Q 2625 1972 2144 2069 
L 1759 2144 
Q 1053 2284 737 2584 
Q 422 2884 422 3419 
Q 422 4038 858 4394 
Q 1294 4750 2059 4750 
Q 2388 4750 2728 4690 
Q 3069 4631 3425 4513 
z
" transform="scale(0.015625)"/>
       <path id="DejaVuSans-7a" d="M 353 3500 
L 3084 3500 
L 3084 2975 
L 922 459 
L 3084 459 
L 3084 0 
L 275 0 
L 275 525 
L 2438 3041 
L 353 3041 
L 353 3500 
z
" transform="scale(0.015625)"/>
      </defs>
      <use xlink:href="#DejaVuSans-53"/>
      <use xlink:href="#DejaVuSans-69" x="63.476562"/>
      <use xlink:href="#DejaVuSans-7a" x="91.259766"/>
      <use xlink:href="#DejaVuSans-65" x="143.75"/>
      <use xlink:href="#DejaVuSans-20" x="205.273438"/>
      <use xlink:href="#DejaVuSans-6f" x="237.060547"/>
      <use xlink:href="#DejaVuSans-66" x="298.242188"/>
      <use xlink:href="#DejaVuSans-20" x="333.447266"/>
      <use xlink:href="#DejaVuSans-61" x="365.234375"/>
      <use xlink:href="#DejaVuSans-72" x="426.513672"/>
      <use xlink:href="#DejaVuSans-72" x="465.876953"/>
      <use xlink:href="#DejaVuSans-61" x="506.990234"/>
      <use xlink:href="#DejaVuSans-79" x="568.269531"/>
      <use xlink:href="#DejaVuSans-73" x="627.449219"/>
     </g>
    </g>
   </g>
   <g id="matplotlib.axis_4">
    <g id="ytick_8">
     <g id="line2d_22">
      <g>
       <use xlink:href="#mce324071ba" x="256.18125" y="180.56" style="stroke: #000000; stroke-width: 0.8"/>
      </g>
     </g>
     <g id="text_22">
      <!-- 0.0 -->
      <g transform="translate(233.278125 184.359219) scale(0.1 -0.1)">
       <use xlink:href="#DejaVuSans-30"/>
       <use xlink:href="#DejaVuSans-2e" x="63.623047"/>
       <use xlink:href="#DejaVuSans-30" x="95.410156"/>
      </g>
     </g>
    </g>
    <g id="ytick_9">
     <g id="line2d_23">
      <g>
       <use xlink:href="#mce324071ba" x="256.18125" y="150.765116" style="stroke: #000000; stroke-width: 0.8"/>
      </g>
     </g>
     <g id="text_23">
      <!-- 0.2 -->
      <g transform="translate(233.278125 154.564335) scale(0.1 -0.1)">
       <use xlink:href="#DejaVuSans-30"/>
       <use xlink:href="#DejaVuSans-2e" x="63.623047"/>
       <use xlink:href="#DejaVuSans-32" x="95.410156"/>
      </g>
     </g>
    </g>
    <g id="ytick_10">
     <g id="line2d_24">
      <g>
       <use xlink:href="#mce324071ba" x="256.18125" y="120.970232" style="stroke: #000000; stroke-width: 0.8"/>
      </g>
     </g>
     <g id="text_24">
      <!-- 0.4 -->
      <g transform="translate(233.278125 124.76945) scale(0.1 -0.1)">
       <defs>
        <path id="DejaVuSans-34" d="M 2419 4116 
L 825 1625 
L 2419 1625 
L 2419 4116 
z
M 2253 4666 
L 3047 4666 
L 3047 1625 
L 3713 1625 
L 3713 1100 
L 3047 1100 
L 3047 0 
L 2419 0 
L 2419 1100 
L 313 1100 
L 313 1709 
L 2253 4666 
z
" transform="scale(0.015625)"/>
       </defs>
       <use xlink:href="#DejaVuSans-30"/>
       <use xlink:href="#DejaVuSans-2e" x="63.623047"/>
       <use xlink:href="#DejaVuSans-34" x="95.410156"/>
      </g>
     </g>
    </g>
    <g id="ytick_11">
     <g id="line2d_25">
      <g>
       <use xlink:href="#mce324071ba" x="256.18125" y="91.175347" style="stroke: #000000; stroke-width: 0.8"/>
      </g>
     </g>
     <g id="text_25">
      <!-- 0.6 -->
      <g transform="translate(233.278125 94.974566) scale(0.1 -0.1)">
       <defs>
        <path id="DejaVuSans-36" d="M 2113 2584 
Q 1688 2584 1439 2293 
Q 1191 2003 1191 1497 
Q 1191 994 1439 701 
Q 1688 409 2113 409 
Q 2538 409 2786 701 
Q 3034 994 3034 1497 
Q 3034 2003 2786 2293 
Q 2538 2584 2113 2584 
z
M 3366 4563 
L 3366 3988 
Q 3128 4100 2886 4159 
Q 2644 4219 2406 4219 
Q 1781 4219 1451 3797 
Q 1122 3375 1075 2522 
Q 1259 2794 1537 2939 
Q 1816 3084 2150 3084 
Q 2853 3084 3261 2657 
Q 3669 2231 3669 1497 
Q 3669 778 3244 343 
Q 2819 -91 2113 -91 
Q 1303 -91 875 529 
Q 447 1150 447 2328 
Q 447 3434 972 4092 
Q 1497 4750 2381 4750 
Q 2619 4750 2861 4703 
Q 3103 4656 3366 4563 
z
" transform="scale(0.015625)"/>
       </defs>
       <use xlink:href="#DejaVuSans-30"/>
       <use xlink:href="#DejaVuSans-2e" x="63.623047"/>
       <use xlink:href="#DejaVuSans-36" x="95.410156"/>
      </g>
     </g>
    </g>
    <g id="ytick_12">
     <g id="line2d_26">
      <g>
       <use xlink:href="#mce324071ba" x="256.18125" y="61.380463" style="stroke: #000000; stroke-width: 0.8"/>
      </g>
     </g>
     <g id="text_26">
      <!-- 0.8 -->
      <g transform="translate(233.278125 65.179682) scale(0.1 -0.1)">
       <defs>
        <path id="DejaVuSans-38" d="M 2034 2216 
Q 1584 2216 1326 1975 
Q 1069 1734 1069 1313 
Q 1069 891 1326 650 
Q 1584 409 2034 409 
Q 2484 409 2743 651 
Q 3003 894 3003 1313 
Q 3003 1734 2745 1975 
Q 2488 2216 2034 2216 
z
M 1403 2484 
Q 997 2584 770 2862 
Q 544 3141 544 3541 
Q 544 4100 942 4425 
Q 1341 4750 2034 4750 
Q 2731 4750 3128 4425 
Q 3525 4100 3525 3541 
Q 3525 3141 3298 2862 
Q 3072 2584 2669 2484 
Q 3125 2378 3379 2068 
Q 3634 1759 3634 1313 
Q 3634 634 3220 271 
Q 2806 -91 2034 -91 
Q 1263 -91 848 271 
Q 434 634 434 1313 
Q 434 1759 690 2068 
Q 947 2378 1403 2484 
z
M 1172 3481 
Q 1172 3119 1398 2916 
Q 1625 2713 2034 2713 
Q 2441 2713 2670 2916 
Q 2900 3119 2900 3481 
Q 2900 3844 2670 4047 
Q 2441 4250 2034 4250 
Q 1625 4250 1398 4047 
Q 1172 3844 1172 3481 
z
" transform="scale(0.015625)"/>
       </defs>
       <use xlink:href="#DejaVuSans-30"/>
       <use xlink:href="#DejaVuSans-2e" x="63.623047"/>
       <use xlink:href="#DejaVuSans-38" x="95.410156"/>
      </g>
     </g>
    </g>
    <g id="ytick_13">
     <g id="line2d_27">
      <g>
       <use xlink:href="#mce324071ba" x="256.18125" y="31.585579" style="stroke: #000000; stroke-width: 0.8"/>
      </g>
     </g>
     <g id="text_27">
      <!-- 1.0 -->
      <g transform="translate(233.278125 35.384798) scale(0.1 -0.1)">
       <use xlink:href="#DejaVuSans-31"/>
       <use xlink:href="#DejaVuSans-2e" x="63.623047"/>
       <use xlink:href="#DejaVuSans-30" x="95.410156"/>
      </g>
     </g>
    </g>
   </g>
   <g id="LineCollection_4">
    <path d="M 274.813472 176.966802 
L 274.813472 175.497319 
" clip-path="url(#p9813e285ee)" style="fill: none; stroke: #000000"/>
    <path d="M 330.710139 176.91848 
L 330.710139 175.376288 
" clip-path="url(#p9813e285ee)" style="fill: none; stroke: #000000"/>
    <path d="M 386.606806 175.478427 
L 386.606806 172.937207 
" clip-path="url(#p9813e285ee)" style="fill: none; stroke: #000000"/>
   </g>
   <g id="line2d_28">
    <g clip-path="url(#p9813e285ee)">
     <use xlink:href="#me4cbab85d3" x="274.813472" y="176.966802" style="stroke: #000000"/>
     <use xlink:href="#me4cbab85d3" x="330.710139" y="176.91848" style="stroke: #000000"/>
     <use xlink:href="#me4cbab85d3" x="386.606806" y="175.478427" style="stroke: #000000"/>
    </g>
   </g>
   <g id="line2d_29">
    <g clip-path="url(#p9813e285ee)">
     <use xlink:href="#me4cbab85d3" x="274.813472" y="175.497319" style="stroke: #000000"/>
     <use xlink:href="#me4cbab85d3" x="330.710139" y="175.376288" style="stroke: #000000"/>
     <use xlink:href="#me4cbab85d3" x="386.606806" y="172.937207" style="stroke: #000000"/>
    </g>
   </g>
   <g id="LineCollection_5">
    <path d="M 284.129583 163.025977 
L 284.129583 151.321877 
" clip-path="url(#p9813e285ee)" style="fill: none; stroke: #000000"/>
    <path d="M 340.02625 161.234895 
L 340.02625 148.102913 
" clip-path="url(#p9813e285ee)" style="fill: none; stroke: #000000"/>
    <path d="M 395.922917 148.808814 
L 395.922917 127.468895 
" clip-path="url(#p9813e285ee)" style="fill: none; stroke: #000000"/>
   </g>
   <g id="line2d_30">
    <g clip-path="url(#p9813e285ee)">
     <use xlink:href="#me4cbab85d3" x="284.129583" y="163.025977" style="stroke: #000000"/>
     <use xlink:href="#me4cbab85d3" x="340.02625" y="161.234895" style="stroke: #000000"/>
     <use xlink:href="#me4cbab85d3" x="395.922917" y="148.808814" style="stroke: #000000"/>
    </g>
   </g>
   <g id="line2d_31">
    <g clip-path="url(#p9813e285ee)">
     <use xlink:href="#me4cbab85d3" x="284.129583" y="151.321877" style="stroke: #000000"/>
     <use xlink:href="#me4cbab85d3" x="340.02625" y="148.102913" style="stroke: #000000"/>
     <use xlink:href="#me4cbab85d3" x="395.922917" y="127.468895" style="stroke: #000000"/>
    </g>
   </g>
   <g id="LineCollection_6">
    <path d="M 293.445694 109.148817 
L 293.445694 65.79273 
" clip-path="url(#p9813e285ee)" style="fill: none; stroke: #000000"/>
    <path d="M 349.342361 108.647867 
L 349.342361 63.564844 
" clip-path="url(#p9813e285ee)" style="fill: none; stroke: #000000"/>
    <path d="M 405.239028 79.319294 
L 405.239028 15.455238 
" clip-path="url(#p9813e285ee)" style="fill: none; stroke: #000000"/>
   </g>
   <g id="line2d_32">
    <g clip-path="url(#p9813e285ee)">
     <use xlink:href="#me4cbab85d3" x="293.445694" y="109.148817" style="stroke: #000000"/>
     <use xlink:href="#me4cbab85d3" x="349.342361" y="108.647867" style="stroke: #000000"/>
     <use xlink:href="#me4cbab85d3" x="405.239028" y="79.319294" style="stroke: #000000"/>
    </g>
   </g>
   <g id="line2d_33">
    <g clip-path="url(#p9813e285ee)">
     <use xlink:href="#me4cbab85d3" x="293.445694" y="65.79273" style="stroke: #000000"/>
     <use xlink:href="#me4cbab85d3" x="349.342361" y="63.564844" style="stroke: #000000"/>
     <use xlink:href="#me4cbab85d3" x="405.239028" y="15.455238" style="stroke: #000000"/>
    </g>
   </g>
   <g id="patch_36">
    <path d="M 256.18125 180.56 
L 256.18125 7.2 
" style="fill: none; stroke: #000000; stroke-width: 0.8; stroke-linejoin: miter; stroke-linecap: square"/>
   </g>
   <g id="patch_37">
    <path d="M 423.87125 180.56 
L 423.87125 7.2 
" style="fill: none; stroke: #000000; stroke-width: 0.8; stroke-linejoin: miter; stroke-linecap: square"/>
   </g>
   <g id="patch_38">
    <path d="M 256.18125 180.56 
L 423.87125 180.56 
" style="fill: none; stroke: #000000; stroke-width: 0.8; stroke-linejoin: miter; stroke-linecap: square"/>
   </g>
   <g id="patch_39">
    <path d="M 256.18125 7.2 
L 423.87125 7.2 
" style="fill: none; stroke: #000000; stroke-width: 0.8; stroke-linejoin: miter; stroke-linecap: square"/>
   </g>
   <g id="legend_2">
    <g id="patch_40">
     <path d="M 263.18125 59.234375 
L 337.9125 59.234375 
Q 339.9125 59.234375 339.9125 57.234375 
L 339.9125 14.2 
Q 339.9125 12.2 337.9125 12.2 
L 263.18125 12.2 
Q 261.18125 12.2 261.18125 14.2 
L 261.18125 57.234375 
Q 261.18125 59.234375 263.18125 59.234375 
z
" style="fill: #ffffff; opacity: 0.8; stroke: #cccccc; stroke-linejoin: miter"/>
    </g>
    <g id="patch_41">
     <path d="M 265.18125 23.798438 
L 285.18125 23.798438 
L 285.18125 16.798438 
L 265.18125 16.798438 
z
" style="fill: #92c6ff"/>
    </g>
    <g id="text_28">
     <!-- MLtraq -->
     <g transform="translate(293.18125 23.798438) scale(0.1 -0.1)">
      <use xlink:href="#DejaVuSans-4d"/>
      <use xlink:href="#DejaVuSans-4c" x="86.279297"/>
      <use xlink:href="#DejaVuSans-74" x="141.992188"/>
      <use xlink:href="#DejaVuSans-72" x="181.201172"/>
      <use xlink:href="#DejaVuSans-61" x="222.314453"/>
      <use xlink:href="#DejaVuSans-71" x="283.59375"/>
     </g>
    </g>
    <g id="patch_42">
     <path d="M 265.18125 38.476563 
L 285.18125 38.476563 
L 285.18125 31.476563 
L 265.18125 31.476563 
z
" style="fill: #97f0aa"/>
    </g>
    <g id="text_29">
     <!-- Neptune -->
     <g transform="translate(293.18125 38.476563) scale(0.1 -0.1)">
      <use xlink:href="#DejaVuSans-4e"/>
      <use xlink:href="#DejaVuSans-65" x="74.804688"/>
      <use xlink:href="#DejaVuSans-70" x="136.328125"/>
      <use xlink:href="#DejaVuSans-74" x="199.804688"/>
      <use xlink:href="#DejaVuSans-75" x="239.013672"/>
      <use xlink:href="#DejaVuSans-6e" x="302.392578"/>
      <use xlink:href="#DejaVuSans-65" x="365.771484"/>
     </g>
    </g>
    <g id="patch_43">
     <path d="M 265.18125 53.154688 
L 285.18125 53.154688 
L 285.18125 46.154688 
L 265.18125 46.154688 
z
" style="fill: #ff9f9a"/>
    </g>
    <g id="text_30">
     <!-- Comet -->
     <g transform="translate(293.18125 53.154688) scale(0.1 -0.1)">
      <use xlink:href="#DejaVuSans-43"/>
      <use xlink:href="#DejaVuSans-6f" x="69.824219"/>
      <use xlink:href="#DejaVuSans-6d" x="131.005859"/>
      <use xlink:href="#DejaVuSans-65" x="228.417969"/>
      <use xlink:href="#DejaVuSans-74" x="289.941406"/>
     </g>
    </g>
   </g>
  </g>
  <g id="axes_3">
   <g id="patch_44">
    <path d="M 468.58125 180.56 
L 636.27125 180.56 
L 636.27125 7.2 
L 468.58125 7.2 
z
" style="fill: #ffffff"/>
   </g>
   <g id="patch_45">
    <path d="M 482.555417 180.56 
L 510.50375 180.56 
L 510.50375 173.739364 
L 482.555417 173.739364 
z
" clip-path="url(#p7102e9d548)" style="fill: #92c6ff"/>
   </g>
   <g id="patch_46">
    <path d="M 538.452083 180.56 
L 566.400417 180.56 
L 566.400417 139.12015 
L 538.452083 139.12015 
z
" clip-path="url(#p7102e9d548)" style="fill: #92c6ff"/>
   </g>
   <g id="patch_47">
    <path d="M 594.34875 180.56 
L 622.297083 180.56 
L 622.297083 35.623787 
L 594.34875 35.623787 
z
" clip-path="url(#p7102e9d548)" style="fill: #92c6ff"/>
   </g>
   <g id="matplotlib.axis_5">
    <g id="xtick_9">
     <g id="line2d_34">
      <g>
       <use xlink:href="#m57717cf6cd" x="496.529583" y="180.56" style="stroke: #000000; stroke-width: 0.8"/>
      </g>
     </g>
     <g id="text_31">
      <!-- MLtraq -->
      <g transform="translate(481.967765 209.114678) rotate(-25) scale(0.1 -0.1)">
       <use xlink:href="#DejaVuSans-4d"/>
       <use xlink:href="#DejaVuSans-4c" x="86.279297"/>
       <use xlink:href="#DejaVuSans-74" x="141.992188"/>
       <use xlink:href="#DejaVuSans-72" x="181.201172"/>
       <use xlink:href="#DejaVuSans-61" x="222.314453"/>
       <use xlink:href="#DejaVuSans-71" x="283.59375"/>
      </g>
     </g>
    </g>
    <g id="xtick_10">
     <g id="line2d_35">
      <g>
       <use xlink:href="#m57717cf6cd" x="552.42625" y="180.56" style="stroke: #000000; stroke-width: 0.8"/>
      </g>
     </g>
     <g id="text_32">
      <!-- Neptune -->
      <g transform="translate(534.22858 212.50553) rotate(-25) scale(0.1 -0.1)">
       <use xlink:href="#DejaVuSans-4e"/>
       <use xlink:href="#DejaVuSans-65" x="74.804688"/>
       <use xlink:href="#DejaVuSans-70" x="136.328125"/>
       <use xlink:href="#DejaVuSans-74" x="199.804688"/>
       <use xlink:href="#DejaVuSans-75" x="239.013672"/>
       <use xlink:href="#DejaVuSans-6e" x="302.392578"/>
       <use xlink:href="#DejaVuSans-65" x="365.771484"/>
      </g>
     </g>
    </g>
    <g id="xtick_11">
     <g id="line2d_36">
      <g>
       <use xlink:href="#m57717cf6cd" x="608.322917" y="180.56" style="stroke: #000000; stroke-width: 0.8"/>
      </g>
     </g>
     <g id="text_33">
      <!-- Comet -->
      <g transform="translate(594.573235 208.357267) rotate(-25) scale(0.1 -0.1)">
       <use xlink:href="#DejaVuSans-43"/>
       <use xlink:href="#DejaVuSans-6f" x="69.824219"/>
       <use xlink:href="#DejaVuSans-6d" x="131.005859"/>
       <use xlink:href="#DejaVuSans-65" x="228.417969"/>
       <use xlink:href="#DejaVuSans-74" x="289.941406"/>
      </g>
     </g>
    </g>
    <g id="text_34">
     <!-- Method -->
     <g transform="translate(533.673125 225.988804) scale(0.1 -0.1)">
      <defs>
       <path id="DejaVuSans-68" d="M 3513 2113 
L 3513 0 
L 2938 0 
L 2938 2094 
Q 2938 2591 2744 2837 
Q 2550 3084 2163 3084 
Q 1697 3084 1428 2787 
Q 1159 2491 1159 1978 
L 1159 0 
L 581 0 
L 581 4863 
L 1159 4863 
L 1159 2956 
Q 1366 3272 1645 3428 
Q 1925 3584 2291 3584 
Q 2894 3584 3203 3211 
Q 3513 2838 3513 2113 
z
" transform="scale(0.015625)"/>
       <path id="DejaVuSans-64" d="M 2906 2969 
L 2906 4863 
L 3481 4863 
L 3481 0 
L 2906 0 
L 2906 525 
Q 2725 213 2448 61 
Q 2172 -91 1784 -91 
Q 1150 -91 751 415 
Q 353 922 353 1747 
Q 353 2572 751 3078 
Q 1150 3584 1784 3584 
Q 2172 3584 2448 3432 
Q 2725 3281 2906 2969 
z
M 947 1747 
Q 947 1113 1208 752 
Q 1469 391 1925 391 
Q 2381 391 2643 752 
Q 2906 1113 2906 1747 
Q 2906 2381 2643 2742 
Q 2381 3103 1925 3103 
Q 1469 3103 1208 2742 
Q 947 2381 947 1747 
z
" transform="scale(0.015625)"/>
      </defs>
      <use xlink:href="#DejaVuSans-4d"/>
      <use xlink:href="#DejaVuSans-65" x="86.279297"/>
      <use xlink:href="#DejaVuSans-74" x="147.802734"/>
      <use xlink:href="#DejaVuSans-68" x="187.011719"/>
      <use xlink:href="#DejaVuSans-6f" x="250.390625"/>
      <use xlink:href="#DejaVuSans-64" x="311.572266"/>
     </g>
    </g>
   </g>
   <g id="matplotlib.axis_6">
    <g id="ytick_14">
     <g id="line2d_37">
      <g>
       <use xlink:href="#mce324071ba" x="468.58125" y="180.56" style="stroke: #000000; stroke-width: 0.8"/>
      </g>
     </g>
     <g id="text_35">
      <!-- 0.0 -->
      <g transform="translate(445.678125 184.359219) scale(0.1 -0.1)">
       <use xlink:href="#DejaVuSans-30"/>
       <use xlink:href="#DejaVuSans-2e" x="63.623047"/>
       <use xlink:href="#DejaVuSans-30" x="95.410156"/>
      </g>
     </g>
    </g>
    <g id="ytick_15">
     <g id="line2d_38">
      <g>
       <use xlink:href="#mce324071ba" x="468.58125" y="140.165729" style="stroke: #000000; stroke-width: 0.8"/>
      </g>
     </g>
     <g id="text_36">
      <!-- 0.2 -->
      <g transform="translate(445.678125 143.964948) scale(0.1 -0.1)">
       <use xlink:href="#DejaVuSans-30"/>
       <use xlink:href="#DejaVuSans-2e" x="63.623047"/>
       <use xlink:href="#DejaVuSans-32" x="95.410156"/>
      </g>
     </g>
    </g>
    <g id="ytick_16">
     <g id="line2d_39">
      <g>
       <use xlink:href="#mce324071ba" x="468.58125" y="99.771458" style="stroke: #000000; stroke-width: 0.8"/>
      </g>
     </g>
     <g id="text_37">
      <!-- 0.4 -->
      <g transform="translate(445.678125 103.570677) scale(0.1 -0.1)">
       <use xlink:href="#DejaVuSans-30"/>
       <use xlink:href="#DejaVuSans-2e" x="63.623047"/>
       <use xlink:href="#DejaVuSans-34" x="95.410156"/>
      </g>
     </g>
    </g>
    <g id="ytick_17">
     <g id="line2d_40">
      <g>
       <use xlink:href="#mce324071ba" x="468.58125" y="59.377187" style="stroke: #000000; stroke-width: 0.8"/>
      </g>
     </g>
     <g id="text_38">
      <!-- 0.6 -->
      <g transform="translate(445.678125 63.176406) scale(0.1 -0.1)">
       <use xlink:href="#DejaVuSans-30"/>
       <use xlink:href="#DejaVuSans-2e" x="63.623047"/>
       <use xlink:href="#DejaVuSans-36" x="95.410156"/>
      </g>
     </g>
    </g>
    <g id="ytick_18">
     <g id="line2d_41">
      <g>
       <use xlink:href="#mce324071ba" x="468.58125" y="18.982916" style="stroke: #000000; stroke-width: 0.8"/>
      </g>
     </g>
     <g id="text_39">
      <!-- 0.8 -->
      <g transform="translate(445.678125 22.782135) scale(0.1 -0.1)">
       <use xlink:href="#DejaVuSans-30"/>
       <use xlink:href="#DejaVuSans-2e" x="63.623047"/>
       <use xlink:href="#DejaVuSans-38" x="95.410156"/>
      </g>
     </g>
    </g>
   </g>
   <g id="LineCollection_7">
    <path d="M 496.529583 174.490792 
L 496.529583 172.987936 
" clip-path="url(#p7102e9d548)" style="fill: none; stroke: #000000"/>
    <path d="M 552.42625 145.397508 
L 552.42625 132.842792 
" clip-path="url(#p7102e9d548)" style="fill: none; stroke: #000000"/>
    <path d="M 608.322917 55.792337 
L 608.322917 15.455238 
" clip-path="url(#p7102e9d548)" style="fill: none; stroke: #000000"/>
   </g>
   <g id="line2d_42">
    <g clip-path="url(#p7102e9d548)">
     <use xlink:href="#me4cbab85d3" x="496.529583" y="174.490792" style="stroke: #000000"/>
     <use xlink:href="#me4cbab85d3" x="552.42625" y="145.397508" style="stroke: #000000"/>
     <use xlink:href="#me4cbab85d3" x="608.322917" y="55.792337" style="stroke: #000000"/>
    </g>
   </g>
   <g id="line2d_43">
    <g clip-path="url(#p7102e9d548)">
     <use xlink:href="#me4cbab85d3" x="496.529583" y="172.987936" style="stroke: #000000"/>
     <use xlink:href="#me4cbab85d3" x="552.42625" y="132.842792" style="stroke: #000000"/>
     <use xlink:href="#me4cbab85d3" x="608.322917" y="15.455238" style="stroke: #000000"/>
    </g>
   </g>
   <g id="patch_48">
    <path d="M 468.58125 180.56 
L 468.58125 7.2 
" style="fill: none; stroke: #000000; stroke-width: 0.8; stroke-linejoin: miter; stroke-linecap: square"/>
   </g>
   <g id="patch_49">
    <path d="M 636.27125 180.56 
L 636.27125 7.2 
" style="fill: none; stroke: #000000; stroke-width: 0.8; stroke-linejoin: miter; stroke-linecap: square"/>
   </g>
   <g id="patch_50">
    <path d="M 468.58125 180.56 
L 636.27125 180.56 
" style="fill: none; stroke: #000000; stroke-width: 0.8; stroke-linejoin: miter; stroke-linecap: square"/>
   </g>
   <g id="patch_51">
    <path d="M 468.58125 7.2 
L 636.27125 7.2 
" style="fill: none; stroke: #000000; stroke-width: 0.8; stroke-linejoin: miter; stroke-linecap: square"/>
   </g>
  </g>
 </g>
 <defs>
  <clipPath id="p8bb4d1e15d">
   <rect x="43.78125" y="7.2" width="167.69" height="173.36"/>
  </clipPath>
  <clipPath id="p9813e285ee">
   <rect x="256.18125" y="7.2" width="167.69" height="173.36"/>
  </clipPath>
  <clipPath id="p7102e9d548">
   <rect x="468.58125" y="7.2" width="167.69" height="173.36"/>
  </clipPath>
 </defs>
</svg>
