<svg xmlns="http://www.w3.org/2000/svg" xmlns:xlink="http://www.w3.org/1999/xlink" width="947.911" height="297.754" viewBox="0 0 710.933 223.316"><defs><style>*{stroke-linejoin:round;stroke-linecap:butt}</style></defs><g id="figure_1"><path id="patch_1" d="M0 223.316h710.933V0H0z" style="fill:#fff"/><g id="axes_1"><path id="patch_2" d="M34.24 109.62h194.84V8.26H34.24z" style="fill:#fff"/><path id="patch_3" d="M50.477 109.62h4.64v-.32h-4.64z" clip-path="url(#p448e7a1fa0)" style="fill:#006ba4"/><path id="patch_4" d="M115.424 109.62h4.639v-.487h-4.639z" clip-path="url(#p448e7a1fa0)" style="fill:#006ba4"/><path id="patch_5" d="M180.37 109.62h4.64v-.772h-4.64z" clip-path="url(#p448e7a1fa0)" style="fill:#006ba4"/><path id="patch_6" d="M55.116 109.62h4.64v-.482h-4.64z" clip-path="url(#p448e7a1fa0)" style="fill:#ff800e"/><path id="patch_7" d="M120.063 109.62h4.64v-1.43h-4.64z" clip-path="url(#p448e7a1fa0)" style="fill:#ff800e"/><path id="patch_8" d="M185.01 109.62h4.639v-2.763h-4.64z" clip-path="url(#p448e7a1fa0)" style="fill:#ff800e"/><path id="patch_9" d="M59.755 109.62h4.64v-.533h-4.64z" clip-path="url(#p448e7a1fa0)" style="fill:#ababab"/><path id="patch_10" d="M124.702 109.62h4.64v-2.043h-4.64z" clip-path="url(#p448e7a1fa0)" style="fill:#ababab"/><path id="patch_11" d="M189.649 109.62h4.639v-4.031h-4.64z" clip-path="url(#p448e7a1fa0)" style="fill:#ababab"/><path id="patch_12" d="M64.394 109.62h4.64v-1.577h-4.64z" clip-path="url(#p448e7a1fa0)" style="fill:#595959"/><path id="patch_13" d="M129.341 109.62h4.64v-3.72h-4.64z" clip-path="url(#p448e7a1fa0)" style="fill:#595959"/><path id="patch_14" d="M194.288 109.62h4.639v-6.51h-4.64z" clip-path="url(#p448e7a1fa0)" style="fill:#595959"/><path id="patch_15" d="M69.033 109.62h4.64V94.465h-4.64z" clip-path="url(#p448e7a1fa0)" style="fill:#5f9ed1"/><path id="patch_16" d="M133.98 109.62h4.64V90.302h-4.64z" clip-path="url(#p448e7a1fa0)" style="fill:#5f9ed1"/><path id="patch_17" d="M198.927 109.62h4.639V84.858h-4.64z" clip-path="url(#p448e7a1fa0)" style="fill:#5f9ed1"/><path id="patch_18" d="M73.673 109.62h4.639V84.29h-4.64z" clip-path="url(#p448e7a1fa0)" style="fill:#c85200"/><path id="patch_19" d="M138.62 109.62h4.638V85.049h-4.639z" clip-path="url(#p448e7a1fa0)" style="fill:#c85200"/><path id="patch_20" d="M203.566 109.62h4.639V84.627h-4.64z" clip-path="url(#p448e7a1fa0)" style="fill:#c85200"/><path id="patch_21" d="M78.312 109.62h4.639V77.807h-4.64z" clip-path="url(#p448e7a1fa0)" style="fill:#898989"/><path id="patch_22" d="M143.258 109.62h4.64V54.74h-4.64z" clip-path="url(#p448e7a1fa0)" style="fill:#898989"/><path id="patch_23" d="M208.205 109.62h4.639V26.459h-4.64z" clip-path="url(#p448e7a1fa0)" style="fill:#898989"/><g id="matplotlib.axis_1"><g id="xtick_1"><g id="line2d_1"><defs><path id="m2ed1aaf3b0" d="M0 0v3.5" style="stroke:#000;stroke-width:.8"/></defs><use xlink:href="#m2ed1aaf3b0" x="66.714" y="109.62" style="stroke:#000;stroke-width:.8"/></g><g id="text_1" transform="matrix(.1 0 0 -.1 63.533 124.218)"><defs><path id="DejaVuSans-31" d="M794 531h1031v3560L703 3866v575l1116 225h631V531h1031V0H794z" transform="scale(.01563)"/></defs><use xlink:href="#DejaVuSans-31"/></g></g><g id="xtick_2"><use xlink:href="#m2ed1aaf3b0" id="line2d_2" x="131.661" y="109.62" style="stroke:#000;stroke-width:.8"/><g id="text_2" transform="matrix(.1 0 0 -.1 128.48 124.218)"><defs><path id="DejaVuSans-35" d="M691 4666h2478v-532H1269V2991q137 47 274 70 138 23 276 23 781 0 1237-428 457-428 457-1159 0-753-469-1171Q2575-91 1722-91q-294 0-599 50Q819 9 494 109v635q281-153 581-228t634-75q541 0 856 284 316 284 316 772 0 487-316 771-315 285-856 285-253 0-505-56-251-56-513-175z" transform="scale(.01563)"/></defs><use xlink:href="#DejaVuSans-35"/></g></g><g id="xtick_3"><use xlink:href="#m2ed1aaf3b0" id="line2d_3" x="196.607" y="109.62" style="stroke:#000;stroke-width:.8"/><g id="text_3" transform="matrix(.1 0 0 -.1 190.245 124.218)"><defs><path id="DejaVuSans-30" d="M2034 4250q-487 0-733-480-245-479-245-1442 0-959 245-1439 246-480 733-480 491 0 736 480 246 480 246 1439 0 963-246 1442-245 480-736 480m0 500q785 0 1199-621 414-620 414-1801 0-1178-414-1799Q2819-91 2034-91q-784 0-1198 620-414 621-414 1799 0 1181 414 1801 414 621 1198 621" transform="scale(.01563)"/></defs><use xlink:href="#DejaVuSans-31"/><use xlink:href="#DejaVuSans-30" x="63.623"/></g></g><g id="text_4" transform="matrix(.1 0 0 -.1 87.861 137.896)"><defs><path id="DejaVuSans-4e" d="M628 4666h850L3547 763v3903h612V0h-850L1241 3903V0H628z" transform="scale(.01563)"/><path id="DejaVuSans-75" d="M544 1381v2119h575V1403q0-497 193-746 194-248 582-248 465 0 735 297 271 297 271 810v1984h575V0h-575v538q-209-319-486-474-276-155-642-155-603 0-916 375-312 375-312 1097m1447 2203" transform="scale(.01563)"/><path id="DejaVuSans-6d" d="M3328 2828q216 388 516 572t706 184q547 0 844-383 297-382 297-1088V0h-578v2094q0 503-179 746-178 244-543 244-447 0-707-297-259-296-259-809V0h-578v2094q0 506-178 748t-550 242q-441 0-701-298-259-298-259-808V0H581v3500h578v-544q197 322 472 475t653 153q382 0 649-194 267-193 395-562" transform="scale(.01563)"/><path id="DejaVuSans-62" d="M3116 1747q0 634-261 995t-717 361q-457 0-718-361t-261-995 261-995 718-361q456 0 717 361t261 995M1159 2969q182 312 458 463 277 152 661 152 638 0 1036-506 399-506 399-1331T3314 415Q2916-91 2278-91q-384 0-661 152-276 152-458 464V0H581v4863h578z" transform="scale(.01563)"/><path id="DejaVuSans-65" d="M3597 1894v-281H953q38-594 358-905t892-311q331 0 642 81t618 244V178Q3153 47 2828-22t-659-69q-838 0-1327 487-489 488-489 1320 0 859 464 1363 464 505 1252 505 706 0 1117-455 411-454 411-1235m-575 169q-6 471-264 752-258 282-683 282-481 0-770-272t-333-766z" transform="scale(.01563)"/><path id="DejaVuSans-72" d="M2631 2963q-97 56-211 82-114 27-251 27-488 0-749-317t-261-911V0H581v3500h578v-544q182 319 472 473 291 155 707 155 59 0 131-8 72-7 159-23z" transform="scale(.01563)"/><path id="DejaVuSans-6f" d="M1959 3097q-462 0-731-361t-269-989 267-989q268-361 733-361 460 0 728 362 269 363 269 988 0 622-269 986-268 364-728 364m0 487q750 0 1178-488 429-487 429-1349 0-859-429-1349Q2709-91 1959-91q-753 0-1180 489-426 490-426 1349 0 862 426 1349 427 488 1180 488" transform="scale(.01563)"/><path id="DejaVuSans-66" d="M2375 4863v-479h-550q-309 0-430-125-120-125-120-450v-309h947v-447h-947V0H697v3053H147v447h550v244q0 584 272 851 272 268 862 268z" transform="scale(.01563)"/><path id="DejaVuSans-61" d="M2194 1759q-697 0-966-159t-269-544q0-306 202-486 202-179 548-179 479 0 768 339t289 901v128zm1147 238V0h-575v531q-197-318-491-470T1556-91q-537 0-855 302-317 302-317 808 0 590 395 890 396 300 1180 300h807v57q0 397-261 614t-733 217q-300 0-585-72-284-72-546-216v532q315 122 612 182 297 61 578 61 760 0 1135-394 375-393 375-1193" transform="scale(.01563)"/><path id="DejaVuSans-79" d="M2059-325q-243-625-475-815-231-191-618-191H506v481h338q237 0 368 113 132 112 291 531l103 262L191 3500h609L1894 763l1094 2737h609z" transform="scale(.01563)"/><path id="DejaVuSans-73" d="M2834 3397v-544q-243 125-506 187-262 63-544 63-428 0-642-131t-214-394q0-200 153-314t616-217l197-44q612-131 870-370t258-667q0-488-386-773Q2250-91 1575-91q-281 0-586 55T347 128v594q319-166 628-249 309-82 613-82 406 0 624 139 219 139 219 392 0 234-158 359-157 125-692 241l-200 47q-534 112-772 345-237 233-237 639 0 494 350 762 350 269 994 269 318 0 599-47 282-46 519-140" transform="scale(.01563)"/></defs><use xlink:href="#DejaVuSans-4e"/><use xlink:href="#DejaVuSans-75" x="74.805"/><use xlink:href="#DejaVuSans-6d" x="138.184"/><use xlink:href="#DejaVuSans-62" x="235.596"/><use xlink:href="#DejaVuSans-65" x="299.072"/><use xlink:href="#DejaVuSans-72" x="360.596"/><use xlink:href="#DejaVuSans-6f" x="433.496"/><use xlink:href="#DejaVuSans-66" x="494.678"/><use xlink:href="#DejaVuSans-61" x="561.67"/><use xlink:href="#DejaVuSans-72" x="622.949"/><use xlink:href="#DejaVuSans-72" x="662.313"/><use xlink:href="#DejaVuSans-61" x="703.426"/><use xlink:href="#DejaVuSans-79" x="764.705"/><use xlink:href="#DejaVuSans-73" x="823.885"/></g></g><g id="matplotlib.axis_2"><g id="ytick_1"><g id="line2d_4"><defs><path id="m0dc447ab07" d="M0 0h-3.5" style="stroke:#000;stroke-width:.8"/></defs><use xlink:href="#m0dc447ab07" x="34.241" y="109.62" style="stroke:#000;stroke-width:.8"/></g><use xlink:href="#DejaVuSans-30" id="text_5" transform="matrix(.1 0 0 -.1 20.878 113.419)"/></g><g id="ytick_2"><use xlink:href="#m0dc447ab07" id="line2d_5" x="34.241" y="76.746" style="stroke:#000;stroke-width:.8"/><g id="text_6" transform="matrix(.1 0 0 -.1 20.878 80.546)"><defs><path id="DejaVuSans-32" d="M1228 531h2203V0H469v531q359 372 979 998 621 627 780 809 303 340 423 576 121 236 121 464 0 372-261 606-261 235-680 235-297 0-627-103-329-103-704-313v638q381 153 712 231 332 78 607 78 725 0 1156-363 431-362 431-968 0-288-108-546-107-257-392-607-78-91-497-524-418-433-1181-1211" transform="scale(.01563)"/></defs><use xlink:href="#DejaVuSans-32"/></g></g><g id="ytick_3"><use xlink:href="#m0dc447ab07" id="line2d_6" x="34.241" y="43.873" style="stroke:#000;stroke-width:.8"/><g id="text_7" transform="matrix(.1 0 0 -.1 20.878 47.672)"><defs><path id="DejaVuSans-34" d="M2419 4116 825 1625h1594zm-166 550h794V1625h666v-525h-666V0h-628v1100H313v609z" transform="scale(.01563)"/></defs><use xlink:href="#DejaVuSans-34"/></g></g><g id="ytick_4"><use xlink:href="#m0dc447ab07" id="line2d_7" x="34.241" y="10.999" style="stroke:#000;stroke-width:.8"/><g id="text_8" transform="matrix(.1 0 0 -.1 20.878 14.798)"><defs><path id="DejaVuSans-36" d="M2113 2584q-425 0-674-291-248-290-248-796 0-503 248-796 249-292 674-292t673 292q248 293 248 796 0 506-248 796-248 291-673 291m1253 1979v-575q-238 112-480 171-242 60-480 60-625 0-955-422-329-422-376-1275 184 272 462 417 279 145 613 145 703 0 1111-427 408-426 408-1160 0-719-425-1154Q2819-91 2113-91q-810 0-1238 620-428 621-428 1799 0 1106 525 1764t1409 658q238 0 480-47t505-140" transform="scale(.01563)"/></defs><use xlink:href="#DejaVuSans-36"/></g></g><g id="text_9" transform="matrix(0 -.1 -.1 0 14.798 88.75)"><defs><path id="DejaVuSans-44" d="M1259 4147V519h763q966 0 1414 437 448 438 448 1382 0 937-448 1373t-1414 436zm-631 519h1297q1356 0 1990-564 635-564 635-1764 0-1207-638-1773Q3275 0 1925 0H628z" transform="scale(.01563)"/><path id="DejaVuSans-74" d="M1172 4494v-994h1184v-447H1172V1153q0-428 117-550t477-122h590V0h-590q-666 0-919 248-253 249-253 905v1900H172v447h422v994z" transform="scale(.01563)"/><path id="DejaVuSans-69" d="M603 3500h575V0H603zm0 1363h575v-729H603z" transform="scale(.01563)"/><path id="DejaVuSans-6e" d="M3513 2113V0h-575v2094q0 497-194 743-194 247-581 247-466 0-735-297-269-296-269-809V0H581v3500h578v-544q207 316 486 472 280 156 646 156 603 0 912-373 310-373 310-1098" transform="scale(.01563)"/><path id="DejaVuSans-28" d="M1984 4856q-418-718-622-1422-203-703-203-1425 0-721 205-1429t620-1424h-500Q1016-109 783 600T550 2009q0 697 231 1403 232 707 703 1444z" transform="scale(.01563)"/><path id="DejaVuSans-29" d="M513 4856h500q468-737 701-1444 233-706 233-1403 0-700-233-1409T1013-844H513q415 716 620 1424t205 1429q0 722-205 1425-205 704-620 1422" transform="scale(.01563)"/></defs><use xlink:href="#DejaVuSans-44"/><use xlink:href="#DejaVuSans-75" x="77.002"/><use xlink:href="#DejaVuSans-72" x="140.381"/><use xlink:href="#DejaVuSans-61" x="181.494"/><use xlink:href="#DejaVuSans-74" x="242.773"/><use xlink:href="#DejaVuSans-69" x="281.982"/><use xlink:href="#DejaVuSans-6f" x="309.766"/><use xlink:href="#DejaVuSans-6e" x="370.947"/><use xlink:href="#DejaVuSans-28" x="466.113"/><use xlink:href="#DejaVuSans-73" x="505.127"/><use xlink:href="#DejaVuSans-29" x="557.227"/></g></g><path id="LineCollection_1" d="M52.797 109.322v-.045m64.946-.088v-.112m64.947-.096v-.266" clip-path="url(#p448e7a1fa0)" style="fill:none;stroke:#000"/><g id="line2d_8"><defs><path id="mad705923c5" d="M3 0h-6" style="stroke:#000"/></defs><g clip-path="url(#p448e7a1fa0)"><use xlink:href="#mad705923c5" x="52.797" y="109.322" style="stroke:#000"/><use xlink:href="#mad705923c5" x="117.743" y="109.189" style="stroke:#000"/><use xlink:href="#mad705923c5" x="182.69" y="108.981" style="stroke:#000"/></g></g><g id="line2d_9" clip-path="url(#p448e7a1fa0)"><use xlink:href="#mad705923c5" x="52.797" y="109.277" style="stroke:#000"/><use xlink:href="#mad705923c5" x="117.743" y="109.077" style="stroke:#000"/><use xlink:href="#mad705923c5" x="182.69" y="108.715" style="stroke:#000"/></g><path id="LineCollection_2" d="M57.436 109.206v-.135m64.947-.628v-.507m64.947-.537v-1.083" clip-path="url(#p448e7a1fa0)" style="fill:none;stroke:#000"/><g id="line2d_10" clip-path="url(#p448e7a1fa0)"><use xlink:href="#mad705923c5" x="57.436" y="109.206" style="stroke:#000"/><use xlink:href="#mad705923c5" x="122.383" y="108.443" style="stroke:#000"/><use xlink:href="#mad705923c5" x="187.329" y="107.399" style="stroke:#000"/></g><g id="line2d_11" clip-path="url(#p448e7a1fa0)"><use xlink:href="#mad705923c5" x="57.436" y="109.071" style="stroke:#000"/><use xlink:href="#mad705923c5" x="122.383" y="107.936" style="stroke:#000"/><use xlink:href="#mad705923c5" x="187.329" y="106.316" style="stroke:#000"/></g><path id="LineCollection_3" d="M62.075 109.19v-.206m64.947-.976v-.861m64.946-.699v-1.72" clip-path="url(#p448e7a1fa0)" style="fill:none;stroke:#000"/><g id="line2d_12" clip-path="url(#p448e7a1fa0)"><use xlink:href="#mad705923c5" x="62.075" y="109.189" style="stroke:#000"/><use xlink:href="#mad705923c5" x="127.022" y="108.008" style="stroke:#000"/><use xlink:href="#mad705923c5" x="191.968" y="106.448" style="stroke:#000"/></g><g id="line2d_13" clip-path="url(#p448e7a1fa0)"><use xlink:href="#mad705923c5" x="62.075" y="108.984" style="stroke:#000"/><use xlink:href="#mad705923c5" x="127.022" y="107.147" style="stroke:#000"/><use xlink:href="#mad705923c5" x="191.968" y="104.729" style="stroke:#000"/></g><path id="LineCollection_4" d="M66.714 108.161v-.236m64.946-1.428v-1.191m64.947-.986v-2.42" clip-path="url(#p448e7a1fa0)" style="fill:none;stroke:#000"/><g id="line2d_14" clip-path="url(#p448e7a1fa0)"><use xlink:href="#mad705923c5" x="66.714" y="108.161" style="stroke:#000"/><use xlink:href="#mad705923c5" x="131.661" y="106.497" style="stroke:#000"/><use xlink:href="#mad705923c5" x="196.607" y="104.321" style="stroke:#000"/></g><g id="line2d_15" clip-path="url(#p448e7a1fa0)"><use xlink:href="#mad705923c5" x="66.714" y="107.925" style="stroke:#000"/><use xlink:href="#mad705923c5" x="131.661" y="105.306" style="stroke:#000"/><use xlink:href="#mad705923c5" x="196.607" y="101.899" style="stroke:#000"/></g><path id="LineCollection_5" d="M71.353 94.74v-.55m64.947-3.091v-1.593m64.946-3.294v-2.708" clip-path="url(#p448e7a1fa0)" style="fill:none;stroke:#000"/><g id="line2d_16" clip-path="url(#p448e7a1fa0)"><use xlink:href="#mad705923c5" x="71.353" y="94.739" style="stroke:#000"/><use xlink:href="#mad705923c5" x="136.3" y="91.099" style="stroke:#000"/><use xlink:href="#mad705923c5" x="201.246" y="86.212" style="stroke:#000"/></g><g id="line2d_17" clip-path="url(#p448e7a1fa0)"><use xlink:href="#mad705923c5" x="71.353" y="94.19" style="stroke:#000"/><use xlink:href="#mad705923c5" x="136.3" y="89.506" style="stroke:#000"/><use xlink:href="#mad705923c5" x="201.246" y="83.504" style="stroke:#000"/></g><path id="LineCollection_6" d="M75.992 84.837v-1.094m64.947 1.4v-.189m64.946-.098v-.46" clip-path="url(#p448e7a1fa0)" style="fill:none;stroke:#000"/><g id="line2d_18" clip-path="url(#p448e7a1fa0)"><use xlink:href="#mad705923c5" x="75.992" y="84.837" style="stroke:#000"/><use xlink:href="#mad705923c5" x="140.939" y="85.143" style="stroke:#000"/><use xlink:href="#mad705923c5" x="205.885" y="84.856" style="stroke:#000"/></g><g id="line2d_19" clip-path="url(#p448e7a1fa0)"><use xlink:href="#mad705923c5" x="75.992" y="83.743" style="stroke:#000"/><use xlink:href="#mad705923c5" x="140.939" y="84.954" style="stroke:#000"/><use xlink:href="#mad705923c5" x="205.885" y="84.397" style="stroke:#000"/></g><path id="LineCollection_7" d="M80.631 79.301v-2.988m64.947-14.473v-14.2m64.946-7.81V13.087" clip-path="url(#p448e7a1fa0)" style="fill:none;stroke:#000"/><g id="line2d_20" clip-path="url(#p448e7a1fa0)"><use xlink:href="#mad705923c5" x="80.631" y="79.301" style="stroke:#000"/><use xlink:href="#mad705923c5" x="145.578" y="61.841" style="stroke:#000"/><use xlink:href="#mad705923c5" x="210.524" y="39.831" style="stroke:#000"/></g><g id="line2d_21" clip-path="url(#p448e7a1fa0)"><use xlink:href="#mad705923c5" x="80.631" y="76.313" style="stroke:#000"/><use xlink:href="#mad705923c5" x="145.578" y="47.639" style="stroke:#000"/><use xlink:href="#mad705923c5" x="210.524" y="13.086" style="stroke:#000"/></g><path id="patch_24" d="M34.24 109.62V8.26" style="fill:none;stroke:#000;stroke-width:.8;stroke-linejoin:miter;stroke-linecap:square"/><path id="patch_25" d="M229.08 109.62V8.26" style="fill:none;stroke:#000;stroke-width:.8;stroke-linejoin:miter;stroke-linecap:square"/><path id="patch_26" d="M34.24 109.62h194.84" style="fill:none;stroke:#000;stroke-width:.8;stroke-linejoin:miter;stroke-linecap:square"/><path id="patch_27" d="M34.24 8.26h194.84" style="fill:none;stroke:#000;stroke-width:.8;stroke-linejoin:miter;stroke-linecap:square"/><g id="legend_1"><path id="patch_28" d="M43.97 216.116h175.382q2 0 2-2v-57.713q0-2-2-2H43.969q-2 0-2 2v57.713q0 2 2 2z" style="fill:#fff;opacity:.8;stroke:#ccc;stroke-linejoin:miter"/><path id="patch_29" d="M45.97 166.002h20v-7h-20z" style="fill:#006ba4"/><g id="text_10" transform="matrix(.1 0 0 -.1 73.97 166.002)"><defs><path id="DejaVuSans-4d" d="M628 4666h941l1190-3175 1197 3175h941V0h-616v4097L3078 897h-634L1241 4097V0H628z" transform="scale(.01563)"/><path id="DejaVuSans-4c" d="M628 4666h631V531h2272V0H628z" transform="scale(.01563)"/><path id="DejaVuSans-71" d="M947 1747q0-634 261-995t717-361 718 361q263 361 263 995t-263 995q-262 361-718 361t-717-361-261-995M2906 525q-181-312-458-464-276-152-664-152-634 0-1033 506-398 507-398 1332t398 1331q399 506 1033 506 388 0 664-152 277-151 458-463v531h575v-4831h-575z" transform="scale(.01563)"/></defs><use xlink:href="#DejaVuSans-4d"/><use xlink:href="#DejaVuSans-4c" x="86.279"/><use xlink:href="#DejaVuSans-74" x="141.992"/><use xlink:href="#DejaVuSans-72" x="181.201"/><use xlink:href="#DejaVuSans-61" x="222.314"/><use xlink:href="#DejaVuSans-71" x="283.594"/></g><path id="patch_30" d="M45.97 180.68h20v-7h-20z" style="fill:#ff800e"/><g id="text_11" transform="matrix(.1 0 0 -.1 73.97 180.68)"><defs><path id="DejaVuSans-46" d="M628 4666h2681v-532H1259V2759h1850v-531H1259V0H628z" transform="scale(.01563)"/><path id="DejaVuSans-54" d="M-19 4666h3947v-532H2272V0h-634v4134H-19z" transform="scale(.01563)"/><path id="DejaVuSans-63" d="M3122 3366v-538q-244 135-489 202t-495 67q-560 0-870-355-309-354-309-995t309-996q310-354 870-354 250 0 495 67t489 202V134Q2881 22 2623-34q-257-57-548-57-791 0-1257 497-465 497-465 1341 0 856 470 1346 471 491 1290 491 265 0 518-55 253-54 491-163" transform="scale(.01563)"/><path id="DejaVuSans-6b" d="M581 4863h578V1991l1716 1509h734L1753 1863 3688 0h-750L1159 1709V0H581z" transform="scale(.01563)"/></defs><use xlink:href="#DejaVuSans-46"/><use xlink:href="#DejaVuSans-61" x="48.395"/><use xlink:href="#DejaVuSans-73" x="109.674"/><use xlink:href="#DejaVuSans-74" x="161.773"/><use xlink:href="#DejaVuSans-54" x="200.982"/><use xlink:href="#DejaVuSans-72" x="247.316"/><use xlink:href="#DejaVuSans-61" x="288.43"/><use xlink:href="#DejaVuSans-63" x="349.709"/><use xlink:href="#DejaVuSans-6b" x="404.689"/><use xlink:href="#DejaVuSans-4d" x="462.6"/><use xlink:href="#DejaVuSans-4c" x="548.879"/></g><path id="patch_31" d="M45.97 195.358h20v-7h-20z" style="fill:#ababab"/><g id="text_12" transform="matrix(.1 0 0 -.1 73.97 195.358)"><defs><path id="DejaVuSans-70" d="M1159 525v-1856H581v4831h578v-531q182 312 458 463 277 152 661 152 638 0 1036-506 399-506 399-1331T3314 415Q2916-91 2278-91q-384 0-661 152-276 152-458 464m1957 1222q0 634-261 995t-717 361q-457 0-718-361t-261-995 261-995 718-361q456 0 717 361t261 995" transform="scale(.01563)"/></defs><use xlink:href="#DejaVuSans-4e"/><use xlink:href="#DejaVuSans-65" x="74.805"/><use xlink:href="#DejaVuSans-70" x="136.328"/><use xlink:href="#DejaVuSans-74" x="199.805"/><use xlink:href="#DejaVuSans-75" x="239.014"/><use xlink:href="#DejaVuSans-6e" x="302.393"/><use xlink:href="#DejaVuSans-65" x="365.771"/></g><path id="patch_32" d="M45.97 210.036h20v-7h-20z" style="fill:#595959"/><g id="text_13" transform="matrix(.1 0 0 -.1 73.97 210.036)"><defs><path id="DejaVuSans-43" d="M4122 4306v-665q-319 297-680 443-361 147-767 147-800 0-1225-489t-425-1414q0-922 425-1411t1225-489q406 0 767 147t680 444V359q-331-225-702-338-370-112-782-112-1060 0-1670 648-609 649-609 1771 0 1125 609 1773 610 649 1670 649 418 0 788-111 371-111 696-333" transform="scale(.01563)"/></defs><use xlink:href="#DejaVuSans-43"/><use xlink:href="#DejaVuSans-6f" x="69.824"/><use xlink:href="#DejaVuSans-6d" x="131.006"/><use xlink:href="#DejaVuSans-65" x="228.418"/><use xlink:href="#DejaVuSans-74" x="289.941"/></g><path id="patch_33" d="M154.427 166.002h20v-7h-20z" style="fill:#5f9ed1"/><g id="text_14" transform="matrix(.1 0 0 -.1 182.427 166.002)"><defs><path id="DejaVuSans-41" d="m2188 4044-857-2322h1716zm-357 622h716L4325 0h-656l-425 1197H1141L716 0H50z" transform="scale(.01563)"/></defs><use xlink:href="#DejaVuSans-41"/><use xlink:href="#DejaVuSans-69" x="68.408"/><use xlink:href="#DejaVuSans-6d" x="96.191"/></g><path id="patch_34" d="M154.427 180.68h20v-7h-20z" style="fill:#c85200"/><g id="text_15" transform="matrix(.1 0 0 -.1 182.427 180.68)"><defs><path id="DejaVuSans-6c" d="M603 4863h575V0H603z" transform="scale(.01563)"/><path id="DejaVuSans-77" d="M269 3500h575l719-2731 715 2731h678l719-2731 716 2731h575L4050 0h-678l-753 2869L1863 0h-679z" transform="scale(.01563)"/></defs><use xlink:href="#DejaVuSans-4d"/><use xlink:href="#DejaVuSans-4c" x="86.279"/><use xlink:href="#DejaVuSans-66" x="141.992"/><use xlink:href="#DejaVuSans-6c" x="177.197"/><use xlink:href="#DejaVuSans-6f" x="204.98"/><use xlink:href="#DejaVuSans-77" x="266.162"/></g><path id="patch_35" d="M154.427 195.358h20v-7h-20z" style="fill:#898989"/><g id="text_16" transform="matrix(.1 0 0 -.1 182.427 195.358)"><defs><path id="DejaVuSans-57" d="M213 4666h637l981-3944 978 3944h710l981-3944 978 3944h641L4947 0h-794l-984 4050L2175 0h-794z" transform="scale(.01563)"/><path id="DejaVuSans-64" d="M2906 2969v1894h575V0h-575v525q-181-312-458-464-276-152-664-152-634 0-1033 506-398 507-398 1332t398 1331q399 506 1033 506 388 0 664-152 277-151 458-463M947 1747q0-634 261-995t717-361 718 361q263 361 263 995t-263 995q-262 361-718 361t-717-361-261-995" transform="scale(.01563)"/><path id="DejaVuSans-42" d="M1259 2228V519h1013q509 0 754 211 246 211 246 645 0 438-246 645-245 208-754 208zm0 1919V2741h935q462 0 688 173 227 174 227 530 0 353-227 528-226 175-688 175zm-631 519h1613q722 0 1112-300 391-300 391-853 0-429-200-682t-588-315q466-100 724-418 258-317 258-792 0-625-425-966Q3088 0 2303 0H628z" transform="scale(.01563)"/></defs><use xlink:href="#DejaVuSans-57"/><use xlink:href="#DejaVuSans-61" x="92.502"/><use xlink:href="#DejaVuSans-6e" x="153.781"/><use xlink:href="#DejaVuSans-64" x="217.16"/><use xlink:href="#DejaVuSans-42" x="280.637"/></g></g></g><g id="axes_2"><path id="patch_36" d="M270.64 109.62h194.84V8.26H270.64z" style="fill:#fff"/><path id="patch_37" d="M286.877 109.62h4.64v-.229h-4.64z" clip-path="url(#pc7d8959098)" style="fill:#006ba4"/><path id="patch_38" d="M351.824 109.62h4.639v-.262h-4.639z" clip-path="url(#pc7d8959098)" style="fill:#006ba4"/><path id="patch_39" d="M416.77 109.62h4.64v-.762h-4.64z" clip-path="url(#pc7d8959098)" style="fill:#006ba4"/><path id="patch_40" d="M291.516 109.62h4.64v-.215h-4.64z" clip-path="url(#pc7d8959098)" style="fill:#ff800e"/><path id="patch_41" d="M356.463 109.62h4.64v-.561h-4.64z" clip-path="url(#pc7d8959098)" style="fill:#ff800e"/><path id="patch_42" d="M421.41 109.62h4.639v-2.934h-4.64z" clip-path="url(#pc7d8959098)" style="fill:#ff800e"/><path id="patch_43" d="M296.155 109.62h4.64v-.14h-4.64z" clip-path="url(#pc7d8959098)" style="fill:#ababab"/><path id="patch_44" d="M361.102 109.62h4.64v-.569h-4.64z" clip-path="url(#pc7d8959098)" style="fill:#ababab"/><path id="patch_45" d="M426.049 109.62h4.639v-4.535h-4.64z" clip-path="url(#pc7d8959098)" style="fill:#ababab"/><path id="patch_46" d="M300.794 109.62h4.64v-.91h-4.64z" clip-path="url(#pc7d8959098)" style="fill:#595959"/><path id="patch_47" d="M365.741 109.62h4.64v-1.482h-4.64z" clip-path="url(#pc7d8959098)" style="fill:#595959"/><path id="patch_48" d="M430.688 109.62h4.639v-6.977h-4.64z" clip-path="url(#pc7d8959098)" style="fill:#595959"/><path id="patch_49" d="M305.433 109.62h4.64V98.472h-4.64z" clip-path="url(#pc7d8959098)" style="fill:#5f9ed1"/><path id="patch_50" d="M370.38 109.62h4.64V92.366h-4.64z" clip-path="url(#pc7d8959098)" style="fill:#5f9ed1"/><path id="patch_51" d="M435.327 109.62h4.639V91.014h-4.64z" clip-path="url(#pc7d8959098)" style="fill:#5f9ed1"/><path id="patch_52" d="M310.073 109.62h4.639V90.013h-4.64z" clip-path="url(#pc7d8959098)" style="fill:#c85200"/><path id="patch_53" d="M375.02 109.62h4.638v-19.7h-4.639z" clip-path="url(#pc7d8959098)" style="fill:#c85200"/><path id="patch_54" d="M439.966 109.62h4.639V89.493h-4.64z" clip-path="url(#pc7d8959098)" style="fill:#c85200"/><path id="patch_55" d="M314.712 109.62h4.639V88.828h-4.64z" clip-path="url(#pc7d8959098)" style="fill:#898989"/><path id="patch_56" d="M379.658 109.62h4.64V83.352h-4.64z" clip-path="url(#pc7d8959098)" style="fill:#898989"/><path id="patch_57" d="M444.605 109.62h4.639V21.887h-4.64z" clip-path="url(#pc7d8959098)" style="fill:#898989"/><g id="matplotlib.axis_3"><g id="xtick_4"><use xlink:href="#m2ed1aaf3b0" id="line2d_22" x="303.114" y="109.62" style="stroke:#000;stroke-width:.8"/><g id="text_17" transform="matrix(.1 0 0 -.1 287.208 124.218)"><use xlink:href="#DejaVuSans-31"/><use xlink:href="#DejaVuSans-30" x="63.623"/><use xlink:href="#DejaVuSans-30" x="127.246"/><use xlink:href="#DejaVuSans-30" x="190.869"/><use xlink:href="#DejaVuSans-30" x="254.492"/></g></g><g id="xtick_5"><use xlink:href="#m2ed1aaf3b0" id="line2d_23" x="368.061" y="109.62" style="stroke:#000;stroke-width:.8"/><g id="text_18" transform="matrix(.1 0 0 -.1 348.973 124.218)"><use xlink:href="#DejaVuSans-31"/><use xlink:href="#DejaVuSans-30" x="63.623"/><use xlink:href="#DejaVuSans-30" x="127.246"/><use xlink:href="#DejaVuSans-30" x="190.869"/><use xlink:href="#DejaVuSans-30" x="254.492"/><use xlink:href="#DejaVuSans-30" x="318.115"/></g></g><g id="xtick_6"><use xlink:href="#m2ed1aaf3b0" id="line2d_24" x="433.007" y="109.62" style="stroke:#000;stroke-width:.8"/><g id="text_19" transform="matrix(.1 0 0 -.1 410.739 124.218)"><use xlink:href="#DejaVuSans-31"/><use xlink:href="#DejaVuSans-30" x="63.623"/><use xlink:href="#DejaVuSans-30" x="127.246"/><use xlink:href="#DejaVuSans-30" x="190.869"/><use xlink:href="#DejaVuSans-30" x="254.492"/><use xlink:href="#DejaVuSans-30" x="318.115"/><use xlink:href="#DejaVuSans-30" x="381.738"/></g></g><g id="text_20" transform="matrix(.1 0 0 -.1 334.083 137.896)"><defs><path id="DejaVuSans-53" d="M3425 4513v-616q-359 172-678 256-319 85-616 85-515 0-795-200t-280-569q0-310 186-468 186-157 705-254l381-78q706-135 1042-474t336-907q0-679-455-1029Q2797-91 1919-91q-331 0-705 75-373 75-773 222v650q384-215 753-325 369-109 725-109 540 0 834 212 294 213 294 607 0 343-211 537t-692 291l-385 75q-706 140-1022 440-315 300-315 835 0 619 436 975t1201 356q329 0 669-60 341-59 697-177" transform="scale(.01563)"/><path id="DejaVuSans-7a" d="M353 3500h2731v-525L922 459h2162V0H275v525l2163 2516H353z" transform="scale(.01563)"/></defs><use xlink:href="#DejaVuSans-53"/><use xlink:href="#DejaVuSans-69" x="63.477"/><use xlink:href="#DejaVuSans-7a" x="91.26"/><use xlink:href="#DejaVuSans-65" x="143.75"/><use xlink:href="#DejaVuSans-6f" x="237.061"/><use xlink:href="#DejaVuSans-66" x="298.242"/><use xlink:href="#DejaVuSans-61" x="365.234"/><use xlink:href="#DejaVuSans-72" x="426.514"/><use xlink:href="#DejaVuSans-72" x="465.877"/><use xlink:href="#DejaVuSans-61" x="506.99"/><use xlink:href="#DejaVuSans-79" x="568.27"/><use xlink:href="#DejaVuSans-73" x="627.449"/></g></g><g id="matplotlib.axis_4"><g id="ytick_5"><use xlink:href="#m0dc447ab07" id="line2d_25" x="270.641" y="109.62" style="stroke:#000;stroke-width:.8"/><use xlink:href="#DejaVuSans-30" id="text_21" transform="matrix(.1 0 0 -.1 257.278 113.419)"/></g><g id="ytick_6"><use xlink:href="#m0dc447ab07" id="line2d_26" x="270.641" y="83.532" style="stroke:#000;stroke-width:.8"/><use xlink:href="#DejaVuSans-32" id="text_22" transform="matrix(.1 0 0 -.1 257.278 87.331)"/></g><g id="ytick_7"><use xlink:href="#m0dc447ab07" id="line2d_27" x="270.641" y="57.444" style="stroke:#000;stroke-width:.8"/><use xlink:href="#DejaVuSans-34" id="text_23" transform="matrix(.1 0 0 -.1 257.278 61.244)"/></g><g id="ytick_8"><use xlink:href="#m0dc447ab07" id="line2d_28" x="270.641" y="31.357" style="stroke:#000;stroke-width:.8"/><use xlink:href="#DejaVuSans-36" id="text_24" transform="matrix(.1 0 0 -.1 257.278 35.156)"/></g></g><path id="LineCollection_8" d="M289.197 109.408v-.033m64.946.002v-.038m64.947-.387v-.189" clip-path="url(#pc7d8959098)" style="fill:none;stroke:#000"/><g id="line2d_29" clip-path="url(#pc7d8959098)"><use xlink:href="#mad705923c5" x="289.197" y="109.408" style="stroke:#000"/><use xlink:href="#mad705923c5" x="354.143" y="109.377" style="stroke:#000"/><use xlink:href="#mad705923c5" x="419.09" y="108.952" style="stroke:#000"/></g><g id="line2d_30" clip-path="url(#pc7d8959098)"><use xlink:href="#mad705923c5" x="289.197" y="109.375" style="stroke:#000"/><use xlink:href="#mad705923c5" x="354.143" y="109.339" style="stroke:#000"/><use xlink:href="#mad705923c5" x="419.09" y="108.763" style="stroke:#000"/></g><path id="LineCollection_9" d="M293.836 109.423v-.036m64.947-.271v-.114m64.947-1.955v-.722" clip-path="url(#pc7d8959098)" style="fill:none;stroke:#000"/><g id="line2d_31" clip-path="url(#pc7d8959098)"><use xlink:href="#mad705923c5" x="293.836" y="109.423" style="stroke:#000"/><use xlink:href="#mad705923c5" x="358.783" y="109.116" style="stroke:#000"/><use xlink:href="#mad705923c5" x="423.729" y="107.047" style="stroke:#000"/></g><g id="line2d_32" clip-path="url(#pc7d8959098)"><use xlink:href="#mad705923c5" x="293.836" y="109.387" style="stroke:#000"/><use xlink:href="#mad705923c5" x="358.783" y="109.002" style="stroke:#000"/><use xlink:href="#mad705923c5" x="423.729" y="106.325" style="stroke:#000"/></g><path id="LineCollection_10" d="M298.475 109.496v-.032m64.947-.347v-.132m64.946-3.34v-1.12" clip-path="url(#pc7d8959098)" style="fill:none;stroke:#000"/><g id="line2d_33" clip-path="url(#pc7d8959098)"><use xlink:href="#mad705923c5" x="298.475" y="109.496" style="stroke:#000"/><use xlink:href="#mad705923c5" x="363.422" y="109.117" style="stroke:#000"/><use xlink:href="#mad705923c5" x="428.368" y="105.645" style="stroke:#000"/></g><g id="line2d_34" clip-path="url(#pc7d8959098)"><use xlink:href="#mad705923c5" x="298.475" y="109.464" style="stroke:#000"/><use xlink:href="#mad705923c5" x="363.422" y="108.985" style="stroke:#000"/><use xlink:href="#mad705923c5" x="428.368" y="104.526" style="stroke:#000"/></g><path id="LineCollection_11" d="M303.114 108.73v-.04m64.946-.466v-.17m64.947-4.611v-1.6" clip-path="url(#pc7d8959098)" style="fill:none;stroke:#000"/><g id="line2d_35" clip-path="url(#pc7d8959098)"><use xlink:href="#mad705923c5" x="303.114" y="108.73" style="stroke:#000"/><use xlink:href="#mad705923c5" x="368.061" y="108.224" style="stroke:#000"/><use xlink:href="#mad705923c5" x="433.007" y="103.443" style="stroke:#000"/></g><g id="line2d_36" clip-path="url(#pc7d8959098)"><use xlink:href="#mad705923c5" x="303.114" y="108.689" style="stroke:#000"/><use xlink:href="#mad705923c5" x="368.061" y="108.053" style="stroke:#000"/><use xlink:href="#mad705923c5" x="433.007" y="101.843" style="stroke:#000"/></g><path id="LineCollection_12" d="M307.753 98.65v-.356m64.947-5.117v-1.622m64.946.37v-1.823" clip-path="url(#pc7d8959098)" style="fill:none;stroke:#000"/><g id="line2d_37" clip-path="url(#pc7d8959098)"><use xlink:href="#mad705923c5" x="307.753" y="98.651" style="stroke:#000"/><use xlink:href="#mad705923c5" x="372.7" y="93.177" style="stroke:#000"/><use xlink:href="#mad705923c5" x="437.646" y="91.925" style="stroke:#000"/></g><g id="line2d_38" clip-path="url(#pc7d8959098)"><use xlink:href="#mad705923c5" x="307.753" y="98.294" style="stroke:#000"/><use xlink:href="#mad705923c5" x="372.7" y="91.555" style="stroke:#000"/><use xlink:href="#mad705923c5" x="437.646" y="90.102" style="stroke:#000"/></g><path id="LineCollection_13" d="M312.392 90.126V89.9m64.947.238v-.437m64.946.201v-.819" clip-path="url(#pc7d8959098)" style="fill:none;stroke:#000"/><g id="line2d_39" clip-path="url(#pc7d8959098)"><use xlink:href="#mad705923c5" x="312.392" y="90.126" style="stroke:#000"/><use xlink:href="#mad705923c5" x="377.339" y="90.138" style="stroke:#000"/><use xlink:href="#mad705923c5" x="442.285" y="89.902" style="stroke:#000"/></g><g id="line2d_40" clip-path="url(#pc7d8959098)"><use xlink:href="#mad705923c5" x="312.392" y="89.9" style="stroke:#000"/><use xlink:href="#mad705923c5" x="377.339" y="89.701" style="stroke:#000"/><use xlink:href="#mad705923c5" x="442.285" y="89.083" style="stroke:#000"/></g><path id="LineCollection_14" d="M317.031 89.487v-1.318m64.947-3.662v-2.31m64.946-51.509V13.086" clip-path="url(#pc7d8959098)" style="fill:none;stroke:#000"/><g id="line2d_41" clip-path="url(#pc7d8959098)"><use xlink:href="#mad705923c5" x="317.031" y="89.487" style="stroke:#000"/><use xlink:href="#mad705923c5" x="381.978" y="84.507" style="stroke:#000"/><use xlink:href="#mad705923c5" x="446.924" y="30.688" style="stroke:#000"/></g><g id="line2d_42" clip-path="url(#pc7d8959098)"><use xlink:href="#mad705923c5" x="317.031" y="88.169" style="stroke:#000"/><use xlink:href="#mad705923c5" x="381.978" y="82.196" style="stroke:#000"/><use xlink:href="#mad705923c5" x="446.924" y="13.086" style="stroke:#000"/></g><path id="patch_58" d="M270.64 109.62V8.26" style="fill:none;stroke:#000;stroke-width:.8;stroke-linejoin:miter;stroke-linecap:square"/><path id="patch_59" d="M465.48 109.62V8.26" style="fill:none;stroke:#000;stroke-width:.8;stroke-linejoin:miter;stroke-linecap:square"/><path id="patch_60" d="M270.64 109.62h194.84" style="fill:none;stroke:#000;stroke-width:.8;stroke-linejoin:miter;stroke-linecap:square"/><path id="patch_61" d="M270.64 8.26h194.84" style="fill:none;stroke:#000;stroke-width:.8;stroke-linejoin:miter;stroke-linecap:square"/><g id="legend_2"><path id="patch_62" d="M280.37 216.116h175.382q2 0 2-2v-57.713q0-2-2-2H280.369q-2 0-2 2v57.713q0 2 2 2z" style="fill:#fff;opacity:.8;stroke:#ccc;stroke-linejoin:miter"/><path id="patch_63" d="M282.37 166.002h20v-7h-20z" style="fill:#006ba4"/><g id="text_25" transform="matrix(.1 0 0 -.1 310.37 166.002)"><use xlink:href="#DejaVuSans-4d"/><use xlink:href="#DejaVuSans-4c" x="86.279"/><use xlink:href="#DejaVuSans-74" x="141.992"/><use xlink:href="#DejaVuSans-72" x="181.201"/><use xlink:href="#DejaVuSans-61" x="222.314"/><use xlink:href="#DejaVuSans-71" x="283.594"/></g><path id="patch_64" d="M282.37 180.68h20v-7h-20z" style="fill:#ff800e"/><g id="text_26" transform="matrix(.1 0 0 -.1 310.37 180.68)"><use xlink:href="#DejaVuSans-46"/><use xlink:href="#DejaVuSans-61" x="48.395"/><use xlink:href="#DejaVuSans-73" x="109.674"/><use xlink:href="#DejaVuSans-74" x="161.773"/><use xlink:href="#DejaVuSans-54" x="200.982"/><use xlink:href="#DejaVuSans-72" x="247.316"/><use xlink:href="#DejaVuSans-61" x="288.43"/><use xlink:href="#DejaVuSans-63" x="349.709"/><use xlink:href="#DejaVuSans-6b" x="404.689"/><use xlink:href="#DejaVuSans-4d" x="462.6"/><use xlink:href="#DejaVuSans-4c" x="548.879"/></g><path id="patch_65" d="M282.37 195.358h20v-7h-20z" style="fill:#ababab"/><g id="text_27" transform="matrix(.1 0 0 -.1 310.37 195.358)"><use xlink:href="#DejaVuSans-4e"/><use xlink:href="#DejaVuSans-65" x="74.805"/><use xlink:href="#DejaVuSans-70" x="136.328"/><use xlink:href="#DejaVuSans-74" x="199.805"/><use xlink:href="#DejaVuSans-75" x="239.014"/><use xlink:href="#DejaVuSans-6e" x="302.393"/><use xlink:href="#DejaVuSans-65" x="365.771"/></g><path id="patch_66" d="M282.37 210.036h20v-7h-20z" style="fill:#595959"/><g id="text_28" transform="matrix(.1 0 0 -.1 310.37 210.036)"><use xlink:href="#DejaVuSans-43"/><use xlink:href="#DejaVuSans-6f" x="69.824"/><use xlink:href="#DejaVuSans-6d" x="131.006"/><use xlink:href="#DejaVuSans-65" x="228.418"/><use xlink:href="#DejaVuSans-74" x="289.941"/></g><path id="patch_67" d="M390.827 166.002h20v-7h-20z" style="fill:#5f9ed1"/><g id="text_29" transform="matrix(.1 0 0 -.1 418.827 166.002)"><use xlink:href="#DejaVuSans-41"/><use xlink:href="#DejaVuSans-69" x="68.408"/><use xlink:href="#DejaVuSans-6d" x="96.191"/></g><path id="patch_68" d="M390.827 180.68h20v-7h-20z" style="fill:#c85200"/><g id="text_30" transform="matrix(.1 0 0 -.1 418.827 180.68)"><use xlink:href="#DejaVuSans-4d"/><use xlink:href="#DejaVuSans-4c" x="86.279"/><use xlink:href="#DejaVuSans-66" x="141.992"/><use xlink:href="#DejaVuSans-6c" x="177.197"/><use xlink:href="#DejaVuSans-6f" x="204.98"/><use xlink:href="#DejaVuSans-77" x="266.162"/></g><path id="patch_69" d="M390.827 195.358h20v-7h-20z" style="fill:#898989"/><g id="text_31" transform="matrix(.1 0 0 -.1 418.827 195.358)"><use xlink:href="#DejaVuSans-57"/><use xlink:href="#DejaVuSans-61" x="92.502"/><use xlink:href="#DejaVuSans-6e" x="153.781"/><use xlink:href="#DejaVuSans-64" x="217.16"/><use xlink:href="#DejaVuSans-42" x="280.637"/></g></g></g><g id="axes_3"><path id="patch_70" d="M507.04 109.62h194.84V8.26H507.04z" style="fill:#fff"/><path id="patch_71" d="M514 109.62h13.916v-.818H514z" clip-path="url(#p5793a9f5ce)" style="fill:#006ba4"/><path id="patch_72" d="M541.833 109.62h13.918v-2.422h-13.918z" clip-path="url(#p5793a9f5ce)" style="fill:#006ba4"/><path id="patch_73" d="M569.668 109.62h13.917v-3.423h-13.917z" clip-path="url(#p5793a9f5ce)" style="fill:#006ba4"/><path id="patch_74" d="M597.502 109.62h13.917v-6.117h-13.917z" clip-path="url(#p5793a9f5ce)" style="fill:#006ba4"/><path id="patch_75" d="M625.336 109.62h13.917V78.929h-13.917z" clip-path="url(#p5793a9f5ce)" style="fill:#006ba4"/><path id="patch_76" d="M653.17 109.62h13.918V70.815H653.17z" clip-path="url(#p5793a9f5ce)" style="fill:#006ba4"/><path id="patch_77" d="M681.005 109.62h13.917V21.614h-13.917z" clip-path="url(#p5793a9f5ce)" style="fill:#006ba4"/><g id="matplotlib.axis_5"><g id="xtick_7"><use xlink:href="#m2ed1aaf3b0" id="line2d_43" x="520.958" y="109.62" style="stroke:#000;stroke-width:.8"/><g id="text_32" transform="scale(.1 -.1)rotate(45 4322.022 5431.27)"><use xlink:href="#DejaVuSans-4d"/><use xlink:href="#DejaVuSans-4c" x="86.279"/><use xlink:href="#DejaVuSans-74" x="141.992"/><use xlink:href="#DejaVuSans-72" x="181.201"/><use xlink:href="#DejaVuSans-61" x="222.314"/><use xlink:href="#DejaVuSans-71" x="283.594"/></g></g><g id="xtick_8"><use xlink:href="#m2ed1aaf3b0" id="line2d_44" x="548.792" y="109.62" style="stroke:#000;stroke-width:.8"/><g id="text_33" transform="scale(.1 -.1)rotate(45 4635.463 5566.325)"><use xlink:href="#DejaVuSans-46"/><use xlink:href="#DejaVuSans-61" x="48.395"/><use xlink:href="#DejaVuSans-73" x="109.674"/><use xlink:href="#DejaVuSans-74" x="161.773"/><use xlink:href="#DejaVuSans-54" x="200.982"/><use xlink:href="#DejaVuSans-72" x="247.316"/><use xlink:href="#DejaVuSans-61" x="288.43"/><use xlink:href="#DejaVuSans-63" x="349.709"/><use xlink:href="#DejaVuSans-6b" x="404.689"/><use xlink:href="#DejaVuSans-4d" x="462.6"/><use xlink:href="#DejaVuSans-4c" x="548.879"/></g></g><g id="xtick_9"><use xlink:href="#m2ed1aaf3b0" id="line2d_45" x="576.626" y="109.62" style="stroke:#000;stroke-width:.8"/><g id="text_34" transform="scale(.1 -.1)rotate(45 4654.665 6040.64)"><use xlink:href="#DejaVuSans-4e"/><use xlink:href="#DejaVuSans-65" x="74.805"/><use xlink:href="#DejaVuSans-70" x="136.328"/><use xlink:href="#DejaVuSans-74" x="199.805"/><use xlink:href="#DejaVuSans-75" x="239.014"/><use xlink:href="#DejaVuSans-6e" x="302.393"/><use xlink:href="#DejaVuSans-65" x="365.771"/></g></g><g id="xtick_10"><use xlink:href="#m2ed1aaf3b0" id="line2d_46" x="604.461" y="109.62" style="stroke:#000;stroke-width:.8"/><g id="text_35" transform="scale(.1 -.1)rotate(45 4727.407 6453.224)"><use xlink:href="#DejaVuSans-43"/><use xlink:href="#DejaVuSans-6f" x="69.824"/><use xlink:href="#DejaVuSans-6d" x="131.006"/><use xlink:href="#DejaVuSans-65" x="228.418"/><use xlink:href="#DejaVuSans-74" x="289.941"/></g></g><g id="xtick_11"><use xlink:href="#m2ed1aaf3b0" id="line2d_47" x="632.295" y="109.62" style="stroke:#000;stroke-width:.8"/><g id="text_36" transform="scale(.1 -.1)rotate(45 4774.833 6894.997)"><use xlink:href="#DejaVuSans-41"/><use xlink:href="#DejaVuSans-69" x="68.408"/><use xlink:href="#DejaVuSans-6d" x="96.191"/></g></g><g id="xtick_12"><use xlink:href="#m2ed1aaf3b0" id="line2d_48" x="660.129" y="109.62" style="stroke:#000;stroke-width:.8"/><g id="text_37" transform="scale(.1 -.1)rotate(45 5018.47 7110.535)"><use xlink:href="#DejaVuSans-4d"/><use xlink:href="#DejaVuSans-4c" x="86.279"/><use xlink:href="#DejaVuSans-66" x="141.992"/><use xlink:href="#DejaVuSans-6c" x="177.197"/><use xlink:href="#DejaVuSans-6f" x="204.98"/><use xlink:href="#DejaVuSans-77" x="266.162"/></g></g><g id="xtick_13"><use xlink:href="#m2ed1aaf3b0" id="line2d_49" x="687.963" y="109.62" style="stroke:#000;stroke-width:.8"/><g id="text_38" transform="scale(.1 -.1)rotate(45 5158.52 7445.513)"><use xlink:href="#DejaVuSans-57"/><use xlink:href="#DejaVuSans-61" x="92.502"/><use xlink:href="#DejaVuSans-6e" x="153.781"/><use xlink:href="#DejaVuSans-64" x="217.16"/><use xlink:href="#DejaVuSans-42" x="280.637"/></g></g><g id="text_39" transform="matrix(.1 0 0 -.1 585.707 177.812)"><defs><path id="DejaVuSans-68" d="M3513 2113V0h-575v2094q0 497-194 743-194 247-581 247-466 0-735-297-269-296-269-809V0H581v4863h578V2956q207 316 486 472 280 156 646 156 603 0 912-373 310-373 310-1098" transform="scale(.01563)"/></defs><use xlink:href="#DejaVuSans-4d"/><use xlink:href="#DejaVuSans-65" x="86.279"/><use xlink:href="#DejaVuSans-74" x="147.803"/><use xlink:href="#DejaVuSans-68" x="187.012"/><use xlink:href="#DejaVuSans-6f" x="250.391"/><use xlink:href="#DejaVuSans-64" x="311.572"/></g></g><g id="matplotlib.axis_6"><g id="ytick_9"><use xlink:href="#m0dc447ab07" id="line2d_50" x="507.041" y="109.62" style="stroke:#000;stroke-width:.8"/><use xlink:href="#DejaVuSans-30" id="text_40" transform="matrix(.1 0 0 -.1 493.678 113.419)"/></g><g id="ytick_10"><use xlink:href="#m0dc447ab07" id="line2d_51" x="507.041" y="84.071" style="stroke:#000;stroke-width:.8"/><use xlink:href="#DejaVuSans-31" id="text_41" transform="matrix(.1 0 0 -.1 493.678 87.87)"/></g><g id="ytick_11"><use xlink:href="#m0dc447ab07" id="line2d_52" x="507.041" y="58.522" style="stroke:#000;stroke-width:.8"/><use xlink:href="#DejaVuSans-32" id="text_42" transform="matrix(.1 0 0 -.1 493.678 62.32)"/></g><g id="ytick_12"><use xlink:href="#m0dc447ab07" id="line2d_53" x="507.041" y="32.973" style="stroke:#000;stroke-width:.8"/><g id="text_43" transform="matrix(.1 0 0 -.1 493.678 36.772)"><defs><path id="DejaVuSans-33" d="M2597 2516q453-97 707-404 255-306 255-756 0-690-475-1069Q2609-91 1734-91q-293 0-604 58T488 141v609q262-153 574-231 313-78 654-78 593 0 904 234t311 681q0 413-289 645-289 233-804 233h-544v519h569q465 0 712 186t247 536q0 359-255 551-254 193-729 193-260 0-557-57-297-56-653-174v562q360 100 674 150t592 50q719 0 1137-327 419-326 419-882 0-388-222-655t-631-370" transform="scale(.01563)"/></defs><use xlink:href="#DejaVuSans-33"/></g></g></g><path id="LineCollection_15" d="M520.958 108.883v-.162m27.834-1.179v-.689m27.834-.108v-1.097m27.834-1.375v-1.54m27.835-22.762v-2.085m27.835-6.759v-.624m27.833-40.363V13.087" clip-path="url(#p5793a9f5ce)" style="fill:none;stroke:#000"/><g id="line2d_54" clip-path="url(#p5793a9f5ce)"><use xlink:href="#mad705923c5" x="520.958" y="108.883" style="stroke:#000"/><use xlink:href="#mad705923c5" x="548.792" y="107.542" style="stroke:#000"/><use xlink:href="#mad705923c5" x="576.626" y="106.745" style="stroke:#000"/><use xlink:href="#mad705923c5" x="604.461" y="104.273" style="stroke:#000"/><use xlink:href="#mad705923c5" x="632.295" y="79.971" style="stroke:#000"/><use xlink:href="#mad705923c5" x="660.129" y="71.127" style="stroke:#000"/><use xlink:href="#mad705923c5" x="687.963" y="30.141" style="stroke:#000"/></g><g id="line2d_55" clip-path="url(#p5793a9f5ce)"><use xlink:href="#mad705923c5" x="520.958" y="108.721" style="stroke:#000"/><use xlink:href="#mad705923c5" x="548.792" y="106.853" style="stroke:#000"/><use xlink:href="#mad705923c5" x="576.626" y="105.648" style="stroke:#000"/><use xlink:href="#mad705923c5" x="604.461" y="102.733" style="stroke:#000"/><use xlink:href="#mad705923c5" x="632.295" y="77.886" style="stroke:#000"/><use xlink:href="#mad705923c5" x="660.129" y="70.503" style="stroke:#000"/><use xlink:href="#mad705923c5" x="687.963" y="13.086" style="stroke:#000"/></g><path id="patch_78" d="M507.04 109.62V8.26" style="fill:none;stroke:#000;stroke-width:.8;stroke-linejoin:miter;stroke-linecap:square"/><path id="patch_79" d="M701.88 109.62V8.26" style="fill:none;stroke:#000;stroke-width:.8;stroke-linejoin:miter;stroke-linecap:square"/><path id="patch_80" d="M507.04 109.62h194.84" style="fill:none;stroke:#000;stroke-width:.8;stroke-linejoin:miter;stroke-linecap:square"/><path id="patch_81" d="M507.04 8.26h194.84" style="fill:none;stroke:#000;stroke-width:.8;stroke-linejoin:miter;stroke-linecap:square"/></g></g><defs><clipPath id="p448e7a1fa0"><path d="M34.241 8.26h194.84v101.36H34.241z"/></clipPath><clipPath id="pc7d8959098"><path d="M270.641 8.26h194.84v101.36h-194.84z"/></clipPath><clipPath id="p5793a9f5ce"><path d="M507.041 8.26h194.84v101.36h-194.84z"/></clipPath></defs></svg>