<svg xmlns="http://www.w3.org/2000/svg" xmlns:xlink="http://www.w3.org/1999/xlink" width="945.441" height="296.341" viewBox="0 0 709.081 222.256"><defs><style>*{stroke-linejoin:round;stroke-linecap:butt}</style></defs><g id="figure_1"><path id="patch_1" d="M0 222.256h709.08V0H0z" style="fill:#fff"/><g id="axes_1"><path id="patch_2" d="M34.24 108.56h194.84V7.2H34.24z" style="fill:#fff"/><path id="patch_3" d="M43.983 108.56h4.87v-.284h-4.87z" clip-path="url(#pde1bea9460)" style="fill:#006ba4"/><path id="patch_4" d="M82.95 108.56h4.872v-.29H82.95z" clip-path="url(#pde1bea9460)" style="fill:#006ba4"/><path id="patch_5" d="M121.919 108.56h4.87v-.309h-4.87z" clip-path="url(#pde1bea9460)" style="fill:#006ba4"/><path id="patch_6" d="M160.887 108.56h4.87v-.612h-4.87z" clip-path="url(#pde1bea9460)" style="fill:#006ba4"/><path id="patch_7" d="M199.855 108.56h4.87v-3.57h-4.87z" clip-path="url(#pde1bea9460)" style="fill:#006ba4"/><path id="patch_8" d="M48.854 108.56h4.87v-.066h-4.87z" clip-path="url(#pde1bea9460)" style="fill:#ff800e"/><path id="patch_9" d="M87.822 108.56h4.87v-.081h-4.87z" clip-path="url(#pde1bea9460)" style="fill:#ff800e"/><path id="patch_10" d="M126.79 108.56h4.87v-.354h-4.87z" clip-path="url(#pde1bea9460)" style="fill:#ff800e"/><path id="patch_11" d="M165.758 108.56h4.87v-2.802h-4.87z" clip-path="url(#pde1bea9460)" style="fill:#ff800e"/><path id="patch_12" d="M204.726 108.56h4.87V82.565h-4.87z" clip-path="url(#pde1bea9460)" style="fill:#ff800e"/><path id="patch_13" d="M53.725 108.56h4.87v-.233h-4.87z" clip-path="url(#pde1bea9460)" style="fill:#ababab"/><path id="patch_14" d="M92.693 108.56h4.87v-.286h-4.87z" clip-path="url(#pde1bea9460)" style="fill:#ababab"/><path id="patch_15" d="M131.66 108.56h4.872v-1.417h-4.871z" clip-path="url(#pde1bea9460)" style="fill:#ababab"/><path id="patch_16" d="M170.629 108.56h4.87v-9.915h-4.87z" clip-path="url(#pde1bea9460)" style="fill:#ababab"/><path id="patch_17" d="M209.597 108.56h4.87V13.875h-4.87z" clip-path="url(#pde1bea9460)" style="fill:#ababab"/><path id="patch_18" d="M58.596 108.56h4.87v-1.745h-4.87z" clip-path="url(#pde1bea9460)" style="fill:#595959"/><path id="patch_19" d="M97.564 108.56h4.87v-1.661h-4.87z" clip-path="url(#pde1bea9460)" style="fill:#595959"/><path id="patch_20" d="M136.532 108.56h4.87v-1.958h-4.87z" clip-path="url(#pde1bea9460)" style="fill:#595959"/><path id="patch_21" d="M175.5 108.56h4.87V98.15h-4.87z" clip-path="url(#pde1bea9460)" style="fill:#595959"/><path id="patch_22" d="M214.468 108.56h4.87V15.6h-4.87z" clip-path="url(#pde1bea9460)" style="fill:#595959"/><g id="matplotlib.axis_1"><g id="xtick_1"><g id="line2d_1"><defs><path id="mf809951395" d="M0 0v3.5" style="stroke:#000;stroke-width:.8"/></defs><use xlink:href="#mf809951395" x="53.725" y="108.56" style="stroke:#000;stroke-width:.8"/></g><g id="text_1" transform="matrix(.1 0 0 -.1 50.543 123.158)"><defs><path id="DejaVuSans-31" d="M794 531h1031v3560L703 3866v575l1116 225h631V531h1031V0H794z" transform="scale(.01563)"/></defs><use xlink:href="#DejaVuSans-31"/></g></g><g id="xtick_2"><use xlink:href="#mf809951395" id="line2d_2" x="92.693" y="108.56" style="stroke:#000;stroke-width:.8"/><g id="text_2" transform="matrix(.1 0 0 -.1 86.33 123.158)"><defs><path id="DejaVuSans-30" d="M2034 4250q-487 0-733-480-245-479-245-1442 0-959 245-1439 246-480 733-480 491 0 736 480 246 480 246 1439 0 963-246 1442-245 480-736 480m0 500q785 0 1199-621 414-620 414-1801 0-1178-414-1799Q2819-91 2034-91q-784 0-1198 620-414 621-414 1799 0 1181 414 1801 414 621 1198 621" transform="scale(.01563)"/></defs><use xlink:href="#DejaVuSans-31"/><use xlink:href="#DejaVuSans-30" x="63.623"/></g></g><g id="xtick_3"><use xlink:href="#mf809951395" id="line2d_3" x="131.661" y="108.56" style="stroke:#000;stroke-width:.8"/><g id="text_3" transform="matrix(.1 0 0 -.1 122.117 123.158)"><use xlink:href="#DejaVuSans-31"/><use xlink:href="#DejaVuSans-30" x="63.623"/><use xlink:href="#DejaVuSans-30" x="127.246"/></g></g><g id="xtick_4"><use xlink:href="#mf809951395" id="line2d_4" x="170.629" y="108.56" style="stroke:#000;stroke-width:.8"/><g id="text_4" transform="matrix(.1 0 0 -.1 157.904 123.158)"><use xlink:href="#DejaVuSans-31"/><use xlink:href="#DejaVuSans-30" x="63.623"/><use xlink:href="#DejaVuSans-30" x="127.246"/><use xlink:href="#DejaVuSans-30" x="190.869"/></g></g><g id="xtick_5"><use xlink:href="#mf809951395" id="line2d_5" x="209.597" y="108.56" style="stroke:#000;stroke-width:.8"/><g id="text_5" transform="matrix(.1 0 0 -.1 193.69 123.158)"><use xlink:href="#DejaVuSans-31"/><use xlink:href="#DejaVuSans-30" x="63.623"/><use xlink:href="#DejaVuSans-30" x="127.246"/><use xlink:href="#DejaVuSans-30" x="190.869"/><use xlink:href="#DejaVuSans-30" x="254.492"/></g></g><g id="text_6" transform="matrix(.1 0 0 -.1 87.861 136.837)"><defs><path id="DejaVuSans-4e" d="M628 4666h850L3547 763v3903h612V0h-850L1241 3903V0H628z" transform="scale(.01563)"/><path id="DejaVuSans-75" d="M544 1381v2119h575V1403q0-497 193-746 194-248 582-248 465 0 735 297 271 297 271 810v1984h575V0h-575v538q-209-319-486-474-276-155-642-155-603 0-916 375-312 375-312 1097m1447 2203" transform="scale(.01563)"/><path id="DejaVuSans-6d" d="M3328 2828q216 388 516 572t706 184q547 0 844-383 297-382 297-1088V0h-578v2094q0 503-179 746-178 244-543 244-447 0-707-297-259-296-259-809V0h-578v2094q0 506-178 748t-550 242q-441 0-701-298-259-298-259-808V0H581v3500h578v-544q197 322 472 475t653 153q382 0 649-194 267-193 395-562" transform="scale(.01563)"/><path id="DejaVuSans-62" d="M3116 1747q0 634-261 995t-717 361q-457 0-718-361t-261-995 261-995 718-361q456 0 717 361t261 995M1159 2969q182 312 458 463 277 152 661 152 638 0 1036-506 399-506 399-1331T3314 415Q2916-91 2278-91q-384 0-661 152-276 152-458 464V0H581v4863h578z" transform="scale(.01563)"/><path id="DejaVuSans-65" d="M3597 1894v-281H953q38-594 358-905t892-311q331 0 642 81t618 244V178Q3153 47 2828-22t-659-69q-838 0-1327 487-489 488-489 1320 0 859 464 1363 464 505 1252 505 706 0 1117-455 411-454 411-1235m-575 169q-6 471-264 752-258 282-683 282-481 0-770-272t-333-766z" transform="scale(.01563)"/><path id="DejaVuSans-72" d="M2631 2963q-97 56-211 82-114 27-251 27-488 0-749-317t-261-911V0H581v3500h578v-544q182 319 472 473 291 155 707 155 59 0 131-8 72-7 159-23z" transform="scale(.01563)"/><path id="DejaVuSans-6f" d="M1959 3097q-462 0-731-361t-269-989 267-989q268-361 733-361 460 0 728 362 269 363 269 988 0 622-269 986-268 364-728 364m0 487q750 0 1178-488 429-487 429-1349 0-859-429-1349Q2709-91 1959-91q-753 0-1180 489-426 490-426 1349 0 862 426 1349 427 488 1180 488" transform="scale(.01563)"/><path id="DejaVuSans-66" d="M2375 4863v-479h-550q-309 0-430-125-120-125-120-450v-309h947v-447h-947V0H697v3053H147v447h550v244q0 584 272 851 272 268 862 268z" transform="scale(.01563)"/><path id="DejaVuSans-61" d="M2194 1759q-697 0-966-159t-269-544q0-306 202-486 202-179 548-179 479 0 768 339t289 901v128zm1147 238V0h-575v531q-197-318-491-470T1556-91q-537 0-855 302-317 302-317 808 0 590 395 890 396 300 1180 300h807v57q0 397-261 614t-733 217q-300 0-585-72-284-72-546-216v532q315 122 612 182 297 61 578 61 760 0 1135-394 375-393 375-1193" transform="scale(.01563)"/><path id="DejaVuSans-79" d="M2059-325q-243-625-475-815-231-191-618-191H506v481h338q237 0 368 113 132 112 291 531l103 262L191 3500h609L1894 763l1094 2737h609z" transform="scale(.01563)"/><path id="DejaVuSans-73" d="M2834 3397v-544q-243 125-506 187-262 63-544 63-428 0-642-131t-214-394q0-200 153-314t616-217l197-44q612-131 870-370t258-667q0-488-386-773Q2250-91 1575-91q-281 0-586 55T347 128v594q319-166 628-249 309-82 613-82 406 0 624 139 219 139 219 392 0 234-158 359-157 125-692 241l-200 47q-534 112-772 345-237 233-237 639 0 494 350 762 350 269 994 269 318 0 599-47 282-46 519-140" transform="scale(.01563)"/></defs><use xlink:href="#DejaVuSans-4e"/><use xlink:href="#DejaVuSans-75" x="74.805"/><use xlink:href="#DejaVuSans-6d" x="138.184"/><use xlink:href="#DejaVuSans-62" x="235.596"/><use xlink:href="#DejaVuSans-65" x="299.072"/><use xlink:href="#DejaVuSans-72" x="360.596"/><use xlink:href="#DejaVuSans-6f" x="433.496"/><use xlink:href="#DejaVuSans-66" x="494.678"/><use xlink:href="#DejaVuSans-61" x="561.67"/><use xlink:href="#DejaVuSans-72" x="622.949"/><use xlink:href="#DejaVuSans-72" x="662.313"/><use xlink:href="#DejaVuSans-61" x="703.426"/><use xlink:href="#DejaVuSans-79" x="764.705"/><use xlink:href="#DejaVuSans-73" x="823.885"/></g></g><g id="matplotlib.axis_2"><g id="ytick_1"><g id="line2d_6"><defs><path id="m65afb78ff7" d="M0 0h-3.5" style="stroke:#000;stroke-width:.8"/></defs><use xlink:href="#m65afb78ff7" x="34.241" y="108.56" style="stroke:#000;stroke-width:.8"/></g><use xlink:href="#DejaVuSans-30" id="text_7" transform="matrix(.1 0 0 -.1 20.878 112.36)"/></g><g id="ytick_2"><use xlink:href="#m65afb78ff7" id="line2d_7" x="34.241" y="80.52" style="stroke:#000;stroke-width:.8"/><use xlink:href="#DejaVuSans-31" id="text_8" transform="matrix(.1 0 0 -.1 20.878 84.32)"/></g><g id="ytick_3"><use xlink:href="#m65afb78ff7" id="line2d_8" x="34.241" y="52.48" style="stroke:#000;stroke-width:.8"/><g id="text_9" transform="matrix(.1 0 0 -.1 20.878 56.28)"><defs><path id="DejaVuSans-32" d="M1228 531h2203V0H469v531q359 372 979 998 621 627 780 809 303 340 423 576 121 236 121 464 0 372-261 606-261 235-680 235-297 0-627-103-329-103-704-313v638q381 153 712 231 332 78 607 78 725 0 1156-363 431-362 431-968 0-288-108-546-107-257-392-607-78-91-497-524-418-433-1181-1211" transform="scale(.01563)"/></defs><use xlink:href="#DejaVuSans-32"/></g></g><g id="ytick_4"><use xlink:href="#m65afb78ff7" id="line2d_9" x="34.241" y="24.44" style="stroke:#000;stroke-width:.8"/><g id="text_10" transform="matrix(.1 0 0 -.1 20.878 28.24)"><defs><path id="DejaVuSans-33" d="M2597 2516q453-97 707-404 255-306 255-756 0-690-475-1069Q2609-91 1734-91q-293 0-604 58T488 141v609q262-153 574-231 313-78 654-78 593 0 904 234t311 681q0 413-289 645-289 233-804 233h-544v519h569q465 0 712 186t247 536q0 359-255 551-254 193-729 193-260 0-557-57-297-56-653-174v562q360 100 674 150t592 50q719 0 1137-327 419-326 419-882 0-388-222-655t-631-370" transform="scale(.01563)"/></defs><use xlink:href="#DejaVuSans-33"/></g></g><g id="text_11" transform="matrix(0 -.1 -.1 0 14.798 87.69)"><defs><path id="DejaVuSans-44" d="M1259 4147V519h763q966 0 1414 437 448 438 448 1382 0 937-448 1373t-1414 436zm-631 519h1297q1356 0 1990-564 635-564 635-1764 0-1207-638-1773Q3275 0 1925 0H628z" transform="scale(.01563)"/><path id="DejaVuSans-74" d="M1172 4494v-994h1184v-447H1172V1153q0-428 117-550t477-122h590V0h-590q-666 0-919 248-253 249-253 905v1900H172v447h422v994z" transform="scale(.01563)"/><path id="DejaVuSans-69" d="M603 3500h575V0H603zm0 1363h575v-729H603z" transform="scale(.01563)"/><path id="DejaVuSans-6e" d="M3513 2113V0h-575v2094q0 497-194 743-194 247-581 247-466 0-735-297-269-296-269-809V0H581v3500h578v-544q207 316 486 472 280 156 646 156 603 0 912-373 310-373 310-1098" transform="scale(.01563)"/><path id="DejaVuSans-28" d="M1984 4856q-418-718-622-1422-203-703-203-1425 0-721 205-1429t620-1424h-500Q1016-109 783 600T550 2009q0 697 231 1403 232 707 703 1444z" transform="scale(.01563)"/><path id="DejaVuSans-29" d="M513 4856h500q468-737 701-1444 233-706 233-1403 0-700-233-1409T1013-844H513q415 716 620 1424t205 1429q0 722-205 1425-205 704-620 1422" transform="scale(.01563)"/></defs><use xlink:href="#DejaVuSans-44"/><use xlink:href="#DejaVuSans-75" x="77.002"/><use xlink:href="#DejaVuSans-72" x="140.381"/><use xlink:href="#DejaVuSans-61" x="181.494"/><use xlink:href="#DejaVuSans-74" x="242.773"/><use xlink:href="#DejaVuSans-69" x="281.982"/><use xlink:href="#DejaVuSans-6f" x="309.766"/><use xlink:href="#DejaVuSans-6e" x="370.947"/><use xlink:href="#DejaVuSans-28" x="466.113"/><use xlink:href="#DejaVuSans-73" x="505.127"/><use xlink:href="#DejaVuSans-29" x="557.227"/></g></g><path id="LineCollection_1" d="M46.418 108.283v-.015m38.968.008v-.011m38.968-.007v-.014m38.968-.273v-.046m38.968-2.758v-.355" clip-path="url(#pde1bea9460)" style="fill:none;stroke:#000"/><g id="line2d_10"><defs><path id="m721b0a68d4" d="M3 0h-6" style="stroke:#000"/></defs><g clip-path="url(#pde1bea9460)"><use xlink:href="#m721b0a68d4" x="46.418" y="108.283" style="stroke:#000"/><use xlink:href="#m721b0a68d4" x="85.386" y="108.276" style="stroke:#000"/><use xlink:href="#m721b0a68d4" x="124.354" y="108.258" style="stroke:#000"/><use xlink:href="#m721b0a68d4" x="163.322" y="107.971" style="stroke:#000"/><use xlink:href="#m721b0a68d4" x="202.29" y="105.167" style="stroke:#000"/></g></g><g id="line2d_11" clip-path="url(#pde1bea9460)"><use xlink:href="#m721b0a68d4" x="46.418" y="108.268" style="stroke:#000"/><use xlink:href="#m721b0a68d4" x="85.386" y="108.265" style="stroke:#000"/><use xlink:href="#m721b0a68d4" x="124.354" y="108.244" style="stroke:#000"/><use xlink:href="#m721b0a68d4" x="163.322" y="107.925" style="stroke:#000"/><use xlink:href="#m721b0a68d4" x="202.29" y="104.812" style="stroke:#000"/></g><path id="LineCollection_2" d="M51.29 108.502v-.017m38.967-.005v-.004m38.968-.249v-.043m38.968-2.179v-.495m38.968-21.54v-2.81" clip-path="url(#pde1bea9460)" style="fill:none;stroke:#000"/><g id="line2d_12" clip-path="url(#pde1bea9460)"><use xlink:href="#m721b0a68d4" x="51.289" y="108.502" style="stroke:#000"/><use xlink:href="#m721b0a68d4" x="90.257" y="108.481" style="stroke:#000"/><use xlink:href="#m721b0a68d4" x="129.225" y="108.227" style="stroke:#000"/><use xlink:href="#m721b0a68d4" x="168.193" y="106.005" style="stroke:#000"/><use xlink:href="#m721b0a68d4" x="207.161" y="83.97" style="stroke:#000"/></g><g id="line2d_13" clip-path="url(#pde1bea9460)"><use xlink:href="#m721b0a68d4" x="51.289" y="108.485" style="stroke:#000"/><use xlink:href="#m721b0a68d4" x="90.257" y="108.476" style="stroke:#000"/><use xlink:href="#m721b0a68d4" x="129.225" y="108.184" style="stroke:#000"/><use xlink:href="#m721b0a68d4" x="168.193" y="105.51" style="stroke:#000"/><use xlink:href="#m721b0a68d4" x="207.161" y="81.16" style="stroke:#000"/></g><path id="LineCollection_3" d="M56.16 108.356v-.058m38.968-.017v-.014m38.968-1.005v-.24m38.968-8.119v-.515m38.968-82.665v-3.696" clip-path="url(#pde1bea9460)" style="fill:none;stroke:#000"/><g id="line2d_14" clip-path="url(#pde1bea9460)"><use xlink:href="#m721b0a68d4" x="56.16" y="108.356" style="stroke:#000"/><use xlink:href="#m721b0a68d4" x="95.128" y="108.281" style="stroke:#000"/><use xlink:href="#m721b0a68d4" x="134.096" y="107.262" style="stroke:#000"/><use xlink:href="#m721b0a68d4" x="173.064" y="98.903" style="stroke:#000"/><use xlink:href="#m721b0a68d4" x="212.032" y="15.723" style="stroke:#000"/></g><g id="line2d_15" clip-path="url(#pde1bea9460)"><use xlink:href="#m721b0a68d4" x="56.16" y="108.298" style="stroke:#000"/><use xlink:href="#m721b0a68d4" x="95.128" y="108.267" style="stroke:#000"/><use xlink:href="#m721b0a68d4" x="134.096" y="107.023" style="stroke:#000"/><use xlink:href="#m721b0a68d4" x="173.064" y="98.388" style="stroke:#000"/><use xlink:href="#m721b0a68d4" x="212.032" y="12.027" style="stroke:#000"/></g><path id="LineCollection_4" d="M61.031 106.895v-.16m38.969.172v-.016m38.967-.261v-.056m38.968-7.906v-1.037m38.968-78.626v-6.81" clip-path="url(#pde1bea9460)" style="fill:none;stroke:#000"/><g id="line2d_16" clip-path="url(#pde1bea9460)"><use xlink:href="#m721b0a68d4" x="61.031" y="106.895" style="stroke:#000"/><use xlink:href="#m721b0a68d4" x="99.999" y="106.907" style="stroke:#000"/><use xlink:href="#m721b0a68d4" x="138.967" y="106.63" style="stroke:#000"/><use xlink:href="#m721b0a68d4" x="177.935" y="98.668" style="stroke:#000"/><use xlink:href="#m721b0a68d4" x="216.903" y="19.005" style="stroke:#000"/></g><g id="line2d_17" clip-path="url(#pde1bea9460)"><use xlink:href="#m721b0a68d4" x="61.031" y="106.735" style="stroke:#000"/><use xlink:href="#m721b0a68d4" x="99.999" y="106.891" style="stroke:#000"/><use xlink:href="#m721b0a68d4" x="138.967" y="106.574" style="stroke:#000"/><use xlink:href="#m721b0a68d4" x="177.935" y="97.631" style="stroke:#000"/><use xlink:href="#m721b0a68d4" x="216.903" y="12.194" style="stroke:#000"/></g><path id="patch_23" d="M34.24 108.56V7.2" style="fill:none;stroke:#000;stroke-width:.8;stroke-linejoin:miter;stroke-linecap:square"/><path id="patch_24" d="M229.08 108.56V7.2" style="fill:none;stroke:#000;stroke-width:.8;stroke-linejoin:miter;stroke-linecap:square"/><path id="patch_25" d="M34.24 108.56h194.84" style="fill:none;stroke:#000;stroke-width:.8;stroke-linejoin:miter;stroke-linecap:square"/><path id="patch_26" d="M34.24 7.2h194.84" style="fill:none;stroke:#000;stroke-width:.8;stroke-linejoin:miter;stroke-linecap:square"/><g id="legend_1"><path id="patch_27" d="M40.066 215.056h183.19q2 0 2-2V184.7q0-2-2-2H40.065q-2 0-2 2v28.356q0 2 2 2z" style="fill:#fff;opacity:.8;stroke:#ccc;stroke-linejoin:miter"/><path id="patch_28" d="M42.066 194.298h20v-7h-20z" style="fill:#006ba4"/><g id="text_12" transform="matrix(.1 0 0 -.1 70.066 194.298)"><defs><path id="DejaVuSans-4d" d="M628 4666h941l1190-3175 1197 3175h941V0h-616v4097L3078 897h-634L1241 4097V0H628z" transform="scale(.01563)"/><path id="DejaVuSans-4c" d="M628 4666h631V531h2272V0H628z" transform="scale(.01563)"/><path id="DejaVuSans-71" d="M947 1747q0-634 261-995t717-361 718 361q263 361 263 995t-263 995q-262 361-718 361t-717-361-261-995M2906 525q-181-312-458-464-276-152-664-152-634 0-1033 506-398 507-398 1332t398 1331q399 506 1033 506 388 0 664-152 277-151 458-463v531h575v-4831h-575z" transform="scale(.01563)"/></defs><use xlink:href="#DejaVuSans-4d"/><use xlink:href="#DejaVuSans-4c" x="86.279"/><use xlink:href="#DejaVuSans-74" x="141.992"/><use xlink:href="#DejaVuSans-72" x="181.201"/><use xlink:href="#DejaVuSans-61" x="222.314"/><use xlink:href="#DejaVuSans-71" x="283.594"/></g><path id="patch_29" d="M42.066 208.976h20v-7h-20z" style="fill:#ff800e"/><g id="text_13" transform="matrix(.1 0 0 -.1 70.066 208.976)"><defs><path id="DejaVuSans-70" d="M1159 525v-1856H581v4831h578v-531q182 312 458 463 277 152 661 152 638 0 1036-506 399-506 399-1331T3314 415Q2916-91 2278-91q-384 0-661 152-276 152-458 464m1957 1222q0 634-261 995t-717 361q-457 0-718-361t-261-995 261-995 718-361q456 0 717 361t261 995" transform="scale(.01563)"/></defs><use xlink:href="#DejaVuSans-4e"/><use xlink:href="#DejaVuSans-65" x="74.805"/><use xlink:href="#DejaVuSans-70" x="136.328"/><use xlink:href="#DejaVuSans-74" x="199.805"/><use xlink:href="#DejaVuSans-75" x="239.014"/><use xlink:href="#DejaVuSans-6e" x="302.393"/><use xlink:href="#DejaVuSans-65" x="365.771"/></g><path id="patch_30" d="M132.797 194.298h20v-7h-20z" style="fill:#ababab"/><g id="text_14" transform="matrix(.1 0 0 -.1 160.797 194.298)"><defs><path id="DejaVuSans-46" d="M628 4666h2681v-532H1259V2759h1850v-531H1259V0H628z" transform="scale(.01563)"/><path id="DejaVuSans-54" d="M-19 4666h3947v-532H2272V0h-634v4134H-19z" transform="scale(.01563)"/><path id="DejaVuSans-63" d="M3122 3366v-538q-244 135-489 202t-495 67q-560 0-870-355-309-354-309-995t309-996q310-354 870-354 250 0 495 67t489 202V134Q2881 22 2623-34q-257-57-548-57-791 0-1257 497-465 497-465 1341 0 856 470 1346 471 491 1290 491 265 0 518-55 253-54 491-163" transform="scale(.01563)"/><path id="DejaVuSans-6b" d="M581 4863h578V1991l1716 1509h734L1753 1863 3688 0h-750L1159 1709V0H581z" transform="scale(.01563)"/></defs><use xlink:href="#DejaVuSans-46"/><use xlink:href="#DejaVuSans-61" x="48.395"/><use xlink:href="#DejaVuSans-73" x="109.674"/><use xlink:href="#DejaVuSans-74" x="161.773"/><use xlink:href="#DejaVuSans-54" x="200.982"/><use xlink:href="#DejaVuSans-72" x="247.316"/><use xlink:href="#DejaVuSans-61" x="288.43"/><use xlink:href="#DejaVuSans-63" x="349.709"/><use xlink:href="#DejaVuSans-6b" x="404.689"/><use xlink:href="#DejaVuSans-4d" x="462.6"/><use xlink:href="#DejaVuSans-4c" x="548.879"/></g><path id="patch_31" d="M132.797 208.976h20v-7h-20z" style="fill:#595959"/><g id="text_15" transform="matrix(.1 0 0 -.1 160.797 208.976)"><defs><path id="DejaVuSans-43" d="M4122 4306v-665q-319 297-680 443-361 147-767 147-800 0-1225-489t-425-1414q0-922 425-1411t1225-489q406 0 767 147t680 444V359q-331-225-702-338-370-112-782-112-1060 0-1670 648-609 649-609 1771 0 1125 609 1773 610 649 1670 649 418 0 788-111 371-111 696-333" transform="scale(.01563)"/></defs><use xlink:href="#DejaVuSans-43"/><use xlink:href="#DejaVuSans-6f" x="69.824"/><use xlink:href="#DejaVuSans-6d" x="131.006"/><use xlink:href="#DejaVuSans-65" x="228.418"/><use xlink:href="#DejaVuSans-74" x="289.941"/></g></g></g><g id="axes_2"><path id="patch_32" d="M270.64 108.56h194.84V7.2H270.64z" style="fill:#fff"/><path id="patch_33" d="M286.877 108.56h8.119v-2.43h-8.119z" clip-path="url(#p9fe9063195)" style="fill:#006ba4"/><path id="patch_34" d="M351.824 108.56h8.118v-2.674h-8.118z" clip-path="url(#p9fe9063195)" style="fill:#006ba4"/><path id="patch_35" d="M416.77 108.56h8.119v-3.786h-8.118z" clip-path="url(#p9fe9063195)" style="fill:#006ba4"/><path id="patch_36" d="M294.996 108.56h8.118V95.512h-8.118z" clip-path="url(#p9fe9063195)" style="fill:#ff800e"/><path id="patch_37" d="M359.942 108.56h8.119V94.246h-8.119z" clip-path="url(#p9fe9063195)" style="fill:#ff800e"/><path id="patch_38" d="M424.889 108.56h8.118V84.503h-8.118z" clip-path="url(#p9fe9063195)" style="fill:#ff800e"/><path id="patch_39" d="M303.114 108.56h8.118V47.256h-8.118z" clip-path="url(#p9fe9063195)" style="fill:#ababab"/><path id="patch_40" d="M368.06 108.56h8.119V49.213h-8.118z" clip-path="url(#p9fe9063195)" style="fill:#ababab"/><path id="patch_41" d="M433.007 108.56h8.119V42.246h-8.119z" clip-path="url(#p9fe9063195)" style="fill:#ababab"/><path id="patch_42" d="M311.232 108.56h8.119V53.577h-8.119z" clip-path="url(#p9fe9063195)" style="fill:#595959"/><path id="patch_43" d="M376.179 108.56h8.118V50.636h-8.118z" clip-path="url(#p9fe9063195)" style="fill:#595959"/><path id="patch_44" d="M441.126 108.56h8.118V30.644h-8.118z" clip-path="url(#p9fe9063195)" style="fill:#595959"/><g id="matplotlib.axis_3"><g id="xtick_6"><use xlink:href="#mf809951395" id="line2d_18" x="303.114" y="108.56" style="stroke:#000;stroke-width:.8"/><use xlink:href="#DejaVuSans-31" id="text_16" transform="matrix(.1 0 0 -.1 299.933 123.158)"/></g><g id="xtick_7"><use xlink:href="#mf809951395" id="line2d_19" x="368.061" y="108.56" style="stroke:#000;stroke-width:.8"/><g id="text_17" transform="matrix(.1 0 0 -.1 358.517 123.158)"><use xlink:href="#DejaVuSans-31"/><use xlink:href="#DejaVuSans-30" x="63.623"/><use xlink:href="#DejaVuSans-30" x="127.246"/></g></g><g id="xtick_8"><use xlink:href="#mf809951395" id="line2d_20" x="433.007" y="108.56" style="stroke:#000;stroke-width:.8"/><g id="text_18" transform="matrix(.1 0 0 -.1 420.282 123.158)"><use xlink:href="#DejaVuSans-31"/><use xlink:href="#DejaVuSans-30" x="63.623"/><use xlink:href="#DejaVuSans-30" x="127.246"/><use xlink:href="#DejaVuSans-30" x="190.869"/></g></g><g id="text_19" transform="matrix(.1 0 0 -.1 334.083 136.837)"><defs><path id="DejaVuSans-53" d="M3425 4513v-616q-359 172-678 256-319 85-616 85-515 0-795-200t-280-569q0-310 186-468 186-157 705-254l381-78q706-135 1042-474t336-907q0-679-455-1029Q2797-91 1919-91q-331 0-705 75-373 75-773 222v650q384-215 753-325 369-109 725-109 540 0 834 212 294 213 294 607 0 343-211 537t-692 291l-385 75q-706 140-1022 440-315 300-315 835 0 619 436 975t1201 356q329 0 669-60 341-59 697-177" transform="scale(.01563)"/><path id="DejaVuSans-7a" d="M353 3500h2731v-525L922 459h2162V0H275v525l2163 2516H353z" transform="scale(.01563)"/></defs><use xlink:href="#DejaVuSans-53"/><use xlink:href="#DejaVuSans-69" x="63.477"/><use xlink:href="#DejaVuSans-7a" x="91.26"/><use xlink:href="#DejaVuSans-65" x="143.75"/><use xlink:href="#DejaVuSans-6f" x="237.061"/><use xlink:href="#DejaVuSans-66" x="298.242"/><use xlink:href="#DejaVuSans-61" x="365.234"/><use xlink:href="#DejaVuSans-72" x="426.514"/><use xlink:href="#DejaVuSans-72" x="465.877"/><use xlink:href="#DejaVuSans-61" x="506.99"/><use xlink:href="#DejaVuSans-79" x="568.27"/><use xlink:href="#DejaVuSans-73" x="627.449"/></g></g><g id="matplotlib.axis_4"><g id="ytick_5"><use xlink:href="#m65afb78ff7" id="line2d_21" x="270.641" y="108.56" style="stroke:#000;stroke-width:.8"/><g id="text_20" transform="matrix(.1 0 0 -.1 241.375 112.36)"><defs><path id="DejaVuSans-2e" d="M684 794h660V0H684z" transform="scale(.01563)"/></defs><use xlink:href="#DejaVuSans-30"/><use xlink:href="#DejaVuSans-2e" x="63.623"/><use xlink:href="#DejaVuSans-30" x="95.41"/><use xlink:href="#DejaVuSans-30" x="159.033"/></g></g><g id="ytick_6"><use xlink:href="#m65afb78ff7" id="line2d_22" x="270.641" y="88.056" style="stroke:#000;stroke-width:.8"/><g id="text_21" transform="matrix(.1 0 0 -.1 241.375 91.856)"><defs><path id="DejaVuSans-35" d="M691 4666h2478v-532H1269V2991q137 47 274 70 138 23 276 23 781 0 1237-428 457-428 457-1159 0-753-469-1171Q2575-91 1722-91q-294 0-599 50Q819 9 494 109v635q281-153 581-228t634-75q541 0 856 284 316 284 316 772 0 487-316 771-315 285-856 285-253 0-505-56-251-56-513-175z" transform="scale(.01563)"/></defs><use xlink:href="#DejaVuSans-30"/><use xlink:href="#DejaVuSans-2e" x="63.623"/><use xlink:href="#DejaVuSans-32" x="95.41"/><use xlink:href="#DejaVuSans-35" x="159.033"/></g></g><g id="ytick_7"><use xlink:href="#m65afb78ff7" id="line2d_23" x="270.641" y="67.553" style="stroke:#000;stroke-width:.8"/><g id="text_22" transform="matrix(.1 0 0 -.1 241.375 71.352)"><use xlink:href="#DejaVuSans-30"/><use xlink:href="#DejaVuSans-2e" x="63.623"/><use xlink:href="#DejaVuSans-35" x="95.41"/><use xlink:href="#DejaVuSans-30" x="159.033"/></g></g><g id="ytick_8"><use xlink:href="#m65afb78ff7" id="line2d_24" x="270.641" y="47.049" style="stroke:#000;stroke-width:.8"/><g id="text_23" transform="matrix(.1 0 0 -.1 241.375 50.849)"><defs><path id="DejaVuSans-37" d="M525 4666h3000v-269L1831 0h-659l1594 4134H525z" transform="scale(.01563)"/></defs><use xlink:href="#DejaVuSans-30"/><use xlink:href="#DejaVuSans-2e" x="63.623"/><use xlink:href="#DejaVuSans-37" x="95.41"/><use xlink:href="#DejaVuSans-35" x="159.033"/></g></g><g id="ytick_9"><use xlink:href="#m65afb78ff7" id="line2d_25" x="270.641" y="26.546" style="stroke:#000;stroke-width:.8"/><g id="text_24" transform="matrix(.1 0 0 -.1 241.375 30.345)"><use xlink:href="#DejaVuSans-31"/><use xlink:href="#DejaVuSans-2e" x="63.623"/><use xlink:href="#DejaVuSans-30" x="95.41"/><use xlink:href="#DejaVuSans-30" x="159.033"/></g></g></g><path id="LineCollection_5" d="M290.936 106.536v-.812m64.947.636v-.948m64.947.105v-1.485" clip-path="url(#p9fe9063195)" style="fill:none;stroke:#000"/><g id="line2d_26" clip-path="url(#p9fe9063195)"><use xlink:href="#m721b0a68d4" x="290.936" y="106.536" style="stroke:#000"/><use xlink:href="#m721b0a68d4" x="355.883" y="106.361" style="stroke:#000"/><use xlink:href="#m721b0a68d4" x="420.83" y="105.517" style="stroke:#000"/></g><g id="line2d_27" clip-path="url(#p9fe9063195)"><use xlink:href="#m721b0a68d4" x="290.936" y="105.724" style="stroke:#000"/><use xlink:href="#m721b0a68d4" x="355.883" y="105.412" style="stroke:#000"/><use xlink:href="#m721b0a68d4" x="420.83" y="104.032" style="stroke:#000"/></g><path id="LineCollection_6" d="M299.055 98.773V92.25m64.946 5.565v-7.137m64.947-.261V78.59" clip-path="url(#p9fe9063195)" style="fill:none;stroke:#000"/><g id="line2d_28" clip-path="url(#p9fe9063195)"><use xlink:href="#m721b0a68d4" x="299.055" y="98.773" style="stroke:#000"/><use xlink:href="#m721b0a68d4" x="364.001" y="97.815" style="stroke:#000"/><use xlink:href="#m721b0a68d4" x="428.948" y="90.417" style="stroke:#000"/></g><g id="line2d_29" clip-path="url(#p9fe9063195)"><use xlink:href="#m721b0a68d4" x="299.055" y="92.251" style="stroke:#000"/><use xlink:href="#m721b0a68d4" x="364.001" y="90.678" style="stroke:#000"/><use xlink:href="#m721b0a68d4" x="428.948" y="78.589" style="stroke:#000"/></g><path id="LineCollection_7" d="M307.173 62.514V31.998m64.947 31.947V34.48m64.946 24.263V25.75" clip-path="url(#p9fe9063195)" style="fill:none;stroke:#000"/><g id="line2d_30" clip-path="url(#p9fe9063195)"><use xlink:href="#m721b0a68d4" x="307.173" y="62.514" style="stroke:#000"/><use xlink:href="#m721b0a68d4" x="372.12" y="63.945" style="stroke:#000"/><use xlink:href="#m721b0a68d4" x="437.066" y="58.743" style="stroke:#000"/></g><g id="line2d_31" clip-path="url(#p9fe9063195)"><use xlink:href="#m721b0a68d4" x="307.173" y="31.998" style="stroke:#000"/><use xlink:href="#m721b0a68d4" x="372.12" y="34.48" style="stroke:#000"/><use xlink:href="#m721b0a68d4" x="437.066" y="25.75" style="stroke:#000"/></g><path id="LineCollection_8" d="M315.291 66.527v-25.9m64.947 23.622V37.023m64.947 12.239V12.027" clip-path="url(#p9fe9063195)" style="fill:none;stroke:#000"/><g id="line2d_32" clip-path="url(#p9fe9063195)"><use xlink:href="#m721b0a68d4" x="315.291" y="66.527" style="stroke:#000"/><use xlink:href="#m721b0a68d4" x="380.238" y="64.249" style="stroke:#000"/><use xlink:href="#m721b0a68d4" x="445.185" y="49.262" style="stroke:#000"/></g><g id="line2d_33" clip-path="url(#p9fe9063195)"><use xlink:href="#m721b0a68d4" x="315.291" y="40.628" style="stroke:#000"/><use xlink:href="#m721b0a68d4" x="380.238" y="37.023" style="stroke:#000"/><use xlink:href="#m721b0a68d4" x="445.185" y="12.027" style="stroke:#000"/></g><path id="patch_45" d="M270.64 108.56V7.2" style="fill:none;stroke:#000;stroke-width:.8;stroke-linejoin:miter;stroke-linecap:square"/><path id="patch_46" d="M465.48 108.56V7.2" style="fill:none;stroke:#000;stroke-width:.8;stroke-linejoin:miter;stroke-linecap:square"/><path id="patch_47" d="M270.64 108.56h194.84" style="fill:none;stroke:#000;stroke-width:.8;stroke-linejoin:miter;stroke-linecap:square"/><path id="patch_48" d="M270.64 7.2h194.84" style="fill:none;stroke:#000;stroke-width:.8;stroke-linejoin:miter;stroke-linecap:square"/><g id="legend_2"><path id="patch_49" d="M276.466 215.056h183.19q2 0 2-2V184.7q0-2-2-2h-183.19q-2 0-2 2v28.356q0 2 2 2z" style="fill:#fff;opacity:.8;stroke:#ccc;stroke-linejoin:miter"/><path id="patch_50" d="M278.466 194.298h20v-7h-20z" style="fill:#006ba4"/><g id="text_25" transform="matrix(.1 0 0 -.1 306.466 194.298)"><use xlink:href="#DejaVuSans-4d"/><use xlink:href="#DejaVuSans-4c" x="86.279"/><use xlink:href="#DejaVuSans-74" x="141.992"/><use xlink:href="#DejaVuSans-72" x="181.201"/><use xlink:href="#DejaVuSans-61" x="222.314"/><use xlink:href="#DejaVuSans-71" x="283.594"/></g><path id="patch_51" d="M278.466 208.976h20v-7h-20z" style="fill:#ff800e"/><g id="text_26" transform="matrix(.1 0 0 -.1 306.466 208.976)"><use xlink:href="#DejaVuSans-4e"/><use xlink:href="#DejaVuSans-65" x="74.805"/><use xlink:href="#DejaVuSans-70" x="136.328"/><use xlink:href="#DejaVuSans-74" x="199.805"/><use xlink:href="#DejaVuSans-75" x="239.014"/><use xlink:href="#DejaVuSans-6e" x="302.393"/><use xlink:href="#DejaVuSans-65" x="365.771"/></g><path id="patch_52" d="M369.197 194.298h20v-7h-20z" style="fill:#ababab"/><g id="text_27" transform="matrix(.1 0 0 -.1 397.197 194.298)"><use xlink:href="#DejaVuSans-46"/><use xlink:href="#DejaVuSans-61" x="48.395"/><use xlink:href="#DejaVuSans-73" x="109.674"/><use xlink:href="#DejaVuSans-74" x="161.773"/><use xlink:href="#DejaVuSans-54" x="200.982"/><use xlink:href="#DejaVuSans-72" x="247.316"/><use xlink:href="#DejaVuSans-61" x="288.43"/><use xlink:href="#DejaVuSans-63" x="349.709"/><use xlink:href="#DejaVuSans-6b" x="404.689"/><use xlink:href="#DejaVuSans-4d" x="462.6"/><use xlink:href="#DejaVuSans-4c" x="548.879"/></g><path id="patch_53" d="M369.197 208.976h20v-7h-20z" style="fill:#595959"/><g id="text_28" transform="matrix(.1 0 0 -.1 397.197 208.976)"><use xlink:href="#DejaVuSans-43"/><use xlink:href="#DejaVuSans-6f" x="69.824"/><use xlink:href="#DejaVuSans-6d" x="131.006"/><use xlink:href="#DejaVuSans-65" x="228.418"/><use xlink:href="#DejaVuSans-74" x="289.941"/></g></g></g><g id="axes_3"><path id="patch_54" d="M507.04 108.56h194.84V7.2H507.04z" style="fill:#fff"/><path id="patch_55" d="M519.218 108.56h24.355v-3.95h-24.355z" clip-path="url(#p8f27ca392b)" style="fill:#006ba4"/><path id="patch_56" d="M567.928 108.56h24.355V85.709h-24.355z" clip-path="url(#p8f27ca392b)" style="fill:#006ba4"/><path id="patch_57" d="M616.638 108.56h24.355V25.47h-24.355z" clip-path="url(#p8f27ca392b)" style="fill:#006ba4"/><path id="patch_58" d="M665.348 108.56h24.355V23.755h-24.355z" clip-path="url(#p8f27ca392b)" style="fill:#006ba4"/><g id="matplotlib.axis_5"><g id="xtick_9"><use xlink:href="#mf809951395" id="line2d_34" x="531.396" y="108.56" style="stroke:#000;stroke-width:.8"/><g id="text_29" transform="scale(.1 -.1)rotate(45 4361.418 5562.565)"><use xlink:href="#DejaVuSans-4d"/><use xlink:href="#DejaVuSans-4c" x="86.279"/><use xlink:href="#DejaVuSans-74" x="141.992"/><use xlink:href="#DejaVuSans-72" x="181.201"/><use xlink:href="#DejaVuSans-61" x="222.314"/><use xlink:href="#DejaVuSans-71" x="283.594"/></g></g><g id="xtick_10"><use xlink:href="#mf809951395" id="line2d_35" x="580.106" y="108.56" style="stroke:#000;stroke-width:.8"/><g id="text_30" transform="scale(.1 -.1)rotate(45 4659.268 6087.938)"><use xlink:href="#DejaVuSans-4e"/><use xlink:href="#DejaVuSans-65" x="74.805"/><use xlink:href="#DejaVuSans-70" x="136.328"/><use xlink:href="#DejaVuSans-74" x="199.805"/><use xlink:href="#DejaVuSans-75" x="239.014"/><use xlink:href="#DejaVuSans-6e" x="302.393"/><use xlink:href="#DejaVuSans-65" x="365.771"/></g></g><g id="xtick_11"><use xlink:href="#mf809951395" id="line2d_36" x="628.816" y="108.56" style="stroke:#000;stroke-width:.8"/><g id="text_31" transform="scale(.1 -.1)rotate(45 5022.788 6537.594)"><use xlink:href="#DejaVuSans-46"/><use xlink:href="#DejaVuSans-61" x="48.395"/><use xlink:href="#DejaVuSans-73" x="109.674"/><use xlink:href="#DejaVuSans-74" x="161.773"/><use xlink:href="#DejaVuSans-54" x="200.982"/><use xlink:href="#DejaVuSans-72" x="247.316"/><use xlink:href="#DejaVuSans-61" x="288.43"/><use xlink:href="#DejaVuSans-63" x="349.709"/><use xlink:href="#DejaVuSans-6b" x="404.689"/><use xlink:href="#DejaVuSans-4d" x="462.6"/><use xlink:href="#DejaVuSans-4c" x="548.879"/></g></g><g id="xtick_12"><use xlink:href="#mf809951395" id="line2d_37" x="677.526" y="108.56" style="stroke:#000;stroke-width:.8"/><g id="text_32" transform="scale(.1 -.1)rotate(45 5079.939 7340.495)"><use xlink:href="#DejaVuSans-43"/><use xlink:href="#DejaVuSans-6f" x="69.824"/><use xlink:href="#DejaVuSans-6d" x="131.006"/><use xlink:href="#DejaVuSans-65" x="228.418"/><use xlink:href="#DejaVuSans-74" x="289.941"/></g></g><g id="text_33" transform="matrix(.1 0 0 -.1 585.707 176.752)"><defs><path id="DejaVuSans-68" d="M3513 2113V0h-575v2094q0 497-194 743-194 247-581 247-466 0-735-297-269-296-269-809V0H581v4863h578V2956q207 316 486 472 280 156 646 156 603 0 912-373 310-373 310-1098" transform="scale(.01563)"/><path id="DejaVuSans-64" d="M2906 2969v1894h575V0h-575v525q-181-312-458-464-276-152-664-152-634 0-1033 506-398 507-398 1332t398 1331q399 506 1033 506 388 0 664-152 277-151 458-463M947 1747q0-634 261-995t717-361 718 361q263 361 263 995t-263 995q-262 361-718 361t-717-361-261-995" transform="scale(.01563)"/></defs><use xlink:href="#DejaVuSans-4d"/><use xlink:href="#DejaVuSans-65" x="86.279"/><use xlink:href="#DejaVuSans-74" x="147.803"/><use xlink:href="#DejaVuSans-68" x="187.012"/><use xlink:href="#DejaVuSans-6f" x="250.391"/><use xlink:href="#DejaVuSans-64" x="311.572"/></g></g><g id="matplotlib.axis_6"><g id="ytick_10"><use xlink:href="#m65afb78ff7" id="line2d_38" x="507.041" y="108.56" style="stroke:#000;stroke-width:.8"/><g id="text_34" transform="matrix(.1 0 0 -.1 484.137 112.36)"><use xlink:href="#DejaVuSans-30"/><use xlink:href="#DejaVuSans-2e" x="63.623"/><use xlink:href="#DejaVuSans-30" x="95.41"/></g></g><g id="ytick_11"><use xlink:href="#m65afb78ff7" id="line2d_39" x="507.041" y="86.691" style="stroke:#000;stroke-width:.8"/><g id="text_35" transform="matrix(.1 0 0 -.1 484.137 90.49)"><use xlink:href="#DejaVuSans-30"/><use xlink:href="#DejaVuSans-2e" x="63.623"/><use xlink:href="#DejaVuSans-32" x="95.41"/></g></g><g id="ytick_12"><use xlink:href="#m65afb78ff7" id="line2d_40" x="507.041" y="64.822" style="stroke:#000;stroke-width:.8"/><g id="text_36" transform="matrix(.1 0 0 -.1 484.137 68.621)"><defs><path id="DejaVuSans-34" d="M2419 4116 825 1625h1594zm-166 550h794V1625h666v-525h-666V0h-628v1100H313v609z" transform="scale(.01563)"/></defs><use xlink:href="#DejaVuSans-30"/><use xlink:href="#DejaVuSans-2e" x="63.623"/><use xlink:href="#DejaVuSans-34" x="95.41"/></g></g><g id="ytick_13"><use xlink:href="#m65afb78ff7" id="line2d_41" x="507.041" y="42.953" style="stroke:#000;stroke-width:.8"/><g id="text_37" transform="matrix(.1 0 0 -.1 484.137 46.752)"><defs><path id="DejaVuSans-36" d="M2113 2584q-425 0-674-291-248-290-248-796 0-503 248-796 249-292 674-292t673 292q248 293 248 796 0 506-248 796-248 291-673 291m1253 1979v-575q-238 112-480 171-242 60-480 60-625 0-955-422-329-422-376-1275 184 272 462 417 279 145 613 145 703 0 1111-427 408-426 408-1160 0-719-425-1154Q2819-91 2113-91q-810 0-1238 620-428 621-428 1799 0 1106 525 1764t1409 658q238 0 480-47t505-140" transform="scale(.01563)"/></defs><use xlink:href="#DejaVuSans-30"/><use xlink:href="#DejaVuSans-2e" x="63.623"/><use xlink:href="#DejaVuSans-36" x="95.41"/></g></g><g id="ytick_14"><use xlink:href="#m65afb78ff7" id="line2d_42" x="507.041" y="21.084" style="stroke:#000;stroke-width:.8"/><g id="text_38" transform="matrix(.1 0 0 -.1 484.137 24.883)"><defs><path id="DejaVuSans-38" d="M2034 2216q-450 0-708-241-257-241-257-662 0-422 257-663 258-241 708-241t709 242q260 243 260 662 0 421-258 662-257 241-711 241m-631 268q-406 100-633 378-226 279-226 679 0 559 398 884 399 325 1092 325 697 0 1094-325t397-884q0-400-227-679-226-278-629-378 456-106 710-416 255-309 255-755 0-679-414-1042Q2806-91 2034-91q-771 0-1186 362-414 363-414 1042 0 446 256 755 257 310 713 416m-231 997q0-362 226-565 227-203 636-203 407 0 636 203 230 203 230 565 0 363-230 566-229 203-636 203-409 0-636-203-226-203-226-566" transform="scale(.01563)"/></defs><use xlink:href="#DejaVuSans-30"/><use xlink:href="#DejaVuSans-2e" x="63.623"/><use xlink:href="#DejaVuSans-38" x="95.41"/></g></g></g><path id="LineCollection_9" d="M531.396 105.042v-.866m48.71-15.053v-6.829m48.71-44.959v-23.73m48.71 21.879V12.027" clip-path="url(#p8f27ca392b)" style="fill:none;stroke:#000"/><g id="line2d_43" clip-path="url(#p8f27ca392b)"><use xlink:href="#m721b0a68d4" x="531.396" y="105.042" style="stroke:#000"/><use xlink:href="#m721b0a68d4" x="580.106" y="89.123" style="stroke:#000"/><use xlink:href="#m721b0a68d4" x="628.816" y="37.335" style="stroke:#000"/><use xlink:href="#m721b0a68d4" x="677.526" y="35.484" style="stroke:#000"/></g><g id="line2d_44" clip-path="url(#p8f27ca392b)"><use xlink:href="#m721b0a68d4" x="531.396" y="104.176" style="stroke:#000"/><use xlink:href="#m721b0a68d4" x="580.106" y="82.294" style="stroke:#000"/><use xlink:href="#m721b0a68d4" x="628.816" y="13.605" style="stroke:#000"/><use xlink:href="#m721b0a68d4" x="677.526" y="12.027" style="stroke:#000"/></g><path id="patch_59" d="M507.04 108.56V7.2" style="fill:none;stroke:#000;stroke-width:.8;stroke-linejoin:miter;stroke-linecap:square"/><path id="patch_60" d="M701.88 108.56V7.2" style="fill:none;stroke:#000;stroke-width:.8;stroke-linejoin:miter;stroke-linecap:square"/><path id="patch_61" d="M507.04 108.56h194.84" style="fill:none;stroke:#000;stroke-width:.8;stroke-linejoin:miter;stroke-linecap:square"/><path id="patch_62" d="M507.04 7.2h194.84" style="fill:none;stroke:#000;stroke-width:.8;stroke-linejoin:miter;stroke-linecap:square"/></g></g><defs><clipPath id="pde1bea9460"><path d="M34.241 7.2h194.84v101.36H34.241z"/></clipPath><clipPath id="p9fe9063195"><path d="M270.641 7.2h194.84v101.36h-194.84z"/></clipPath><clipPath id="p8f27ca392b"><path d="M507.041 7.2h194.84v101.36h-194.84z"/></clipPath></defs></svg>