<?xml version="1.0" encoding="utf-8" standalone="no"?>
<!DOCTYPE svg PUBLIC "-//W3C//DTD SVG 1.1//EN"
  "http://www.w3.org/Graphics/SVG/1.1/DTD/svg11.dtd">
<svg xmlns:xlink="http://www.w3.org/1999/xlink" width="709.080625pt" height="222.256pt" viewBox="0 0 709.080625 222.256" xmlns="http://www.w3.org/2000/svg" version="1.1">
 <metadata>
  <rdf:RDF xmlns:dc="http://purl.org/dc/elements/1.1/" xmlns:cc="http://creativecommons.org/ns#" xmlns:rdf="http://www.w3.org/1999/02/22-rdf-syntax-ns#">
   <cc:Work>
    <dc:type rdf:resource="http://purl.org/dc/dcmitype/StillImage"/>
    <dc:date>2024-03-04T22:37:55.800054</dc:date>
    <dc:format>image/svg+xml</dc:format>
    <dc:creator>
     <cc:Agent>
      <dc:title>Matplotlib v3.8.3, https://matplotlib.org/</dc:title>
     </cc:Agent>
    </dc:creator>
   </cc:Work>
  </rdf:RDF>
 </metadata>
 <defs>
  <style type="text/css">*{stroke-linejoin: round; stroke-linecap: butt}</style>
 </defs>
 <g id="figure_1">
  <g id="patch_1">
   <path d="M 0 222.256 
L 709.080625 222.256 
L 709.080625 0 
L 0 0 
z
" style="fill: #ffffff"/>
  </g>
  <g id="axes_1">
   <g id="patch_2">
    <path d="M 34.240625 108.56 
L 229.080625 108.56 
L 229.080625 7.2 
L 34.240625 7.2 
z
" style="fill: #ffffff"/>
   </g>
   <g id="patch_3">
    <path d="M 43.982625 108.56 
L 48.853625 108.56 
L 48.853625 108.275627 
L 43.982625 108.275627 
z
" clip-path="url(#pde1bea9460)" style="fill: #006ba4"/>
   </g>
   <g id="patch_4">
    <path d="M 82.950625 108.56 
L 87.821625 108.56 
L 87.821625 108.270475 
L 82.950625 108.270475 
z
" clip-path="url(#pde1bea9460)" style="fill: #006ba4"/>
   </g>
   <g id="patch_5">
    <path d="M 121.918625 108.56 
L 126.789625 108.56 
L 126.789625 108.250955 
L 121.918625 108.250955 
z
" clip-path="url(#pde1bea9460)" style="fill: #006ba4"/>
   </g>
   <g id="patch_6">
    <path d="M 160.886625 108.56 
L 165.757625 108.56 
L 165.757625 107.947919 
L 160.886625 107.947919 
z
" clip-path="url(#pde1bea9460)" style="fill: #006ba4"/>
   </g>
   <g id="patch_7">
    <path d="M 199.854625 108.56 
L 204.725625 108.56 
L 204.725625 104.989459 
L 199.854625 104.989459 
z
" clip-path="url(#pde1bea9460)" style="fill: #006ba4"/>
   </g>
   <g id="patch_8">
    <path d="M 48.853625 108.56 
L 53.724625 108.56 
L 53.724625 108.493578 
L 48.853625 108.493578 
z
" clip-path="url(#pde1bea9460)" style="fill: #ff800e"/>
   </g>
   <g id="patch_9">
    <path d="M 87.821625 108.56 
L 92.692625 108.56 
L 92.692625 108.47861 
L 87.821625 108.47861 
z
" clip-path="url(#pde1bea9460)" style="fill: #ff800e"/>
   </g>
   <g id="patch_10">
    <path d="M 126.789625 108.56 
L 131.660625 108.56 
L 131.660625 108.205852 
L 126.789625 108.205852 
z
" clip-path="url(#pde1bea9460)" style="fill: #ff800e"/>
   </g>
   <g id="patch_11">
    <path d="M 165.757625 108.56 
L 170.628625 108.56 
L 170.628625 105.757536 
L 165.757625 105.757536 
z
" clip-path="url(#pde1bea9460)" style="fill: #ff800e"/>
   </g>
   <g id="patch_12">
    <path d="M 204.725625 108.56 
L 209.596625 108.56 
L 209.596625 82.565047 
L 204.725625 82.565047 
z
" clip-path="url(#pde1bea9460)" style="fill: #ff800e"/>
   </g>
   <g id="patch_13">
    <path d="M 53.724625 108.56 
L 58.595625 108.56 
L 58.595625 108.326824 
L 53.724625 108.326824 
z
" clip-path="url(#pde1bea9460)" style="fill: #ababab"/>
   </g>
   <g id="patch_14">
    <path d="M 92.692625 108.56 
L 97.563625 108.56 
L 97.563625 108.273955 
L 92.692625 108.273955 
z
" clip-path="url(#pde1bea9460)" style="fill: #ababab"/>
   </g>
   <g id="patch_15">
    <path d="M 131.660625 108.56 
L 136.531625 108.56 
L 136.531625 107.142633 
L 131.660625 107.142633 
z
" clip-path="url(#pde1bea9460)" style="fill: #ababab"/>
   </g>
   <g id="patch_16">
    <path d="M 170.628625 108.56 
L 175.499625 108.56 
L 175.499625 98.645334 
L 170.628625 98.645334 
z
" clip-path="url(#pde1bea9460)" style="fill: #ababab"/>
   </g>
   <g id="patch_17">
    <path d="M 209.596625 108.56 
L 214.467625 108.56 
L 214.467625 13.874951 
L 209.596625 13.874951 
z
" clip-path="url(#pde1bea9460)" style="fill: #ababab"/>
   </g>
   <g id="patch_18">
    <path d="M 58.595625 108.56 
L 63.466625 108.56 
L 63.466625 106.815085 
L 58.595625 106.815085 
z
" clip-path="url(#pde1bea9460)" style="fill: #595959"/>
   </g>
   <g id="patch_19">
    <path d="M 97.563625 108.56 
L 102.434625 108.56 
L 102.434625 106.899044 
L 97.563625 106.899044 
z
" clip-path="url(#pde1bea9460)" style="fill: #595959"/>
   </g>
   <g id="patch_20">
    <path d="M 136.531625 108.56 
L 141.402625 108.56 
L 141.402625 106.601692 
L 136.531625 106.601692 
z
" clip-path="url(#pde1bea9460)" style="fill: #595959"/>
   </g>
   <g id="patch_21">
    <path d="M 175.499625 108.56 
L 180.370625 108.56 
L 180.370625 98.149768 
L 175.499625 98.149768 
z
" clip-path="url(#pde1bea9460)" style="fill: #595959"/>
   </g>
   <g id="patch_22">
    <path d="M 214.467625 108.56 
L 219.338625 108.56 
L 219.338625 15.599723 
L 214.467625 15.599723 
z
" clip-path="url(#pde1bea9460)" style="fill: #595959"/>
   </g>
   <g id="matplotlib.axis_1">
    <g id="xtick_1">
     <g id="line2d_1">
      <defs>
       <path id="mf809951395" d="M 0 0 
L 0 3.5 
" style="stroke: #000000; stroke-width: 0.8"/>
      </defs>
      <g>
       <use xlink:href="#mf809951395" x="53.724625" y="108.56" style="stroke: #000000; stroke-width: 0.8"/>
      </g>
     </g>
     <g id="text_1">
      <!-- 1 -->
      <g transform="translate(50.543375 123.158437) scale(0.1 -0.1)">
       <defs>
        <path id="DejaVuSans-31" d="M 794 531 
L 1825 531 
L 1825 4091 
L 703 3866 
L 703 4441 
L 1819 4666 
L 2450 4666 
L 2450 531 
L 3481 531 
L 3481 0 
L 794 0 
L 794 531 
z
" transform="scale(0.015625)"/>
       </defs>
       <use xlink:href="#DejaVuSans-31"/>
      </g>
     </g>
    </g>
    <g id="xtick_2">
     <g id="line2d_2">
      <g>
       <use xlink:href="#mf809951395" x="92.692625" y="108.56" style="stroke: #000000; stroke-width: 0.8"/>
      </g>
     </g>
     <g id="text_2">
      <!-- 10 -->
      <g transform="translate(86.330125 123.158437) scale(0.1 -0.1)">
       <defs>
        <path id="DejaVuSans-30" d="M 2034 4250 
Q 1547 4250 1301 3770 
Q 1056 3291 1056 2328 
Q 1056 1369 1301 889 
Q 1547 409 2034 409 
Q 2525 409 2770 889 
Q 3016 1369 3016 2328 
Q 3016 3291 2770 3770 
Q 2525 4250 2034 4250 
z
M 2034 4750 
Q 2819 4750 3233 4129 
Q 3647 3509 3647 2328 
Q 3647 1150 3233 529 
Q 2819 -91 2034 -91 
Q 1250 -91 836 529 
Q 422 1150 422 2328 
Q 422 3509 836 4129 
Q 1250 4750 2034 4750 
z
" transform="scale(0.015625)"/>
       </defs>
       <use xlink:href="#DejaVuSans-31"/>
       <use xlink:href="#DejaVuSans-30" x="63.623047"/>
      </g>
     </g>
    </g>
    <g id="xtick_3">
     <g id="line2d_3">
      <g>
       <use xlink:href="#mf809951395" x="131.660625" y="108.56" style="stroke: #000000; stroke-width: 0.8"/>
      </g>
     </g>
     <g id="text_3">
      <!-- 100 -->
      <g transform="translate(122.116875 123.158437) scale(0.1 -0.1)">
       <use xlink:href="#DejaVuSans-31"/>
       <use xlink:href="#DejaVuSans-30" x="63.623047"/>
       <use xlink:href="#DejaVuSans-30" x="127.246094"/>
      </g>
     </g>
    </g>
    <g id="xtick_4">
     <g id="line2d_4">
      <g>
       <use xlink:href="#mf809951395" x="170.628625" y="108.56" style="stroke: #000000; stroke-width: 0.8"/>
      </g>
     </g>
     <g id="text_4">
      <!-- 1000 -->
      <g transform="translate(157.903625 123.158437) scale(0.1 -0.1)">
       <use xlink:href="#DejaVuSans-31"/>
       <use xlink:href="#DejaVuSans-30" x="63.623047"/>
       <use xlink:href="#DejaVuSans-30" x="127.246094"/>
       <use xlink:href="#DejaVuSans-30" x="190.869141"/>
      </g>
     </g>
    </g>
    <g id="xtick_5">
     <g id="line2d_5">
      <g>
       <use xlink:href="#mf809951395" x="209.596625" y="108.56" style="stroke: #000000; stroke-width: 0.8"/>
      </g>
     </g>
     <g id="text_5">
      <!-- 10000 -->
      <g transform="translate(193.690375 123.158437) scale(0.1 -0.1)">
       <use xlink:href="#DejaVuSans-31"/>
       <use xlink:href="#DejaVuSans-30" x="63.623047"/>
       <use xlink:href="#DejaVuSans-30" x="127.246094"/>
       <use xlink:href="#DejaVuSans-30" x="190.869141"/>
       <use xlink:href="#DejaVuSans-30" x="254.492188"/>
      </g>
     </g>
    </g>
    <g id="text_6">
     <!-- Number of arrays -->
     <g transform="translate(87.861406 136.836563) scale(0.1 -0.1)">
      <defs>
       <path id="DejaVuSans-4e" d="M 628 4666 
L 1478 4666 
L 3547 763 
L 3547 4666 
L 4159 4666 
L 4159 0 
L 3309 0 
L 1241 3903 
L 1241 0 
L 628 0 
L 628 4666 
z
" transform="scale(0.015625)"/>
       <path id="DejaVuSans-75" d="M 544 1381 
L 544 3500 
L 1119 3500 
L 1119 1403 
Q 1119 906 1312 657 
Q 1506 409 1894 409 
Q 2359 409 2629 706 
Q 2900 1003 2900 1516 
L 2900 3500 
L 3475 3500 
L 3475 0 
L 2900 0 
L 2900 538 
Q 2691 219 2414 64 
Q 2138 -91 1772 -91 
Q 1169 -91 856 284 
Q 544 659 544 1381 
z
M 1991 3584 
L 1991 3584 
z
" transform="scale(0.015625)"/>
       <path id="DejaVuSans-6d" d="M 3328 2828 
Q 3544 3216 3844 3400 
Q 4144 3584 4550 3584 
Q 5097 3584 5394 3201 
Q 5691 2819 5691 2113 
L 5691 0 
L 5113 0 
L 5113 2094 
Q 5113 2597 4934 2840 
Q 4756 3084 4391 3084 
Q 3944 3084 3684 2787 
Q 3425 2491 3425 1978 
L 3425 0 
L 2847 0 
L 2847 2094 
Q 2847 2600 2669 2842 
Q 2491 3084 2119 3084 
Q 1678 3084 1418 2786 
Q 1159 2488 1159 1978 
L 1159 0 
L 581 0 
L 581 3500 
L 1159 3500 
L 1159 2956 
Q 1356 3278 1631 3431 
Q 1906 3584 2284 3584 
Q 2666 3584 2933 3390 
Q 3200 3197 3328 2828 
z
" transform="scale(0.015625)"/>
       <path id="DejaVuSans-62" d="M 3116 1747 
Q 3116 2381 2855 2742 
Q 2594 3103 2138 3103 
Q 1681 3103 1420 2742 
Q 1159 2381 1159 1747 
Q 1159 1113 1420 752 
Q 1681 391 2138 391 
Q 2594 391 2855 752 
Q 3116 1113 3116 1747 
z
M 1159 2969 
Q 1341 3281 1617 3432 
Q 1894 3584 2278 3584 
Q 2916 3584 3314 3078 
Q 3713 2572 3713 1747 
Q 3713 922 3314 415 
Q 2916 -91 2278 -91 
Q 1894 -91 1617 61 
Q 1341 213 1159 525 
L 1159 0 
L 581 0 
L 581 4863 
L 1159 4863 
L 1159 2969 
z
" transform="scale(0.015625)"/>
       <path id="DejaVuSans-65" d="M 3597 1894 
L 3597 1613 
L 953 1613 
Q 991 1019 1311 708 
Q 1631 397 2203 397 
Q 2534 397 2845 478 
Q 3156 559 3463 722 
L 3463 178 
Q 3153 47 2828 -22 
Q 2503 -91 2169 -91 
Q 1331 -91 842 396 
Q 353 884 353 1716 
Q 353 2575 817 3079 
Q 1281 3584 2069 3584 
Q 2775 3584 3186 3129 
Q 3597 2675 3597 1894 
z
M 3022 2063 
Q 3016 2534 2758 2815 
Q 2500 3097 2075 3097 
Q 1594 3097 1305 2825 
Q 1016 2553 972 2059 
L 3022 2063 
z
" transform="scale(0.015625)"/>
       <path id="DejaVuSans-72" d="M 2631 2963 
Q 2534 3019 2420 3045 
Q 2306 3072 2169 3072 
Q 1681 3072 1420 2755 
Q 1159 2438 1159 1844 
L 1159 0 
L 581 0 
L 581 3500 
L 1159 3500 
L 1159 2956 
Q 1341 3275 1631 3429 
Q 1922 3584 2338 3584 
Q 2397 3584 2469 3576 
Q 2541 3569 2628 3553 
L 2631 2963 
z
" transform="scale(0.015625)"/>
       <path id="DejaVuSans-20" transform="scale(0.015625)"/>
       <path id="DejaVuSans-6f" d="M 1959 3097 
Q 1497 3097 1228 2736 
Q 959 2375 959 1747 
Q 959 1119 1226 758 
Q 1494 397 1959 397 
Q 2419 397 2687 759 
Q 2956 1122 2956 1747 
Q 2956 2369 2687 2733 
Q 2419 3097 1959 3097 
z
M 1959 3584 
Q 2709 3584 3137 3096 
Q 3566 2609 3566 1747 
Q 3566 888 3137 398 
Q 2709 -91 1959 -91 
Q 1206 -91 779 398 
Q 353 888 353 1747 
Q 353 2609 779 3096 
Q 1206 3584 1959 3584 
z
" transform="scale(0.015625)"/>
       <path id="DejaVuSans-66" d="M 2375 4863 
L 2375 4384 
L 1825 4384 
Q 1516 4384 1395 4259 
Q 1275 4134 1275 3809 
L 1275 3500 
L 2222 3500 
L 2222 3053 
L 1275 3053 
L 1275 0 
L 697 0 
L 697 3053 
L 147 3053 
L 147 3500 
L 697 3500 
L 697 3744 
Q 697 4328 969 4595 
Q 1241 4863 1831 4863 
L 2375 4863 
z
" transform="scale(0.015625)"/>
       <path id="DejaVuSans-61" d="M 2194 1759 
Q 1497 1759 1228 1600 
Q 959 1441 959 1056 
Q 959 750 1161 570 
Q 1363 391 1709 391 
Q 2188 391 2477 730 
Q 2766 1069 2766 1631 
L 2766 1759 
L 2194 1759 
z
M 3341 1997 
L 3341 0 
L 2766 0 
L 2766 531 
Q 2569 213 2275 61 
Q 1981 -91 1556 -91 
Q 1019 -91 701 211 
Q 384 513 384 1019 
Q 384 1609 779 1909 
Q 1175 2209 1959 2209 
L 2766 2209 
L 2766 2266 
Q 2766 2663 2505 2880 
Q 2244 3097 1772 3097 
Q 1472 3097 1187 3025 
Q 903 2953 641 2809 
L 641 3341 
Q 956 3463 1253 3523 
Q 1550 3584 1831 3584 
Q 2591 3584 2966 3190 
Q 3341 2797 3341 1997 
z
" transform="scale(0.015625)"/>
       <path id="DejaVuSans-79" d="M 2059 -325 
Q 1816 -950 1584 -1140 
Q 1353 -1331 966 -1331 
L 506 -1331 
L 506 -850 
L 844 -850 
Q 1081 -850 1212 -737 
Q 1344 -625 1503 -206 
L 1606 56 
L 191 3500 
L 800 3500 
L 1894 763 
L 2988 3500 
L 3597 3500 
L 2059 -325 
z
" transform="scale(0.015625)"/>
       <path id="DejaVuSans-73" d="M 2834 3397 
L 2834 2853 
Q 2591 2978 2328 3040 
Q 2066 3103 1784 3103 
Q 1356 3103 1142 2972 
Q 928 2841 928 2578 
Q 928 2378 1081 2264 
Q 1234 2150 1697 2047 
L 1894 2003 
Q 2506 1872 2764 1633 
Q 3022 1394 3022 966 
Q 3022 478 2636 193 
Q 2250 -91 1575 -91 
Q 1294 -91 989 -36 
Q 684 19 347 128 
L 347 722 
Q 666 556 975 473 
Q 1284 391 1588 391 
Q 1994 391 2212 530 
Q 2431 669 2431 922 
Q 2431 1156 2273 1281 
Q 2116 1406 1581 1522 
L 1381 1569 
Q 847 1681 609 1914 
Q 372 2147 372 2553 
Q 372 3047 722 3315 
Q 1072 3584 1716 3584 
Q 2034 3584 2315 3537 
Q 2597 3491 2834 3397 
z
" transform="scale(0.015625)"/>
      </defs>
      <use xlink:href="#DejaVuSans-4e"/>
      <use xlink:href="#DejaVuSans-75" x="74.804688"/>
      <use xlink:href="#DejaVuSans-6d" x="138.183594"/>
      <use xlink:href="#DejaVuSans-62" x="235.595703"/>
      <use xlink:href="#DejaVuSans-65" x="299.072266"/>
      <use xlink:href="#DejaVuSans-72" x="360.595703"/>
      <use xlink:href="#DejaVuSans-20" x="401.708984"/>
      <use xlink:href="#DejaVuSans-6f" x="433.496094"/>
      <use xlink:href="#DejaVuSans-66" x="494.677734"/>
      <use xlink:href="#DejaVuSans-20" x="529.882812"/>
      <use xlink:href="#DejaVuSans-61" x="561.669922"/>
      <use xlink:href="#DejaVuSans-72" x="622.949219"/>
      <use xlink:href="#DejaVuSans-72" x="662.3125"/>
      <use xlink:href="#DejaVuSans-61" x="703.425781"/>
      <use xlink:href="#DejaVuSans-79" x="764.705078"/>
      <use xlink:href="#DejaVuSans-73" x="823.884766"/>
     </g>
    </g>
   </g>
   <g id="matplotlib.axis_2">
    <g id="ytick_1">
     <g id="line2d_6">
      <defs>
       <path id="m65afb78ff7" d="M 0 0 
L -3.5 0 
" style="stroke: #000000; stroke-width: 0.8"/>
      </defs>
      <g>
       <use xlink:href="#m65afb78ff7" x="34.240625" y="108.56" style="stroke: #000000; stroke-width: 0.8"/>
      </g>
     </g>
     <g id="text_7">
      <!-- 0 -->
      <g transform="translate(20.878125 112.359219) scale(0.1 -0.1)">
       <use xlink:href="#DejaVuSans-30"/>
      </g>
     </g>
    </g>
    <g id="ytick_2">
     <g id="line2d_7">
      <g>
       <use xlink:href="#m65afb78ff7" x="34.240625" y="80.520016" style="stroke: #000000; stroke-width: 0.8"/>
      </g>
     </g>
     <g id="text_8">
      <!-- 1 -->
      <g transform="translate(20.878125 84.319235) scale(0.1 -0.1)">
       <use xlink:href="#DejaVuSans-31"/>
      </g>
     </g>
    </g>
    <g id="ytick_3">
     <g id="line2d_8">
      <g>
       <use xlink:href="#m65afb78ff7" x="34.240625" y="52.480032" style="stroke: #000000; stroke-width: 0.8"/>
      </g>
     </g>
     <g id="text_9">
      <!-- 2 -->
      <g transform="translate(20.878125 56.279251) scale(0.1 -0.1)">
       <defs>
        <path id="DejaVuSans-32" d="M 1228 531 
L 3431 531 
L 3431 0 
L 469 0 
L 469 531 
Q 828 903 1448 1529 
Q 2069 2156 2228 2338 
Q 2531 2678 2651 2914 
Q 2772 3150 2772 3378 
Q 2772 3750 2511 3984 
Q 2250 4219 1831 4219 
Q 1534 4219 1204 4116 
Q 875 4013 500 3803 
L 500 4441 
Q 881 4594 1212 4672 
Q 1544 4750 1819 4750 
Q 2544 4750 2975 4387 
Q 3406 4025 3406 3419 
Q 3406 3131 3298 2873 
Q 3191 2616 2906 2266 
Q 2828 2175 2409 1742 
Q 1991 1309 1228 531 
z
" transform="scale(0.015625)"/>
       </defs>
       <use xlink:href="#DejaVuSans-32"/>
      </g>
     </g>
    </g>
    <g id="ytick_4">
     <g id="line2d_9">
      <g>
       <use xlink:href="#m65afb78ff7" x="34.240625" y="24.440048" style="stroke: #000000; stroke-width: 0.8"/>
      </g>
     </g>
     <g id="text_10">
      <!-- 3 -->
      <g transform="translate(20.878125 28.239267) scale(0.1 -0.1)">
       <defs>
        <path id="DejaVuSans-33" d="M 2597 2516 
Q 3050 2419 3304 2112 
Q 3559 1806 3559 1356 
Q 3559 666 3084 287 
Q 2609 -91 1734 -91 
Q 1441 -91 1130 -33 
Q 819 25 488 141 
L 488 750 
Q 750 597 1062 519 
Q 1375 441 1716 441 
Q 2309 441 2620 675 
Q 2931 909 2931 1356 
Q 2931 1769 2642 2001 
Q 2353 2234 1838 2234 
L 1294 2234 
L 1294 2753 
L 1863 2753 
Q 2328 2753 2575 2939 
Q 2822 3125 2822 3475 
Q 2822 3834 2567 4026 
Q 2313 4219 1838 4219 
Q 1578 4219 1281 4162 
Q 984 4106 628 3988 
L 628 4550 
Q 988 4650 1302 4700 
Q 1616 4750 1894 4750 
Q 2613 4750 3031 4423 
Q 3450 4097 3450 3541 
Q 3450 3153 3228 2886 
Q 3006 2619 2597 2516 
z
" transform="scale(0.015625)"/>
       </defs>
       <use xlink:href="#DejaVuSans-33"/>
      </g>
     </g>
    </g>
    <g id="text_11">
     <!-- Duration (s) -->
     <g transform="translate(14.798437 87.690937) rotate(-90) scale(0.1 -0.1)">
      <defs>
       <path id="DejaVuSans-44" d="M 1259 4147 
L 1259 519 
L 2022 519 
Q 2988 519 3436 956 
Q 3884 1394 3884 2338 
Q 3884 3275 3436 3711 
Q 2988 4147 2022 4147 
L 1259 4147 
z
M 628 4666 
L 1925 4666 
Q 3281 4666 3915 4102 
Q 4550 3538 4550 2338 
Q 4550 1131 3912 565 
Q 3275 0 1925 0 
L 628 0 
L 628 4666 
z
" transform="scale(0.015625)"/>
       <path id="DejaVuSans-74" d="M 1172 4494 
L 1172 3500 
L 2356 3500 
L 2356 3053 
L 1172 3053 
L 1172 1153 
Q 1172 725 1289 603 
Q 1406 481 1766 481 
L 2356 481 
L 2356 0 
L 1766 0 
Q 1100 0 847 248 
Q 594 497 594 1153 
L 594 3053 
L 172 3053 
L 172 3500 
L 594 3500 
L 594 4494 
L 1172 4494 
z
" transform="scale(0.015625)"/>
       <path id="DejaVuSans-69" d="M 603 3500 
L 1178 3500 
L 1178 0 
L 603 0 
L 603 3500 
z
M 603 4863 
L 1178 4863 
L 1178 4134 
L 603 4134 
L 603 4863 
z
" transform="scale(0.015625)"/>
       <path id="DejaVuSans-6e" d="M 3513 2113 
L 3513 0 
L 2938 0 
L 2938 2094 
Q 2938 2591 2744 2837 
Q 2550 3084 2163 3084 
Q 1697 3084 1428 2787 
Q 1159 2491 1159 1978 
L 1159 0 
L 581 0 
L 581 3500 
L 1159 3500 
L 1159 2956 
Q 1366 3272 1645 3428 
Q 1925 3584 2291 3584 
Q 2894 3584 3203 3211 
Q 3513 2838 3513 2113 
z
" transform="scale(0.015625)"/>
       <path id="DejaVuSans-28" d="M 1984 4856 
Q 1566 4138 1362 3434 
Q 1159 2731 1159 2009 
Q 1159 1288 1364 580 
Q 1569 -128 1984 -844 
L 1484 -844 
Q 1016 -109 783 600 
Q 550 1309 550 2009 
Q 550 2706 781 3412 
Q 1013 4119 1484 4856 
L 1984 4856 
z
" transform="scale(0.015625)"/>
       <path id="DejaVuSans-29" d="M 513 4856 
L 1013 4856 
Q 1481 4119 1714 3412 
Q 1947 2706 1947 2009 
Q 1947 1309 1714 600 
Q 1481 -109 1013 -844 
L 513 -844 
Q 928 -128 1133 580 
Q 1338 1288 1338 2009 
Q 1338 2731 1133 3434 
Q 928 4138 513 4856 
z
" transform="scale(0.015625)"/>
      </defs>
      <use xlink:href="#DejaVuSans-44"/>
      <use xlink:href="#DejaVuSans-75" x="77.001953"/>
      <use xlink:href="#DejaVuSans-72" x="140.380859"/>
      <use xlink:href="#DejaVuSans-61" x="181.494141"/>
      <use xlink:href="#DejaVuSans-74" x="242.773438"/>
      <use xlink:href="#DejaVuSans-69" x="281.982422"/>
      <use xlink:href="#DejaVuSans-6f" x="309.765625"/>
      <use xlink:href="#DejaVuSans-6e" x="370.947266"/>
      <use xlink:href="#DejaVuSans-20" x="434.326172"/>
      <use xlink:href="#DejaVuSans-28" x="466.113281"/>
      <use xlink:href="#DejaVuSans-73" x="505.126953"/>
      <use xlink:href="#DejaVuSans-29" x="557.226562"/>
     </g>
    </g>
   </g>
   <g id="LineCollection_1">
    <path d="M 46.418125 108.283157 
L 46.418125 108.268097 
" clip-path="url(#pde1bea9460)" style="fill: none; stroke: #000000"/>
    <path d="M 85.386125 108.27616 
L 85.386125 108.26479 
" clip-path="url(#pde1bea9460)" style="fill: none; stroke: #000000"/>
    <path d="M 124.354125 108.257845 
L 124.354125 108.244066 
" clip-path="url(#pde1bea9460)" style="fill: none; stroke: #000000"/>
    <path d="M 163.322125 107.971068 
L 163.322125 107.92477 
" clip-path="url(#pde1bea9460)" style="fill: none; stroke: #000000"/>
    <path d="M 202.290125 105.167396 
L 202.290125 104.811521 
" clip-path="url(#pde1bea9460)" style="fill: none; stroke: #000000"/>
   </g>
   <g id="line2d_10">
    <defs>
     <path id="m721b0a68d4" d="M 3 0 
L -3 -0 
" style="stroke: #000000"/>
    </defs>
    <g clip-path="url(#pde1bea9460)">
     <use xlink:href="#m721b0a68d4" x="46.418125" y="108.283157" style="stroke: #000000"/>
     <use xlink:href="#m721b0a68d4" x="85.386125" y="108.27616" style="stroke: #000000"/>
     <use xlink:href="#m721b0a68d4" x="124.354125" y="108.257845" style="stroke: #000000"/>
     <use xlink:href="#m721b0a68d4" x="163.322125" y="107.971068" style="stroke: #000000"/>
     <use xlink:href="#m721b0a68d4" x="202.290125" y="105.167396" style="stroke: #000000"/>
    </g>
   </g>
   <g id="line2d_11">
    <g clip-path="url(#pde1bea9460)">
     <use xlink:href="#m721b0a68d4" x="46.418125" y="108.268097" style="stroke: #000000"/>
     <use xlink:href="#m721b0a68d4" x="85.386125" y="108.26479" style="stroke: #000000"/>
     <use xlink:href="#m721b0a68d4" x="124.354125" y="108.244066" style="stroke: #000000"/>
     <use xlink:href="#m721b0a68d4" x="163.322125" y="107.92477" style="stroke: #000000"/>
     <use xlink:href="#m721b0a68d4" x="202.290125" y="104.811521" style="stroke: #000000"/>
    </g>
   </g>
   <g id="LineCollection_2">
    <path d="M 51.289125 108.502054 
L 51.289125 108.485102 
" clip-path="url(#pde1bea9460)" style="fill: none; stroke: #000000"/>
    <path d="M 90.257125 108.48093 
L 90.257125 108.47629 
" clip-path="url(#pde1bea9460)" style="fill: none; stroke: #000000"/>
    <path d="M 129.225125 108.227476 
L 129.225125 108.184228 
" clip-path="url(#pde1bea9460)" style="fill: none; stroke: #000000"/>
    <path d="M 168.193125 106.005139 
L 168.193125 105.509934 
" clip-path="url(#pde1bea9460)" style="fill: none; stroke: #000000"/>
    <path d="M 207.161125 83.970311 
L 207.161125 81.159782 
" clip-path="url(#pde1bea9460)" style="fill: none; stroke: #000000"/>
   </g>
   <g id="line2d_12">
    <g clip-path="url(#pde1bea9460)">
     <use xlink:href="#m721b0a68d4" x="51.289125" y="108.502054" style="stroke: #000000"/>
     <use xlink:href="#m721b0a68d4" x="90.257125" y="108.48093" style="stroke: #000000"/>
     <use xlink:href="#m721b0a68d4" x="129.225125" y="108.227476" style="stroke: #000000"/>
     <use xlink:href="#m721b0a68d4" x="168.193125" y="106.005139" style="stroke: #000000"/>
     <use xlink:href="#m721b0a68d4" x="207.161125" y="83.970311" style="stroke: #000000"/>
    </g>
   </g>
   <g id="line2d_13">
    <g clip-path="url(#pde1bea9460)">
     <use xlink:href="#m721b0a68d4" x="51.289125" y="108.485102" style="stroke: #000000"/>
     <use xlink:href="#m721b0a68d4" x="90.257125" y="108.47629" style="stroke: #000000"/>
     <use xlink:href="#m721b0a68d4" x="129.225125" y="108.184228" style="stroke: #000000"/>
     <use xlink:href="#m721b0a68d4" x="168.193125" y="105.509934" style="stroke: #000000"/>
     <use xlink:href="#m721b0a68d4" x="207.161125" y="81.159782" style="stroke: #000000"/>
    </g>
   </g>
   <g id="LineCollection_3">
    <path d="M 56.160125 108.355559 
L 56.160125 108.298089 
" clip-path="url(#pde1bea9460)" style="fill: none; stroke: #000000"/>
    <path d="M 95.128125 108.280989 
L 95.128125 108.266921 
" clip-path="url(#pde1bea9460)" style="fill: none; stroke: #000000"/>
    <path d="M 134.096125 107.262486 
L 134.096125 107.02278 
" clip-path="url(#pde1bea9460)" style="fill: none; stroke: #000000"/>
    <path d="M 173.064125 98.902694 
L 173.064125 98.387973 
" clip-path="url(#pde1bea9460)" style="fill: none; stroke: #000000"/>
    <path d="M 212.032125 15.723236 
L 212.032125 12.026667 
" clip-path="url(#pde1bea9460)" style="fill: none; stroke: #000000"/>
   </g>
   <g id="line2d_14">
    <g clip-path="url(#pde1bea9460)">
     <use xlink:href="#m721b0a68d4" x="56.160125" y="108.355559" style="stroke: #000000"/>
     <use xlink:href="#m721b0a68d4" x="95.128125" y="108.280989" style="stroke: #000000"/>
     <use xlink:href="#m721b0a68d4" x="134.096125" y="107.262486" style="stroke: #000000"/>
     <use xlink:href="#m721b0a68d4" x="173.064125" y="98.902694" style="stroke: #000000"/>
     <use xlink:href="#m721b0a68d4" x="212.032125" y="15.723236" style="stroke: #000000"/>
    </g>
   </g>
   <g id="line2d_15">
    <g clip-path="url(#pde1bea9460)">
     <use xlink:href="#m721b0a68d4" x="56.160125" y="108.298089" style="stroke: #000000"/>
     <use xlink:href="#m721b0a68d4" x="95.128125" y="108.266921" style="stroke: #000000"/>
     <use xlink:href="#m721b0a68d4" x="134.096125" y="107.02278" style="stroke: #000000"/>
     <use xlink:href="#m721b0a68d4" x="173.064125" y="98.387973" style="stroke: #000000"/>
     <use xlink:href="#m721b0a68d4" x="212.032125" y="12.026667" style="stroke: #000000"/>
    </g>
   </g>
   <g id="LineCollection_4">
    <path d="M 61.031125 106.895448 
L 61.031125 106.734722 
" clip-path="url(#pde1bea9460)" style="fill: none; stroke: #000000"/>
    <path d="M 99.999125 106.907342 
L 99.999125 106.890746 
" clip-path="url(#pde1bea9460)" style="fill: none; stroke: #000000"/>
    <path d="M 138.967125 106.62988 
L 138.967125 106.573504 
" clip-path="url(#pde1bea9460)" style="fill: none; stroke: #000000"/>
    <path d="M 177.935125 98.668049 
L 177.935125 97.631488 
" clip-path="url(#pde1bea9460)" style="fill: none; stroke: #000000"/>
    <path d="M 216.903125 19.005328 
L 216.903125 12.194119 
" clip-path="url(#pde1bea9460)" style="fill: none; stroke: #000000"/>
   </g>
   <g id="line2d_16">
    <g clip-path="url(#pde1bea9460)">
     <use xlink:href="#m721b0a68d4" x="61.031125" y="106.895448" style="stroke: #000000"/>
     <use xlink:href="#m721b0a68d4" x="99.999125" y="106.907342" style="stroke: #000000"/>
     <use xlink:href="#m721b0a68d4" x="138.967125" y="106.62988" style="stroke: #000000"/>
     <use xlink:href="#m721b0a68d4" x="177.935125" y="98.668049" style="stroke: #000000"/>
     <use xlink:href="#m721b0a68d4" x="216.903125" y="19.005328" style="stroke: #000000"/>
    </g>
   </g>
   <g id="line2d_17">
    <g clip-path="url(#pde1bea9460)">
     <use xlink:href="#m721b0a68d4" x="61.031125" y="106.734722" style="stroke: #000000"/>
     <use xlink:href="#m721b0a68d4" x="99.999125" y="106.890746" style="stroke: #000000"/>
     <use xlink:href="#m721b0a68d4" x="138.967125" y="106.573504" style="stroke: #000000"/>
     <use xlink:href="#m721b0a68d4" x="177.935125" y="97.631488" style="stroke: #000000"/>
     <use xlink:href="#m721b0a68d4" x="216.903125" y="12.194119" style="stroke: #000000"/>
    </g>
   </g>
   <g id="patch_23">
    <path d="M 34.240625 108.56 
L 34.240625 7.2 
" style="fill: none; stroke: #000000; stroke-width: 0.8; stroke-linejoin: miter; stroke-linecap: square"/>
   </g>
   <g id="patch_24">
    <path d="M 229.080625 108.56 
L 229.080625 7.2 
" style="fill: none; stroke: #000000; stroke-width: 0.8; stroke-linejoin: miter; stroke-linecap: square"/>
   </g>
   <g id="patch_25">
    <path d="M 34.240625 108.56 
L 229.080625 108.56 
" style="fill: none; stroke: #000000; stroke-width: 0.8; stroke-linejoin: miter; stroke-linecap: square"/>
   </g>
   <g id="patch_26">
    <path d="M 34.240625 7.2 
L 229.080625 7.2 
" style="fill: none; stroke: #000000; stroke-width: 0.8; stroke-linejoin: miter; stroke-linecap: square"/>
   </g>
   <g id="legend_1">
    <g id="patch_27">
     <path d="M 40.066094 215.056 
L 223.255156 215.056 
Q 225.255156 215.056 225.255156 213.056 
L 225.255156 184.69975 
Q 225.255156 182.69975 223.255156 182.69975 
L 40.066094 182.69975 
Q 38.066094 182.69975 38.066094 184.69975 
L 38.066094 213.056 
Q 38.066094 215.056 40.066094 215.056 
z
" style="fill: #ffffff; opacity: 0.8; stroke: #cccccc; stroke-linejoin: miter"/>
    </g>
    <g id="patch_28">
     <path d="M 42.066094 194.298187 
L 62.066094 194.298187 
L 62.066094 187.298187 
L 42.066094 187.298187 
z
" style="fill: #006ba4"/>
    </g>
    <g id="text_12">
     <!-- MLtraq -->
     <g transform="translate(70.066094 194.298187) scale(0.1 -0.1)">
      <defs>
       <path id="DejaVuSans-4d" d="M 628 4666 
L 1569 4666 
L 2759 1491 
L 3956 4666 
L 4897 4666 
L 4897 0 
L 4281 0 
L 4281 4097 
L 3078 897 
L 2444 897 
L 1241 4097 
L 1241 0 
L 628 0 
L 628 4666 
z
" transform="scale(0.015625)"/>
       <path id="DejaVuSans-4c" d="M 628 4666 
L 1259 4666 
L 1259 531 
L 3531 531 
L 3531 0 
L 628 0 
L 628 4666 
z
" transform="scale(0.015625)"/>
       <path id="DejaVuSans-71" d="M 947 1747 
Q 947 1113 1208 752 
Q 1469 391 1925 391 
Q 2381 391 2643 752 
Q 2906 1113 2906 1747 
Q 2906 2381 2643 2742 
Q 2381 3103 1925 3103 
Q 1469 3103 1208 2742 
Q 947 2381 947 1747 
z
M 2906 525 
Q 2725 213 2448 61 
Q 2172 -91 1784 -91 
Q 1150 -91 751 415 
Q 353 922 353 1747 
Q 353 2572 751 3078 
Q 1150 3584 1784 3584 
Q 2172 3584 2448 3432 
Q 2725 3281 2906 2969 
L 2906 3500 
L 3481 3500 
L 3481 -1331 
L 2906 -1331 
L 2906 525 
z
" transform="scale(0.015625)"/>
      </defs>
      <use xlink:href="#DejaVuSans-4d"/>
      <use xlink:href="#DejaVuSans-4c" x="86.279297"/>
      <use xlink:href="#DejaVuSans-74" x="141.992188"/>
      <use xlink:href="#DejaVuSans-72" x="181.201172"/>
      <use xlink:href="#DejaVuSans-61" x="222.314453"/>
      <use xlink:href="#DejaVuSans-71" x="283.59375"/>
     </g>
    </g>
    <g id="patch_29">
     <path d="M 42.066094 208.976313 
L 62.066094 208.976313 
L 62.066094 201.976313 
L 42.066094 201.976313 
z
" style="fill: #ff800e"/>
    </g>
    <g id="text_13">
     <!-- Neptune -->
     <g transform="translate(70.066094 208.976313) scale(0.1 -0.1)">
      <defs>
       <path id="DejaVuSans-70" d="M 1159 525 
L 1159 -1331 
L 581 -1331 
L 581 3500 
L 1159 3500 
L 1159 2969 
Q 1341 3281 1617 3432 
Q 1894 3584 2278 3584 
Q 2916 3584 3314 3078 
Q 3713 2572 3713 1747 
Q 3713 922 3314 415 
Q 2916 -91 2278 -91 
Q 1894 -91 1617 61 
Q 1341 213 1159 525 
z
M 3116 1747 
Q 3116 2381 2855 2742 
Q 2594 3103 2138 3103 
Q 1681 3103 1420 2742 
Q 1159 2381 1159 1747 
Q 1159 1113 1420 752 
Q 1681 391 2138 391 
Q 2594 391 2855 752 
Q 3116 1113 3116 1747 
z
" transform="scale(0.015625)"/>
      </defs>
      <use xlink:href="#DejaVuSans-4e"/>
      <use xlink:href="#DejaVuSans-65" x="74.804688"/>
      <use xlink:href="#DejaVuSans-70" x="136.328125"/>
      <use xlink:href="#DejaVuSans-74" x="199.804688"/>
      <use xlink:href="#DejaVuSans-75" x="239.013672"/>
      <use xlink:href="#DejaVuSans-6e" x="302.392578"/>
      <use xlink:href="#DejaVuSans-65" x="365.771484"/>
     </g>
    </g>
    <g id="patch_30">
     <path d="M 132.797344 194.298187 
L 152.797344 194.298187 
L 152.797344 187.298187 
L 132.797344 187.298187 
z
" style="fill: #ababab"/>
    </g>
    <g id="text_14">
     <!-- FastTrackML -->
     <g transform="translate(160.797344 194.298187) scale(0.1 -0.1)">
      <defs>
       <path id="DejaVuSans-46" d="M 628 4666 
L 3309 4666 
L 3309 4134 
L 1259 4134 
L 1259 2759 
L 3109 2759 
L 3109 2228 
L 1259 2228 
L 1259 0 
L 628 0 
L 628 4666 
z
" transform="scale(0.015625)"/>
       <path id="DejaVuSans-54" d="M -19 4666 
L 3928 4666 
L 3928 4134 
L 2272 4134 
L 2272 0 
L 1638 0 
L 1638 4134 
L -19 4134 
L -19 4666 
z
" transform="scale(0.015625)"/>
       <path id="DejaVuSans-63" d="M 3122 3366 
L 3122 2828 
Q 2878 2963 2633 3030 
Q 2388 3097 2138 3097 
Q 1578 3097 1268 2742 
Q 959 2388 959 1747 
Q 959 1106 1268 751 
Q 1578 397 2138 397 
Q 2388 397 2633 464 
Q 2878 531 3122 666 
L 3122 134 
Q 2881 22 2623 -34 
Q 2366 -91 2075 -91 
Q 1284 -91 818 406 
Q 353 903 353 1747 
Q 353 2603 823 3093 
Q 1294 3584 2113 3584 
Q 2378 3584 2631 3529 
Q 2884 3475 3122 3366 
z
" transform="scale(0.015625)"/>
       <path id="DejaVuSans-6b" d="M 581 4863 
L 1159 4863 
L 1159 1991 
L 2875 3500 
L 3609 3500 
L 1753 1863 
L 3688 0 
L 2938 0 
L 1159 1709 
L 1159 0 
L 581 0 
L 581 4863 
z
" transform="scale(0.015625)"/>
      </defs>
      <use xlink:href="#DejaVuSans-46"/>
      <use xlink:href="#DejaVuSans-61" x="48.394531"/>
      <use xlink:href="#DejaVuSans-73" x="109.673828"/>
      <use xlink:href="#DejaVuSans-74" x="161.773438"/>
      <use xlink:href="#DejaVuSans-54" x="200.982422"/>
      <use xlink:href="#DejaVuSans-72" x="247.316406"/>
      <use xlink:href="#DejaVuSans-61" x="288.429688"/>
      <use xlink:href="#DejaVuSans-63" x="349.708984"/>
      <use xlink:href="#DejaVuSans-6b" x="404.689453"/>
      <use xlink:href="#DejaVuSans-4d" x="462.599609"/>
      <use xlink:href="#DejaVuSans-4c" x="548.878906"/>
     </g>
    </g>
    <g id="patch_31">
     <path d="M 132.797344 208.976313 
L 152.797344 208.976313 
L 152.797344 201.976313 
L 132.797344 201.976313 
z
" style="fill: #595959"/>
    </g>
    <g id="text_15">
     <!-- Comet -->
     <g transform="translate(160.797344 208.976313) scale(0.1 -0.1)">
      <defs>
       <path id="DejaVuSans-43" d="M 4122 4306 
L 4122 3641 
Q 3803 3938 3442 4084 
Q 3081 4231 2675 4231 
Q 1875 4231 1450 3742 
Q 1025 3253 1025 2328 
Q 1025 1406 1450 917 
Q 1875 428 2675 428 
Q 3081 428 3442 575 
Q 3803 722 4122 1019 
L 4122 359 
Q 3791 134 3420 21 
Q 3050 -91 2638 -91 
Q 1578 -91 968 557 
Q 359 1206 359 2328 
Q 359 3453 968 4101 
Q 1578 4750 2638 4750 
Q 3056 4750 3426 4639 
Q 3797 4528 4122 4306 
z
" transform="scale(0.015625)"/>
      </defs>
      <use xlink:href="#DejaVuSans-43"/>
      <use xlink:href="#DejaVuSans-6f" x="69.824219"/>
      <use xlink:href="#DejaVuSans-6d" x="131.005859"/>
      <use xlink:href="#DejaVuSans-65" x="228.417969"/>
      <use xlink:href="#DejaVuSans-74" x="289.941406"/>
     </g>
    </g>
   </g>
  </g>
  <g id="axes_2">
   <g id="patch_32">
    <path d="M 270.640625 108.56 
L 465.480625 108.56 
L 465.480625 7.2 
L 270.640625 7.2 
z
" style="fill: #ffffff"/>
   </g>
   <g id="patch_33">
    <path d="M 286.877292 108.56 
L 294.995625 108.56 
L 294.995625 106.129904 
L 286.877292 106.129904 
z
" clip-path="url(#p9fe9063195)" style="fill: #006ba4"/>
   </g>
   <g id="patch_34">
    <path d="M 351.823958 108.56 
L 359.942292 108.56 
L 359.942292 105.886263 
L 351.823958 105.886263 
z
" clip-path="url(#p9fe9063195)" style="fill: #006ba4"/>
   </g>
   <g id="patch_35">
    <path d="M 416.770625 108.56 
L 424.888958 108.56 
L 424.888958 104.774075 
L 416.770625 104.774075 
z
" clip-path="url(#p9fe9063195)" style="fill: #006ba4"/>
   </g>
   <g id="patch_36">
    <path d="M 294.995625 108.56 
L 303.113958 108.56 
L 303.113958 95.511976 
L 294.995625 95.511976 
z
" clip-path="url(#p9fe9063195)" style="fill: #ff800e"/>
   </g>
   <g id="patch_37">
    <path d="M 359.942292 108.56 
L 368.060625 108.56 
L 368.060625 94.246178 
L 359.942292 94.246178 
z
" clip-path="url(#p9fe9063195)" style="fill: #ff800e"/>
   </g>
   <g id="patch_38">
    <path d="M 424.888958 108.56 
L 433.007292 108.56 
L 433.007292 84.503226 
L 424.888958 84.503226 
z
" clip-path="url(#p9fe9063195)" style="fill: #ff800e"/>
   </g>
   <g id="patch_39">
    <path d="M 303.113958 108.56 
L 311.232292 108.56 
L 311.232292 47.256034 
L 303.113958 47.256034 
z
" clip-path="url(#p9fe9063195)" style="fill: #ababab"/>
   </g>
   <g id="patch_40">
    <path d="M 368.060625 108.56 
L 376.178958 108.56 
L 376.178958 49.212867 
L 368.060625 49.212867 
z
" clip-path="url(#p9fe9063195)" style="fill: #ababab"/>
   </g>
   <g id="patch_41">
    <path d="M 433.007292 108.56 
L 441.125625 108.56 
L 441.125625 42.246378 
L 433.007292 42.246378 
z
" clip-path="url(#p9fe9063195)" style="fill: #ababab"/>
   </g>
   <g id="patch_42">
    <path d="M 311.232292 108.56 
L 319.350625 108.56 
L 319.350625 53.577112 
L 311.232292 53.577112 
z
" clip-path="url(#p9fe9063195)" style="fill: #595959"/>
   </g>
   <g id="patch_43">
    <path d="M 376.178958 108.56 
L 384.297292 108.56 
L 384.297292 50.635774 
L 376.178958 50.635774 
z
" clip-path="url(#p9fe9063195)" style="fill: #595959"/>
   </g>
   <g id="patch_44">
    <path d="M 441.125625 108.56 
L 449.243958 108.56 
L 449.243958 30.644362 
L 441.125625 30.644362 
z
" clip-path="url(#p9fe9063195)" style="fill: #595959"/>
   </g>
   <g id="matplotlib.axis_3">
    <g id="xtick_6">
     <g id="line2d_18">
      <g>
       <use xlink:href="#mf809951395" x="303.113958" y="108.56" style="stroke: #000000; stroke-width: 0.8"/>
      </g>
     </g>
     <g id="text_16">
      <!-- 1 -->
      <g transform="translate(299.932708 123.158437) scale(0.1 -0.1)">
       <use xlink:href="#DejaVuSans-31"/>
      </g>
     </g>
    </g>
    <g id="xtick_7">
     <g id="line2d_19">
      <g>
       <use xlink:href="#mf809951395" x="368.060625" y="108.56" style="stroke: #000000; stroke-width: 0.8"/>
      </g>
     </g>
     <g id="text_17">
      <!-- 100 -->
      <g transform="translate(358.516875 123.158437) scale(0.1 -0.1)">
       <use xlink:href="#DejaVuSans-31"/>
       <use xlink:href="#DejaVuSans-30" x="63.623047"/>
       <use xlink:href="#DejaVuSans-30" x="127.246094"/>
      </g>
     </g>
    </g>
    <g id="xtick_8">
     <g id="line2d_20">
      <g>
       <use xlink:href="#mf809951395" x="433.007292" y="108.56" style="stroke: #000000; stroke-width: 0.8"/>
      </g>
     </g>
     <g id="text_18">
      <!-- 1000 -->
      <g transform="translate(420.282292 123.158437) scale(0.1 -0.1)">
       <use xlink:href="#DejaVuSans-31"/>
       <use xlink:href="#DejaVuSans-30" x="63.623047"/>
       <use xlink:href="#DejaVuSans-30" x="127.246094"/>
       <use xlink:href="#DejaVuSans-30" x="190.869141"/>
      </g>
     </g>
    </g>
    <g id="text_19">
     <!-- Size of arrays -->
     <g transform="translate(334.083281 136.836563) scale(0.1 -0.1)">
      <defs>
       <path id="DejaVuSans-53" d="M 3425 4513 
L 3425 3897 
Q 3066 4069 2747 4153 
Q 2428 4238 2131 4238 
Q 1616 4238 1336 4038 
Q 1056 3838 1056 3469 
Q 1056 3159 1242 3001 
Q 1428 2844 1947 2747 
L 2328 2669 
Q 3034 2534 3370 2195 
Q 3706 1856 3706 1288 
Q 3706 609 3251 259 
Q 2797 -91 1919 -91 
Q 1588 -91 1214 -16 
Q 841 59 441 206 
L 441 856 
Q 825 641 1194 531 
Q 1563 422 1919 422 
Q 2459 422 2753 634 
Q 3047 847 3047 1241 
Q 3047 1584 2836 1778 
Q 2625 1972 2144 2069 
L 1759 2144 
Q 1053 2284 737 2584 
Q 422 2884 422 3419 
Q 422 4038 858 4394 
Q 1294 4750 2059 4750 
Q 2388 4750 2728 4690 
Q 3069 4631 3425 4513 
z
" transform="scale(0.015625)"/>
       <path id="DejaVuSans-7a" d="M 353 3500 
L 3084 3500 
L 3084 2975 
L 922 459 
L 3084 459 
L 3084 0 
L 275 0 
L 275 525 
L 2438 3041 
L 353 3041 
L 353 3500 
z
" transform="scale(0.015625)"/>
      </defs>
      <use xlink:href="#DejaVuSans-53"/>
      <use xlink:href="#DejaVuSans-69" x="63.476562"/>
      <use xlink:href="#DejaVuSans-7a" x="91.259766"/>
      <use xlink:href="#DejaVuSans-65" x="143.75"/>
      <use xlink:href="#DejaVuSans-20" x="205.273438"/>
      <use xlink:href="#DejaVuSans-6f" x="237.060547"/>
      <use xlink:href="#DejaVuSans-66" x="298.242188"/>
      <use xlink:href="#DejaVuSans-20" x="333.447266"/>
      <use xlink:href="#DejaVuSans-61" x="365.234375"/>
      <use xlink:href="#DejaVuSans-72" x="426.513672"/>
      <use xlink:href="#DejaVuSans-72" x="465.876953"/>
      <use xlink:href="#DejaVuSans-61" x="506.990234"/>
      <use xlink:href="#DejaVuSans-79" x="568.269531"/>
      <use xlink:href="#DejaVuSans-73" x="627.449219"/>
     </g>
    </g>
   </g>
   <g id="matplotlib.axis_4">
    <g id="ytick_5">
     <g id="line2d_21">
      <g>
       <use xlink:href="#m65afb78ff7" x="270.640625" y="108.56" style="stroke: #000000; stroke-width: 0.8"/>
      </g>
     </g>
     <g id="text_20">
      <!-- 0.00 -->
      <g transform="translate(241.375 112.359219) scale(0.1 -0.1)">
       <defs>
        <path id="DejaVuSans-2e" d="M 684 794 
L 1344 794 
L 1344 0 
L 684 0 
L 684 794 
z
" transform="scale(0.015625)"/>
       </defs>
       <use xlink:href="#DejaVuSans-30"/>
       <use xlink:href="#DejaVuSans-2e" x="63.623047"/>
       <use xlink:href="#DejaVuSans-30" x="95.410156"/>
       <use xlink:href="#DejaVuSans-30" x="159.033203"/>
      </g>
     </g>
    </g>
    <g id="ytick_6">
     <g id="line2d_22">
      <g>
       <use xlink:href="#m65afb78ff7" x="270.640625" y="88.056474" style="stroke: #000000; stroke-width: 0.8"/>
      </g>
     </g>
     <g id="text_21">
      <!-- 0.25 -->
      <g transform="translate(241.375 91.855692) scale(0.1 -0.1)">
       <defs>
        <path id="DejaVuSans-35" d="M 691 4666 
L 3169 4666 
L 3169 4134 
L 1269 4134 
L 1269 2991 
Q 1406 3038 1543 3061 
Q 1681 3084 1819 3084 
Q 2600 3084 3056 2656 
Q 3513 2228 3513 1497 
Q 3513 744 3044 326 
Q 2575 -91 1722 -91 
Q 1428 -91 1123 -41 
Q 819 9 494 109 
L 494 744 
Q 775 591 1075 516 
Q 1375 441 1709 441 
Q 2250 441 2565 725 
Q 2881 1009 2881 1497 
Q 2881 1984 2565 2268 
Q 2250 2553 1709 2553 
Q 1456 2553 1204 2497 
Q 953 2441 691 2322 
L 691 4666 
z
" transform="scale(0.015625)"/>
       </defs>
       <use xlink:href="#DejaVuSans-30"/>
       <use xlink:href="#DejaVuSans-2e" x="63.623047"/>
       <use xlink:href="#DejaVuSans-32" x="95.410156"/>
       <use xlink:href="#DejaVuSans-35" x="159.033203"/>
      </g>
     </g>
    </g>
    <g id="ytick_7">
     <g id="line2d_23">
      <g>
       <use xlink:href="#m65afb78ff7" x="270.640625" y="67.552947" style="stroke: #000000; stroke-width: 0.8"/>
      </g>
     </g>
     <g id="text_22">
      <!-- 0.50 -->
      <g transform="translate(241.375 71.352166) scale(0.1 -0.1)">
       <use xlink:href="#DejaVuSans-30"/>
       <use xlink:href="#DejaVuSans-2e" x="63.623047"/>
       <use xlink:href="#DejaVuSans-35" x="95.410156"/>
       <use xlink:href="#DejaVuSans-30" x="159.033203"/>
      </g>
     </g>
    </g>
    <g id="ytick_8">
     <g id="line2d_24">
      <g>
       <use xlink:href="#m65afb78ff7" x="270.640625" y="47.049421" style="stroke: #000000; stroke-width: 0.8"/>
      </g>
     </g>
     <g id="text_23">
      <!-- 0.75 -->
      <g transform="translate(241.375 50.848639) scale(0.1 -0.1)">
       <defs>
        <path id="DejaVuSans-37" d="M 525 4666 
L 3525 4666 
L 3525 4397 
L 1831 0 
L 1172 0 
L 2766 4134 
L 525 4134 
L 525 4666 
z
" transform="scale(0.015625)"/>
       </defs>
       <use xlink:href="#DejaVuSans-30"/>
       <use xlink:href="#DejaVuSans-2e" x="63.623047"/>
       <use xlink:href="#DejaVuSans-37" x="95.410156"/>
       <use xlink:href="#DejaVuSans-35" x="159.033203"/>
      </g>
     </g>
    </g>
    <g id="ytick_9">
     <g id="line2d_25">
      <g>
       <use xlink:href="#m65afb78ff7" x="270.640625" y="26.545894" style="stroke: #000000; stroke-width: 0.8"/>
      </g>
     </g>
     <g id="text_24">
      <!-- 1.00 -->
      <g transform="translate(241.375 30.345113) scale(0.1 -0.1)">
       <use xlink:href="#DejaVuSans-31"/>
       <use xlink:href="#DejaVuSans-2e" x="63.623047"/>
       <use xlink:href="#DejaVuSans-30" x="95.410156"/>
       <use xlink:href="#DejaVuSans-30" x="159.033203"/>
      </g>
     </g>
    </g>
   </g>
   <g id="LineCollection_5">
    <path d="M 290.936458 106.536046 
L 290.936458 105.723762 
" clip-path="url(#p9fe9063195)" style="fill: none; stroke: #000000"/>
    <path d="M 355.883125 106.360737 
L 355.883125 105.411789 
" clip-path="url(#p9fe9063195)" style="fill: none; stroke: #000000"/>
    <path d="M 420.829792 105.516523 
L 420.829792 104.031626 
" clip-path="url(#p9fe9063195)" style="fill: none; stroke: #000000"/>
   </g>
   <g id="line2d_26">
    <g clip-path="url(#p9fe9063195)">
     <use xlink:href="#m721b0a68d4" x="290.936458" y="106.536046" style="stroke: #000000"/>
     <use xlink:href="#m721b0a68d4" x="355.883125" y="106.360737" style="stroke: #000000"/>
     <use xlink:href="#m721b0a68d4" x="420.829792" y="105.516523" style="stroke: #000000"/>
    </g>
   </g>
   <g id="line2d_27">
    <g clip-path="url(#p9fe9063195)">
     <use xlink:href="#m721b0a68d4" x="290.936458" y="105.723762" style="stroke: #000000"/>
     <use xlink:href="#m721b0a68d4" x="355.883125" y="105.411789" style="stroke: #000000"/>
     <use xlink:href="#m721b0a68d4" x="420.829792" y="104.031626" style="stroke: #000000"/>
    </g>
   </g>
   <g id="LineCollection_6">
    <path d="M 299.054792 98.772715 
L 299.054792 92.251236 
" clip-path="url(#p9fe9063195)" style="fill: none; stroke: #000000"/>
    <path d="M 364.001458 97.814739 
L 364.001458 90.677617 
" clip-path="url(#p9fe9063195)" style="fill: none; stroke: #000000"/>
    <path d="M 428.948125 90.417414 
L 428.948125 78.589037 
" clip-path="url(#p9fe9063195)" style="fill: none; stroke: #000000"/>
   </g>
   <g id="line2d_28">
    <g clip-path="url(#p9fe9063195)">
     <use xlink:href="#m721b0a68d4" x="299.054792" y="98.772715" style="stroke: #000000"/>
     <use xlink:href="#m721b0a68d4" x="364.001458" y="97.814739" style="stroke: #000000"/>
     <use xlink:href="#m721b0a68d4" x="428.948125" y="90.417414" style="stroke: #000000"/>
    </g>
   </g>
   <g id="line2d_29">
    <g clip-path="url(#p9fe9063195)">
     <use xlink:href="#m721b0a68d4" x="299.054792" y="92.251236" style="stroke: #000000"/>
     <use xlink:href="#m721b0a68d4" x="364.001458" y="90.677617" style="stroke: #000000"/>
     <use xlink:href="#m721b0a68d4" x="428.948125" y="78.589037" style="stroke: #000000"/>
    </g>
   </g>
   <g id="LineCollection_7">
    <path d="M 307.173125 62.5144 
L 307.173125 31.997668 
" clip-path="url(#p9fe9063195)" style="fill: none; stroke: #000000"/>
    <path d="M 372.119792 63.945293 
L 372.119792 34.480442 
" clip-path="url(#p9fe9063195)" style="fill: none; stroke: #000000"/>
    <path d="M 437.066458 58.742561 
L 437.066458 25.750195 
" clip-path="url(#p9fe9063195)" style="fill: none; stroke: #000000"/>
   </g>
   <g id="line2d_30">
    <g clip-path="url(#p9fe9063195)">
     <use xlink:href="#m721b0a68d4" x="307.173125" y="62.5144" style="stroke: #000000"/>
     <use xlink:href="#m721b0a68d4" x="372.119792" y="63.945293" style="stroke: #000000"/>
     <use xlink:href="#m721b0a68d4" x="437.066458" y="58.742561" style="stroke: #000000"/>
    </g>
   </g>
   <g id="line2d_31">
    <g clip-path="url(#p9fe9063195)">
     <use xlink:href="#m721b0a68d4" x="307.173125" y="31.997668" style="stroke: #000000"/>
     <use xlink:href="#m721b0a68d4" x="372.119792" y="34.480442" style="stroke: #000000"/>
     <use xlink:href="#m721b0a68d4" x="437.066458" y="25.750195" style="stroke: #000000"/>
    </g>
   </g>
   <g id="LineCollection_8">
    <path d="M 315.291458 66.526536 
L 315.291458 40.627688 
" clip-path="url(#p9fe9063195)" style="fill: none; stroke: #000000"/>
    <path d="M 380.238125 64.249002 
L 380.238125 37.022547 
" clip-path="url(#p9fe9063195)" style="fill: none; stroke: #000000"/>
    <path d="M 445.184792 49.262058 
L 445.184792 12.026667 
" clip-path="url(#p9fe9063195)" style="fill: none; stroke: #000000"/>
   </g>
   <g id="line2d_32">
    <g clip-path="url(#p9fe9063195)">
     <use xlink:href="#m721b0a68d4" x="315.291458" y="66.526536" style="stroke: #000000"/>
     <use xlink:href="#m721b0a68d4" x="380.238125" y="64.249002" style="stroke: #000000"/>
     <use xlink:href="#m721b0a68d4" x="445.184792" y="49.262058" style="stroke: #000000"/>
    </g>
   </g>
   <g id="line2d_33">
    <g clip-path="url(#p9fe9063195)">
     <use xlink:href="#m721b0a68d4" x="315.291458" y="40.627688" style="stroke: #000000"/>
     <use xlink:href="#m721b0a68d4" x="380.238125" y="37.022547" style="stroke: #000000"/>
     <use xlink:href="#m721b0a68d4" x="445.184792" y="12.026667" style="stroke: #000000"/>
    </g>
   </g>
   <g id="patch_45">
    <path d="M 270.640625 108.56 
L 270.640625 7.2 
" style="fill: none; stroke: #000000; stroke-width: 0.8; stroke-linejoin: miter; stroke-linecap: square"/>
   </g>
   <g id="patch_46">
    <path d="M 465.480625 108.56 
L 465.480625 7.2 
" style="fill: none; stroke: #000000; stroke-width: 0.8; stroke-linejoin: miter; stroke-linecap: square"/>
   </g>
   <g id="patch_47">
    <path d="M 270.640625 108.56 
L 465.480625 108.56 
" style="fill: none; stroke: #000000; stroke-width: 0.8; stroke-linejoin: miter; stroke-linecap: square"/>
   </g>
   <g id="patch_48">
    <path d="M 270.640625 7.2 
L 465.480625 7.2 
" style="fill: none; stroke: #000000; stroke-width: 0.8; stroke-linejoin: miter; stroke-linecap: square"/>
   </g>
   <g id="legend_2">
    <g id="patch_49">
     <path d="M 276.466094 215.056 
L 459.655156 215.056 
Q 461.655156 215.056 461.655156 213.056 
L 461.655156 184.69975 
Q 461.655156 182.69975 459.655156 182.69975 
L 276.466094 182.69975 
Q 274.466094 182.69975 274.466094 184.69975 
L 274.466094 213.056 
Q 274.466094 215.056 276.466094 215.056 
z
" style="fill: #ffffff; opacity: 0.8; stroke: #cccccc; stroke-linejoin: miter"/>
    </g>
    <g id="patch_50">
     <path d="M 278.466094 194.298187 
L 298.466094 194.298187 
L 298.466094 187.298187 
L 278.466094 187.298187 
z
" style="fill: #006ba4"/>
    </g>
    <g id="text_25">
     <!-- MLtraq -->
     <g transform="translate(306.466094 194.298187) scale(0.1 -0.1)">
      <use xlink:href="#DejaVuSans-4d"/>
      <use xlink:href="#DejaVuSans-4c" x="86.279297"/>
      <use xlink:href="#DejaVuSans-74" x="141.992188"/>
      <use xlink:href="#DejaVuSans-72" x="181.201172"/>
      <use xlink:href="#DejaVuSans-61" x="222.314453"/>
      <use xlink:href="#DejaVuSans-71" x="283.59375"/>
     </g>
    </g>
    <g id="patch_51">
     <path d="M 278.466094 208.976313 
L 298.466094 208.976313 
L 298.466094 201.976313 
L 278.466094 201.976313 
z
" style="fill: #ff800e"/>
    </g>
    <g id="text_26">
     <!-- Neptune -->
     <g transform="translate(306.466094 208.976313) scale(0.1 -0.1)">
      <use xlink:href="#DejaVuSans-4e"/>
      <use xlink:href="#DejaVuSans-65" x="74.804688"/>
      <use xlink:href="#DejaVuSans-70" x="136.328125"/>
      <use xlink:href="#DejaVuSans-74" x="199.804688"/>
      <use xlink:href="#DejaVuSans-75" x="239.013672"/>
      <use xlink:href="#DejaVuSans-6e" x="302.392578"/>
      <use xlink:href="#DejaVuSans-65" x="365.771484"/>
     </g>
    </g>
    <g id="patch_52">
     <path d="M 369.197344 194.298187 
L 389.197344 194.298187 
L 389.197344 187.298187 
L 369.197344 187.298187 
z
" style="fill: #ababab"/>
    </g>
    <g id="text_27">
     <!-- FastTrackML -->
     <g transform="translate(397.197344 194.298187) scale(0.1 -0.1)">
      <use xlink:href="#DejaVuSans-46"/>
      <use xlink:href="#DejaVuSans-61" x="48.394531"/>
      <use xlink:href="#DejaVuSans-73" x="109.673828"/>
      <use xlink:href="#DejaVuSans-74" x="161.773438"/>
      <use xlink:href="#DejaVuSans-54" x="200.982422"/>
      <use xlink:href="#DejaVuSans-72" x="247.316406"/>
      <use xlink:href="#DejaVuSans-61" x="288.429688"/>
      <use xlink:href="#DejaVuSans-63" x="349.708984"/>
      <use xlink:href="#DejaVuSans-6b" x="404.689453"/>
      <use xlink:href="#DejaVuSans-4d" x="462.599609"/>
      <use xlink:href="#DejaVuSans-4c" x="548.878906"/>
     </g>
    </g>
    <g id="patch_53">
     <path d="M 369.197344 208.976313 
L 389.197344 208.976313 
L 389.197344 201.976313 
L 369.197344 201.976313 
z
" style="fill: #595959"/>
    </g>
    <g id="text_28">
     <!-- Comet -->
     <g transform="translate(397.197344 208.976313) scale(0.1 -0.1)">
      <use xlink:href="#DejaVuSans-43"/>
      <use xlink:href="#DejaVuSans-6f" x="69.824219"/>
      <use xlink:href="#DejaVuSans-6d" x="131.005859"/>
      <use xlink:href="#DejaVuSans-65" x="228.417969"/>
      <use xlink:href="#DejaVuSans-74" x="289.941406"/>
     </g>
    </g>
   </g>
  </g>
  <g id="axes_3">
   <g id="patch_54">
    <path d="M 507.040625 108.56 
L 701.880625 108.56 
L 701.880625 7.2 
L 507.040625 7.2 
z
" style="fill: #ffffff"/>
   </g>
   <g id="patch_55">
    <path d="M 519.218125 108.56 
L 543.573125 108.56 
L 543.573125 104.609253 
L 519.218125 104.609253 
z
" clip-path="url(#p8f27ca392b)" style="fill: #006ba4"/>
   </g>
   <g id="patch_56">
    <path d="M 567.928125 108.56 
L 592.283125 108.56 
L 592.283125 85.708767 
L 567.928125 85.708767 
z
" clip-path="url(#p8f27ca392b)" style="fill: #006ba4"/>
   </g>
   <g id="patch_57">
    <path d="M 616.638125 108.56 
L 640.993125 108.56 
L 640.993125 25.469976 
L 616.638125 25.469976 
z
" clip-path="url(#p8f27ca392b)" style="fill: #006ba4"/>
   </g>
   <g id="patch_58">
    <path d="M 665.348125 108.56 
L 689.703125 108.56 
L 689.703125 23.755407 
L 665.348125 23.755407 
z
" clip-path="url(#p8f27ca392b)" style="fill: #006ba4"/>
   </g>
   <g id="matplotlib.axis_5">
    <g id="xtick_9">
     <g id="line2d_34">
      <g>
       <use xlink:href="#mf809951395" x="531.395625" y="108.56" style="stroke: #000000; stroke-width: 0.8"/>
      </g>
     </g>
     <g id="text_29">
      <!-- MLtraq -->
      <g transform="translate(521.075733 145.475036) rotate(-45) scale(0.1 -0.1)">
       <use xlink:href="#DejaVuSans-4d"/>
       <use xlink:href="#DejaVuSans-4c" x="86.279297"/>
       <use xlink:href="#DejaVuSans-74" x="141.992188"/>
       <use xlink:href="#DejaVuSans-72" x="181.201172"/>
       <use xlink:href="#DejaVuSans-61" x="222.314453"/>
       <use xlink:href="#DejaVuSans-71" x="283.59375"/>
      </g>
     </g>
    </g>
    <g id="xtick_10">
     <g id="line2d_35">
      <g>
       <use xlink:href="#mf809951395" x="580.105625" y="108.56" style="stroke: #000000; stroke-width: 0.8"/>
      </g>
     </g>
     <g id="text_30">
      <!-- Neptune -->
      <g transform="translate(566.949019 151.148463) rotate(-45) scale(0.1 -0.1)">
       <use xlink:href="#DejaVuSans-4e"/>
       <use xlink:href="#DejaVuSans-65" x="74.804688"/>
       <use xlink:href="#DejaVuSans-70" x="136.328125"/>
       <use xlink:href="#DejaVuSans-74" x="199.804688"/>
       <use xlink:href="#DejaVuSans-75" x="239.013672"/>
       <use xlink:href="#DejaVuSans-6e" x="302.392578"/>
       <use xlink:href="#DejaVuSans-65" x="365.771484"/>
      </g>
     </g>
    </g>
    <g id="xtick_11">
     <g id="line2d_36">
      <g>
       <use xlink:href="#mf809951395" x="628.815625" y="108.56" style="stroke: #000000; stroke-width: 0.8"/>
      </g>
     </g>
     <g id="text_31">
      <!-- FastTrackML -->
      <g transform="translate(609.391733 163.683036) rotate(-45) scale(0.1 -0.1)">
       <use xlink:href="#DejaVuSans-46"/>
       <use xlink:href="#DejaVuSans-61" x="48.394531"/>
       <use xlink:href="#DejaVuSans-73" x="109.673828"/>
       <use xlink:href="#DejaVuSans-74" x="161.773438"/>
       <use xlink:href="#DejaVuSans-54" x="200.982422"/>
       <use xlink:href="#DejaVuSans-72" x="247.316406"/>
       <use xlink:href="#DejaVuSans-61" x="288.429688"/>
       <use xlink:href="#DejaVuSans-63" x="349.708984"/>
       <use xlink:href="#DejaVuSans-6b" x="404.689453"/>
       <use xlink:href="#DejaVuSans-4d" x="462.599609"/>
       <use xlink:href="#DejaVuSans-4c" x="548.878906"/>
      </g>
     </g>
    </g>
    <g id="xtick_12">
     <g id="line2d_37">
      <g>
       <use xlink:href="#mf809951395" x="677.525625" y="108.56" style="stroke: #000000; stroke-width: 0.8"/>
      </g>
     </g>
     <g id="text_32">
      <!-- Comet -->
      <g transform="translate(667.839367 144.207768) rotate(-45) scale(0.1 -0.1)">
       <use xlink:href="#DejaVuSans-43"/>
       <use xlink:href="#DejaVuSans-6f" x="69.824219"/>
       <use xlink:href="#DejaVuSans-6d" x="131.005859"/>
       <use xlink:href="#DejaVuSans-65" x="228.417969"/>
       <use xlink:href="#DejaVuSans-74" x="289.941406"/>
      </g>
     </g>
    </g>
    <g id="text_33">
     <!-- Method -->
     <g transform="translate(585.7075 176.752035) scale(0.1 -0.1)">
      <defs>
       <path id="DejaVuSans-68" d="M 3513 2113 
L 3513 0 
L 2938 0 
L 2938 2094 
Q 2938 2591 2744 2837 
Q 2550 3084 2163 3084 
Q 1697 3084 1428 2787 
Q 1159 2491 1159 1978 
L 1159 0 
L 581 0 
L 581 4863 
L 1159 4863 
L 1159 2956 
Q 1366 3272 1645 3428 
Q 1925 3584 2291 3584 
Q 2894 3584 3203 3211 
Q 3513 2838 3513 2113 
z
" transform="scale(0.015625)"/>
       <path id="DejaVuSans-64" d="M 2906 2969 
L 2906 4863 
L 3481 4863 
L 3481 0 
L 2906 0 
L 2906 525 
Q 2725 213 2448 61 
Q 2172 -91 1784 -91 
Q 1150 -91 751 415 
Q 353 922 353 1747 
Q 353 2572 751 3078 
Q 1150 3584 1784 3584 
Q 2172 3584 2448 3432 
Q 2725 3281 2906 2969 
z
M 947 1747 
Q 947 1113 1208 752 
Q 1469 391 1925 391 
Q 2381 391 2643 752 
Q 2906 1113 2906 1747 
Q 2906 2381 2643 2742 
Q 2381 3103 1925 3103 
Q 1469 3103 1208 2742 
Q 947 2381 947 1747 
z
" transform="scale(0.015625)"/>
      </defs>
      <use xlink:href="#DejaVuSans-4d"/>
      <use xlink:href="#DejaVuSans-65" x="86.279297"/>
      <use xlink:href="#DejaVuSans-74" x="147.802734"/>
      <use xlink:href="#DejaVuSans-68" x="187.011719"/>
      <use xlink:href="#DejaVuSans-6f" x="250.390625"/>
      <use xlink:href="#DejaVuSans-64" x="311.572266"/>
     </g>
    </g>
   </g>
   <g id="matplotlib.axis_6">
    <g id="ytick_10">
     <g id="line2d_38">
      <g>
       <use xlink:href="#m65afb78ff7" x="507.040625" y="108.56" style="stroke: #000000; stroke-width: 0.8"/>
      </g>
     </g>
     <g id="text_34">
      <!-- 0.0 -->
      <g transform="translate(484.1375 112.359219) scale(0.1 -0.1)">
       <use xlink:href="#DejaVuSans-30"/>
       <use xlink:href="#DejaVuSans-2e" x="63.623047"/>
       <use xlink:href="#DejaVuSans-30" x="95.410156"/>
      </g>
     </g>
    </g>
    <g id="ytick_11">
     <g id="line2d_39">
      <g>
       <use xlink:href="#m65afb78ff7" x="507.040625" y="86.690995" style="stroke: #000000; stroke-width: 0.8"/>
      </g>
     </g>
     <g id="text_35">
      <!-- 0.2 -->
      <g transform="translate(484.1375 90.490214) scale(0.1 -0.1)">
       <use xlink:href="#DejaVuSans-30"/>
       <use xlink:href="#DejaVuSans-2e" x="63.623047"/>
       <use xlink:href="#DejaVuSans-32" x="95.410156"/>
      </g>
     </g>
    </g>
    <g id="ytick_12">
     <g id="line2d_40">
      <g>
       <use xlink:href="#m65afb78ff7" x="507.040625" y="64.82199" style="stroke: #000000; stroke-width: 0.8"/>
      </g>
     </g>
     <g id="text_36">
      <!-- 0.4 -->
      <g transform="translate(484.1375 68.621209) scale(0.1 -0.1)">
       <defs>
        <path id="DejaVuSans-34" d="M 2419 4116 
L 825 1625 
L 2419 1625 
L 2419 4116 
z
M 2253 4666 
L 3047 4666 
L 3047 1625 
L 3713 1625 
L 3713 1100 
L 3047 1100 
L 3047 0 
L 2419 0 
L 2419 1100 
L 313 1100 
L 313 1709 
L 2253 4666 
z
" transform="scale(0.015625)"/>
       </defs>
       <use xlink:href="#DejaVuSans-30"/>
       <use xlink:href="#DejaVuSans-2e" x="63.623047"/>
       <use xlink:href="#DejaVuSans-34" x="95.410156"/>
      </g>
     </g>
    </g>
    <g id="ytick_13">
     <g id="line2d_41">
      <g>
       <use xlink:href="#m65afb78ff7" x="507.040625" y="42.952985" style="stroke: #000000; stroke-width: 0.8"/>
      </g>
     </g>
     <g id="text_37">
      <!-- 0.6 -->
      <g transform="translate(484.1375 46.752204) scale(0.1 -0.1)">
       <defs>
        <path id="DejaVuSans-36" d="M 2113 2584 
Q 1688 2584 1439 2293 
Q 1191 2003 1191 1497 
Q 1191 994 1439 701 
Q 1688 409 2113 409 
Q 2538 409 2786 701 
Q 3034 994 3034 1497 
Q 3034 2003 2786 2293 
Q 2538 2584 2113 2584 
z
M 3366 4563 
L 3366 3988 
Q 3128 4100 2886 4159 
Q 2644 4219 2406 4219 
Q 1781 4219 1451 3797 
Q 1122 3375 1075 2522 
Q 1259 2794 1537 2939 
Q 1816 3084 2150 3084 
Q 2853 3084 3261 2657 
Q 3669 2231 3669 1497 
Q 3669 778 3244 343 
Q 2819 -91 2113 -91 
Q 1303 -91 875 529 
Q 447 1150 447 2328 
Q 447 3434 972 4092 
Q 1497 4750 2381 4750 
Q 2619 4750 2861 4703 
Q 3103 4656 3366 4563 
z
" transform="scale(0.015625)"/>
       </defs>
       <use xlink:href="#DejaVuSans-30"/>
       <use xlink:href="#DejaVuSans-2e" x="63.623047"/>
       <use xlink:href="#DejaVuSans-36" x="95.410156"/>
      </g>
     </g>
    </g>
    <g id="ytick_14">
     <g id="line2d_42">
      <g>
       <use xlink:href="#m65afb78ff7" x="507.040625" y="21.08398" style="stroke: #000000; stroke-width: 0.8"/>
      </g>
     </g>
     <g id="text_38">
      <!-- 0.8 -->
      <g transform="translate(484.1375 24.883199) scale(0.1 -0.1)">
       <defs>
        <path id="DejaVuSans-38" d="M 2034 2216 
Q 1584 2216 1326 1975 
Q 1069 1734 1069 1313 
Q 1069 891 1326 650 
Q 1584 409 2034 409 
Q 2484 409 2743 651 
Q 3003 894 3003 1313 
Q 3003 1734 2745 1975 
Q 2488 2216 2034 2216 
z
M 1403 2484 
Q 997 2584 770 2862 
Q 544 3141 544 3541 
Q 544 4100 942 4425 
Q 1341 4750 2034 4750 
Q 2731 4750 3128 4425 
Q 3525 4100 3525 3541 
Q 3525 3141 3298 2862 
Q 3072 2584 2669 2484 
Q 3125 2378 3379 2068 
Q 3634 1759 3634 1313 
Q 3634 634 3220 271 
Q 2806 -91 2034 -91 
Q 1263 -91 848 271 
Q 434 634 434 1313 
Q 434 1759 690 2068 
Q 947 2378 1403 2484 
z
M 1172 3481 
Q 1172 3119 1398 2916 
Q 1625 2713 2034 2713 
Q 2441 2713 2670 2916 
Q 2900 3119 2900 3481 
Q 2900 3844 2670 4047 
Q 2441 4250 2034 4250 
Q 1625 4250 1398 4047 
Q 1172 3844 1172 3481 
z
" transform="scale(0.015625)"/>
       </defs>
       <use xlink:href="#DejaVuSans-30"/>
       <use xlink:href="#DejaVuSans-2e" x="63.623047"/>
       <use xlink:href="#DejaVuSans-38" x="95.410156"/>
      </g>
     </g>
    </g>
   </g>
   <g id="LineCollection_9">
    <path d="M 531.395625 105.04235 
L 531.395625 104.176157 
" clip-path="url(#p8f27ca392b)" style="fill: none; stroke: #000000"/>
    <path d="M 580.105625 89.123045 
L 580.105625 82.294489 
" clip-path="url(#p8f27ca392b)" style="fill: none; stroke: #000000"/>
    <path d="M 628.815625 37.335245 
L 628.815625 13.604706 
" clip-path="url(#p8f27ca392b)" style="fill: none; stroke: #000000"/>
    <path d="M 677.525625 35.484147 
L 677.525625 12.026667 
" clip-path="url(#p8f27ca392b)" style="fill: none; stroke: #000000"/>
   </g>
   <g id="line2d_43">
    <g clip-path="url(#p8f27ca392b)">
     <use xlink:href="#m721b0a68d4" x="531.395625" y="105.04235" style="stroke: #000000"/>
     <use xlink:href="#m721b0a68d4" x="580.105625" y="89.123045" style="stroke: #000000"/>
     <use xlink:href="#m721b0a68d4" x="628.815625" y="37.335245" style="stroke: #000000"/>
     <use xlink:href="#m721b0a68d4" x="677.525625" y="35.484147" style="stroke: #000000"/>
    </g>
   </g>
   <g id="line2d_44">
    <g clip-path="url(#p8f27ca392b)">
     <use xlink:href="#m721b0a68d4" x="531.395625" y="104.176157" style="stroke: #000000"/>
     <use xlink:href="#m721b0a68d4" x="580.105625" y="82.294489" style="stroke: #000000"/>
     <use xlink:href="#m721b0a68d4" x="628.815625" y="13.604706" style="stroke: #000000"/>
     <use xlink:href="#m721b0a68d4" x="677.525625" y="12.026667" style="stroke: #000000"/>
    </g>
   </g>
   <g id="patch_59">
    <path d="M 507.040625 108.56 
L 507.040625 7.2 
" style="fill: none; stroke: #000000; stroke-width: 0.8; stroke-linejoin: miter; stroke-linecap: square"/>
   </g>
   <g id="patch_60">
    <path d="M 701.880625 108.56 
L 701.880625 7.2 
" style="fill: none; stroke: #000000; stroke-width: 0.8; stroke-linejoin: miter; stroke-linecap: square"/>
   </g>
   <g id="patch_61">
    <path d="M 507.040625 108.56 
L 701.880625 108.56 
" style="fill: none; stroke: #000000; stroke-width: 0.8; stroke-linejoin: miter; stroke-linecap: square"/>
   </g>
   <g id="patch_62">
    <path d="M 507.040625 7.2 
L 701.880625 7.2 
" style="fill: none; stroke: #000000; stroke-width: 0.8; stroke-linejoin: miter; stroke-linecap: square"/>
   </g>
  </g>
 </g>
 <defs>
  <clipPath id="pde1bea9460">
   <rect x="34.240625" y="7.2" width="194.84" height="101.36"/>
  </clipPath>
  <clipPath id="p9fe9063195">
   <rect x="270.640625" y="7.2" width="194.84" height="101.36"/>
  </clipPath>
  <clipPath id="p8f27ca392b">
   <rect x="507.040625" y="7.2" width="194.84" height="101.36"/>
  </clipPath>
 </defs>
</svg>
