<?xml version="1.0" encoding="utf-8" standalone="no"?>
<!DOCTYPE svg PUBLIC "-//W3C//DTD SVG 1.1//EN"
  "http://www.w3.org/Graphics/SVG/1.1/DTD/svg11.dtd">
<svg xmlns:xlink="http://www.w3.org/1999/xlink" width="717.295568pt" height="222.256pt" viewBox="0 0 717.295568 222.256" xmlns="http://www.w3.org/2000/svg" version="1.1">
 <metadata>
  <rdf:RDF xmlns:dc="http://purl.org/dc/elements/1.1/" xmlns:cc="http://creativecommons.org/ns#" xmlns:rdf="http://www.w3.org/1999/02/22-rdf-syntax-ns#">
   <cc:Work>
    <dc:type rdf:resource="http://purl.org/dc/dcmitype/StillImage"/>
    <dc:date>2024-03-04T21:07:51.969199</dc:date>
    <dc:format>image/svg+xml</dc:format>
    <dc:creator>
     <cc:Agent>
      <dc:title>Matplotlib v3.8.3, https://matplotlib.org/</dc:title>
     </cc:Agent>
    </dc:creator>
   </cc:Work>
  </rdf:RDF>
 </metadata>
 <defs>
  <style type="text/css">*{stroke-linejoin: round; stroke-linecap: butt}</style>
 </defs>
 <g id="figure_1">
  <g id="patch_1">
   <path d="M 0 222.256 
L 717.295568 222.256 
L 717.295568 0 
L 0 0 
z
" style="fill: #ffffff"/>
  </g>
  <g id="axes_1">
   <g id="patch_2">
    <path d="M 40.603125 108.56 
L 235.443125 108.56 
L 235.443125 7.2 
L 40.603125 7.2 
z
" style="fill: #ffffff"/>
   </g>
   <g id="patch_3">
    <path d="M 89.313125 108.56 
L 103.230268 108.56 
L 103.230268 108.500055 
L 89.313125 108.500055 
z
" clip-path="url(#p1ded19d9ab)" style="fill: #006ba4"/>
   </g>
   <g id="patch_4">
    <path d="M 103.230268 108.56 
L 117.147411 108.56 
L 117.147411 108.474164 
L 103.230268 108.474164 
z
" clip-path="url(#p1ded19d9ab)" style="fill: #ff800e"/>
   </g>
   <g id="patch_5">
    <path d="M 117.147411 108.56 
L 131.064554 108.56 
L 131.064554 108.328285 
L 117.147411 108.328285 
z
" clip-path="url(#p1ded19d9ab)" style="fill: #ababab"/>
   </g>
   <g id="patch_6">
    <path d="M 131.064554 108.56 
L 144.981696 108.56 
L 144.981696 105.407243 
L 131.064554 105.407243 
z
" clip-path="url(#p1ded19d9ab)" style="fill: #595959"/>
   </g>
   <g id="patch_7">
    <path d="M 144.981696 108.56 
L 158.898839 108.56 
L 158.898839 86.581483 
L 144.981696 86.581483 
z
" clip-path="url(#p1ded19d9ab)" style="fill: #5f9ed1"/>
   </g>
   <g id="patch_8">
    <path d="M 158.898839 108.56 
L 172.815982 108.56 
L 172.815982 39.54217 
L 158.898839 39.54217 
z
" clip-path="url(#p1ded19d9ab)" style="fill: #c85200"/>
   </g>
   <g id="patch_9">
    <path d="M 172.815982 108.56 
L 186.733125 108.56 
L 186.733125 14.854982 
L 172.815982 14.854982 
z
" clip-path="url(#p1ded19d9ab)" style="fill: #898989"/>
   </g>
   <g id="matplotlib.axis_1">
    <g id="xtick_1">
     <g id="line2d_1">
      <defs>
       <path id="m1cd8686eea" d="M 0 0 
L 0 3.5 
" style="stroke: #000000; stroke-width: 0.8"/>
      </defs>
      <g>
       <use xlink:href="#m1cd8686eea" x="138.023125" y="108.56" style="stroke: #000000; stroke-width: 0.8"/>
      </g>
     </g>
     <g id="text_1">
      <!-- 10 -->
      <g transform="translate(131.660625 123.158437) scale(0.1 -0.1)">
       <defs>
        <path id="DejaVuSans-31" d="M 794 531 
L 1825 531 
L 1825 4091 
L 703 3866 
L 703 4441 
L 1819 4666 
L 2450 4666 
L 2450 531 
L 3481 531 
L 3481 0 
L 794 0 
L 794 531 
z
" transform="scale(0.015625)"/>
        <path id="DejaVuSans-30" d="M 2034 4250 
Q 1547 4250 1301 3770 
Q 1056 3291 1056 2328 
Q 1056 1369 1301 889 
Q 1547 409 2034 409 
Q 2525 409 2770 889 
Q 3016 1369 3016 2328 
Q 3016 3291 2770 3770 
Q 2525 4250 2034 4250 
z
M 2034 4750 
Q 2819 4750 3233 4129 
Q 3647 3509 3647 2328 
Q 3647 1150 3233 529 
Q 2819 -91 2034 -91 
Q 1250 -91 836 529 
Q 422 1150 422 2328 
Q 422 3509 836 4129 
Q 1250 4750 2034 4750 
z
" transform="scale(0.015625)"/>
       </defs>
       <use xlink:href="#DejaVuSans-31"/>
       <use xlink:href="#DejaVuSans-30" x="63.623047"/>
      </g>
     </g>
    </g>
    <g id="text_2">
     <!-- Number of runs -->
     <g transform="translate(98.941875 136.836563) scale(0.1 -0.1)">
      <defs>
       <path id="DejaVuSans-4e" d="M 628 4666 
L 1478 4666 
L 3547 763 
L 3547 4666 
L 4159 4666 
L 4159 0 
L 3309 0 
L 1241 3903 
L 1241 0 
L 628 0 
L 628 4666 
z
" transform="scale(0.015625)"/>
       <path id="DejaVuSans-75" d="M 544 1381 
L 544 3500 
L 1119 3500 
L 1119 1403 
Q 1119 906 1312 657 
Q 1506 409 1894 409 
Q 2359 409 2629 706 
Q 2900 1003 2900 1516 
L 2900 3500 
L 3475 3500 
L 3475 0 
L 2900 0 
L 2900 538 
Q 2691 219 2414 64 
Q 2138 -91 1772 -91 
Q 1169 -91 856 284 
Q 544 659 544 1381 
z
M 1991 3584 
L 1991 3584 
z
" transform="scale(0.015625)"/>
       <path id="DejaVuSans-6d" d="M 3328 2828 
Q 3544 3216 3844 3400 
Q 4144 3584 4550 3584 
Q 5097 3584 5394 3201 
Q 5691 2819 5691 2113 
L 5691 0 
L 5113 0 
L 5113 2094 
Q 5113 2597 4934 2840 
Q 4756 3084 4391 3084 
Q 3944 3084 3684 2787 
Q 3425 2491 3425 1978 
L 3425 0 
L 2847 0 
L 2847 2094 
Q 2847 2600 2669 2842 
Q 2491 3084 2119 3084 
Q 1678 3084 1418 2786 
Q 1159 2488 1159 1978 
L 1159 0 
L 581 0 
L 581 3500 
L 1159 3500 
L 1159 2956 
Q 1356 3278 1631 3431 
Q 1906 3584 2284 3584 
Q 2666 3584 2933 3390 
Q 3200 3197 3328 2828 
z
" transform="scale(0.015625)"/>
       <path id="DejaVuSans-62" d="M 3116 1747 
Q 3116 2381 2855 2742 
Q 2594 3103 2138 3103 
Q 1681 3103 1420 2742 
Q 1159 2381 1159 1747 
Q 1159 1113 1420 752 
Q 1681 391 2138 391 
Q 2594 391 2855 752 
Q 3116 1113 3116 1747 
z
M 1159 2969 
Q 1341 3281 1617 3432 
Q 1894 3584 2278 3584 
Q 2916 3584 3314 3078 
Q 3713 2572 3713 1747 
Q 3713 922 3314 415 
Q 2916 -91 2278 -91 
Q 1894 -91 1617 61 
Q 1341 213 1159 525 
L 1159 0 
L 581 0 
L 581 4863 
L 1159 4863 
L 1159 2969 
z
" transform="scale(0.015625)"/>
       <path id="DejaVuSans-65" d="M 3597 1894 
L 3597 1613 
L 953 1613 
Q 991 1019 1311 708 
Q 1631 397 2203 397 
Q 2534 397 2845 478 
Q 3156 559 3463 722 
L 3463 178 
Q 3153 47 2828 -22 
Q 2503 -91 2169 -91 
Q 1331 -91 842 396 
Q 353 884 353 1716 
Q 353 2575 817 3079 
Q 1281 3584 2069 3584 
Q 2775 3584 3186 3129 
Q 3597 2675 3597 1894 
z
M 3022 2063 
Q 3016 2534 2758 2815 
Q 2500 3097 2075 3097 
Q 1594 3097 1305 2825 
Q 1016 2553 972 2059 
L 3022 2063 
z
" transform="scale(0.015625)"/>
       <path id="DejaVuSans-72" d="M 2631 2963 
Q 2534 3019 2420 3045 
Q 2306 3072 2169 3072 
Q 1681 3072 1420 2755 
Q 1159 2438 1159 1844 
L 1159 0 
L 581 0 
L 581 3500 
L 1159 3500 
L 1159 2956 
Q 1341 3275 1631 3429 
Q 1922 3584 2338 3584 
Q 2397 3584 2469 3576 
Q 2541 3569 2628 3553 
L 2631 2963 
z
" transform="scale(0.015625)"/>
       <path id="DejaVuSans-20" transform="scale(0.015625)"/>
       <path id="DejaVuSans-6f" d="M 1959 3097 
Q 1497 3097 1228 2736 
Q 959 2375 959 1747 
Q 959 1119 1226 758 
Q 1494 397 1959 397 
Q 2419 397 2687 759 
Q 2956 1122 2956 1747 
Q 2956 2369 2687 2733 
Q 2419 3097 1959 3097 
z
M 1959 3584 
Q 2709 3584 3137 3096 
Q 3566 2609 3566 1747 
Q 3566 888 3137 398 
Q 2709 -91 1959 -91 
Q 1206 -91 779 398 
Q 353 888 353 1747 
Q 353 2609 779 3096 
Q 1206 3584 1959 3584 
z
" transform="scale(0.015625)"/>
       <path id="DejaVuSans-66" d="M 2375 4863 
L 2375 4384 
L 1825 4384 
Q 1516 4384 1395 4259 
Q 1275 4134 1275 3809 
L 1275 3500 
L 2222 3500 
L 2222 3053 
L 1275 3053 
L 1275 0 
L 697 0 
L 697 3053 
L 147 3053 
L 147 3500 
L 697 3500 
L 697 3744 
Q 697 4328 969 4595 
Q 1241 4863 1831 4863 
L 2375 4863 
z
" transform="scale(0.015625)"/>
       <path id="DejaVuSans-6e" d="M 3513 2113 
L 3513 0 
L 2938 0 
L 2938 2094 
Q 2938 2591 2744 2837 
Q 2550 3084 2163 3084 
Q 1697 3084 1428 2787 
Q 1159 2491 1159 1978 
L 1159 0 
L 581 0 
L 581 3500 
L 1159 3500 
L 1159 2956 
Q 1366 3272 1645 3428 
Q 1925 3584 2291 3584 
Q 2894 3584 3203 3211 
Q 3513 2838 3513 2113 
z
" transform="scale(0.015625)"/>
       <path id="DejaVuSans-73" d="M 2834 3397 
L 2834 2853 
Q 2591 2978 2328 3040 
Q 2066 3103 1784 3103 
Q 1356 3103 1142 2972 
Q 928 2841 928 2578 
Q 928 2378 1081 2264 
Q 1234 2150 1697 2047 
L 1894 2003 
Q 2506 1872 2764 1633 
Q 3022 1394 3022 966 
Q 3022 478 2636 193 
Q 2250 -91 1575 -91 
Q 1294 -91 989 -36 
Q 684 19 347 128 
L 347 722 
Q 666 556 975 473 
Q 1284 391 1588 391 
Q 1994 391 2212 530 
Q 2431 669 2431 922 
Q 2431 1156 2273 1281 
Q 2116 1406 1581 1522 
L 1381 1569 
Q 847 1681 609 1914 
Q 372 2147 372 2553 
Q 372 3047 722 3315 
Q 1072 3584 1716 3584 
Q 2034 3584 2315 3537 
Q 2597 3491 2834 3397 
z
" transform="scale(0.015625)"/>
      </defs>
      <use xlink:href="#DejaVuSans-4e"/>
      <use xlink:href="#DejaVuSans-75" x="74.804688"/>
      <use xlink:href="#DejaVuSans-6d" x="138.183594"/>
      <use xlink:href="#DejaVuSans-62" x="235.595703"/>
      <use xlink:href="#DejaVuSans-65" x="299.072266"/>
      <use xlink:href="#DejaVuSans-72" x="360.595703"/>
      <use xlink:href="#DejaVuSans-20" x="401.708984"/>
      <use xlink:href="#DejaVuSans-6f" x="433.496094"/>
      <use xlink:href="#DejaVuSans-66" x="494.677734"/>
      <use xlink:href="#DejaVuSans-20" x="529.882812"/>
      <use xlink:href="#DejaVuSans-72" x="561.669922"/>
      <use xlink:href="#DejaVuSans-75" x="602.783203"/>
      <use xlink:href="#DejaVuSans-6e" x="666.162109"/>
      <use xlink:href="#DejaVuSans-73" x="729.541016"/>
     </g>
    </g>
   </g>
   <g id="matplotlib.axis_2">
    <g id="ytick_1">
     <g id="line2d_2">
      <defs>
       <path id="m141919a4f7" d="M 0 0 
L -3.5 0 
" style="stroke: #000000; stroke-width: 0.8"/>
      </defs>
      <g>
       <use xlink:href="#m141919a4f7" x="40.603125" y="108.56" style="stroke: #000000; stroke-width: 0.8"/>
      </g>
     </g>
     <g id="text_3">
      <!-- 0 -->
      <g transform="translate(27.240625 112.359219) scale(0.1 -0.1)">
       <use xlink:href="#DejaVuSans-30"/>
      </g>
     </g>
    </g>
    <g id="ytick_2">
     <g id="line2d_3">
      <g>
       <use xlink:href="#m141919a4f7" x="40.603125" y="84.199452" style="stroke: #000000; stroke-width: 0.8"/>
      </g>
     </g>
     <g id="text_4">
      <!-- 5 -->
      <g transform="translate(27.240625 87.998671) scale(0.1 -0.1)">
       <defs>
        <path id="DejaVuSans-35" d="M 691 4666 
L 3169 4666 
L 3169 4134 
L 1269 4134 
L 1269 2991 
Q 1406 3038 1543 3061 
Q 1681 3084 1819 3084 
Q 2600 3084 3056 2656 
Q 3513 2228 3513 1497 
Q 3513 744 3044 326 
Q 2575 -91 1722 -91 
Q 1428 -91 1123 -41 
Q 819 9 494 109 
L 494 744 
Q 775 591 1075 516 
Q 1375 441 1709 441 
Q 2250 441 2565 725 
Q 2881 1009 2881 1497 
Q 2881 1984 2565 2268 
Q 2250 2553 1709 2553 
Q 1456 2553 1204 2497 
Q 953 2441 691 2322 
L 691 4666 
z
" transform="scale(0.015625)"/>
       </defs>
       <use xlink:href="#DejaVuSans-35"/>
      </g>
     </g>
    </g>
    <g id="ytick_3">
     <g id="line2d_4">
      <g>
       <use xlink:href="#m141919a4f7" x="40.603125" y="59.838905" style="stroke: #000000; stroke-width: 0.8"/>
      </g>
     </g>
     <g id="text_5">
      <!-- 10 -->
      <g transform="translate(20.878125 63.638123) scale(0.1 -0.1)">
       <use xlink:href="#DejaVuSans-31"/>
       <use xlink:href="#DejaVuSans-30" x="63.623047"/>
      </g>
     </g>
    </g>
    <g id="ytick_4">
     <g id="line2d_5">
      <g>
       <use xlink:href="#m141919a4f7" x="40.603125" y="35.478357" style="stroke: #000000; stroke-width: 0.8"/>
      </g>
     </g>
     <g id="text_6">
      <!-- 15 -->
      <g transform="translate(20.878125 39.277576) scale(0.1 -0.1)">
       <use xlink:href="#DejaVuSans-31"/>
       <use xlink:href="#DejaVuSans-35" x="63.623047"/>
      </g>
     </g>
    </g>
    <g id="ytick_5">
     <g id="line2d_6">
      <g>
       <use xlink:href="#m141919a4f7" x="40.603125" y="11.117809" style="stroke: #000000; stroke-width: 0.8"/>
      </g>
     </g>
     <g id="text_7">
      <!-- 20 -->
      <g transform="translate(20.878125 14.917028) scale(0.1 -0.1)">
       <defs>
        <path id="DejaVuSans-32" d="M 1228 531 
L 3431 531 
L 3431 0 
L 469 0 
L 469 531 
Q 828 903 1448 1529 
Q 2069 2156 2228 2338 
Q 2531 2678 2651 2914 
Q 2772 3150 2772 3378 
Q 2772 3750 2511 3984 
Q 2250 4219 1831 4219 
Q 1534 4219 1204 4116 
Q 875 4013 500 3803 
L 500 4441 
Q 881 4594 1212 4672 
Q 1544 4750 1819 4750 
Q 2544 4750 2975 4387 
Q 3406 4025 3406 3419 
Q 3406 3131 3298 2873 
Q 3191 2616 2906 2266 
Q 2828 2175 2409 1742 
Q 1991 1309 1228 531 
z
" transform="scale(0.015625)"/>
       </defs>
       <use xlink:href="#DejaVuSans-32"/>
       <use xlink:href="#DejaVuSans-30" x="63.623047"/>
      </g>
     </g>
    </g>
    <g id="text_8">
     <!-- Duration (s) -->
     <g transform="translate(14.798438 87.690937) rotate(-90) scale(0.1 -0.1)">
      <defs>
       <path id="DejaVuSans-44" d="M 1259 4147 
L 1259 519 
L 2022 519 
Q 2988 519 3436 956 
Q 3884 1394 3884 2338 
Q 3884 3275 3436 3711 
Q 2988 4147 2022 4147 
L 1259 4147 
z
M 628 4666 
L 1925 4666 
Q 3281 4666 3915 4102 
Q 4550 3538 4550 2338 
Q 4550 1131 3912 565 
Q 3275 0 1925 0 
L 628 0 
L 628 4666 
z
" transform="scale(0.015625)"/>
       <path id="DejaVuSans-61" d="M 2194 1759 
Q 1497 1759 1228 1600 
Q 959 1441 959 1056 
Q 959 750 1161 570 
Q 1363 391 1709 391 
Q 2188 391 2477 730 
Q 2766 1069 2766 1631 
L 2766 1759 
L 2194 1759 
z
M 3341 1997 
L 3341 0 
L 2766 0 
L 2766 531 
Q 2569 213 2275 61 
Q 1981 -91 1556 -91 
Q 1019 -91 701 211 
Q 384 513 384 1019 
Q 384 1609 779 1909 
Q 1175 2209 1959 2209 
L 2766 2209 
L 2766 2266 
Q 2766 2663 2505 2880 
Q 2244 3097 1772 3097 
Q 1472 3097 1187 3025 
Q 903 2953 641 2809 
L 641 3341 
Q 956 3463 1253 3523 
Q 1550 3584 1831 3584 
Q 2591 3584 2966 3190 
Q 3341 2797 3341 1997 
z
" transform="scale(0.015625)"/>
       <path id="DejaVuSans-74" d="M 1172 4494 
L 1172 3500 
L 2356 3500 
L 2356 3053 
L 1172 3053 
L 1172 1153 
Q 1172 725 1289 603 
Q 1406 481 1766 481 
L 2356 481 
L 2356 0 
L 1766 0 
Q 1100 0 847 248 
Q 594 497 594 1153 
L 594 3053 
L 172 3053 
L 172 3500 
L 594 3500 
L 594 4494 
L 1172 4494 
z
" transform="scale(0.015625)"/>
       <path id="DejaVuSans-69" d="M 603 3500 
L 1178 3500 
L 1178 0 
L 603 0 
L 603 3500 
z
M 603 4863 
L 1178 4863 
L 1178 4134 
L 603 4134 
L 603 4863 
z
" transform="scale(0.015625)"/>
       <path id="DejaVuSans-28" d="M 1984 4856 
Q 1566 4138 1362 3434 
Q 1159 2731 1159 2009 
Q 1159 1288 1364 580 
Q 1569 -128 1984 -844 
L 1484 -844 
Q 1016 -109 783 600 
Q 550 1309 550 2009 
Q 550 2706 781 3412 
Q 1013 4119 1484 4856 
L 1984 4856 
z
" transform="scale(0.015625)"/>
       <path id="DejaVuSans-29" d="M 513 4856 
L 1013 4856 
Q 1481 4119 1714 3412 
Q 1947 2706 1947 2009 
Q 1947 1309 1714 600 
Q 1481 -109 1013 -844 
L 513 -844 
Q 928 -128 1133 580 
Q 1338 1288 1338 2009 
Q 1338 2731 1133 3434 
Q 928 4138 513 4856 
z
" transform="scale(0.015625)"/>
      </defs>
      <use xlink:href="#DejaVuSans-44"/>
      <use xlink:href="#DejaVuSans-75" x="77.001953"/>
      <use xlink:href="#DejaVuSans-72" x="140.380859"/>
      <use xlink:href="#DejaVuSans-61" x="181.494141"/>
      <use xlink:href="#DejaVuSans-74" x="242.773438"/>
      <use xlink:href="#DejaVuSans-69" x="281.982422"/>
      <use xlink:href="#DejaVuSans-6f" x="309.765625"/>
      <use xlink:href="#DejaVuSans-6e" x="370.947266"/>
      <use xlink:href="#DejaVuSans-20" x="434.326172"/>
      <use xlink:href="#DejaVuSans-28" x="466.113281"/>
      <use xlink:href="#DejaVuSans-73" x="505.126953"/>
      <use xlink:href="#DejaVuSans-29" x="557.226562"/>
     </g>
    </g>
   </g>
   <g id="LineCollection_1">
    <path d="M 96.271696 108.50888 
L 96.271696 108.491229 
" clip-path="url(#p1ded19d9ab)" style="fill: none; stroke: #000000"/>
   </g>
   <g id="line2d_7">
    <defs>
     <path id="m8bafd8859d" d="M 3 0 
L -3 -0 
" style="stroke: #000000"/>
    </defs>
    <g clip-path="url(#p1ded19d9ab)">
     <use xlink:href="#m8bafd8859d" x="96.271696" y="108.50888" style="stroke: #000000"/>
    </g>
   </g>
   <g id="line2d_8">
    <g clip-path="url(#p1ded19d9ab)">
     <use xlink:href="#m8bafd8859d" x="96.271696" y="108.491229" style="stroke: #000000"/>
    </g>
   </g>
   <g id="LineCollection_2">
    <path d="M 110.188839 108.485045 
L 110.188839 108.463282 
" clip-path="url(#p1ded19d9ab)" style="fill: none; stroke: #000000"/>
   </g>
   <g id="line2d_9">
    <g clip-path="url(#p1ded19d9ab)">
     <use xlink:href="#m8bafd8859d" x="110.188839" y="108.485045" style="stroke: #000000"/>
    </g>
   </g>
   <g id="line2d_10">
    <g clip-path="url(#p1ded19d9ab)">
     <use xlink:href="#m8bafd8859d" x="110.188839" y="108.463282" style="stroke: #000000"/>
    </g>
   </g>
   <g id="LineCollection_3">
    <path d="M 124.105982 108.343377 
L 124.105982 108.313192 
" clip-path="url(#p1ded19d9ab)" style="fill: none; stroke: #000000"/>
   </g>
   <g id="line2d_11">
    <g clip-path="url(#p1ded19d9ab)">
     <use xlink:href="#m8bafd8859d" x="124.105982" y="108.343377" style="stroke: #000000"/>
    </g>
   </g>
   <g id="line2d_12">
    <g clip-path="url(#p1ded19d9ab)">
     <use xlink:href="#m8bafd8859d" x="124.105982" y="108.313192" style="stroke: #000000"/>
    </g>
   </g>
   <g id="LineCollection_4">
    <path d="M 138.023125 105.424026 
L 138.023125 105.390461 
" clip-path="url(#p1ded19d9ab)" style="fill: none; stroke: #000000"/>
   </g>
   <g id="line2d_13">
    <g clip-path="url(#p1ded19d9ab)">
     <use xlink:href="#m8bafd8859d" x="138.023125" y="105.424026" style="stroke: #000000"/>
    </g>
   </g>
   <g id="line2d_14">
    <g clip-path="url(#p1ded19d9ab)">
     <use xlink:href="#m8bafd8859d" x="138.023125" y="105.390461" style="stroke: #000000"/>
    </g>
   </g>
   <g id="LineCollection_5">
    <path d="M 151.940268 87.107374 
L 151.940268 86.055593 
" clip-path="url(#p1ded19d9ab)" style="fill: none; stroke: #000000"/>
   </g>
   <g id="line2d_15">
    <g clip-path="url(#p1ded19d9ab)">
     <use xlink:href="#m8bafd8859d" x="151.940268" y="87.107374" style="stroke: #000000"/>
    </g>
   </g>
   <g id="line2d_16">
    <g clip-path="url(#p1ded19d9ab)">
     <use xlink:href="#m8bafd8859d" x="151.940268" y="86.055593" style="stroke: #000000"/>
    </g>
   </g>
   <g id="LineCollection_6">
    <path d="M 165.857411 39.708578 
L 165.857411 39.375762 
" clip-path="url(#p1ded19d9ab)" style="fill: none; stroke: #000000"/>
   </g>
   <g id="line2d_17">
    <g clip-path="url(#p1ded19d9ab)">
     <use xlink:href="#m8bafd8859d" x="165.857411" y="39.708578" style="stroke: #000000"/>
    </g>
   </g>
   <g id="line2d_18">
    <g clip-path="url(#p1ded19d9ab)">
     <use xlink:href="#m8bafd8859d" x="165.857411" y="39.375762" style="stroke: #000000"/>
    </g>
   </g>
   <g id="LineCollection_7">
    <path d="M 179.774554 17.683298 
L 179.774554 12.026667 
" clip-path="url(#p1ded19d9ab)" style="fill: none; stroke: #000000"/>
   </g>
   <g id="line2d_19">
    <g clip-path="url(#p1ded19d9ab)">
     <use xlink:href="#m8bafd8859d" x="179.774554" y="17.683298" style="stroke: #000000"/>
    </g>
   </g>
   <g id="line2d_20">
    <g clip-path="url(#p1ded19d9ab)">
     <use xlink:href="#m8bafd8859d" x="179.774554" y="12.026667" style="stroke: #000000"/>
    </g>
   </g>
   <g id="patch_10">
    <path d="M 40.603125 108.56 
L 40.603125 7.2 
" style="fill: none; stroke: #000000; stroke-width: 0.8; stroke-linejoin: miter; stroke-linecap: square"/>
   </g>
   <g id="patch_11">
    <path d="M 235.443125 108.56 
L 235.443125 7.2 
" style="fill: none; stroke: #000000; stroke-width: 0.8; stroke-linejoin: miter; stroke-linecap: square"/>
   </g>
   <g id="patch_12">
    <path d="M 40.603125 108.56 
L 235.443125 108.56 
" style="fill: none; stroke: #000000; stroke-width: 0.8; stroke-linejoin: miter; stroke-linecap: square"/>
   </g>
   <g id="patch_13">
    <path d="M 40.603125 7.2 
L 235.443125 7.2 
" style="fill: none; stroke: #000000; stroke-width: 0.8; stroke-linejoin: miter; stroke-linecap: square"/>
   </g>
   <g id="legend_1">
    <g id="patch_14">
     <path d="M 50.331719 215.056 
L 225.714531 215.056 
Q 227.714531 215.056 227.714531 213.056 
L 227.714531 155.3435 
Q 227.714531 153.3435 225.714531 153.3435 
L 50.331719 153.3435 
Q 48.331719 153.3435 48.331719 155.3435 
L 48.331719 213.056 
Q 48.331719 215.056 50.331719 215.056 
z
" style="fill: #ffffff; opacity: 0.8; stroke: #cccccc; stroke-linejoin: miter"/>
    </g>
    <g id="patch_15">
     <path d="M 52.331719 164.941937 
L 72.331719 164.941937 
L 72.331719 157.941937 
L 52.331719 157.941937 
z
" style="fill: #006ba4"/>
    </g>
    <g id="text_9">
     <!-- MLtraq -->
     <g transform="translate(80.331719 164.941937) scale(0.1 -0.1)">
      <defs>
       <path id="DejaVuSans-4d" d="M 628 4666 
L 1569 4666 
L 2759 1491 
L 3956 4666 
L 4897 4666 
L 4897 0 
L 4281 0 
L 4281 4097 
L 3078 897 
L 2444 897 
L 1241 4097 
L 1241 0 
L 628 0 
L 628 4666 
z
" transform="scale(0.015625)"/>
       <path id="DejaVuSans-4c" d="M 628 4666 
L 1259 4666 
L 1259 531 
L 3531 531 
L 3531 0 
L 628 0 
L 628 4666 
z
" transform="scale(0.015625)"/>
       <path id="DejaVuSans-71" d="M 947 1747 
Q 947 1113 1208 752 
Q 1469 391 1925 391 
Q 2381 391 2643 752 
Q 2906 1113 2906 1747 
Q 2906 2381 2643 2742 
Q 2381 3103 1925 3103 
Q 1469 3103 1208 2742 
Q 947 2381 947 1747 
z
M 2906 525 
Q 2725 213 2448 61 
Q 2172 -91 1784 -91 
Q 1150 -91 751 415 
Q 353 922 353 1747 
Q 353 2572 751 3078 
Q 1150 3584 1784 3584 
Q 2172 3584 2448 3432 
Q 2725 3281 2906 2969 
L 2906 3500 
L 3481 3500 
L 3481 -1331 
L 2906 -1331 
L 2906 525 
z
" transform="scale(0.015625)"/>
      </defs>
      <use xlink:href="#DejaVuSans-4d"/>
      <use xlink:href="#DejaVuSans-4c" x="86.279297"/>
      <use xlink:href="#DejaVuSans-74" x="141.992188"/>
      <use xlink:href="#DejaVuSans-72" x="181.201172"/>
      <use xlink:href="#DejaVuSans-61" x="222.314453"/>
      <use xlink:href="#DejaVuSans-71" x="283.59375"/>
     </g>
    </g>
    <g id="patch_16">
     <path d="M 52.331719 179.620062 
L 72.331719 179.620062 
L 72.331719 172.620062 
L 52.331719 172.620062 
z
" style="fill: #ff800e"/>
    </g>
    <g id="text_10">
     <!-- Neptune -->
     <g transform="translate(80.331719 179.620062) scale(0.1 -0.1)">
      <defs>
       <path id="DejaVuSans-70" d="M 1159 525 
L 1159 -1331 
L 581 -1331 
L 581 3500 
L 1159 3500 
L 1159 2969 
Q 1341 3281 1617 3432 
Q 1894 3584 2278 3584 
Q 2916 3584 3314 3078 
Q 3713 2572 3713 1747 
Q 3713 922 3314 415 
Q 2916 -91 2278 -91 
Q 1894 -91 1617 61 
Q 1341 213 1159 525 
z
M 3116 1747 
Q 3116 2381 2855 2742 
Q 2594 3103 2138 3103 
Q 1681 3103 1420 2742 
Q 1159 2381 1159 1747 
Q 1159 1113 1420 752 
Q 1681 391 2138 391 
Q 2594 391 2855 752 
Q 3116 1113 3116 1747 
z
" transform="scale(0.015625)"/>
      </defs>
      <use xlink:href="#DejaVuSans-4e"/>
      <use xlink:href="#DejaVuSans-65" x="74.804688"/>
      <use xlink:href="#DejaVuSans-70" x="136.328125"/>
      <use xlink:href="#DejaVuSans-74" x="199.804688"/>
      <use xlink:href="#DejaVuSans-75" x="239.013672"/>
      <use xlink:href="#DejaVuSans-6e" x="302.392578"/>
      <use xlink:href="#DejaVuSans-65" x="365.771484"/>
     </g>
    </g>
    <g id="patch_17">
     <path d="M 52.331719 194.298187 
L 72.331719 194.298187 
L 72.331719 187.298187 
L 52.331719 187.298187 
z
" style="fill: #ababab"/>
    </g>
    <g id="text_11">
     <!-- FastTrackML -->
     <g transform="translate(80.331719 194.298187) scale(0.1 -0.1)">
      <defs>
       <path id="DejaVuSans-46" d="M 628 4666 
L 3309 4666 
L 3309 4134 
L 1259 4134 
L 1259 2759 
L 3109 2759 
L 3109 2228 
L 1259 2228 
L 1259 0 
L 628 0 
L 628 4666 
z
" transform="scale(0.015625)"/>
       <path id="DejaVuSans-54" d="M -19 4666 
L 3928 4666 
L 3928 4134 
L 2272 4134 
L 2272 0 
L 1638 0 
L 1638 4134 
L -19 4134 
L -19 4666 
z
" transform="scale(0.015625)"/>
       <path id="DejaVuSans-63" d="M 3122 3366 
L 3122 2828 
Q 2878 2963 2633 3030 
Q 2388 3097 2138 3097 
Q 1578 3097 1268 2742 
Q 959 2388 959 1747 
Q 959 1106 1268 751 
Q 1578 397 2138 397 
Q 2388 397 2633 464 
Q 2878 531 3122 666 
L 3122 134 
Q 2881 22 2623 -34 
Q 2366 -91 2075 -91 
Q 1284 -91 818 406 
Q 353 903 353 1747 
Q 353 2603 823 3093 
Q 1294 3584 2113 3584 
Q 2378 3584 2631 3529 
Q 2884 3475 3122 3366 
z
" transform="scale(0.015625)"/>
       <path id="DejaVuSans-6b" d="M 581 4863 
L 1159 4863 
L 1159 1991 
L 2875 3500 
L 3609 3500 
L 1753 1863 
L 3688 0 
L 2938 0 
L 1159 1709 
L 1159 0 
L 581 0 
L 581 4863 
z
" transform="scale(0.015625)"/>
      </defs>
      <use xlink:href="#DejaVuSans-46"/>
      <use xlink:href="#DejaVuSans-61" x="48.394531"/>
      <use xlink:href="#DejaVuSans-73" x="109.673828"/>
      <use xlink:href="#DejaVuSans-74" x="161.773438"/>
      <use xlink:href="#DejaVuSans-54" x="200.982422"/>
      <use xlink:href="#DejaVuSans-72" x="247.316406"/>
      <use xlink:href="#DejaVuSans-61" x="288.429688"/>
      <use xlink:href="#DejaVuSans-63" x="349.708984"/>
      <use xlink:href="#DejaVuSans-6b" x="404.689453"/>
      <use xlink:href="#DejaVuSans-4d" x="462.599609"/>
      <use xlink:href="#DejaVuSans-4c" x="548.878906"/>
     </g>
    </g>
    <g id="patch_18">
     <path d="M 52.331719 208.976313 
L 72.331719 208.976313 
L 72.331719 201.976313 
L 52.331719 201.976313 
z
" style="fill: #595959"/>
    </g>
    <g id="text_12">
     <!-- Comet -->
     <g transform="translate(80.331719 208.976313) scale(0.1 -0.1)">
      <defs>
       <path id="DejaVuSans-43" d="M 4122 4306 
L 4122 3641 
Q 3803 3938 3442 4084 
Q 3081 4231 2675 4231 
Q 1875 4231 1450 3742 
Q 1025 3253 1025 2328 
Q 1025 1406 1450 917 
Q 1875 428 2675 428 
Q 3081 428 3442 575 
Q 3803 722 4122 1019 
L 4122 359 
Q 3791 134 3420 21 
Q 3050 -91 2638 -91 
Q 1578 -91 968 557 
Q 359 1206 359 2328 
Q 359 3453 968 4101 
Q 1578 4750 2638 4750 
Q 3056 4750 3426 4639 
Q 3797 4528 4122 4306 
z
" transform="scale(0.015625)"/>
      </defs>
      <use xlink:href="#DejaVuSans-43"/>
      <use xlink:href="#DejaVuSans-6f" x="69.824219"/>
      <use xlink:href="#DejaVuSans-6d" x="131.005859"/>
      <use xlink:href="#DejaVuSans-65" x="228.417969"/>
      <use xlink:href="#DejaVuSans-74" x="289.941406"/>
     </g>
    </g>
    <g id="patch_19">
     <path d="M 160.789531 164.941937 
L 180.789531 164.941937 
L 180.789531 157.941937 
L 160.789531 157.941937 
z
" style="fill: #5f9ed1"/>
    </g>
    <g id="text_13">
     <!-- Aim -->
     <g transform="translate(188.789531 164.941937) scale(0.1 -0.1)">
      <defs>
       <path id="DejaVuSans-41" d="M 2188 4044 
L 1331 1722 
L 3047 1722 
L 2188 4044 
z
M 1831 4666 
L 2547 4666 
L 4325 0 
L 3669 0 
L 3244 1197 
L 1141 1197 
L 716 0 
L 50 0 
L 1831 4666 
z
" transform="scale(0.015625)"/>
      </defs>
      <use xlink:href="#DejaVuSans-41"/>
      <use xlink:href="#DejaVuSans-69" x="68.408203"/>
      <use xlink:href="#DejaVuSans-6d" x="96.191406"/>
     </g>
    </g>
    <g id="patch_20">
     <path d="M 160.789531 179.620062 
L 180.789531 179.620062 
L 180.789531 172.620062 
L 160.789531 172.620062 
z
" style="fill: #c85200"/>
    </g>
    <g id="text_14">
     <!-- MLflow -->
     <g transform="translate(188.789531 179.620062) scale(0.1 -0.1)">
      <defs>
       <path id="DejaVuSans-6c" d="M 603 4863 
L 1178 4863 
L 1178 0 
L 603 0 
L 603 4863 
z
" transform="scale(0.015625)"/>
       <path id="DejaVuSans-77" d="M 269 3500 
L 844 3500 
L 1563 769 
L 2278 3500 
L 2956 3500 
L 3675 769 
L 4391 3500 
L 4966 3500 
L 4050 0 
L 3372 0 
L 2619 2869 
L 1863 0 
L 1184 0 
L 269 3500 
z
" transform="scale(0.015625)"/>
      </defs>
      <use xlink:href="#DejaVuSans-4d"/>
      <use xlink:href="#DejaVuSans-4c" x="86.279297"/>
      <use xlink:href="#DejaVuSans-66" x="141.992188"/>
      <use xlink:href="#DejaVuSans-6c" x="177.197266"/>
      <use xlink:href="#DejaVuSans-6f" x="204.980469"/>
      <use xlink:href="#DejaVuSans-77" x="266.162109"/>
     </g>
    </g>
    <g id="patch_21">
     <path d="M 160.789531 194.298187 
L 180.789531 194.298187 
L 180.789531 187.298187 
L 160.789531 187.298187 
z
" style="fill: #898989"/>
    </g>
    <g id="text_15">
     <!-- WandB -->
     <g transform="translate(188.789531 194.298187) scale(0.1 -0.1)">
      <defs>
       <path id="DejaVuSans-57" d="M 213 4666 
L 850 4666 
L 1831 722 
L 2809 4666 
L 3519 4666 
L 4500 722 
L 5478 4666 
L 6119 4666 
L 4947 0 
L 4153 0 
L 3169 4050 
L 2175 0 
L 1381 0 
L 213 4666 
z
" transform="scale(0.015625)"/>
       <path id="DejaVuSans-64" d="M 2906 2969 
L 2906 4863 
L 3481 4863 
L 3481 0 
L 2906 0 
L 2906 525 
Q 2725 213 2448 61 
Q 2172 -91 1784 -91 
Q 1150 -91 751 415 
Q 353 922 353 1747 
Q 353 2572 751 3078 
Q 1150 3584 1784 3584 
Q 2172 3584 2448 3432 
Q 2725 3281 2906 2969 
z
M 947 1747 
Q 947 1113 1208 752 
Q 1469 391 1925 391 
Q 2381 391 2643 752 
Q 2906 1113 2906 1747 
Q 2906 2381 2643 2742 
Q 2381 3103 1925 3103 
Q 1469 3103 1208 2742 
Q 947 2381 947 1747 
z
" transform="scale(0.015625)"/>
       <path id="DejaVuSans-42" d="M 1259 2228 
L 1259 519 
L 2272 519 
Q 2781 519 3026 730 
Q 3272 941 3272 1375 
Q 3272 1813 3026 2020 
Q 2781 2228 2272 2228 
L 1259 2228 
z
M 1259 4147 
L 1259 2741 
L 2194 2741 
Q 2656 2741 2882 2914 
Q 3109 3088 3109 3444 
Q 3109 3797 2882 3972 
Q 2656 4147 2194 4147 
L 1259 4147 
z
M 628 4666 
L 2241 4666 
Q 2963 4666 3353 4366 
Q 3744 4066 3744 3513 
Q 3744 3084 3544 2831 
Q 3344 2578 2956 2516 
Q 3422 2416 3680 2098 
Q 3938 1781 3938 1306 
Q 3938 681 3513 340 
Q 3088 0 2303 0 
L 628 0 
L 628 4666 
z
" transform="scale(0.015625)"/>
      </defs>
      <use xlink:href="#DejaVuSans-57"/>
      <use xlink:href="#DejaVuSans-61" x="92.501953"/>
      <use xlink:href="#DejaVuSans-6e" x="153.78125"/>
      <use xlink:href="#DejaVuSans-64" x="217.160156"/>
      <use xlink:href="#DejaVuSans-42" x="280.636719"/>
     </g>
    </g>
   </g>
  </g>
  <g id="axes_2">
   <g id="patch_22">
    <path d="M 277.003125 108.56 
L 471.843125 108.56 
L 471.843125 7.2 
L 277.003125 7.2 
z
" style="fill: #ffffff"/>
   </g>
   <g id="patch_23">
    <path d="M 325.713125 108.56 
L 339.630268 108.56 
L 339.630268 108.500055 
L 325.713125 108.500055 
z
" clip-path="url(#p5cdc1ee715)" style="fill: #006ba4"/>
   </g>
   <g id="patch_24">
    <path d="M 339.630268 108.56 
L 353.547411 108.56 
L 353.547411 108.474164 
L 339.630268 108.474164 
z
" clip-path="url(#p5cdc1ee715)" style="fill: #ff800e"/>
   </g>
   <g id="patch_25">
    <path d="M 353.547411 108.56 
L 367.464554 108.56 
L 367.464554 108.328285 
L 353.547411 108.328285 
z
" clip-path="url(#p5cdc1ee715)" style="fill: #ababab"/>
   </g>
   <g id="patch_26">
    <path d="M 367.464554 108.56 
L 381.381696 108.56 
L 381.381696 105.407243 
L 367.464554 105.407243 
z
" clip-path="url(#p5cdc1ee715)" style="fill: #595959"/>
   </g>
   <g id="patch_27">
    <path d="M 381.381696 108.56 
L 395.298839 108.56 
L 395.298839 86.581483 
L 381.381696 86.581483 
z
" clip-path="url(#p5cdc1ee715)" style="fill: #5f9ed1"/>
   </g>
   <g id="patch_28">
    <path d="M 395.298839 108.56 
L 409.215982 108.56 
L 409.215982 39.54217 
L 395.298839 39.54217 
z
" clip-path="url(#p5cdc1ee715)" style="fill: #c85200"/>
   </g>
   <g id="patch_29">
    <path d="M 409.215982 108.56 
L 423.133125 108.56 
L 423.133125 14.854982 
L 409.215982 14.854982 
z
" clip-path="url(#p5cdc1ee715)" style="fill: #898989"/>
   </g>
   <g id="matplotlib.axis_3">
    <g id="xtick_2">
     <g id="line2d_21">
      <g>
       <use xlink:href="#m1cd8686eea" x="374.423125" y="108.56" style="stroke: #000000; stroke-width: 0.8"/>
      </g>
     </g>
     <g id="text_16">
      <!-- 1 -->
      <g transform="translate(371.241875 123.158437) scale(0.1 -0.1)">
       <use xlink:href="#DejaVuSans-31"/>
      </g>
     </g>
    </g>
    <g id="text_17">
     <!-- Number of values -->
     <g transform="translate(330.077031 136.836563) scale(0.1 -0.1)">
      <defs>
       <path id="DejaVuSans-76" d="M 191 3500 
L 800 3500 
L 1894 563 
L 2988 3500 
L 3597 3500 
L 2284 0 
L 1503 0 
L 191 3500 
z
" transform="scale(0.015625)"/>
      </defs>
      <use xlink:href="#DejaVuSans-4e"/>
      <use xlink:href="#DejaVuSans-75" x="74.804688"/>
      <use xlink:href="#DejaVuSans-6d" x="138.183594"/>
      <use xlink:href="#DejaVuSans-62" x="235.595703"/>
      <use xlink:href="#DejaVuSans-65" x="299.072266"/>
      <use xlink:href="#DejaVuSans-72" x="360.595703"/>
      <use xlink:href="#DejaVuSans-20" x="401.708984"/>
      <use xlink:href="#DejaVuSans-6f" x="433.496094"/>
      <use xlink:href="#DejaVuSans-66" x="494.677734"/>
      <use xlink:href="#DejaVuSans-20" x="529.882812"/>
      <use xlink:href="#DejaVuSans-76" x="561.669922"/>
      <use xlink:href="#DejaVuSans-61" x="620.849609"/>
      <use xlink:href="#DejaVuSans-6c" x="682.128906"/>
      <use xlink:href="#DejaVuSans-75" x="709.912109"/>
      <use xlink:href="#DejaVuSans-65" x="773.291016"/>
      <use xlink:href="#DejaVuSans-73" x="834.814453"/>
     </g>
    </g>
   </g>
   <g id="matplotlib.axis_4">
    <g id="ytick_6">
     <g id="line2d_22">
      <g>
       <use xlink:href="#m141919a4f7" x="277.003125" y="108.56" style="stroke: #000000; stroke-width: 0.8"/>
      </g>
     </g>
     <g id="text_18">
      <!-- 0 -->
      <g transform="translate(263.640625 112.359219) scale(0.1 -0.1)">
       <use xlink:href="#DejaVuSans-30"/>
      </g>
     </g>
    </g>
    <g id="ytick_7">
     <g id="line2d_23">
      <g>
       <use xlink:href="#m141919a4f7" x="277.003125" y="84.199452" style="stroke: #000000; stroke-width: 0.8"/>
      </g>
     </g>
     <g id="text_19">
      <!-- 5 -->
      <g transform="translate(263.640625 87.998671) scale(0.1 -0.1)">
       <use xlink:href="#DejaVuSans-35"/>
      </g>
     </g>
    </g>
    <g id="ytick_8">
     <g id="line2d_24">
      <g>
       <use xlink:href="#m141919a4f7" x="277.003125" y="59.838905" style="stroke: #000000; stroke-width: 0.8"/>
      </g>
     </g>
     <g id="text_20">
      <!-- 10 -->
      <g transform="translate(257.278125 63.638123) scale(0.1 -0.1)">
       <use xlink:href="#DejaVuSans-31"/>
       <use xlink:href="#DejaVuSans-30" x="63.623047"/>
      </g>
     </g>
    </g>
    <g id="ytick_9">
     <g id="line2d_25">
      <g>
       <use xlink:href="#m141919a4f7" x="277.003125" y="35.478357" style="stroke: #000000; stroke-width: 0.8"/>
      </g>
     </g>
     <g id="text_21">
      <!-- 15 -->
      <g transform="translate(257.278125 39.277576) scale(0.1 -0.1)">
       <use xlink:href="#DejaVuSans-31"/>
       <use xlink:href="#DejaVuSans-35" x="63.623047"/>
      </g>
     </g>
    </g>
    <g id="ytick_10">
     <g id="line2d_26">
      <g>
       <use xlink:href="#m141919a4f7" x="277.003125" y="11.117809" style="stroke: #000000; stroke-width: 0.8"/>
      </g>
     </g>
     <g id="text_22">
      <!-- 20 -->
      <g transform="translate(257.278125 14.917028) scale(0.1 -0.1)">
       <use xlink:href="#DejaVuSans-32"/>
       <use xlink:href="#DejaVuSans-30" x="63.623047"/>
      </g>
     </g>
    </g>
   </g>
   <g id="LineCollection_8">
    <path d="M 332.671696 108.50888 
L 332.671696 108.491229 
" clip-path="url(#p5cdc1ee715)" style="fill: none; stroke: #000000"/>
   </g>
   <g id="line2d_27">
    <g clip-path="url(#p5cdc1ee715)">
     <use xlink:href="#m8bafd8859d" x="332.671696" y="108.50888" style="stroke: #000000"/>
    </g>
   </g>
   <g id="line2d_28">
    <g clip-path="url(#p5cdc1ee715)">
     <use xlink:href="#m8bafd8859d" x="332.671696" y="108.491229" style="stroke: #000000"/>
    </g>
   </g>
   <g id="LineCollection_9">
    <path d="M 346.588839 108.485045 
L 346.588839 108.463282 
" clip-path="url(#p5cdc1ee715)" style="fill: none; stroke: #000000"/>
   </g>
   <g id="line2d_29">
    <g clip-path="url(#p5cdc1ee715)">
     <use xlink:href="#m8bafd8859d" x="346.588839" y="108.485045" style="stroke: #000000"/>
    </g>
   </g>
   <g id="line2d_30">
    <g clip-path="url(#p5cdc1ee715)">
     <use xlink:href="#m8bafd8859d" x="346.588839" y="108.463282" style="stroke: #000000"/>
    </g>
   </g>
   <g id="LineCollection_10">
    <path d="M 360.505982 108.343377 
L 360.505982 108.313192 
" clip-path="url(#p5cdc1ee715)" style="fill: none; stroke: #000000"/>
   </g>
   <g id="line2d_31">
    <g clip-path="url(#p5cdc1ee715)">
     <use xlink:href="#m8bafd8859d" x="360.505982" y="108.343377" style="stroke: #000000"/>
    </g>
   </g>
   <g id="line2d_32">
    <g clip-path="url(#p5cdc1ee715)">
     <use xlink:href="#m8bafd8859d" x="360.505982" y="108.313192" style="stroke: #000000"/>
    </g>
   </g>
   <g id="LineCollection_11">
    <path d="M 374.423125 105.424026 
L 374.423125 105.390461 
" clip-path="url(#p5cdc1ee715)" style="fill: none; stroke: #000000"/>
   </g>
   <g id="line2d_33">
    <g clip-path="url(#p5cdc1ee715)">
     <use xlink:href="#m8bafd8859d" x="374.423125" y="105.424026" style="stroke: #000000"/>
    </g>
   </g>
   <g id="line2d_34">
    <g clip-path="url(#p5cdc1ee715)">
     <use xlink:href="#m8bafd8859d" x="374.423125" y="105.390461" style="stroke: #000000"/>
    </g>
   </g>
   <g id="LineCollection_12">
    <path d="M 388.340268 87.107374 
L 388.340268 86.055593 
" clip-path="url(#p5cdc1ee715)" style="fill: none; stroke: #000000"/>
   </g>
   <g id="line2d_35">
    <g clip-path="url(#p5cdc1ee715)">
     <use xlink:href="#m8bafd8859d" x="388.340268" y="87.107374" style="stroke: #000000"/>
    </g>
   </g>
   <g id="line2d_36">
    <g clip-path="url(#p5cdc1ee715)">
     <use xlink:href="#m8bafd8859d" x="388.340268" y="86.055593" style="stroke: #000000"/>
    </g>
   </g>
   <g id="LineCollection_13">
    <path d="M 402.257411 39.708578 
L 402.257411 39.375762 
" clip-path="url(#p5cdc1ee715)" style="fill: none; stroke: #000000"/>
   </g>
   <g id="line2d_37">
    <g clip-path="url(#p5cdc1ee715)">
     <use xlink:href="#m8bafd8859d" x="402.257411" y="39.708578" style="stroke: #000000"/>
    </g>
   </g>
   <g id="line2d_38">
    <g clip-path="url(#p5cdc1ee715)">
     <use xlink:href="#m8bafd8859d" x="402.257411" y="39.375762" style="stroke: #000000"/>
    </g>
   </g>
   <g id="LineCollection_14">
    <path d="M 416.174554 17.683298 
L 416.174554 12.026667 
" clip-path="url(#p5cdc1ee715)" style="fill: none; stroke: #000000"/>
   </g>
   <g id="line2d_39">
    <g clip-path="url(#p5cdc1ee715)">
     <use xlink:href="#m8bafd8859d" x="416.174554" y="17.683298" style="stroke: #000000"/>
    </g>
   </g>
   <g id="line2d_40">
    <g clip-path="url(#p5cdc1ee715)">
     <use xlink:href="#m8bafd8859d" x="416.174554" y="12.026667" style="stroke: #000000"/>
    </g>
   </g>
   <g id="patch_30">
    <path d="M 277.003125 108.56 
L 277.003125 7.2 
" style="fill: none; stroke: #000000; stroke-width: 0.8; stroke-linejoin: miter; stroke-linecap: square"/>
   </g>
   <g id="patch_31">
    <path d="M 471.843125 108.56 
L 471.843125 7.2 
" style="fill: none; stroke: #000000; stroke-width: 0.8; stroke-linejoin: miter; stroke-linecap: square"/>
   </g>
   <g id="patch_32">
    <path d="M 277.003125 108.56 
L 471.843125 108.56 
" style="fill: none; stroke: #000000; stroke-width: 0.8; stroke-linejoin: miter; stroke-linecap: square"/>
   </g>
   <g id="patch_33">
    <path d="M 277.003125 7.2 
L 471.843125 7.2 
" style="fill: none; stroke: #000000; stroke-width: 0.8; stroke-linejoin: miter; stroke-linecap: square"/>
   </g>
   <g id="legend_2">
    <g id="patch_34">
     <path d="M 286.731719 215.056 
L 462.114531 215.056 
Q 464.114531 215.056 464.114531 213.056 
L 464.114531 155.3435 
Q 464.114531 153.3435 462.114531 153.3435 
L 286.731719 153.3435 
Q 284.731719 153.3435 284.731719 155.3435 
L 284.731719 213.056 
Q 284.731719 215.056 286.731719 215.056 
z
" style="fill: #ffffff; opacity: 0.8; stroke: #cccccc; stroke-linejoin: miter"/>
    </g>
    <g id="patch_35">
     <path d="M 288.731719 164.941937 
L 308.731719 164.941937 
L 308.731719 157.941937 
L 288.731719 157.941937 
z
" style="fill: #006ba4"/>
    </g>
    <g id="text_23">
     <!-- MLtraq -->
     <g transform="translate(316.731719 164.941937) scale(0.1 -0.1)">
      <use xlink:href="#DejaVuSans-4d"/>
      <use xlink:href="#DejaVuSans-4c" x="86.279297"/>
      <use xlink:href="#DejaVuSans-74" x="141.992188"/>
      <use xlink:href="#DejaVuSans-72" x="181.201172"/>
      <use xlink:href="#DejaVuSans-61" x="222.314453"/>
      <use xlink:href="#DejaVuSans-71" x="283.59375"/>
     </g>
    </g>
    <g id="patch_36">
     <path d="M 288.731719 179.620062 
L 308.731719 179.620062 
L 308.731719 172.620062 
L 288.731719 172.620062 
z
" style="fill: #ff800e"/>
    </g>
    <g id="text_24">
     <!-- Neptune -->
     <g transform="translate(316.731719 179.620062) scale(0.1 -0.1)">
      <use xlink:href="#DejaVuSans-4e"/>
      <use xlink:href="#DejaVuSans-65" x="74.804688"/>
      <use xlink:href="#DejaVuSans-70" x="136.328125"/>
      <use xlink:href="#DejaVuSans-74" x="199.804688"/>
      <use xlink:href="#DejaVuSans-75" x="239.013672"/>
      <use xlink:href="#DejaVuSans-6e" x="302.392578"/>
      <use xlink:href="#DejaVuSans-65" x="365.771484"/>
     </g>
    </g>
    <g id="patch_37">
     <path d="M 288.731719 194.298187 
L 308.731719 194.298187 
L 308.731719 187.298187 
L 288.731719 187.298187 
z
" style="fill: #ababab"/>
    </g>
    <g id="text_25">
     <!-- FastTrackML -->
     <g transform="translate(316.731719 194.298187) scale(0.1 -0.1)">
      <use xlink:href="#DejaVuSans-46"/>
      <use xlink:href="#DejaVuSans-61" x="48.394531"/>
      <use xlink:href="#DejaVuSans-73" x="109.673828"/>
      <use xlink:href="#DejaVuSans-74" x="161.773438"/>
      <use xlink:href="#DejaVuSans-54" x="200.982422"/>
      <use xlink:href="#DejaVuSans-72" x="247.316406"/>
      <use xlink:href="#DejaVuSans-61" x="288.429688"/>
      <use xlink:href="#DejaVuSans-63" x="349.708984"/>
      <use xlink:href="#DejaVuSans-6b" x="404.689453"/>
      <use xlink:href="#DejaVuSans-4d" x="462.599609"/>
      <use xlink:href="#DejaVuSans-4c" x="548.878906"/>
     </g>
    </g>
    <g id="patch_38">
     <path d="M 288.731719 208.976313 
L 308.731719 208.976313 
L 308.731719 201.976313 
L 288.731719 201.976313 
z
" style="fill: #595959"/>
    </g>
    <g id="text_26">
     <!-- Comet -->
     <g transform="translate(316.731719 208.976313) scale(0.1 -0.1)">
      <use xlink:href="#DejaVuSans-43"/>
      <use xlink:href="#DejaVuSans-6f" x="69.824219"/>
      <use xlink:href="#DejaVuSans-6d" x="131.005859"/>
      <use xlink:href="#DejaVuSans-65" x="228.417969"/>
      <use xlink:href="#DejaVuSans-74" x="289.941406"/>
     </g>
    </g>
    <g id="patch_39">
     <path d="M 397.189531 164.941937 
L 417.189531 164.941937 
L 417.189531 157.941937 
L 397.189531 157.941937 
z
" style="fill: #5f9ed1"/>
    </g>
    <g id="text_27">
     <!-- Aim -->
     <g transform="translate(425.189531 164.941937) scale(0.1 -0.1)">
      <use xlink:href="#DejaVuSans-41"/>
      <use xlink:href="#DejaVuSans-69" x="68.408203"/>
      <use xlink:href="#DejaVuSans-6d" x="96.191406"/>
     </g>
    </g>
    <g id="patch_40">
     <path d="M 397.189531 179.620062 
L 417.189531 179.620062 
L 417.189531 172.620062 
L 397.189531 172.620062 
z
" style="fill: #c85200"/>
    </g>
    <g id="text_28">
     <!-- MLflow -->
     <g transform="translate(425.189531 179.620062) scale(0.1 -0.1)">
      <use xlink:href="#DejaVuSans-4d"/>
      <use xlink:href="#DejaVuSans-4c" x="86.279297"/>
      <use xlink:href="#DejaVuSans-66" x="141.992188"/>
      <use xlink:href="#DejaVuSans-6c" x="177.197266"/>
      <use xlink:href="#DejaVuSans-6f" x="204.980469"/>
      <use xlink:href="#DejaVuSans-77" x="266.162109"/>
     </g>
    </g>
    <g id="patch_41">
     <path d="M 397.189531 194.298187 
L 417.189531 194.298187 
L 417.189531 187.298187 
L 397.189531 187.298187 
z
" style="fill: #898989"/>
    </g>
    <g id="text_29">
     <!-- WandB -->
     <g transform="translate(425.189531 194.298187) scale(0.1 -0.1)">
      <use xlink:href="#DejaVuSans-57"/>
      <use xlink:href="#DejaVuSans-61" x="92.501953"/>
      <use xlink:href="#DejaVuSans-6e" x="153.78125"/>
      <use xlink:href="#DejaVuSans-64" x="217.160156"/>
      <use xlink:href="#DejaVuSans-42" x="280.636719"/>
     </g>
    </g>
   </g>
  </g>
  <g id="axes_3">
   <g id="patch_42">
    <path d="M 513.403125 108.56 
L 708.243125 108.56 
L 708.243125 7.2 
L 513.403125 7.2 
z
" style="fill: #ffffff"/>
   </g>
   <g id="patch_43">
    <path d="M 520.361696 108.56 
L 534.278839 108.56 
L 534.278839 108.500055 
L 520.361696 108.500055 
z
" clip-path="url(#p00882d8999)" style="fill: #006ba4"/>
   </g>
   <g id="patch_44">
    <path d="M 548.195982 108.56 
L 562.113125 108.56 
L 562.113125 108.474164 
L 548.195982 108.474164 
z
" clip-path="url(#p00882d8999)" style="fill: #006ba4"/>
   </g>
   <g id="patch_45">
    <path d="M 576.030268 108.56 
L 589.947411 108.56 
L 589.947411 108.328285 
L 576.030268 108.328285 
z
" clip-path="url(#p00882d8999)" style="fill: #006ba4"/>
   </g>
   <g id="patch_46">
    <path d="M 603.864554 108.56 
L 617.781696 108.56 
L 617.781696 105.407243 
L 603.864554 105.407243 
z
" clip-path="url(#p00882d8999)" style="fill: #006ba4"/>
   </g>
   <g id="patch_47">
    <path d="M 631.698839 108.56 
L 645.615982 108.56 
L 645.615982 86.581483 
L 631.698839 86.581483 
z
" clip-path="url(#p00882d8999)" style="fill: #006ba4"/>
   </g>
   <g id="patch_48">
    <path d="M 659.533125 108.56 
L 673.450268 108.56 
L 673.450268 39.54217 
L 659.533125 39.54217 
z
" clip-path="url(#p00882d8999)" style="fill: #006ba4"/>
   </g>
   <g id="patch_49">
    <path d="M 687.367411 108.56 
L 701.284554 108.56 
L 701.284554 14.854982 
L 687.367411 14.854982 
z
" clip-path="url(#p00882d8999)" style="fill: #006ba4"/>
   </g>
   <g id="matplotlib.axis_5">
    <g id="xtick_3">
     <g id="line2d_41">
      <g>
       <use xlink:href="#m1cd8686eea" x="527.320268" y="108.56" style="stroke: #000000; stroke-width: 0.8"/>
      </g>
     </g>
     <g id="text_30">
      <!-- MLtraq -->
      <g transform="translate(517.000376 145.475036) rotate(-45) scale(0.1 -0.1)">
       <use xlink:href="#DejaVuSans-4d"/>
       <use xlink:href="#DejaVuSans-4c" x="86.279297"/>
       <use xlink:href="#DejaVuSans-74" x="141.992188"/>
       <use xlink:href="#DejaVuSans-72" x="181.201172"/>
       <use xlink:href="#DejaVuSans-61" x="222.314453"/>
       <use xlink:href="#DejaVuSans-71" x="283.59375"/>
      </g>
     </g>
    </g>
    <g id="xtick_4">
     <g id="line2d_42">
      <g>
       <use xlink:href="#m1cd8686eea" x="555.154554" y="108.56" style="stroke: #000000; stroke-width: 0.8"/>
      </g>
     </g>
     <g id="text_31">
      <!-- Neptune -->
      <g transform="translate(541.997948 151.148463) rotate(-45) scale(0.1 -0.1)">
       <use xlink:href="#DejaVuSans-4e"/>
       <use xlink:href="#DejaVuSans-65" x="74.804688"/>
       <use xlink:href="#DejaVuSans-70" x="136.328125"/>
       <use xlink:href="#DejaVuSans-74" x="199.804688"/>
       <use xlink:href="#DejaVuSans-75" x="239.013672"/>
       <use xlink:href="#DejaVuSans-6e" x="302.392578"/>
       <use xlink:href="#DejaVuSans-65" x="365.771484"/>
      </g>
     </g>
    </g>
    <g id="xtick_5">
     <g id="line2d_43">
      <g>
       <use xlink:href="#m1cd8686eea" x="582.988839" y="108.56" style="stroke: #000000; stroke-width: 0.8"/>
      </g>
     </g>
     <g id="text_32">
      <!-- FastTrackML -->
      <g transform="translate(563.564947 163.683036) rotate(-45) scale(0.1 -0.1)">
       <use xlink:href="#DejaVuSans-46"/>
       <use xlink:href="#DejaVuSans-61" x="48.394531"/>
       <use xlink:href="#DejaVuSans-73" x="109.673828"/>
       <use xlink:href="#DejaVuSans-74" x="161.773438"/>
       <use xlink:href="#DejaVuSans-54" x="200.982422"/>
       <use xlink:href="#DejaVuSans-72" x="247.316406"/>
       <use xlink:href="#DejaVuSans-61" x="288.429688"/>
       <use xlink:href="#DejaVuSans-63" x="349.708984"/>
       <use xlink:href="#DejaVuSans-6b" x="404.689453"/>
       <use xlink:href="#DejaVuSans-4d" x="462.599609"/>
       <use xlink:href="#DejaVuSans-4c" x="548.878906"/>
      </g>
     </g>
    </g>
    <g id="xtick_6">
     <g id="line2d_44">
      <g>
       <use xlink:href="#m1cd8686eea" x="610.823125" y="108.56" style="stroke: #000000; stroke-width: 0.8"/>
      </g>
     </g>
     <g id="text_33">
      <!-- Comet -->
      <g transform="translate(601.136867 144.207768) rotate(-45) scale(0.1 -0.1)">
       <use xlink:href="#DejaVuSans-43"/>
       <use xlink:href="#DejaVuSans-6f" x="69.824219"/>
       <use xlink:href="#DejaVuSans-6d" x="131.005859"/>
       <use xlink:href="#DejaVuSans-65" x="228.417969"/>
       <use xlink:href="#DejaVuSans-74" x="289.941406"/>
      </g>
     </g>
    </g>
    <g id="xtick_7">
     <g id="line2d_45">
      <g>
       <use xlink:href="#m1cd8686eea" x="638.657411" y="108.56" style="stroke: #000000; stroke-width: 0.8"/>
      </g>
     </g>
     <g id="text_34">
      <!-- Aim -->
      <g transform="translate(633.764011 134.622052) rotate(-45) scale(0.1 -0.1)">
       <use xlink:href="#DejaVuSans-41"/>
       <use xlink:href="#DejaVuSans-69" x="68.408203"/>
       <use xlink:href="#DejaVuSans-6d" x="96.191406"/>
      </g>
     </g>
    </g>
    <g id="xtick_8">
     <g id="line2d_46">
      <g>
       <use xlink:href="#m1cd8686eea" x="666.491696" y="108.56" style="stroke: #000000; stroke-width: 0.8"/>
      </g>
     </g>
     <g id="text_35">
      <!-- MLflow -->
      <g transform="translate(656.140868 145.536908) rotate(-45) scale(0.1 -0.1)">
       <use xlink:href="#DejaVuSans-4d"/>
       <use xlink:href="#DejaVuSans-4c" x="86.279297"/>
       <use xlink:href="#DejaVuSans-66" x="141.992188"/>
       <use xlink:href="#DejaVuSans-6c" x="177.197266"/>
       <use xlink:href="#DejaVuSans-6f" x="204.980469"/>
       <use xlink:href="#DejaVuSans-77" x="266.162109"/>
      </g>
     </g>
    </g>
    <g id="xtick_9">
     <g id="line2d_47">
      <g>
       <use xlink:href="#m1cd8686eea" x="694.325982" y="108.56" style="stroke: #000000; stroke-width: 0.8"/>
      </g>
     </g>
     <g id="text_36">
      <!-- WandB -->
      <g transform="translate(683.929303 145.628611) rotate(-45) scale(0.1 -0.1)">
       <use xlink:href="#DejaVuSans-57"/>
       <use xlink:href="#DejaVuSans-61" x="92.501953"/>
       <use xlink:href="#DejaVuSans-6e" x="153.78125"/>
       <use xlink:href="#DejaVuSans-64" x="217.160156"/>
       <use xlink:href="#DejaVuSans-42" x="280.636719"/>
      </g>
     </g>
    </g>
    <g id="text_37">
     <!-- Method -->
     <g transform="translate(592.07 176.752035) scale(0.1 -0.1)">
      <defs>
       <path id="DejaVuSans-68" d="M 3513 2113 
L 3513 0 
L 2938 0 
L 2938 2094 
Q 2938 2591 2744 2837 
Q 2550 3084 2163 3084 
Q 1697 3084 1428 2787 
Q 1159 2491 1159 1978 
L 1159 0 
L 581 0 
L 581 4863 
L 1159 4863 
L 1159 2956 
Q 1366 3272 1645 3428 
Q 1925 3584 2291 3584 
Q 2894 3584 3203 3211 
Q 3513 2838 3513 2113 
z
" transform="scale(0.015625)"/>
      </defs>
      <use xlink:href="#DejaVuSans-4d"/>
      <use xlink:href="#DejaVuSans-65" x="86.279297"/>
      <use xlink:href="#DejaVuSans-74" x="147.802734"/>
      <use xlink:href="#DejaVuSans-68" x="187.011719"/>
      <use xlink:href="#DejaVuSans-6f" x="250.390625"/>
      <use xlink:href="#DejaVuSans-64" x="311.572266"/>
     </g>
    </g>
   </g>
   <g id="matplotlib.axis_6">
    <g id="ytick_11">
     <g id="line2d_48">
      <g>
       <use xlink:href="#m141919a4f7" x="513.403125" y="108.56" style="stroke: #000000; stroke-width: 0.8"/>
      </g>
     </g>
     <g id="text_38">
      <!-- 0 -->
      <g transform="translate(500.040625 112.359219) scale(0.1 -0.1)">
       <use xlink:href="#DejaVuSans-30"/>
      </g>
     </g>
    </g>
    <g id="ytick_12">
     <g id="line2d_49">
      <g>
       <use xlink:href="#m141919a4f7" x="513.403125" y="84.199452" style="stroke: #000000; stroke-width: 0.8"/>
      </g>
     </g>
     <g id="text_39">
      <!-- 5 -->
      <g transform="translate(500.040625 87.998671) scale(0.1 -0.1)">
       <use xlink:href="#DejaVuSans-35"/>
      </g>
     </g>
    </g>
    <g id="ytick_13">
     <g id="line2d_50">
      <g>
       <use xlink:href="#m141919a4f7" x="513.403125" y="59.838905" style="stroke: #000000; stroke-width: 0.8"/>
      </g>
     </g>
     <g id="text_40">
      <!-- 10 -->
      <g transform="translate(493.678125 63.638123) scale(0.1 -0.1)">
       <use xlink:href="#DejaVuSans-31"/>
       <use xlink:href="#DejaVuSans-30" x="63.623047"/>
      </g>
     </g>
    </g>
    <g id="ytick_14">
     <g id="line2d_51">
      <g>
       <use xlink:href="#m141919a4f7" x="513.403125" y="35.478357" style="stroke: #000000; stroke-width: 0.8"/>
      </g>
     </g>
     <g id="text_41">
      <!-- 15 -->
      <g transform="translate(493.678125 39.277576) scale(0.1 -0.1)">
       <use xlink:href="#DejaVuSans-31"/>
       <use xlink:href="#DejaVuSans-35" x="63.623047"/>
      </g>
     </g>
    </g>
    <g id="ytick_15">
     <g id="line2d_52">
      <g>
       <use xlink:href="#m141919a4f7" x="513.403125" y="11.117809" style="stroke: #000000; stroke-width: 0.8"/>
      </g>
     </g>
     <g id="text_42">
      <!-- 20 -->
      <g transform="translate(493.678125 14.917028) scale(0.1 -0.1)">
       <use xlink:href="#DejaVuSans-32"/>
       <use xlink:href="#DejaVuSans-30" x="63.623047"/>
      </g>
     </g>
    </g>
   </g>
   <g id="LineCollection_15">
    <path d="M 527.320268 108.50888 
L 527.320268 108.491229 
" clip-path="url(#p00882d8999)" style="fill: none; stroke: #000000"/>
    <path d="M 555.154554 108.485045 
L 555.154554 108.463282 
" clip-path="url(#p00882d8999)" style="fill: none; stroke: #000000"/>
    <path d="M 582.988839 108.343377 
L 582.988839 108.313192 
" clip-path="url(#p00882d8999)" style="fill: none; stroke: #000000"/>
    <path d="M 610.823125 105.424026 
L 610.823125 105.390461 
" clip-path="url(#p00882d8999)" style="fill: none; stroke: #000000"/>
    <path d="M 638.657411 87.107374 
L 638.657411 86.055593 
" clip-path="url(#p00882d8999)" style="fill: none; stroke: #000000"/>
    <path d="M 666.491696 39.708578 
L 666.491696 39.375762 
" clip-path="url(#p00882d8999)" style="fill: none; stroke: #000000"/>
    <path d="M 694.325982 17.683298 
L 694.325982 12.026667 
" clip-path="url(#p00882d8999)" style="fill: none; stroke: #000000"/>
   </g>
   <g id="line2d_53">
    <g clip-path="url(#p00882d8999)">
     <use xlink:href="#m8bafd8859d" x="527.320268" y="108.50888" style="stroke: #000000"/>
     <use xlink:href="#m8bafd8859d" x="555.154554" y="108.485045" style="stroke: #000000"/>
     <use xlink:href="#m8bafd8859d" x="582.988839" y="108.343377" style="stroke: #000000"/>
     <use xlink:href="#m8bafd8859d" x="610.823125" y="105.424026" style="stroke: #000000"/>
     <use xlink:href="#m8bafd8859d" x="638.657411" y="87.107374" style="stroke: #000000"/>
     <use xlink:href="#m8bafd8859d" x="666.491696" y="39.708578" style="stroke: #000000"/>
     <use xlink:href="#m8bafd8859d" x="694.325982" y="17.683298" style="stroke: #000000"/>
    </g>
   </g>
   <g id="line2d_54">
    <g clip-path="url(#p00882d8999)">
     <use xlink:href="#m8bafd8859d" x="527.320268" y="108.491229" style="stroke: #000000"/>
     <use xlink:href="#m8bafd8859d" x="555.154554" y="108.463282" style="stroke: #000000"/>
     <use xlink:href="#m8bafd8859d" x="582.988839" y="108.313192" style="stroke: #000000"/>
     <use xlink:href="#m8bafd8859d" x="610.823125" y="105.390461" style="stroke: #000000"/>
     <use xlink:href="#m8bafd8859d" x="638.657411" y="86.055593" style="stroke: #000000"/>
     <use xlink:href="#m8bafd8859d" x="666.491696" y="39.375762" style="stroke: #000000"/>
     <use xlink:href="#m8bafd8859d" x="694.325982" y="12.026667" style="stroke: #000000"/>
    </g>
   </g>
   <g id="patch_50">
    <path d="M 513.403125 108.56 
L 513.403125 7.2 
" style="fill: none; stroke: #000000; stroke-width: 0.8; stroke-linejoin: miter; stroke-linecap: square"/>
   </g>
   <g id="patch_51">
    <path d="M 708.243125 108.56 
L 708.243125 7.2 
" style="fill: none; stroke: #000000; stroke-width: 0.8; stroke-linejoin: miter; stroke-linecap: square"/>
   </g>
   <g id="patch_52">
    <path d="M 513.403125 108.56 
L 708.243125 108.56 
" style="fill: none; stroke: #000000; stroke-width: 0.8; stroke-linejoin: miter; stroke-linecap: square"/>
   </g>
   <g id="patch_53">
    <path d="M 513.403125 7.2 
L 708.243125 7.2 
" style="fill: none; stroke: #000000; stroke-width: 0.8; stroke-linejoin: miter; stroke-linecap: square"/>
   </g>
  </g>
 </g>
 <defs>
  <clipPath id="p1ded19d9ab">
   <rect x="40.603125" y="7.2" width="194.84" height="101.36"/>
  </clipPath>
  <clipPath id="p5cdc1ee715">
   <rect x="277.003125" y="7.2" width="194.84" height="101.36"/>
  </clipPath>
  <clipPath id="p00882d8999">
   <rect x="513.403125" y="7.2" width="194.84" height="101.36"/>
  </clipPath>
 </defs>
</svg>
