<svg xmlns="http://www.w3.org/2000/svg" xmlns:xlink="http://www.w3.org/1999/xlink" width="947.85" height="296.341" viewBox="0 0 710.887 222.256"><defs><style>*{stroke-linejoin:round;stroke-linecap:butt}</style></defs><g id="figure_1"><path id="patch_1" d="M0 222.256h710.887V0H0z" style="fill:#fff"/><g id="axes_1"><path id="patch_2" d="M34.24 108.56h194.84V7.2H34.24z" style="fill:#fff"/><path id="patch_3" d="M82.95 108.56h13.918v-.233H82.95z" clip-path="url(#pb7c88f53f5)" style="fill:#006ba4"/><path id="patch_4" d="M96.868 108.56h13.917v-1.278H96.868z" clip-path="url(#pb7c88f53f5)" style="fill:#ff800e"/><path id="patch_5" d="M110.785 108.56h13.917v-1.73h-13.917z" clip-path="url(#pb7c88f53f5)" style="fill:#ababab"/><path id="patch_6" d="M124.702 108.56h13.917V85.338h-13.917z" clip-path="url(#pb7c88f53f5)" style="fill:#595959"/><path id="patch_7" d="M138.62 108.56h13.916V83.4H138.62z" clip-path="url(#pb7c88f53f5)" style="fill:#5f9ed1"/><path id="patch_8" d="M152.536 108.56h13.917V30.77h-13.917z" clip-path="url(#pb7c88f53f5)" style="fill:#c85200"/><path id="patch_9" d="M166.453 108.56h13.918V25.866h-13.918z" clip-path="url(#pb7c88f53f5)" style="fill:#898989"/><g id="matplotlib.axis_1"><g id="xtick_1"><g id="line2d_1"><defs><path id="m50a6e3f54d" d="M0 0v3.5" style="stroke:#000;stroke-width:.8"/></defs><use xlink:href="#m50a6e3f54d" x="131.661" y="108.56" style="stroke:#000;stroke-width:.8"/></g><g id="text_1" transform="matrix(.1 0 0 -.1 128.48 123.158)"><defs><path id="DejaVuSans-31" d="M794 531h1031v3560L703 3866v575l1116 225h631V531h1031V0H794z" transform="scale(.01563)"/></defs><use xlink:href="#DejaVuSans-31"/></g></g><g id="text_2" transform="matrix(.1 0 0 -.1 92.58 136.837)"><defs><path id="DejaVuSans-4e" d="M628 4666h850L3547 763v3903h612V0h-850L1241 3903V0H628z" transform="scale(.01563)"/><path id="DejaVuSans-75" d="M544 1381v2119h575V1403q0-497 193-746 194-248 582-248 465 0 735 297 271 297 271 810v1984h575V0h-575v538q-209-319-486-474-276-155-642-155-603 0-916 375-312 375-312 1097m1447 2203" transform="scale(.01563)"/><path id="DejaVuSans-6d" d="M3328 2828q216 388 516 572t706 184q547 0 844-383 297-382 297-1088V0h-578v2094q0 503-179 746-178 244-543 244-447 0-707-297-259-296-259-809V0h-578v2094q0 506-178 748t-550 242q-441 0-701-298-259-298-259-808V0H581v3500h578v-544q197 322 472 475t653 153q382 0 649-194 267-193 395-562" transform="scale(.01563)"/><path id="DejaVuSans-62" d="M3116 1747q0 634-261 995t-717 361q-457 0-718-361t-261-995 261-995 718-361q456 0 717 361t261 995M1159 2969q182 312 458 463 277 152 661 152 638 0 1036-506 399-506 399-1331T3314 415Q2916-91 2278-91q-384 0-661 152-276 152-458 464V0H581v4863h578z" transform="scale(.01563)"/><path id="DejaVuSans-65" d="M3597 1894v-281H953q38-594 358-905t892-311q331 0 642 81t618 244V178Q3153 47 2828-22t-659-69q-838 0-1327 487-489 488-489 1320 0 859 464 1363 464 505 1252 505 706 0 1117-455 411-454 411-1235m-575 169q-6 471-264 752-258 282-683 282-481 0-770-272t-333-766z" transform="scale(.01563)"/><path id="DejaVuSans-72" d="M2631 2963q-97 56-211 82-114 27-251 27-488 0-749-317t-261-911V0H581v3500h578v-544q182 319 472 473 291 155 707 155 59 0 131-8 72-7 159-23z" transform="scale(.01563)"/><path id="DejaVuSans-6f" d="M1959 3097q-462 0-731-361t-269-989 267-989q268-361 733-361 460 0 728 362 269 363 269 988 0 622-269 986-268 364-728 364m0 487q750 0 1178-488 429-487 429-1349 0-859-429-1349Q2709-91 1959-91q-753 0-1180 489-426 490-426 1349 0 862 426 1349 427 488 1180 488" transform="scale(.01563)"/><path id="DejaVuSans-66" d="M2375 4863v-479h-550q-309 0-430-125-120-125-120-450v-309h947v-447h-947V0H697v3053H147v447h550v244q0 584 272 851 272 268 862 268z" transform="scale(.01563)"/><path id="DejaVuSans-6e" d="M3513 2113V0h-575v2094q0 497-194 743-194 247-581 247-466 0-735-297-269-296-269-809V0H581v3500h578v-544q207 316 486 472 280 156 646 156 603 0 912-373 310-373 310-1098" transform="scale(.01563)"/><path id="DejaVuSans-73" d="M2834 3397v-544q-243 125-506 187-262 63-544 63-428 0-642-131t-214-394q0-200 153-314t616-217l197-44q612-131 870-370t258-667q0-488-386-773Q2250-91 1575-91q-281 0-586 55T347 128v594q319-166 628-249 309-82 613-82 406 0 624 139 219 139 219 392 0 234-158 359-157 125-692 241l-200 47q-534 112-772 345-237 233-237 639 0 494 350 762 350 269 994 269 318 0 599-47 282-46 519-140" transform="scale(.01563)"/></defs><use xlink:href="#DejaVuSans-4e"/><use xlink:href="#DejaVuSans-75" x="74.805"/><use xlink:href="#DejaVuSans-6d" x="138.184"/><use xlink:href="#DejaVuSans-62" x="235.596"/><use xlink:href="#DejaVuSans-65" x="299.072"/><use xlink:href="#DejaVuSans-72" x="360.596"/><use xlink:href="#DejaVuSans-6f" x="433.496"/><use xlink:href="#DejaVuSans-66" x="494.678"/><use xlink:href="#DejaVuSans-72" x="561.67"/><use xlink:href="#DejaVuSans-75" x="602.783"/><use xlink:href="#DejaVuSans-6e" x="666.162"/><use xlink:href="#DejaVuSans-73" x="729.541"/></g></g><g id="matplotlib.axis_2"><g id="ytick_1"><g id="line2d_2"><defs><path id="m66f0563b54" d="M0 0h-3.5" style="stroke:#000;stroke-width:.8"/></defs><use xlink:href="#m66f0563b54" x="34.241" y="108.56" style="stroke:#000;stroke-width:.8"/></g><g id="text_3" transform="matrix(.1 0 0 -.1 20.878 112.36)"><defs><path id="DejaVuSans-30" d="M2034 4250q-487 0-733-480-245-479-245-1442 0-959 245-1439 246-480 733-480 491 0 736 480 246 480 246 1439 0 963-246 1442-245 480-736 480m0 500q785 0 1199-621 414-620 414-1801 0-1178-414-1799Q2819-91 2034-91q-784 0-1198 620-414 621-414 1799 0 1181 414 1801 414 621 1198 621" transform="scale(.01563)"/></defs><use xlink:href="#DejaVuSans-30"/></g></g><g id="ytick_2"><use xlink:href="#m66f0563b54" id="line2d_3" x="34.241" y="80.386" style="stroke:#000;stroke-width:.8"/><g id="text_4" transform="matrix(.1 0 0 -.1 20.878 84.185)"><defs><path id="DejaVuSans-32" d="M1228 531h2203V0H469v531q359 372 979 998 621 627 780 809 303 340 423 576 121 236 121 464 0 372-261 606-261 235-680 235-297 0-627-103-329-103-704-313v638q381 153 712 231 332 78 607 78 725 0 1156-363 431-362 431-968 0-288-108-546-107-257-392-607-78-91-497-524-418-433-1181-1211" transform="scale(.01563)"/></defs><use xlink:href="#DejaVuSans-32"/></g></g><g id="ytick_3"><use xlink:href="#m66f0563b54" id="line2d_4" x="34.241" y="52.212" style="stroke:#000;stroke-width:.8"/><g id="text_5" transform="matrix(.1 0 0 -.1 20.878 56.011)"><defs><path id="DejaVuSans-34" d="M2419 4116 825 1625h1594zm-166 550h794V1625h666v-525h-666V0h-628v1100H313v609z" transform="scale(.01563)"/></defs><use xlink:href="#DejaVuSans-34"/></g></g><g id="ytick_4"><use xlink:href="#m66f0563b54" id="line2d_5" x="34.241" y="24.038" style="stroke:#000;stroke-width:.8"/><g id="text_6" transform="matrix(.1 0 0 -.1 20.878 27.837)"><defs><path id="DejaVuSans-36" d="M2113 2584q-425 0-674-291-248-290-248-796 0-503 248-796 249-292 674-292t673 292q248 293 248 796 0 506-248 796-248 291-673 291m1253 1979v-575q-238 112-480 171-242 60-480 60-625 0-955-422-329-422-376-1275 184 272 462 417 279 145 613 145 703 0 1111-427 408-426 408-1160 0-719-425-1154Q2819-91 2113-91q-810 0-1238 620-428 621-428 1799 0 1106 525 1764t1409 658q238 0 480-47t505-140" transform="scale(.01563)"/></defs><use xlink:href="#DejaVuSans-36"/></g></g><g id="text_7" transform="matrix(0 -.1 -.1 0 14.798 87.69)"><defs><path id="DejaVuSans-44" d="M1259 4147V519h763q966 0 1414 437 448 438 448 1382 0 937-448 1373t-1414 436zm-631 519h1297q1356 0 1990-564 635-564 635-1764 0-1207-638-1773Q3275 0 1925 0H628z" transform="scale(.01563)"/><path id="DejaVuSans-61" d="M2194 1759q-697 0-966-159t-269-544q0-306 202-486 202-179 548-179 479 0 768 339t289 901v128zm1147 238V0h-575v531q-197-318-491-470T1556-91q-537 0-855 302-317 302-317 808 0 590 395 890 396 300 1180 300h807v57q0 397-261 614t-733 217q-300 0-585-72-284-72-546-216v532q315 122 612 182 297 61 578 61 760 0 1135-394 375-393 375-1193" transform="scale(.01563)"/><path id="DejaVuSans-74" d="M1172 4494v-994h1184v-447H1172V1153q0-428 117-550t477-122h590V0h-590q-666 0-919 248-253 249-253 905v1900H172v447h422v994z" transform="scale(.01563)"/><path id="DejaVuSans-69" d="M603 3500h575V0H603zm0 1363h575v-729H603z" transform="scale(.01563)"/><path id="DejaVuSans-28" d="M1984 4856q-418-718-622-1422-203-703-203-1425 0-721 205-1429t620-1424h-500Q1016-109 783 600T550 2009q0 697 231 1403 232 707 703 1444z" transform="scale(.01563)"/><path id="DejaVuSans-29" d="M513 4856h500q468-737 701-1444 233-706 233-1403 0-700-233-1409T1013-844H513q415 716 620 1424t205 1429q0 722-205 1425-205 704-620 1422" transform="scale(.01563)"/></defs><use xlink:href="#DejaVuSans-44"/><use xlink:href="#DejaVuSans-75" x="77.002"/><use xlink:href="#DejaVuSans-72" x="140.381"/><use xlink:href="#DejaVuSans-61" x="181.494"/><use xlink:href="#DejaVuSans-74" x="242.773"/><use xlink:href="#DejaVuSans-69" x="281.982"/><use xlink:href="#DejaVuSans-6f" x="309.766"/><use xlink:href="#DejaVuSans-6e" x="370.947"/><use xlink:href="#DejaVuSans-28" x="466.113"/><use xlink:href="#DejaVuSans-73" x="505.127"/><use xlink:href="#DejaVuSans-29" x="557.227"/></g></g><path id="LineCollection_1" d="M89.91 108.35v-.047" clip-path="url(#pb7c88f53f5)" style="fill:none;stroke:#000"/><g id="line2d_6"><defs><path id="m9b5e48476e" d="M3 0h-6" style="stroke:#000"/></defs><g clip-path="url(#pb7c88f53f5)"><use xlink:href="#m9b5e48476e" x="89.909" y="108.351" style="stroke:#000"/></g></g><g id="line2d_7" clip-path="url(#pb7c88f53f5)"><use xlink:href="#m9b5e48476e" x="89.909" y="108.303" style="stroke:#000"/></g><path id="LineCollection_2" d="M103.826 107.551v-.539" clip-path="url(#pb7c88f53f5)" style="fill:none;stroke:#000"/><g id="line2d_8" clip-path="url(#pb7c88f53f5)"><use xlink:href="#m9b5e48476e" x="103.826" y="107.551" style="stroke:#000"/></g><g id="line2d_9" clip-path="url(#pb7c88f53f5)"><use xlink:href="#m9b5e48476e" x="103.826" y="107.012" style="stroke:#000"/></g><path id="LineCollection_3" d="M117.743 107.043v-.427" clip-path="url(#pb7c88f53f5)" style="fill:none;stroke:#000"/><g id="line2d_10" clip-path="url(#pb7c88f53f5)"><use xlink:href="#m9b5e48476e" x="117.743" y="107.043" style="stroke:#000"/></g><g id="line2d_11" clip-path="url(#pb7c88f53f5)"><use xlink:href="#m9b5e48476e" x="117.743" y="106.616" style="stroke:#000"/></g><path id="LineCollection_4" d="M131.66 88.15v-5.624" clip-path="url(#pb7c88f53f5)" style="fill:none;stroke:#000"/><g id="line2d_12" clip-path="url(#pb7c88f53f5)"><use xlink:href="#m9b5e48476e" x="131.661" y="88.151" style="stroke:#000"/></g><g id="line2d_13" clip-path="url(#pb7c88f53f5)"><use xlink:href="#m9b5e48476e" x="131.661" y="82.526" style="stroke:#000"/></g><path id="LineCollection_5" d="M145.578 84.475v-2.149" clip-path="url(#pb7c88f53f5)" style="fill:none;stroke:#000"/><g id="line2d_14" clip-path="url(#pb7c88f53f5)"><use xlink:href="#m9b5e48476e" x="145.578" y="84.475" style="stroke:#000"/></g><g id="line2d_15" clip-path="url(#pb7c88f53f5)"><use xlink:href="#m9b5e48476e" x="145.578" y="82.326" style="stroke:#000"/></g><path id="LineCollection_6" d="M159.495 48.147V13.393" clip-path="url(#pb7c88f53f5)" style="fill:none;stroke:#000"/><g id="line2d_16" clip-path="url(#pb7c88f53f5)"><use xlink:href="#m9b5e48476e" x="159.495" y="48.147" style="stroke:#000"/></g><g id="line2d_17" clip-path="url(#pb7c88f53f5)"><use xlink:href="#m9b5e48476e" x="159.495" y="13.393" style="stroke:#000"/></g><path id="LineCollection_7" d="M173.412 39.705V12.027" clip-path="url(#pb7c88f53f5)" style="fill:none;stroke:#000"/><g id="line2d_18" clip-path="url(#pb7c88f53f5)"><use xlink:href="#m9b5e48476e" x="173.412" y="39.705" style="stroke:#000"/></g><g id="line2d_19" clip-path="url(#pb7c88f53f5)"><use xlink:href="#m9b5e48476e" x="173.412" y="12.027" style="stroke:#000"/></g><path id="patch_10" d="M34.24 108.56V7.2" style="fill:none;stroke:#000;stroke-width:.8;stroke-linejoin:miter;stroke-linecap:square"/><path id="patch_11" d="M229.08 108.56V7.2" style="fill:none;stroke:#000;stroke-width:.8;stroke-linejoin:miter;stroke-linecap:square"/><path id="patch_12" d="M34.24 108.56h194.84" style="fill:none;stroke:#000;stroke-width:.8;stroke-linejoin:miter;stroke-linecap:square"/><path id="patch_13" d="M34.24 7.2h194.84" style="fill:none;stroke:#000;stroke-width:.8;stroke-linejoin:miter;stroke-linecap:square"/><g id="legend_1"><path id="patch_14" d="M40.066 215.056h183.19q2 0 2-2v-57.713q0-2-2-2H40.065q-2 0-2 2v57.713q0 2 2 2z" style="fill:#fff;opacity:.8;stroke:#ccc;stroke-linejoin:miter"/><path id="patch_15" d="M42.066 164.942h20v-7h-20z" style="fill:#006ba4"/><g id="text_8" transform="matrix(.1 0 0 -.1 70.066 164.942)"><defs><path id="DejaVuSans-4d" d="M628 4666h941l1190-3175 1197 3175h941V0h-616v4097L3078 897h-634L1241 4097V0H628z" transform="scale(.01563)"/><path id="DejaVuSans-4c" d="M628 4666h631V531h2272V0H628z" transform="scale(.01563)"/><path id="DejaVuSans-71" d="M947 1747q0-634 261-995t717-361 718 361q263 361 263 995t-263 995q-262 361-718 361t-717-361-261-995M2906 525q-181-312-458-464-276-152-664-152-634 0-1033 506-398 507-398 1332t398 1331q399 506 1033 506 388 0 664-152 277-151 458-463v531h575v-4831h-575z" transform="scale(.01563)"/></defs><use xlink:href="#DejaVuSans-4d"/><use xlink:href="#DejaVuSans-4c" x="86.279"/><use xlink:href="#DejaVuSans-74" x="141.992"/><use xlink:href="#DejaVuSans-72" x="181.201"/><use xlink:href="#DejaVuSans-61" x="222.314"/><use xlink:href="#DejaVuSans-71" x="283.594"/></g><path id="patch_16" d="M42.066 179.62h20v-7h-20z" style="fill:#ff800e"/><g id="text_9" transform="matrix(.1 0 0 -.1 70.066 179.62)"><defs><path id="DejaVuSans-70" d="M1159 525v-1856H581v4831h578v-531q182 312 458 463 277 152 661 152 638 0 1036-506 399-506 399-1331T3314 415Q2916-91 2278-91q-384 0-661 152-276 152-458 464m1957 1222q0 634-261 995t-717 361q-457 0-718-361t-261-995 261-995 718-361q456 0 717 361t261 995" transform="scale(.01563)"/></defs><use xlink:href="#DejaVuSans-4e"/><use xlink:href="#DejaVuSans-65" x="74.805"/><use xlink:href="#DejaVuSans-70" x="136.328"/><use xlink:href="#DejaVuSans-74" x="199.805"/><use xlink:href="#DejaVuSans-75" x="239.014"/><use xlink:href="#DejaVuSans-6e" x="302.393"/><use xlink:href="#DejaVuSans-65" x="365.771"/></g><path id="patch_17" d="M42.066 194.298h20v-7h-20z" style="fill:#ababab"/><g id="text_10" transform="matrix(.1 0 0 -.1 70.066 194.298)"><defs><path id="DejaVuSans-43" d="M4122 4306v-665q-319 297-680 443-361 147-767 147-800 0-1225-489t-425-1414q0-922 425-1411t1225-489q406 0 767 147t680 444V359q-331-225-702-338-370-112-782-112-1060 0-1670 648-609 649-609 1771 0 1125 609 1773 610 649 1670 649 418 0 788-111 371-111 696-333" transform="scale(.01563)"/></defs><use xlink:href="#DejaVuSans-43"/><use xlink:href="#DejaVuSans-6f" x="69.824"/><use xlink:href="#DejaVuSans-6d" x="131.006"/><use xlink:href="#DejaVuSans-65" x="228.418"/><use xlink:href="#DejaVuSans-74" x="289.941"/></g><path id="patch_18" d="M42.066 208.976h20v-7h-20z" style="fill:#595959"/><g id="text_11" transform="matrix(.1 0 0 -.1 70.066 208.976)"><defs><path id="DejaVuSans-41" d="m2188 4044-857-2322h1716zm-357 622h716L4325 0h-656l-425 1197H1141L716 0H50z" transform="scale(.01563)"/></defs><use xlink:href="#DejaVuSans-41"/><use xlink:href="#DejaVuSans-69" x="68.408"/><use xlink:href="#DejaVuSans-6d" x="96.191"/></g><path id="patch_19" d="M132.797 164.942h20v-7h-20z" style="fill:#5f9ed1"/><g id="text_12" transform="matrix(.1 0 0 -.1 160.797 164.942)"><defs><path id="DejaVuSans-57" d="M213 4666h637l981-3944 978 3944h710l981-3944 978 3944h641L4947 0h-794l-984 4050L2175 0h-794z" transform="scale(.01563)"/><path id="DejaVuSans-64" d="M2906 2969v1894h575V0h-575v525q-181-312-458-464-276-152-664-152-634 0-1033 506-398 507-398 1332t398 1331q399 506 1033 506 388 0 664-152 277-151 458-463M947 1747q0-634 261-995t717-361 718 361q263 361 263 995t-263 995q-262 361-718 361t-717-361-261-995" transform="scale(.01563)"/><path id="DejaVuSans-42" d="M1259 2228V519h1013q509 0 754 211 246 211 246 645 0 438-246 645-245 208-754 208zm0 1919V2741h935q462 0 688 173 227 174 227 530 0 353-227 528-226 175-688 175zm-631 519h1613q722 0 1112-300 391-300 391-853 0-429-200-682t-588-315q466-100 724-418 258-317 258-792 0-625-425-966Q3088 0 2303 0H628z" transform="scale(.01563)"/></defs><use xlink:href="#DejaVuSans-57"/><use xlink:href="#DejaVuSans-61" x="92.502"/><use xlink:href="#DejaVuSans-6e" x="153.781"/><use xlink:href="#DejaVuSans-64" x="217.16"/><use xlink:href="#DejaVuSans-42" x="280.637"/></g><path id="patch_20" d="M132.797 179.62h20v-7h-20z" style="fill:#c85200"/><g id="text_13" transform="matrix(.1 0 0 -.1 160.797 179.62)"><defs><path id="DejaVuSans-46" d="M628 4666h2681v-532H1259V2759h1850v-531H1259V0H628z" transform="scale(.01563)"/><path id="DejaVuSans-54" d="M-19 4666h3947v-532H2272V0h-634v4134H-19z" transform="scale(.01563)"/><path id="DejaVuSans-63" d="M3122 3366v-538q-244 135-489 202t-495 67q-560 0-870-355-309-354-309-995t309-996q310-354 870-354 250 0 495 67t489 202V134Q2881 22 2623-34q-257-57-548-57-791 0-1257 497-465 497-465 1341 0 856 470 1346 471 491 1290 491 265 0 518-55 253-54 491-163" transform="scale(.01563)"/><path id="DejaVuSans-6b" d="M581 4863h578V1991l1716 1509h734L1753 1863 3688 0h-750L1159 1709V0H581z" transform="scale(.01563)"/></defs><use xlink:href="#DejaVuSans-46"/><use xlink:href="#DejaVuSans-61" x="48.395"/><use xlink:href="#DejaVuSans-73" x="109.674"/><use xlink:href="#DejaVuSans-74" x="161.773"/><use xlink:href="#DejaVuSans-54" x="200.982"/><use xlink:href="#DejaVuSans-72" x="247.316"/><use xlink:href="#DejaVuSans-61" x="288.43"/><use xlink:href="#DejaVuSans-63" x="349.709"/><use xlink:href="#DejaVuSans-6b" x="404.689"/><use xlink:href="#DejaVuSans-4d" x="462.6"/><use xlink:href="#DejaVuSans-4c" x="548.879"/></g><path id="patch_21" d="M132.797 194.298h20v-7h-20z" style="fill:#898989"/><g id="text_14" transform="matrix(.1 0 0 -.1 160.797 194.298)"><defs><path id="DejaVuSans-6c" d="M603 4863h575V0H603z" transform="scale(.01563)"/><path id="DejaVuSans-77" d="M269 3500h575l719-2731 715 2731h678l719-2731 716 2731h575L4050 0h-678l-753 2869L1863 0h-679z" transform="scale(.01563)"/></defs><use xlink:href="#DejaVuSans-4d"/><use xlink:href="#DejaVuSans-4c" x="86.279"/><use xlink:href="#DejaVuSans-66" x="141.992"/><use xlink:href="#DejaVuSans-6c" x="177.197"/><use xlink:href="#DejaVuSans-6f" x="204.98"/><use xlink:href="#DejaVuSans-77" x="266.162"/></g></g></g><g id="axes_2"><path id="patch_22" d="M270.64 108.56h194.84V7.2H270.64z" style="fill:#fff"/><path id="patch_23" d="M286.877 108.56h4.64v-.09h-4.64z" clip-path="url(#p5beb2338af)" style="fill:#006ba4"/><path id="patch_24" d="M351.824 108.56h4.639v-.077h-4.639z" clip-path="url(#p5beb2338af)" style="fill:#006ba4"/><path id="patch_25" d="M416.77 108.56h4.64v-.154h-4.64z" clip-path="url(#p5beb2338af)" style="fill:#006ba4"/><path id="patch_26" d="M291.516 108.56h4.64v-.045h-4.64z" clip-path="url(#p5beb2338af)" style="fill:#ff800e"/><path id="patch_27" d="M356.463 108.56h4.64v-.204h-4.64z" clip-path="url(#p5beb2338af)" style="fill:#ff800e"/><path id="patch_28" d="M421.41 108.56h4.639v-1.515h-4.64z" clip-path="url(#p5beb2338af)" style="fill:#ff800e"/><path id="patch_29" d="M296.155 108.56h4.64v-.39h-4.64z" clip-path="url(#p5beb2338af)" style="fill:#ababab"/><path id="patch_30" d="M361.102 108.56h4.64v-.457h-4.64z" clip-path="url(#p5beb2338af)" style="fill:#ababab"/><path id="patch_31" d="M426.049 108.56h4.639v-1.54h-4.64z" clip-path="url(#p5beb2338af)" style="fill:#ababab"/><path id="patch_32" d="M300.794 108.56h4.64v-5.189h-4.64z" clip-path="url(#p5beb2338af)" style="fill:#595959"/><path id="patch_33" d="M365.741 108.56h4.64v-6.366h-4.64z" clip-path="url(#p5beb2338af)" style="fill:#595959"/><path id="patch_34" d="M430.688 108.56h4.639V88.08h-4.64z" clip-path="url(#p5beb2338af)" style="fill:#595959"/><path id="patch_35" d="M305.433 108.56h4.64V98.04h-4.64z" clip-path="url(#p5beb2338af)" style="fill:#5f9ed1"/><path id="patch_36" d="M370.38 108.56h4.64V97.061h-4.64z" clip-path="url(#p5beb2338af)" style="fill:#5f9ed1"/><path id="patch_37" d="M435.327 108.56h4.639V95.87h-4.64z" clip-path="url(#p5beb2338af)" style="fill:#5f9ed1"/><path id="patch_38" d="M310.073 108.56h4.639v-1.097h-4.64z" clip-path="url(#p5beb2338af)" style="fill:#c85200"/><path id="patch_39" d="M375.02 108.56h4.638v-9.798h-4.639z" clip-path="url(#p5beb2338af)" style="fill:#c85200"/><path id="patch_40" d="M439.966 108.56h4.639V12.142h-4.64z" clip-path="url(#p5beb2338af)" style="fill:#c85200"/><path id="patch_41" d="M314.712 108.56h4.639v-9.681h-4.64z" clip-path="url(#p5beb2338af)" style="fill:#898989"/><path id="patch_42" d="M379.658 108.56h4.64V90.406h-4.64z" clip-path="url(#p5beb2338af)" style="fill:#898989"/><path id="patch_43" d="M444.605 108.56h4.639V22.317h-4.64z" clip-path="url(#p5beb2338af)" style="fill:#898989"/><g id="matplotlib.axis_3"><g id="xtick_2"><use xlink:href="#m50a6e3f54d" id="line2d_20" x="303.114" y="108.56" style="stroke:#000;stroke-width:.8"/><g id="text_15" transform="matrix(.1 0 0 -.1 293.57 123.158)"><use xlink:href="#DejaVuSans-31"/><use xlink:href="#DejaVuSans-30" x="63.623"/><use xlink:href="#DejaVuSans-30" x="127.246"/></g></g><g id="xtick_3"><use xlink:href="#m50a6e3f54d" id="line2d_21" x="368.061" y="108.56" style="stroke:#000;stroke-width:.8"/><g id="text_16" transform="matrix(.1 0 0 -.1 355.336 123.158)"><use xlink:href="#DejaVuSans-31"/><use xlink:href="#DejaVuSans-30" x="63.623"/><use xlink:href="#DejaVuSans-30" x="127.246"/><use xlink:href="#DejaVuSans-30" x="190.869"/></g></g><g id="xtick_4"><use xlink:href="#m50a6e3f54d" id="line2d_22" x="433.007" y="108.56" style="stroke:#000;stroke-width:.8"/><g id="text_17" transform="matrix(.1 0 0 -.1 417.101 123.158)"><use xlink:href="#DejaVuSans-31"/><use xlink:href="#DejaVuSans-30" x="63.623"/><use xlink:href="#DejaVuSans-30" x="127.246"/><use xlink:href="#DejaVuSans-30" x="190.869"/><use xlink:href="#DejaVuSans-30" x="254.492"/></g></g><g id="text_18" transform="matrix(.1 0 0 -.1 323.715 136.837)"><defs><path id="DejaVuSans-76" d="M191 3500h609L1894 563l1094 2937h609L2284 0h-781z" transform="scale(.01563)"/></defs><use xlink:href="#DejaVuSans-4e"/><use xlink:href="#DejaVuSans-75" x="74.805"/><use xlink:href="#DejaVuSans-6d" x="138.184"/><use xlink:href="#DejaVuSans-62" x="235.596"/><use xlink:href="#DejaVuSans-65" x="299.072"/><use xlink:href="#DejaVuSans-72" x="360.596"/><use xlink:href="#DejaVuSans-6f" x="433.496"/><use xlink:href="#DejaVuSans-66" x="494.678"/><use xlink:href="#DejaVuSans-76" x="561.67"/><use xlink:href="#DejaVuSans-61" x="620.85"/><use xlink:href="#DejaVuSans-6c" x="682.129"/><use xlink:href="#DejaVuSans-75" x="709.912"/><use xlink:href="#DejaVuSans-65" x="773.291"/><use xlink:href="#DejaVuSans-73" x="834.814"/></g></g><g id="matplotlib.axis_4"><g id="ytick_5"><use xlink:href="#m66f0563b54" id="line2d_23" x="270.641" y="108.56" style="stroke:#000;stroke-width:.8"/><use xlink:href="#DejaVuSans-30" id="text_19" transform="matrix(.1 0 0 -.1 257.278 112.36)"/></g><g id="ytick_6"><use xlink:href="#m66f0563b54" id="line2d_24" x="270.641" y="76.171" style="stroke:#000;stroke-width:.8"/><g id="text_20" transform="matrix(.1 0 0 -.1 257.278 79.97)"><defs><path id="DejaVuSans-35" d="M691 4666h2478v-532H1269V2991q137 47 274 70 138 23 276 23 781 0 1237-428 457-428 457-1159 0-753-469-1171Q2575-91 1722-91q-294 0-599 50Q819 9 494 109v635q281-153 581-228t634-75q541 0 856 284 316 284 316 772 0 487-316 771-315 285-856 285-253 0-505-56-251-56-513-175z" transform="scale(.01563)"/></defs><use xlink:href="#DejaVuSans-35"/></g></g><g id="ytick_7"><use xlink:href="#m66f0563b54" id="line2d_25" x="270.641" y="43.783" style="stroke:#000;stroke-width:.8"/><g id="text_21" transform="matrix(.1 0 0 -.1 250.916 47.582)"><use xlink:href="#DejaVuSans-31"/><use xlink:href="#DejaVuSans-30" x="63.623"/></g></g><g id="ytick_8"><use xlink:href="#m66f0563b54" id="line2d_26" x="270.641" y="11.394" style="stroke:#000;stroke-width:.8"/><g id="text_22" transform="matrix(.1 0 0 -.1 250.916 15.193)"><use xlink:href="#DejaVuSans-31"/><use xlink:href="#DejaVuSans-35" x="63.623"/></g></g></g><g id="LineCollection_8"><path d="M289.197 108.484v-.029M354.143 108.497v-.029M419.09 108.425v-.038" clip-path="url(#p5beb2338af)" style="fill:none;stroke:#000"/></g><g id="line2d_27" clip-path="url(#p5beb2338af)"><use xlink:href="#m9b5e48476e" x="289.197" y="108.484" style="stroke:#000"/><use xlink:href="#m9b5e48476e" x="354.143" y="108.497" style="stroke:#000"/><use xlink:href="#m9b5e48476e" x="419.09" y="108.425" style="stroke:#000"/></g><g id="line2d_28" clip-path="url(#p5beb2338af)"><use xlink:href="#m9b5e48476e" x="289.197" y="108.455" style="stroke:#000"/><use xlink:href="#m9b5e48476e" x="354.143" y="108.468" style="stroke:#000"/><use xlink:href="#m9b5e48476e" x="419.09" y="108.387" style="stroke:#000"/></g><g id="LineCollection_9"><path d="M293.836 108.523v-.015M358.783 108.375v-.037M423.73 107.103v-.117" clip-path="url(#p5beb2338af)" style="fill:none;stroke:#000"/></g><g id="line2d_29" clip-path="url(#p5beb2338af)"><use xlink:href="#m9b5e48476e" x="293.836" y="108.523" style="stroke:#000"/><use xlink:href="#m9b5e48476e" x="358.783" y="108.375" style="stroke:#000"/><use xlink:href="#m9b5e48476e" x="423.729" y="107.103" style="stroke:#000"/></g><g id="line2d_30" clip-path="url(#p5beb2338af)"><use xlink:href="#m9b5e48476e" x="293.836" y="108.508" style="stroke:#000"/><use xlink:href="#m9b5e48476e" x="358.783" y="108.338" style="stroke:#000"/><use xlink:href="#m9b5e48476e" x="423.729" y="106.986" style="stroke:#000"/></g><g id="LineCollection_10"><path d="M298.475 108.175v-.01M363.422 108.117v-.029M428.368 107.044v-.047" clip-path="url(#p5beb2338af)" style="fill:none;stroke:#000"/></g><g id="line2d_31" clip-path="url(#p5beb2338af)"><use xlink:href="#m9b5e48476e" x="298.475" y="108.175" style="stroke:#000"/><use xlink:href="#m9b5e48476e" x="363.422" y="108.117" style="stroke:#000"/><use xlink:href="#m9b5e48476e" x="428.368" y="107.044" style="stroke:#000"/></g><g id="line2d_32" clip-path="url(#p5beb2338af)"><use xlink:href="#m9b5e48476e" x="298.475" y="108.165" style="stroke:#000"/><use xlink:href="#m9b5e48476e" x="363.422" y="108.088" style="stroke:#000"/><use xlink:href="#m9b5e48476e" x="428.368" y="106.997" style="stroke:#000"/></g><g id="LineCollection_11"><path d="M303.114 103.466v-.19M368.06 102.324v-.26M433.007 88.3v-.44" clip-path="url(#p5beb2338af)" style="fill:none;stroke:#000"/></g><g id="line2d_33" clip-path="url(#p5beb2338af)"><use xlink:href="#m9b5e48476e" x="303.114" y="103.466" style="stroke:#000"/><use xlink:href="#m9b5e48476e" x="368.061" y="102.324" style="stroke:#000"/><use xlink:href="#m9b5e48476e" x="433.007" y="88.301" style="stroke:#000"/></g><g id="line2d_34" clip-path="url(#p5beb2338af)"><use xlink:href="#m9b5e48476e" x="303.114" y="103.276" style="stroke:#000"/><use xlink:href="#m9b5e48476e" x="368.061" y="102.064" style="stroke:#000"/><use xlink:href="#m9b5e48476e" x="433.007" y="87.86" style="stroke:#000"/></g><g id="LineCollection_12"><path d="M307.753 98.651v-1.22M372.7 97.96v-1.797M437.646 96.827v-1.914" clip-path="url(#p5beb2338af)" style="fill:none;stroke:#000"/></g><g id="line2d_35" clip-path="url(#p5beb2338af)"><use xlink:href="#m9b5e48476e" x="307.753" y="98.651" style="stroke:#000"/><use xlink:href="#m9b5e48476e" x="372.7" y="97.96" style="stroke:#000"/><use xlink:href="#m9b5e48476e" x="437.646" y="96.827" style="stroke:#000"/></g><g id="line2d_36" clip-path="url(#p5beb2338af)"><use xlink:href="#m9b5e48476e" x="307.753" y="97.43" style="stroke:#000"/><use xlink:href="#m9b5e48476e" x="372.7" y="96.163" style="stroke:#000"/><use xlink:href="#m9b5e48476e" x="437.646" y="94.913" style="stroke:#000"/></g><g id="LineCollection_13"><path d="M312.392 107.49v-.053M377.339 98.79v-.056M442.285 12.258v-.231" clip-path="url(#p5beb2338af)" style="fill:none;stroke:#000"/></g><g id="line2d_37" clip-path="url(#p5beb2338af)"><use xlink:href="#m9b5e48476e" x="312.392" y="107.49" style="stroke:#000"/><use xlink:href="#m9b5e48476e" x="377.339" y="98.79" style="stroke:#000"/><use xlink:href="#m9b5e48476e" x="442.285" y="12.258" style="stroke:#000"/></g><g id="line2d_38" clip-path="url(#p5beb2338af)"><use xlink:href="#m9b5e48476e" x="312.392" y="107.437" style="stroke:#000"/><use xlink:href="#m9b5e48476e" x="377.339" y="98.734" style="stroke:#000"/><use xlink:href="#m9b5e48476e" x="442.285" y="12.027" style="stroke:#000"/></g><g id="LineCollection_14"><path d="M317.031 98.946v-.135M381.978 90.438v-.064M446.924 22.363v-.092" clip-path="url(#p5beb2338af)" style="fill:none;stroke:#000"/></g><g id="line2d_39" clip-path="url(#p5beb2338af)"><use xlink:href="#m9b5e48476e" x="317.031" y="98.946" style="stroke:#000"/><use xlink:href="#m9b5e48476e" x="381.978" y="90.438" style="stroke:#000"/><use xlink:href="#m9b5e48476e" x="446.924" y="22.363" style="stroke:#000"/></g><g id="line2d_40" clip-path="url(#p5beb2338af)"><use xlink:href="#m9b5e48476e" x="317.031" y="98.811" style="stroke:#000"/><use xlink:href="#m9b5e48476e" x="381.978" y="90.374" style="stroke:#000"/><use xlink:href="#m9b5e48476e" x="446.924" y="22.271" style="stroke:#000"/></g><path id="patch_44" d="M270.64 108.56V7.2" style="fill:none;stroke:#000;stroke-width:.8;stroke-linejoin:miter;stroke-linecap:square"/><path id="patch_45" d="M465.48 108.56V7.2" style="fill:none;stroke:#000;stroke-width:.8;stroke-linejoin:miter;stroke-linecap:square"/><path id="patch_46" d="M270.64 108.56h194.84" style="fill:none;stroke:#000;stroke-width:.8;stroke-linejoin:miter;stroke-linecap:square"/><path id="patch_47" d="M270.64 7.2h194.84" style="fill:none;stroke:#000;stroke-width:.8;stroke-linejoin:miter;stroke-linecap:square"/><g id="legend_2"><path id="patch_48" d="M276.466 215.056h183.19q2 0 2-2v-57.713q0-2-2-2h-183.19q-2 0-2 2v57.713q0 2 2 2z" style="fill:#fff;opacity:.8;stroke:#ccc;stroke-linejoin:miter"/><path id="patch_49" d="M278.466 164.942h20v-7h-20z" style="fill:#006ba4"/><g id="text_23" transform="matrix(.1 0 0 -.1 306.466 164.942)"><use xlink:href="#DejaVuSans-4d"/><use xlink:href="#DejaVuSans-4c" x="86.279"/><use xlink:href="#DejaVuSans-74" x="141.992"/><use xlink:href="#DejaVuSans-72" x="181.201"/><use xlink:href="#DejaVuSans-61" x="222.314"/><use xlink:href="#DejaVuSans-71" x="283.594"/></g><path id="patch_50" d="M278.466 179.62h20v-7h-20z" style="fill:#ff800e"/><g id="text_24" transform="matrix(.1 0 0 -.1 306.466 179.62)"><use xlink:href="#DejaVuSans-4e"/><use xlink:href="#DejaVuSans-65" x="74.805"/><use xlink:href="#DejaVuSans-70" x="136.328"/><use xlink:href="#DejaVuSans-74" x="199.805"/><use xlink:href="#DejaVuSans-75" x="239.014"/><use xlink:href="#DejaVuSans-6e" x="302.393"/><use xlink:href="#DejaVuSans-65" x="365.771"/></g><path id="patch_51" d="M278.466 194.298h20v-7h-20z" style="fill:#ababab"/><g id="text_25" transform="matrix(.1 0 0 -.1 306.466 194.298)"><use xlink:href="#DejaVuSans-43"/><use xlink:href="#DejaVuSans-6f" x="69.824"/><use xlink:href="#DejaVuSans-6d" x="131.006"/><use xlink:href="#DejaVuSans-65" x="228.418"/><use xlink:href="#DejaVuSans-74" x="289.941"/></g><path id="patch_52" d="M278.466 208.976h20v-7h-20z" style="fill:#595959"/><g id="text_26" transform="matrix(.1 0 0 -.1 306.466 208.976)"><use xlink:href="#DejaVuSans-41"/><use xlink:href="#DejaVuSans-69" x="68.408"/><use xlink:href="#DejaVuSans-6d" x="96.191"/></g><path id="patch_53" d="M369.197 164.942h20v-7h-20z" style="fill:#5f9ed1"/><g id="text_27" transform="matrix(.1 0 0 -.1 397.197 164.942)"><use xlink:href="#DejaVuSans-57"/><use xlink:href="#DejaVuSans-61" x="92.502"/><use xlink:href="#DejaVuSans-6e" x="153.781"/><use xlink:href="#DejaVuSans-64" x="217.16"/><use xlink:href="#DejaVuSans-42" x="280.637"/></g><path id="patch_54" d="M369.197 179.62h20v-7h-20z" style="fill:#c85200"/><g id="text_28" transform="matrix(.1 0 0 -.1 397.197 179.62)"><use xlink:href="#DejaVuSans-46"/><use xlink:href="#DejaVuSans-61" x="48.395"/><use xlink:href="#DejaVuSans-73" x="109.674"/><use xlink:href="#DejaVuSans-74" x="161.773"/><use xlink:href="#DejaVuSans-54" x="200.982"/><use xlink:href="#DejaVuSans-72" x="247.316"/><use xlink:href="#DejaVuSans-61" x="288.43"/><use xlink:href="#DejaVuSans-63" x="349.709"/><use xlink:href="#DejaVuSans-6b" x="404.689"/><use xlink:href="#DejaVuSans-4d" x="462.6"/><use xlink:href="#DejaVuSans-4c" x="548.879"/></g><path id="patch_55" d="M369.197 194.298h20v-7h-20z" style="fill:#898989"/><g id="text_29" transform="matrix(.1 0 0 -.1 397.197 194.298)"><use xlink:href="#DejaVuSans-4d"/><use xlink:href="#DejaVuSans-4c" x="86.279"/><use xlink:href="#DejaVuSans-66" x="141.992"/><use xlink:href="#DejaVuSans-6c" x="177.197"/><use xlink:href="#DejaVuSans-6f" x="204.98"/><use xlink:href="#DejaVuSans-77" x="266.162"/></g></g></g><g id="axes_3"><path id="patch_56" d="M507.04 108.56h194.84V7.2H507.04z" style="fill:#fff"/><path id="patch_57" d="M514 108.56h13.916v-.233H514z" clip-path="url(#p3c26846ffa)" style="fill:#006ba4"/><path id="patch_58" d="M541.833 108.56h13.918v-1.278h-13.918z" clip-path="url(#p3c26846ffa)" style="fill:#006ba4"/><path id="patch_59" d="M569.668 108.56h13.917v-1.73h-13.917z" clip-path="url(#p3c26846ffa)" style="fill:#006ba4"/><path id="patch_60" d="M597.502 108.56h13.917V85.338h-13.917z" clip-path="url(#p3c26846ffa)" style="fill:#006ba4"/><path id="patch_61" d="M625.336 108.56h13.917V83.4h-13.917z" clip-path="url(#p3c26846ffa)" style="fill:#006ba4"/><path id="patch_62" d="M653.17 108.56h13.918V30.77H653.17z" clip-path="url(#p3c26846ffa)" style="fill:#006ba4"/><path id="patch_63" d="M681.005 108.56h13.917V25.866h-13.917z" clip-path="url(#p3c26846ffa)" style="fill:#006ba4"/><g id="matplotlib.axis_5"><g id="xtick_5"><use xlink:href="#m50a6e3f54d" id="line2d_41" x="520.958" y="108.56" style="stroke:#000;stroke-width:.8"/><g id="text_30" transform="scale(.1 -.1)rotate(45 4309.228 5436.57)"><use xlink:href="#DejaVuSans-4d"/><use xlink:href="#DejaVuSans-4c" x="86.279"/><use xlink:href="#DejaVuSans-74" x="141.992"/><use xlink:href="#DejaVuSans-72" x="181.201"/><use xlink:href="#DejaVuSans-61" x="222.314"/><use xlink:href="#DejaVuSans-71" x="283.594"/></g></g><g id="xtick_6"><use xlink:href="#m50a6e3f54d" id="line2d_42" x="548.792" y="108.56" style="stroke:#000;stroke-width:.8"/><g id="text_31" transform="scale(.1 -.1)rotate(45 4502.7 5709.95)"><use xlink:href="#DejaVuSans-4e"/><use xlink:href="#DejaVuSans-65" x="74.805"/><use xlink:href="#DejaVuSans-70" x="136.328"/><use xlink:href="#DejaVuSans-74" x="199.805"/><use xlink:href="#DejaVuSans-75" x="239.014"/><use xlink:href="#DejaVuSans-6e" x="302.393"/><use xlink:href="#DejaVuSans-65" x="365.771"/></g></g><g id="xtick_7"><use xlink:href="#m50a6e3f54d" id="line2d_43" x="576.626" y="108.56" style="stroke:#000;stroke-width:.8"/><g id="text_32" transform="scale(.1 -.1)rotate(45 4575.442 6122.533)"><use xlink:href="#DejaVuSans-43"/><use xlink:href="#DejaVuSans-6f" x="69.824"/><use xlink:href="#DejaVuSans-6d" x="131.006"/><use xlink:href="#DejaVuSans-65" x="228.418"/><use xlink:href="#DejaVuSans-74" x="289.941"/></g></g><g id="xtick_8"><use xlink:href="#m50a6e3f54d" id="line2d_44" x="604.461" y="108.56" style="stroke:#000;stroke-width:.8"/><g id="text_33" transform="scale(.1 -.1)rotate(45 4622.868 6564.306)"><use xlink:href="#DejaVuSans-41"/><use xlink:href="#DejaVuSans-69" x="68.408"/><use xlink:href="#DejaVuSans-6d" x="96.191"/></g></g><g id="xtick_9"><use xlink:href="#m50a6e3f54d" id="line2d_45" x="632.295" y="108.56" style="stroke:#000;stroke-width:.8"/><g id="text_34" transform="scale(.1 -.1)rotate(45 4867.384 6778.833)"><use xlink:href="#DejaVuSans-57"/><use xlink:href="#DejaVuSans-61" x="92.502"/><use xlink:href="#DejaVuSans-6e" x="153.781"/><use xlink:href="#DejaVuSans-64" x="217.16"/><use xlink:href="#DejaVuSans-42" x="280.637"/></g></g><g id="xtick_10"><use xlink:href="#m50a6e3f54d" id="line2d_46" x="660.129" y="108.56" style="stroke:#000;stroke-width:.8"/><g id="text_35" transform="scale(.1 -.1)rotate(45 5179.356 6915.582)"><use xlink:href="#DejaVuSans-46"/><use xlink:href="#DejaVuSans-61" x="48.395"/><use xlink:href="#DejaVuSans-73" x="109.674"/><use xlink:href="#DejaVuSans-74" x="161.773"/><use xlink:href="#DejaVuSans-54" x="200.982"/><use xlink:href="#DejaVuSans-72" x="247.316"/><use xlink:href="#DejaVuSans-61" x="288.43"/><use xlink:href="#DejaVuSans-63" x="349.709"/><use xlink:href="#DejaVuSans-6b" x="404.689"/><use xlink:href="#DejaVuSans-4d" x="462.6"/><use xlink:href="#DejaVuSans-4c" x="548.879"/></g></g><g id="xtick_11"><use xlink:href="#m50a6e3f54d" id="line2d_47" x="687.963" y="108.56" style="stroke:#000;stroke-width:.8"/><g id="text_36" transform="scale(.1 -.1)rotate(45 5144.85 7451.824)"><use xlink:href="#DejaVuSans-4d"/><use xlink:href="#DejaVuSans-4c" x="86.279"/><use xlink:href="#DejaVuSans-66" x="141.992"/><use xlink:href="#DejaVuSans-6c" x="177.197"/><use xlink:href="#DejaVuSans-6f" x="204.98"/><use xlink:href="#DejaVuSans-77" x="266.162"/></g></g><g id="text_37" transform="matrix(.1 0 0 -.1 585.707 176.752)"><defs><path id="DejaVuSans-68" d="M3513 2113V0h-575v2094q0 497-194 743-194 247-581 247-466 0-735-297-269-296-269-809V0H581v4863h578V2956q207 316 486 472 280 156 646 156 603 0 912-373 310-373 310-1098" transform="scale(.01563)"/></defs><use xlink:href="#DejaVuSans-4d"/><use xlink:href="#DejaVuSans-65" x="86.279"/><use xlink:href="#DejaVuSans-74" x="147.803"/><use xlink:href="#DejaVuSans-68" x="187.012"/><use xlink:href="#DejaVuSans-6f" x="250.391"/><use xlink:href="#DejaVuSans-64" x="311.572"/></g></g><g id="matplotlib.axis_6"><g id="ytick_9"><use xlink:href="#m66f0563b54" id="line2d_48" x="507.041" y="108.56" style="stroke:#000;stroke-width:.8"/><use xlink:href="#DejaVuSans-30" id="text_38" transform="matrix(.1 0 0 -.1 493.678 112.36)"/></g><g id="ytick_10"><use xlink:href="#m66f0563b54" id="line2d_49" x="507.041" y="80.386" style="stroke:#000;stroke-width:.8"/><use xlink:href="#DejaVuSans-32" id="text_39" transform="matrix(.1 0 0 -.1 493.678 84.185)"/></g><g id="ytick_11"><use xlink:href="#m66f0563b54" id="line2d_50" x="507.041" y="52.212" style="stroke:#000;stroke-width:.8"/><use xlink:href="#DejaVuSans-34" id="text_40" transform="matrix(.1 0 0 -.1 493.678 56.011)"/></g><g id="ytick_12"><use xlink:href="#m66f0563b54" id="line2d_51" x="507.041" y="24.038" style="stroke:#000;stroke-width:.8"/><use xlink:href="#DejaVuSans-36" id="text_41" transform="matrix(.1 0 0 -.1 493.678 27.837)"/></g></g><g id="LineCollection_15"><path d="M520.958 108.35v-.047M548.792 107.551v-.539M576.626 107.043v-.427M604.46 88.15v-5.624M632.295 84.475v-2.149M660.13 48.147V13.393M687.963 39.705V12.027" clip-path="url(#p3c26846ffa)" style="fill:none;stroke:#000"/></g><g id="line2d_52" clip-path="url(#p3c26846ffa)"><use xlink:href="#m9b5e48476e" x="520.958" y="108.351" style="stroke:#000"/><use xlink:href="#m9b5e48476e" x="548.792" y="107.551" style="stroke:#000"/><use xlink:href="#m9b5e48476e" x="576.626" y="107.043" style="stroke:#000"/><use xlink:href="#m9b5e48476e" x="604.461" y="88.151" style="stroke:#000"/><use xlink:href="#m9b5e48476e" x="632.295" y="84.475" style="stroke:#000"/><use xlink:href="#m9b5e48476e" x="660.129" y="48.147" style="stroke:#000"/><use xlink:href="#m9b5e48476e" x="687.963" y="39.705" style="stroke:#000"/></g><g id="line2d_53" clip-path="url(#p3c26846ffa)"><use xlink:href="#m9b5e48476e" x="520.958" y="108.303" style="stroke:#000"/><use xlink:href="#m9b5e48476e" x="548.792" y="107.012" style="stroke:#000"/><use xlink:href="#m9b5e48476e" x="576.626" y="106.616" style="stroke:#000"/><use xlink:href="#m9b5e48476e" x="604.461" y="82.526" style="stroke:#000"/><use xlink:href="#m9b5e48476e" x="632.295" y="82.326" style="stroke:#000"/><use xlink:href="#m9b5e48476e" x="660.129" y="13.393" style="stroke:#000"/><use xlink:href="#m9b5e48476e" x="687.963" y="12.027" style="stroke:#000"/></g><path id="patch_64" d="M507.04 108.56V7.2" style="fill:none;stroke:#000;stroke-width:.8;stroke-linejoin:miter;stroke-linecap:square"/><path id="patch_65" d="M701.88 108.56V7.2" style="fill:none;stroke:#000;stroke-width:.8;stroke-linejoin:miter;stroke-linecap:square"/><path id="patch_66" d="M507.04 108.56h194.84" style="fill:none;stroke:#000;stroke-width:.8;stroke-linejoin:miter;stroke-linecap:square"/><path id="patch_67" d="M507.04 7.2h194.84" style="fill:none;stroke:#000;stroke-width:.8;stroke-linejoin:miter;stroke-linecap:square"/></g></g><defs><clipPath id="pb7c88f53f5"><path d="M34.241 7.2h194.84v101.36H34.241z"/></clipPath><clipPath id="p5beb2338af"><path d="M270.641 7.2h194.84v101.36h-194.84z"/></clipPath><clipPath id="p3c26846ffa"><path d="M507.041 7.2h194.84v101.36h-194.84z"/></clipPath></defs></svg>