<svg xmlns="http://www.w3.org/2000/svg" xmlns:xlink="http://www.w3.org/1999/xlink" width="953.924" height="301.117" viewBox="0 0 715.443 225.838"><defs><style>*{stroke-linejoin:round;stroke-linecap:butt}</style></defs><g id="figure_1"><path id="patch_1" d="M0 225.838h715.443V0H0z" style="fill:#fff"/><g id="axes_1"><path id="patch_2" d="M40.603 112.142h194.84V10.782H40.603z" style="fill:#fff"/><path id="patch_3" d="M64.958 112.142h24.355v-1.817H64.958z" clip-path="url(#p218aa491db)" style="fill:#006ba4"/><path id="patch_4" d="M162.378 112.142h24.355v-4.053h-24.355z" clip-path="url(#p218aa491db)" style="fill:#006ba4"/><path id="patch_5" d="M89.313 112.142h24.355V67.255H89.313z" clip-path="url(#p218aa491db)" style="fill:#ff800e"/><path id="patch_6" d="M186.733 112.142h24.355V21.947h-24.355z" clip-path="url(#p218aa491db)" style="fill:#ff800e"/><g id="matplotlib.axis_1"><g id="xtick_1"><g id="line2d_1"><defs><path id="m836f2f87ed" d="M0 0v3.5" style="stroke:#000;stroke-width:.8"/></defs><use xlink:href="#m836f2f87ed" x="89.313" y="112.142" style="stroke:#000;stroke-width:.8"/></g><g id="text_1" transform="matrix(.1 0 0 -.1 79.77 126.74)"><defs><path id="DejaVuSans-35" d="M691 4666h2478v-532H1269V2991q137 47 274 70 138 23 276 23 781 0 1237-428 457-428 457-1159 0-753-469-1171Q2575-91 1722-91q-294 0-599 50Q819 9 494 109v635q281-153 581-228t634-75q541 0 856 284 316 284 316 772 0 487-316 771-315 285-856 285-253 0-505-56-251-56-513-175z" transform="scale(.01563)"/><path id="DejaVuSans-30" d="M2034 4250q-487 0-733-480-245-479-245-1442 0-959 245-1439 246-480 733-480 491 0 736 480 246 480 246 1439 0 963-246 1442-245 480-736 480m0 500q785 0 1199-621 414-620 414-1801 0-1178-414-1799Q2819-91 2034-91q-784 0-1198 620-414 621-414 1799 0 1181 414 1801 414 621 1198 621" transform="scale(.01563)"/></defs><use xlink:href="#DejaVuSans-35"/><use xlink:href="#DejaVuSans-30" x="63.623"/><use xlink:href="#DejaVuSans-30" x="127.246"/></g></g><g id="xtick_2"><use xlink:href="#m836f2f87ed" id="line2d_2" x="186.733" y="112.142" style="stroke:#000;stroke-width:.8"/><g id="text_2" transform="matrix(.1 0 0 -.1 174.008 126.74)"><defs><path id="DejaVuSans-31" d="M794 531h1031v3560L703 3866v575l1116 225h631V531h1031V0H794z" transform="scale(.01563)"/></defs><use xlink:href="#DejaVuSans-31"/><use xlink:href="#DejaVuSans-30" x="63.623"/><use xlink:href="#DejaVuSans-30" x="127.246"/><use xlink:href="#DejaVuSans-30" x="190.869"/></g></g><g id="text_3" transform="matrix(.1 0 0 -.1 98.942 140.418)"><defs><path id="DejaVuSans-4e" d="M628 4666h850L3547 763v3903h612V0h-850L1241 3903V0H628z" transform="scale(.01563)"/><path id="DejaVuSans-75" d="M544 1381v2119h575V1403q0-497 193-746 194-248 582-248 465 0 735 297 271 297 271 810v1984h575V0h-575v538q-209-319-486-474-276-155-642-155-603 0-916 375-312 375-312 1097m1447 2203" transform="scale(.01563)"/><path id="DejaVuSans-6d" d="M3328 2828q216 388 516 572t706 184q547 0 844-383 297-382 297-1088V0h-578v2094q0 503-179 746-178 244-543 244-447 0-707-297-259-296-259-809V0h-578v2094q0 506-178 748t-550 242q-441 0-701-298-259-298-259-808V0H581v3500h578v-544q197 322 472 475t653 153q382 0 649-194 267-193 395-562" transform="scale(.01563)"/><path id="DejaVuSans-62" d="M3116 1747q0 634-261 995t-717 361q-457 0-718-361t-261-995 261-995 718-361q456 0 717 361t261 995M1159 2969q182 312 458 463 277 152 661 152 638 0 1036-506 399-506 399-1331T3314 415Q2916-91 2278-91q-384 0-661 152-276 152-458 464V0H581v4863h578z" transform="scale(.01563)"/><path id="DejaVuSans-65" d="M3597 1894v-281H953q38-594 358-905t892-311q331 0 642 81t618 244V178Q3153 47 2828-22t-659-69q-838 0-1327 487-489 488-489 1320 0 859 464 1363 464 505 1252 505 706 0 1117-455 411-454 411-1235m-575 169q-6 471-264 752-258 282-683 282-481 0-770-272t-333-766z" transform="scale(.01563)"/><path id="DejaVuSans-72" d="M2631 2963q-97 56-211 82-114 27-251 27-488 0-749-317t-261-911V0H581v3500h578v-544q182 319 472 473 291 155 707 155 59 0 131-8 72-7 159-23z" transform="scale(.01563)"/><path id="DejaVuSans-6f" d="M1959 3097q-462 0-731-361t-269-989 267-989q268-361 733-361 460 0 728 362 269 363 269 988 0 622-269 986-268 364-728 364m0 487q750 0 1178-488 429-487 429-1349 0-859-429-1349Q2709-91 1959-91q-753 0-1180 489-426 490-426 1349 0 862 426 1349 427 488 1180 488" transform="scale(.01563)"/><path id="DejaVuSans-66" d="M2375 4863v-479h-550q-309 0-430-125-120-125-120-450v-309h947v-447h-947V0H697v3053H147v447h550v244q0 584 272 851 272 268 862 268z" transform="scale(.01563)"/><path id="DejaVuSans-6e" d="M3513 2113V0h-575v2094q0 497-194 743-194 247-581 247-466 0-735-297-269-296-269-809V0H581v3500h578v-544q207 316 486 472 280 156 646 156 603 0 912-373 310-373 310-1098" transform="scale(.01563)"/><path id="DejaVuSans-73" d="M2834 3397v-544q-243 125-506 187-262 63-544 63-428 0-642-131t-214-394q0-200 153-314t616-217l197-44q612-131 870-370t258-667q0-488-386-773Q2250-91 1575-91q-281 0-586 55T347 128v594q319-166 628-249 309-82 613-82 406 0 624 139 219 139 219 392 0 234-158 359-157 125-692 241l-200 47q-534 112-772 345-237 233-237 639 0 494 350 762 350 269 994 269 318 0 599-47 282-46 519-140" transform="scale(.01563)"/></defs><use xlink:href="#DejaVuSans-4e"/><use xlink:href="#DejaVuSans-75" x="74.805"/><use xlink:href="#DejaVuSans-6d" x="138.184"/><use xlink:href="#DejaVuSans-62" x="235.596"/><use xlink:href="#DejaVuSans-65" x="299.072"/><use xlink:href="#DejaVuSans-72" x="360.596"/><use xlink:href="#DejaVuSans-6f" x="433.496"/><use xlink:href="#DejaVuSans-66" x="494.678"/><use xlink:href="#DejaVuSans-72" x="561.67"/><use xlink:href="#DejaVuSans-75" x="602.783"/><use xlink:href="#DejaVuSans-6e" x="666.162"/><use xlink:href="#DejaVuSans-73" x="729.541"/></g></g><g id="matplotlib.axis_2"><g id="ytick_1"><g id="line2d_3"><defs><path id="mabb4946d24" d="M0 0h-3.5" style="stroke:#000;stroke-width:.8"/></defs><use xlink:href="#mabb4946d24" x="40.603" y="112.142" style="stroke:#000;stroke-width:.8"/></g><use xlink:href="#DejaVuSans-30" id="text_4" transform="matrix(.1 0 0 -.1 27.24 115.94)"/></g><g id="ytick_2"><use xlink:href="#mabb4946d24" id="line2d_4" x="40.603" y="87.272" style="stroke:#000;stroke-width:.8"/><use xlink:href="#DejaVuSans-35" id="text_5" transform="matrix(.1 0 0 -.1 27.24 91.072)"/></g><g id="ytick_3"><use xlink:href="#mabb4946d24" id="line2d_5" x="40.603" y="62.403" style="stroke:#000;stroke-width:.8"/><g id="text_6" transform="matrix(.1 0 0 -.1 20.878 66.202)"><use xlink:href="#DejaVuSans-31"/><use xlink:href="#DejaVuSans-30" x="63.623"/></g></g><g id="ytick_4"><use xlink:href="#mabb4946d24" id="line2d_6" x="40.603" y="37.534" style="stroke:#000;stroke-width:.8"/><g id="text_7" transform="matrix(.1 0 0 -.1 20.878 41.333)"><use xlink:href="#DejaVuSans-31"/><use xlink:href="#DejaVuSans-35" x="63.623"/></g></g><g id="ytick_5"><use xlink:href="#mabb4946d24" id="line2d_7" x="40.603" y="12.665" style="stroke:#000;stroke-width:.8"/><g id="text_8" transform="matrix(.1 0 0 -.1 20.878 16.464)"><defs><path id="DejaVuSans-32" d="M1228 531h2203V0H469v531q359 372 979 998 621 627 780 809 303 340 423 576 121 236 121 464 0 372-261 606-261 235-680 235-297 0-627-103-329-103-704-313v638q381 153 712 231 332 78 607 78 725 0 1156-363 431-362 431-968 0-288-108-546-107-257-392-607-78-91-497-524-418-433-1181-1211" transform="scale(.01563)"/></defs><use xlink:href="#DejaVuSans-32"/><use xlink:href="#DejaVuSans-30" x="63.623"/></g></g><g id="text_9" transform="matrix(0 -.1 -.1 0 14.798 91.272)"><defs><path id="DejaVuSans-44" d="M1259 4147V519h763q966 0 1414 437 448 438 448 1382 0 937-448 1373t-1414 436zm-631 519h1297q1356 0 1990-564 635-564 635-1764 0-1207-638-1773Q3275 0 1925 0H628z" transform="scale(.01563)"/><path id="DejaVuSans-61" d="M2194 1759q-697 0-966-159t-269-544q0-306 202-486 202-179 548-179 479 0 768 339t289 901v128zm1147 238V0h-575v531q-197-318-491-470T1556-91q-537 0-855 302-317 302-317 808 0 590 395 890 396 300 1180 300h807v57q0 397-261 614t-733 217q-300 0-585-72-284-72-546-216v532q315 122 612 182 297 61 578 61 760 0 1135-394 375-393 375-1193" transform="scale(.01563)"/><path id="DejaVuSans-74" d="M1172 4494v-994h1184v-447H1172V1153q0-428 117-550t477-122h590V0h-590q-666 0-919 248-253 249-253 905v1900H172v447h422v994z" transform="scale(.01563)"/><path id="DejaVuSans-69" d="M603 3500h575V0H603zm0 1363h575v-729H603z" transform="scale(.01563)"/><path id="DejaVuSans-28" d="M1984 4856q-418-718-622-1422-203-703-203-1425 0-721 205-1429t620-1424h-500Q1016-109 783 600T550 2009q0 697 231 1403 232 707 703 1444z" transform="scale(.01563)"/><path id="DejaVuSans-29" d="M513 4856h500q468-737 701-1444 233-706 233-1403 0-700-233-1409T1013-844H513q415 716 620 1424t205 1429q0 722-205 1425-205 704-620 1422" transform="scale(.01563)"/></defs><use xlink:href="#DejaVuSans-44"/><use xlink:href="#DejaVuSans-75" x="77.002"/><use xlink:href="#DejaVuSans-72" x="140.381"/><use xlink:href="#DejaVuSans-61" x="181.494"/><use xlink:href="#DejaVuSans-74" x="242.773"/><use xlink:href="#DejaVuSans-69" x="281.982"/><use xlink:href="#DejaVuSans-6f" x="309.766"/><use xlink:href="#DejaVuSans-6e" x="370.947"/><use xlink:href="#DejaVuSans-28" x="466.113"/><use xlink:href="#DejaVuSans-73" x="505.127"/><use xlink:href="#DejaVuSans-29" x="557.227"/></g></g><g id="LineCollection_1"><path d="M77.136 110.454v-.258M174.556 108.477v-.777" clip-path="url(#p218aa491db)" style="fill:none;stroke:#000"/></g><g id="line2d_8"><defs><path id="mbad2eb2be7" d="M3 0h-6" style="stroke:#000"/></defs><g clip-path="url(#p218aa491db)"><use xlink:href="#mbad2eb2be7" x="77.136" y="110.454" style="stroke:#000"/><use xlink:href="#mbad2eb2be7" x="174.556" y="108.477" style="stroke:#000"/></g></g><g id="line2d_9" clip-path="url(#p218aa491db)"><use xlink:href="#mbad2eb2be7" x="77.136" y="110.196" style="stroke:#000"/><use xlink:href="#mbad2eb2be7" x="174.556" y="107.7" style="stroke:#000"/></g><g id="LineCollection_2"><path d="M101.49 70.392v-6.274M198.91 28.286V15.608" clip-path="url(#p218aa491db)" style="fill:none;stroke:#000"/></g><g id="line2d_10" clip-path="url(#p218aa491db)"><use xlink:href="#mbad2eb2be7" x="101.491" y="70.392" style="stroke:#000"/><use xlink:href="#mbad2eb2be7" x="198.911" y="28.286" style="stroke:#000"/></g><g id="line2d_11" clip-path="url(#p218aa491db)"><use xlink:href="#mbad2eb2be7" x="101.491" y="64.118" style="stroke:#000"/><use xlink:href="#mbad2eb2be7" x="198.911" y="15.608" style="stroke:#000"/></g><path id="patch_7" d="M40.603 112.142V10.782" style="fill:none;stroke:#000;stroke-width:.8;stroke-linejoin:miter;stroke-linecap:square"/><path id="patch_8" d="M235.443 112.142V10.782" style="fill:none;stroke:#000;stroke-width:.8;stroke-linejoin:miter;stroke-linecap:square"/><path id="patch_9" d="M40.603 112.142h194.84" style="fill:none;stroke:#000;stroke-width:.8;stroke-linejoin:miter;stroke-linecap:square"/><path id="patch_10" d="M40.603 10.782h194.84" style="fill:none;stroke:#000;stroke-width:.8;stroke-linejoin:miter;stroke-linecap:square"/><g id="legend_1"><path id="patch_11" d="M59.304 218.638h157.439q2 0 2-2v-13.679q0-2-2-2H59.303q-2 0-2 2v13.679q0 2 2 2z" style="fill:#fff;opacity:.8;stroke:#ccc;stroke-linejoin:miter"/><path id="patch_12" d="M61.304 212.558h20v-7h-20z" style="fill:#006ba4"/><g id="text_10" transform="matrix(.1 0 0 -.1 89.304 212.558)"><defs><path id="DejaVuSans-4d" d="M628 4666h941l1190-3175 1197 3175h941V0h-616v4097L3078 897h-634L1241 4097V0H628z" transform="scale(.01563)"/><path id="DejaVuSans-4c" d="M628 4666h631V531h2272V0H628z" transform="scale(.01563)"/><path id="DejaVuSans-71" d="M947 1747q0-634 261-995t717-361 718 361q263 361 263 995t-263 995q-262 361-718 361t-717-361-261-995M2906 525q-181-312-458-464-276-152-664-152-634 0-1033 506-398 507-398 1332t398 1331q399 506 1033 506 388 0 664-152 277-151 458-463v531h575v-4831h-575z" transform="scale(.01563)"/></defs><use xlink:href="#DejaVuSans-4d"/><use xlink:href="#DejaVuSans-4c" x="86.279"/><use xlink:href="#DejaVuSans-74" x="141.992"/><use xlink:href="#DejaVuSans-72" x="181.201"/><use xlink:href="#DejaVuSans-61" x="222.314"/><use xlink:href="#DejaVuSans-71" x="283.594"/></g><path id="patch_13" d="M144.011 212.558h20v-7h-20z" style="fill:#ff800e"/><g id="text_11" transform="matrix(.1 0 0 -.1 172.011 212.558)"><defs><path id="DejaVuSans-70" d="M1159 525v-1856H581v4831h578v-531q182 312 458 463 277 152 661 152 638 0 1036-506 399-506 399-1331T3314 415Q2916-91 2278-91q-384 0-661 152-276 152-458 464m1957 1222q0 634-261 995t-717 361q-457 0-718-361t-261-995 261-995 718-361q456 0 717 361t261 995" transform="scale(.01563)"/></defs><use xlink:href="#DejaVuSans-4e"/><use xlink:href="#DejaVuSans-65" x="74.805"/><use xlink:href="#DejaVuSans-70" x="136.328"/><use xlink:href="#DejaVuSans-74" x="199.805"/><use xlink:href="#DejaVuSans-75" x="239.014"/><use xlink:href="#DejaVuSans-6e" x="302.393"/><use xlink:href="#DejaVuSans-65" x="365.771"/></g></g></g><g id="axes_2"><path id="patch_14" d="M277.003 112.142h194.84V10.782h-194.84z" style="fill:#fff"/><path id="patch_15" d="M301.358 112.142h24.355v-2.145h-24.355z" clip-path="url(#p389ed6bb7c)" style="fill:#006ba4"/><path id="patch_16" d="M398.778 112.142h24.355v-3.824h-24.355z" clip-path="url(#p389ed6bb7c)" style="fill:#006ba4"/><path id="patch_17" d="M325.713 112.142h24.355V64.419h-24.355z" clip-path="url(#p389ed6bb7c)" style="fill:#ff800e"/><path id="patch_18" d="M423.133 112.142h24.355v-89.62h-24.355z" clip-path="url(#p389ed6bb7c)" style="fill:#ff800e"/><g id="matplotlib.axis_3"><g id="xtick_3"><use xlink:href="#m836f2f87ed" id="line2d_12" x="325.713" y="112.142" style="stroke:#000;stroke-width:.8"/><g id="text_12" transform="matrix(.1 0 0 -.1 316.17 126.74)"><use xlink:href="#DejaVuSans-35"/><use xlink:href="#DejaVuSans-30" x="63.623"/><use xlink:href="#DejaVuSans-30" x="127.246"/></g></g><g id="xtick_4"><use xlink:href="#m836f2f87ed" id="line2d_13" x="423.133" y="112.142" style="stroke:#000;stroke-width:.8"/><g id="text_13" transform="matrix(.1 0 0 -.1 410.408 126.74)"><use xlink:href="#DejaVuSans-31"/><use xlink:href="#DejaVuSans-30" x="63.623"/><use xlink:href="#DejaVuSans-30" x="127.246"/><use xlink:href="#DejaVuSans-30" x="190.869"/></g></g><g id="text_14" transform="matrix(.1 0 0 -.1 330.077 140.418)"><defs><path id="DejaVuSans-76" d="M191 3500h609L1894 563l1094 2937h609L2284 0h-781z" transform="scale(.01563)"/><path id="DejaVuSans-6c" d="M603 4863h575V0H603z" transform="scale(.01563)"/></defs><use xlink:href="#DejaVuSans-4e"/><use xlink:href="#DejaVuSans-75" x="74.805"/><use xlink:href="#DejaVuSans-6d" x="138.184"/><use xlink:href="#DejaVuSans-62" x="235.596"/><use xlink:href="#DejaVuSans-65" x="299.072"/><use xlink:href="#DejaVuSans-72" x="360.596"/><use xlink:href="#DejaVuSans-6f" x="433.496"/><use xlink:href="#DejaVuSans-66" x="494.678"/><use xlink:href="#DejaVuSans-76" x="561.67"/><use xlink:href="#DejaVuSans-61" x="620.85"/><use xlink:href="#DejaVuSans-6c" x="682.129"/><use xlink:href="#DejaVuSans-75" x="709.912"/><use xlink:href="#DejaVuSans-65" x="773.291"/><use xlink:href="#DejaVuSans-73" x="834.814"/></g></g><g id="matplotlib.axis_4"><g id="ytick_6"><use xlink:href="#mabb4946d24" id="line2d_14" x="277.003" y="112.142" style="stroke:#000;stroke-width:.8"/><use xlink:href="#DejaVuSans-30" id="text_15" transform="matrix(.1 0 0 -.1 263.64 115.94)"/></g><g id="ytick_7"><use xlink:href="#mabb4946d24" id="line2d_15" x="277.003" y="86.856" style="stroke:#000;stroke-width:.8"/><use xlink:href="#DejaVuSans-35" id="text_16" transform="matrix(.1 0 0 -.1 263.64 90.655)"/></g><g id="ytick_8"><use xlink:href="#mabb4946d24" id="line2d_16" x="277.003" y="61.57" style="stroke:#000;stroke-width:.8"/><g id="text_17" transform="matrix(.1 0 0 -.1 257.278 65.37)"><use xlink:href="#DejaVuSans-31"/><use xlink:href="#DejaVuSans-30" x="63.623"/></g></g><g id="ytick_9"><use xlink:href="#mabb4946d24" id="line2d_17" x="277.003" y="36.285" style="stroke:#000;stroke-width:.8"/><g id="text_18" transform="matrix(.1 0 0 -.1 257.278 40.084)"><use xlink:href="#DejaVuSans-31"/><use xlink:href="#DejaVuSans-35" x="63.623"/></g></g><g id="ytick_10"><use xlink:href="#mabb4946d24" id="line2d_18" x="277.003" y="10.999" style="stroke:#000;stroke-width:.8"/><g id="text_19" transform="matrix(.1 0 0 -.1 257.278 14.798)"><use xlink:href="#DejaVuSans-32"/><use xlink:href="#DejaVuSans-30" x="63.623"/></g></g></g><g id="LineCollection_3"><path d="M313.536 110.304v-.614M410.956 108.693v-.75" clip-path="url(#p389ed6bb7c)" style="fill:none;stroke:#000"/></g><g id="line2d_19" clip-path="url(#p389ed6bb7c)"><use xlink:href="#mbad2eb2be7" x="313.536" y="110.304" style="stroke:#000"/><use xlink:href="#mbad2eb2be7" x="410.956" y="108.693" style="stroke:#000"/></g><g id="line2d_20" clip-path="url(#p389ed6bb7c)"><use xlink:href="#mbad2eb2be7" x="313.536" y="109.69" style="stroke:#000"/><use xlink:href="#mbad2eb2be7" x="410.956" y="107.943" style="stroke:#000"/></g><g id="LineCollection_4"><path d="M337.89 68.102v-7.366M435.31 29.435V15.608" clip-path="url(#p389ed6bb7c)" style="fill:none;stroke:#000"/></g><g id="line2d_21" clip-path="url(#p389ed6bb7c)"><use xlink:href="#mbad2eb2be7" x="337.891" y="68.102" style="stroke:#000"/><use xlink:href="#mbad2eb2be7" x="435.311" y="29.435" style="stroke:#000"/></g><g id="line2d_22" clip-path="url(#p389ed6bb7c)"><use xlink:href="#mbad2eb2be7" x="337.891" y="60.736" style="stroke:#000"/><use xlink:href="#mbad2eb2be7" x="435.311" y="15.608" style="stroke:#000"/></g><path id="patch_19" d="M277.003 112.142V10.782" style="fill:none;stroke:#000;stroke-width:.8;stroke-linejoin:miter;stroke-linecap:square"/><path id="patch_20" d="M471.843 112.142V10.782" style="fill:none;stroke:#000;stroke-width:.8;stroke-linejoin:miter;stroke-linecap:square"/><path id="patch_21" d="M277.003 112.142h194.84" style="fill:none;stroke:#000;stroke-width:.8;stroke-linejoin:miter;stroke-linecap:square"/><path id="patch_22" d="M277.003 10.782h194.84" style="fill:none;stroke:#000;stroke-width:.8;stroke-linejoin:miter;stroke-linecap:square"/><g id="legend_2"><path id="patch_23" d="M295.704 218.638h157.439q2 0 2-2v-13.679q0-2-2-2h-157.44q-2 0-2 2v13.679q0 2 2 2z" style="fill:#fff;opacity:.8;stroke:#ccc;stroke-linejoin:miter"/><path id="patch_24" d="M297.704 212.558h20v-7h-20z" style="fill:#006ba4"/><g id="text_20" transform="matrix(.1 0 0 -.1 325.704 212.558)"><use xlink:href="#DejaVuSans-4d"/><use xlink:href="#DejaVuSans-4c" x="86.279"/><use xlink:href="#DejaVuSans-74" x="141.992"/><use xlink:href="#DejaVuSans-72" x="181.201"/><use xlink:href="#DejaVuSans-61" x="222.314"/><use xlink:href="#DejaVuSans-71" x="283.594"/></g><path id="patch_25" d="M380.411 212.558h20v-7h-20z" style="fill:#ff800e"/><g id="text_21" transform="matrix(.1 0 0 -.1 408.411 212.558)"><use xlink:href="#DejaVuSans-4e"/><use xlink:href="#DejaVuSans-65" x="74.805"/><use xlink:href="#DejaVuSans-70" x="136.328"/><use xlink:href="#DejaVuSans-74" x="199.805"/><use xlink:href="#DejaVuSans-75" x="239.014"/><use xlink:href="#DejaVuSans-6e" x="302.393"/><use xlink:href="#DejaVuSans-65" x="365.771"/></g></g></g><g id="axes_3"><path id="patch_26" d="M513.403 112.142h194.84V10.782h-194.84z" style="fill:#fff"/><path id="patch_27" d="M537.758 112.142h48.71v-3.904h-48.71z" clip-path="url(#p3147c7035c)" style="fill:#006ba4"/><path id="patch_28" d="M635.178 112.142h48.71V22.304h-48.71z" clip-path="url(#p3147c7035c)" style="fill:#006ba4"/><g id="matplotlib.axis_5"><g id="xtick_5"><use xlink:href="#m836f2f87ed" id="line2d_23" x="562.113" y="112.142" style="stroke:#000;stroke-width:.8"/><g id="text_22" transform="scale(.1 -.1)rotate(45 4558.238 5915.45)"><use xlink:href="#DejaVuSans-4d"/><use xlink:href="#DejaVuSans-4c" x="86.279"/><use xlink:href="#DejaVuSans-74" x="141.992"/><use xlink:href="#DejaVuSans-72" x="181.201"/><use xlink:href="#DejaVuSans-61" x="222.314"/><use xlink:href="#DejaVuSans-71" x="283.594"/></g></g><g id="xtick_6"><use xlink:href="#m836f2f87ed" id="line2d_24" x="659.533" y="112.142" style="stroke:#000;stroke-width:.8"/><g id="text_23" transform="scale(.1 -.1)rotate(45 5099.64 7028.805)"><use xlink:href="#DejaVuSans-4e"/><use xlink:href="#DejaVuSans-65" x="74.805"/><use xlink:href="#DejaVuSans-70" x="136.328"/><use xlink:href="#DejaVuSans-74" x="199.805"/><use xlink:href="#DejaVuSans-75" x="239.014"/><use xlink:href="#DejaVuSans-6e" x="302.393"/><use xlink:href="#DejaVuSans-65" x="365.771"/></g></g><g id="text_24" transform="matrix(.1 0 0 -.1 592.07 167.799)"><defs><path id="DejaVuSans-68" d="M3513 2113V0h-575v2094q0 497-194 743-194 247-581 247-466 0-735-297-269-296-269-809V0H581v4863h578V2956q207 316 486 472 280 156 646 156 603 0 912-373 310-373 310-1098" transform="scale(.01563)"/><path id="DejaVuSans-64" d="M2906 2969v1894h575V0h-575v525q-181-312-458-464-276-152-664-152-634 0-1033 506-398 507-398 1332t398 1331q399 506 1033 506 388 0 664-152 277-151 458-463M947 1747q0-634 261-995t717-361 718 361q263 361 263 995t-263 995q-262 361-718 361t-717-361-261-995" transform="scale(.01563)"/></defs><use xlink:href="#DejaVuSans-4d"/><use xlink:href="#DejaVuSans-65" x="86.279"/><use xlink:href="#DejaVuSans-74" x="147.803"/><use xlink:href="#DejaVuSans-68" x="187.012"/><use xlink:href="#DejaVuSans-6f" x="250.391"/><use xlink:href="#DejaVuSans-64" x="311.572"/></g></g><g id="matplotlib.axis_6"><g id="ytick_11"><use xlink:href="#mabb4946d24" id="line2d_25" x="513.403" y="112.142" style="stroke:#000;stroke-width:.8"/><use xlink:href="#DejaVuSans-30" id="text_25" transform="matrix(.1 0 0 -.1 500.04 115.94)"/></g><g id="ytick_12"><use xlink:href="#mabb4946d24" id="line2d_26" x="513.403" y="79.062" style="stroke:#000;stroke-width:.8"/><use xlink:href="#DejaVuSans-35" id="text_26" transform="matrix(.1 0 0 -.1 500.04 82.862)"/></g><g id="ytick_13"><use xlink:href="#mabb4946d24" id="line2d_27" x="513.403" y="45.983" style="stroke:#000;stroke-width:.8"/><g id="text_27" transform="matrix(.1 0 0 -.1 493.678 49.782)"><use xlink:href="#DejaVuSans-31"/><use xlink:href="#DejaVuSans-30" x="63.623"/></g></g><g id="ytick_14"><use xlink:href="#mabb4946d24" id="line2d_28" x="513.403" y="12.904" style="stroke:#000;stroke-width:.8"/><g id="text_28" transform="matrix(.1 0 0 -.1 493.678 16.703)"><use xlink:href="#DejaVuSans-31"/><use xlink:href="#DejaVuSans-35" x="63.623"/></g></g></g><g id="LineCollection_5"><path d="M562.113 108.597v-.718M659.533 29V15.608" clip-path="url(#p3147c7035c)" style="fill:none;stroke:#000"/></g><g id="line2d_29" clip-path="url(#p3147c7035c)"><use xlink:href="#mbad2eb2be7" x="562.113" y="108.597" style="stroke:#000"/><use xlink:href="#mbad2eb2be7" x="659.533" y="29" style="stroke:#000"/></g><g id="line2d_30" clip-path="url(#p3147c7035c)"><use xlink:href="#mbad2eb2be7" x="562.113" y="107.879" style="stroke:#000"/><use xlink:href="#mbad2eb2be7" x="659.533" y="15.608" style="stroke:#000"/></g><path id="patch_29" d="M513.403 112.142V10.782" style="fill:none;stroke:#000;stroke-width:.8;stroke-linejoin:miter;stroke-linecap:square"/><path id="patch_30" d="M708.243 112.142V10.782" style="fill:none;stroke:#000;stroke-width:.8;stroke-linejoin:miter;stroke-linecap:square"/><path id="patch_31" d="M513.403 112.142h194.84" style="fill:none;stroke:#000;stroke-width:.8;stroke-linejoin:miter;stroke-linecap:square"/><path id="patch_32" d="M513.403 10.782h194.84" style="fill:none;stroke:#000;stroke-width:.8;stroke-linejoin:miter;stroke-linecap:square"/></g></g><defs><clipPath id="p218aa491db"><path d="M40.603 10.782h194.84v101.36H40.603z"/></clipPath><clipPath id="p389ed6bb7c"><path d="M277.003 10.782h194.84v101.36h-194.84z"/></clipPath><clipPath id="p3147c7035c"><path d="M513.403 10.782h194.84v101.36h-194.84z"/></clipPath></defs></svg>