<svg xmlns="http://www.w3.org/2000/svg" viewBox="0 0 73.73 73.61">
  <style>
    path {
    fill: white;
    }
  </style>
<path d="M2.64.35A3.49,3.49,0,0,0,.76,2.07C0,3.39,0,3.52,0,15.55V27.71l4.56-.1,4.53-.1.1-9.18.06-9.16H64.44V27.71l4.56-.1,4.53-.1.1-11.66c.06-10.91,0-11.77-.57-13.12C71.81-.15,74.88.09,37.18,0,11.86,0,3.54.05,2.64.35Z"/><path class="cls-1" d="M20.49,23.22l-6.78,9.09H0v9.25H18.18l2.37-2.91c1.33-1.59,3.38-4.1,4.56-5.58a11.76,11.76,0,0,1,2.48-2.62c.2,0,4.2,5,8.93,11s8.82,11.17,9.08,11.44c.43.46,1.26-.17,7.24-5.42l6.74-5.95,7-.07,7-.1.1-4.56.1-4.52H55L50.53,36.8,46,41.29l-4.46-6.54C39.13,31.12,35,25,32.42,21.14s-4.79-7-4.93-7S24.22,18.23,20.49,23.22Z"/><path class="cls-1" d="M0,57.92C0,71.3.07,71.73,2.05,73c1.09.66,1.59.66,34.63.66,32.12,0,33.61,0,34.7-.63a3.44,3.44,0,0,0,1.75-2.14c.5-1.42.56-2.78.5-13.19L73.53,46,69,45.92l-4.56-.1V64.36H9.25l-.06-9.19L9.09,46l-4.53-.1L0,45.82Z"/>
</svg>