<svg xmlns="http://www.w3.org/2000/svg" viewBox="0 0 132.34 103.8"><style>path{fill:#fff}</style><path d="M36.26.3a3 3 0 0 0-1.61 1.47C34.03 2.9 34 3 34 13.3v10.41l3.9-.09 3.87-.08.09-7.86.06-7.83h47.21v15.86l3.9-.09 3.87-.08.09-10c.06-9.33 0-10.07-.48-11.23C95.4-.12 98.06.07 65.81 0 44.15 0 37.03.05 36.26.3"/><path d="m51.53 19.86-5.8 7.78H34v7.91h15.55l2-2.48c1.14-1.36 2.89-3.51 3.91-4.78a10 10 0 0 1 2.12-2.24c.17 0 3.59 4.3 7.63 9.45s7.55 9.55 7.77 9.78c.37.39 1.08-.14 6.2-4.64l5.76-5.09h6l6-.09.09-3.9.08-3.87h-16l-3.84 3.84-3.87 3.8-3.81-5.6c-2.1-3.11-5.63-8.34-7.84-11.65s-4.1-6-4.21-6-2.82 3.51-6.01 7.78"/><path d="M34 49.55c0 11.45.06 11.82 1.75 12.86.94.59 1.36.59 29.65.59 27.48 0 28.75 0 29.69-.54a3 3 0 0 0 1.49-1.84c.43-1.21.49-2.37.43-11.28l-.09-10-3.87-.08-3.9-.09v15.89H41.92l-.06-7.86-.09-7.83-3.87-.08-3.9-.09ZM0 103.56V81.63l11.26 16-1.34-.3 11.26-15.7v21.93h-3.1V88.71l.17 1.58-7.75 11.08h-.05l-8-11.08.56-1.47v14.74ZM29.66 82.36h3.1v18.19H43.4v3H29.66ZM45.98 82.36h14.13v3h-5.59v18.22H51.4V85.34h-5.42ZM72.77 82.36a10.5 10.5 0 0 1 3.09.44 6.9 6.9 0 0 1 2.44 1.29 5.66 5.66 0 0 1 1.58 2.09A6.9 6.9 0 0 1 80.4 89a9 9 0 0 1-.36 2.5 6.1 6.1 0 0 1-1.22 2.24 6 6 0 0 1-2.23 1.6 8.5 8.5 0 0 1-3.44.62h-3.1v7.57h-3.1V82.36ZM73.15 93a4.7 4.7 0 0 0 2-.37 3.3 3.3 0 0 0 1.25-.93 3.7 3.7 0 0 0 .65-1.23 4.8 4.8 0 0 0 .19-1.25 4.7 4.7 0 0 0-.19-1.24 4 4 0 0 0-.65-1.26 3.2 3.2 0 0 0-1.21-1 4.2 4.2 0 0 0-1.87-.37h-3.24V93Zm3.57 1.87 5.5 8.74h-3.63L73 94.88ZM86.63 103.56l9.36-22.11h.21l9.3 22.11h-3.57l-6.79-17.19 2.23-1.5-7.64 18.69Zm5.71-8h7.57l1 2.66H91.4ZM109.71 93a10.6 10.6 0 0 1 .83-4.16 11.6 11.6 0 0 1 2.31-3.48 10.8 10.8 0 0 1 3.44-2.36 11 11 0 0 1 8.42 0 11.2 11.2 0 0 1 3.47 2.37 11.4 11.4 0 0 1 2.35 3.48 10.3 10.3 0 0 1 .87 4.15 10.4 10.4 0 0 1-.85 4.21 10.9 10.9 0 0 1-2.36 3.45 11.2 11.2 0 0 1-3.49 2.34 10.5 10.5 0 0 1-4.2.84 10.9 10.9 0 0 1-4.21-.82 10.6 10.6 0 0 1-3.44-2.3 10.66 10.66 0 0 1-3.14-7.7Zm3.22 0a7.8 7.8 0 0 0 .58 3 7.7 7.7 0 0 0 1.64 2.49 7.9 7.9 0 0 0 2.44 1.68 7.4 7.4 0 0 0 3 .62 7.1 7.1 0 0 0 2.95-.62 7.8 7.8 0 0 0 2.42-1.67 7.6 7.6 0 0 0 1.62-2.5 7.9 7.9 0 0 0 .59-3 7.8 7.8 0 0 0-.6-3 8.3 8.3 0 0 0-1.63-2.47 7.5 7.5 0 0 0-5.44-2.29 7.35 7.35 0 0 0-3 .61 7.6 7.6 0 0 0-2.42 1.7 7.5 7.5 0 0 0-1.6 2.48 8.1 8.1 0 0 0-.55 2.97m12.25 7.54h7.22v3h-11.34Z"/></svg>