<svg xmlns="http://www.w3.org/2000/svg" viewBox="0 0 377.04 73.61">
  <style>
    path {
    fill: white;
    }
  </style>
<path d="M2.64.35A3.49,3.49,0,0,0,.76,2.07C0,3.39,0,3.52,0,15.55V27.71l4.56-.1,4.53-.1.1-9.18.06-9.16H64.44V27.71l4.56-.1,4.53-.1.1-11.66c.06-10.91,0-11.77-.57-13.12C71.81-.15,74.88.09,37.18,0,11.86,0,3.54.05,2.64.35Z"/><path d="M20.49,23.22l-6.78,9.09H0v9.25H18.18l2.37-2.91c1.33-1.59,3.38-4.1,4.56-5.58a11.76,11.76,0,0,1,2.48-2.62c.2,0,4.2,5,8.93,11s8.82,11.17,9.08,11.44c.43.46,1.26-.17,7.24-5.42l6.74-5.95,7-.07,7-.1.1-4.56.1-4.52H55L50.53,36.8,46,41.29l-4.46-6.54C39.13,31.12,35,25,32.42,21.14s-4.79-7-4.93-7S24.22,18.23,20.49,23.22Z"/><path d="M0,57.92C0,71.3.07,71.73,2.05,73c1.09.66,1.59.66,34.63.66,32.12,0,33.61,0,34.7-.63a3.44,3.44,0,0,0,1.75-2.14c.5-1.42.56-2.78.5-13.19L73.53,46,69,45.92l-4.56-.1V64.36H9.25l-.06-9.19L9.09,46l-4.53-.1L0,45.82Z"/><path d="M96.49,59.71V13.21h.06l23.87,33.91-2.85-.62,23.87-33.29h.06v46.5h-6.57V28.21l.37,3.35-16.55,23.5h-.13L101.7,31.56l1.17-3.1V59.71Z"/><path d="M159.36,14.76h6.57V53.32h22.51v6.39H159.36Z"/><path d="M194,14.76h30v6.32H212.06V59.71h-6.64V21.08H194Z"/><path d="M250.74,14.76a22.11,22.11,0,0,1,6.55.93,14.85,14.85,0,0,1,5.17,2.73,12.06,12.06,0,0,1,3.35,4.43,14.6,14.6,0,0,1,1.18,6,18.65,18.65,0,0,1-.78,5.31,12.75,12.75,0,0,1-2.57,4.74,13.15,13.15,0,0,1-4.74,3.41,18,18,0,0,1-7.29,1.3H245V59.71h-6.57V14.76Zm.81,22.44a10.09,10.09,0,0,0,4.19-.77,7.08,7.08,0,0,0,2.66-2,7.49,7.49,0,0,0,1.37-2.6,9.85,9.85,0,0,0,.4-2.64,9.84,9.84,0,0,0-.4-2.63,8.27,8.27,0,0,0-1.37-2.67,6.92,6.92,0,0,0-2.57-2,9.09,9.09,0,0,0-4-.78H245V37.2Zm7.56,4,11.66,18.54h-7.69L251.24,41.29Z"/><path d="M280.13,59.71,300,12.84h.44l19.71,46.87h-7.56L298.17,23.25l4.72-3.16L286.7,59.71Zm12.09-16.87h16.06l2.17,5.65H290.24Z"/><path d="M329.05,37.26a22.21,22.21,0,0,1,1.77-8.8,23.93,23.93,0,0,1,4.89-7.38,22.58,22.58,0,0,1,7.29-5,23.05,23.05,0,0,1,17.86,0,23.34,23.34,0,0,1,7.34,5,23.88,23.88,0,0,1,5,7.38,21.89,21.89,0,0,1,1.8,8.8,22.2,22.2,0,0,1-1.8,8.93,22.92,22.92,0,0,1-5,7.32,23.8,23.8,0,0,1-7.35,4.93,22.25,22.25,0,0,1-8.89,1.76A22.85,22.85,0,0,1,343,58.47a22.61,22.61,0,0,1-12.18-12.15A22.88,22.88,0,0,1,329.05,37.26Zm6.82,0a16.58,16.58,0,0,0,1.24,6.42A16.22,16.22,0,0,0,340.58,49a16.77,16.77,0,0,0,5.18,3.57,15.65,15.65,0,0,0,6.35,1.3,15.34,15.34,0,0,0,6.27-1.3A16.72,16.72,0,0,0,363.49,49a16.12,16.12,0,0,0,3.44-5.24,16.73,16.73,0,0,0,1.24-6.48,16,16,0,0,0-1.27-6.38,17.26,17.26,0,0,0-3.44-5.24,16.09,16.09,0,0,0-17.89-3.56,15.84,15.84,0,0,0-5.14,3.59,16,16,0,0,0-3.38,5.27A16.9,16.9,0,0,0,335.87,37.26Zm26,16H377v6.45H353.11Z"/>
</svg>