<svg xmlns="http://www.w3.org/2000/svg"
viewBox="0 0 132.34 103.8">
  <style>
    path {
    fill: black;
    }
  </style>
<path d="M60.86.3a3,3,0,0,0-1.61,1.47C58.63,2.9,58.6,3,58.6,13.3V23.71l3.9-.09,3.87-.08.09-7.86.06-7.83h47.21V23.71l3.9-.09,3.87-.08.09-10c.06-9.33,0-10.07-.48-11.23C120-.12,122.66.07,90.41,0,68.75,0,61.63.05,60.86.3Z" transform="translate(-24.6)"/>
<path d="M76.13,19.86l-5.8,7.78H58.6v7.91H74.15l2-2.48c1.14-1.36,2.89-3.51,3.91-4.78a9.93,9.93,0,0,1,2.12-2.24c.17,0,3.59,4.3,7.63,9.45s7.55,9.55,7.77,9.78c.37.39,1.08-.14,6.2-4.64l5.76-5.09,6,0,6-.09.09-3.9.08-3.87h-16l-3.84,3.84L98,35.33l-3.81-5.6c-2.1-3.11-5.63-8.34-7.84-11.65s-4.1-6-4.21-6S79.32,15.59,76.13,19.86Z" transform="translate(-24.6)"/>
<path d="M58.6,49.55c0,11.45.06,11.82,1.75,12.86C61.29,63,61.71,63,90,63c27.48,0,28.75,0,29.69-.54a3,3,0,0,0,1.49-1.84c.43-1.21.49-2.37.43-11.28l-.09-10-3.87-.08-3.9-.09V55.06H66.52l-.06-7.86-.09-7.83-3.87-.08-3.9-.09Z" transform="translate(-24.6)"/>
<path d="M24.6,103.56V81.63h0l11.26,16-1.34-.3,11.26-15.7h0v21.93h-3.1V88.71l.17,1.58L35.1,101.37h-.05l-8-11.08.56-1.47v14.74Z" transform="translate(-24.6)"/>
<path d="M54.26,82.36h3.1v18.19H68v3H54.26Z" transform="translate(-24.6)"/>
<path d="M70.58,82.36H84.71v3H79.12v18.22H76V85.34H70.58Z" transform="translate(-24.6)"/>
<path d="M97.37,82.36a10.54,10.54,0,0,1,3.09.44,6.94,6.94,0,0,1,2.44,1.29,5.66,5.66,0,0,1,1.58,2.09A6.93,6.93,0,0,1,105,89a8.94,8.94,0,0,1-.36,2.5,6.13,6.13,0,0,1-1.22,2.24,6,6,0,0,1-2.23,1.6,8.53,8.53,0,0,1-3.44.62h-3.1v7.57h-3.1V82.36ZM97.75,93a4.7,4.7,0,0,0,2-.37,3.28,3.28,0,0,0,1.25-.93,3.65,3.65,0,0,0,.65-1.23,4.81,4.81,0,0,0,.19-1.25,4.74,4.74,0,0,0-.19-1.24,4,4,0,0,0-.65-1.26,3.23,3.23,0,0,0-1.21-1,4.21,4.21,0,0,0-1.87-.37H94.68V93Zm3.57,1.87,5.5,8.74h-3.63L97.6,94.88Z" transform="translate(-24.6)"/>
<path d="M111.23,103.56l9.36-22.11h.21l9.3,22.11h-3.57l-6.79-17.19,2.23-1.5-7.64,18.69Zm5.71-8h7.57l1,2.66H116Z" transform="translate(-24.6)"/>
<path d="M134.31,93a10.62,10.62,0,0,1,.83-4.16,11.62,11.62,0,0,1,2.31-3.48A10.8,10.8,0,0,1,140.89,83a11,11,0,0,1,8.42,0,11.15,11.15,0,0,1,3.47,2.37,11.37,11.37,0,0,1,2.35,3.48A10.29,10.29,0,0,1,156,93a10.42,10.42,0,0,1-.85,4.21,10.87,10.87,0,0,1-2.36,3.45A11.24,11.24,0,0,1,149.3,103a10.5,10.5,0,0,1-4.2.84,10.93,10.93,0,0,1-4.21-.82,10.6,10.6,0,0,1-3.44-2.3,10.66,10.66,0,0,1-3.14-7.7Zm3.22,0a7.81,7.81,0,0,0,.58,3,7.65,7.65,0,0,0,1.64,2.49,7.94,7.94,0,0,0,2.44,1.68,7.36,7.36,0,0,0,3,.62,7.12,7.12,0,0,0,2.95-.62,7.82,7.82,0,0,0,2.42-1.67A7.57,7.57,0,0,0,152.18,96a7.89,7.89,0,0,0,.59-3,7.79,7.79,0,0,0-.6-3,8.29,8.29,0,0,0-1.63-2.47,7.49,7.49,0,0,0-5.44-2.29,7.35,7.35,0,0,0-3,.61,7.63,7.63,0,0,0-2.42,1.7,7.5,7.5,0,0,0-1.6,2.48A8.06,8.06,0,0,0,137.53,93Zm12.25,7.54H157v3H145.66Z" transform="translate(-24.6)"/>
</svg>