<svg xmlns="http://www.w3.org/2000/svg" viewBox="0 0 377.04 73.61"><style>path{fill:#000}</style><path d="M2.64.35A3.5 3.5 0 0 0 .76 2.07C0 3.39 0 3.52 0 15.55v12.16l4.56-.1 4.53-.1.1-9.18.06-9.16h55.19v18.54l4.56-.1 4.53-.1.1-11.66c.06-10.91 0-11.77-.57-13.12C71.81-.15 74.88.09 37.18 0 11.86 0 3.54.05 2.64.35"/><path d="m20.49 23.22-6.78 9.09H0v9.25h18.18l2.37-2.91c1.33-1.59 3.38-4.1 4.56-5.58a11.8 11.8 0 0 1 2.48-2.62c.2 0 4.2 5 8.93 11s8.82 11.17 9.08 11.44c.43.46 1.26-.17 7.24-5.42l6.74-5.95 7-.07 7-.1.1-4.56.1-4.52H55l-4.47 4.53L46 41.29l-4.46-6.54C39.13 31.12 35 25 32.42 21.14s-4.79-7-4.93-7-3.27 4.09-7 9.08"/><path d="M0 57.92C0 71.3.07 71.73 2.05 73c1.09.66 1.59.66 34.63.66 32.12 0 33.61 0 34.7-.63a3.44 3.44 0 0 0 1.75-2.14c.5-1.42.56-2.78.5-13.19l-.1-11.7-4.53-.08-4.56-.1v18.54H9.25l-.06-9.19-.1-9.17-4.53-.1L0 45.82ZM96.49 59.71v-46.5h.06l23.87 33.91-2.85-.62 23.87-33.29h.06v46.5h-6.57v-31.5l.37 3.35-16.55 23.5h-.13l-16.92-23.5 1.17-3.1v31.25ZM159.36 14.76h6.57v38.56h22.51v6.39h-29.08ZM194 14.76h30v6.32h-11.94v38.63h-6.64V21.08H194ZM250.74 14.76a22.1 22.1 0 0 1 6.55.93 14.9 14.9 0 0 1 5.17 2.73 12.06 12.06 0 0 1 3.35 4.43 14.6 14.6 0 0 1 1.18 6 18.7 18.7 0 0 1-.78 5.31 12.75 12.75 0 0 1-2.57 4.74 13.15 13.15 0 0 1-4.74 3.41 18 18 0 0 1-7.29 1.3H245v16.1h-6.57V14.76Zm.81 22.44a10.1 10.1 0 0 0 4.19-.77 7.1 7.1 0 0 0 2.66-2 7.5 7.5 0 0 0 1.37-2.6 9.9 9.9 0 0 0 .4-2.64 9.8 9.8 0 0 0-.4-2.63 8.3 8.3 0 0 0-1.37-2.67 6.9 6.9 0 0 0-2.57-2 9.1 9.1 0 0 0-4-.78H245V37.2Zm7.56 4 11.66 18.54h-7.69l-11.84-18.45ZM280.13 59.71 300 12.84h.44l19.71 46.87h-7.56l-14.42-36.46 4.72-3.16-16.19 39.62Zm12.09-16.87h16.06l2.17 5.65h-20.21ZM329.05 37.26a22.2 22.2 0 0 1 1.77-8.8 23.9 23.9 0 0 1 4.89-7.38 22.6 22.6 0 0 1 7.29-5 23.05 23.05 0 0 1 17.86 0 23.3 23.3 0 0 1 7.34 5 23.9 23.9 0 0 1 5 7.38 21.9 21.9 0 0 1 1.8 8.8 22.2 22.2 0 0 1-1.8 8.93 22.9 22.9 0 0 1-5 7.32 23.8 23.8 0 0 1-7.35 4.93 22.25 22.25 0 0 1-8.89 1.76 22.85 22.85 0 0 1-8.96-1.73 22.6 22.6 0 0 1-12.18-12.15 22.9 22.9 0 0 1-1.77-9.06m6.82 0a16.6 16.6 0 0 0 1.24 6.42 16.2 16.2 0 0 0 3.47 5.32 16.8 16.8 0 0 0 5.18 3.57 15.65 15.65 0 0 0 6.35 1.3 15.3 15.3 0 0 0 6.27-1.3 16.7 16.7 0 0 0 5.11-3.57 16.1 16.1 0 0 0 3.44-5.24 16.7 16.7 0 0 0 1.24-6.48 16 16 0 0 0-1.27-6.38 17.3 17.3 0 0 0-3.44-5.24 16.09 16.09 0 0 0-17.89-3.56 15.8 15.8 0 0 0-5.14 3.59 16 16 0 0 0-3.38 5.27 16.9 16.9 0 0 0-1.18 6.3m26 16H377v6.45h-23.89Z"/></svg>